<?xml version="1.0" encoding="iso-8859-1"?>
<!-- Generator: Adobe Illustrator 19.0.0, SVG Export Plug-In . SVG Version: 6.00 Build 0)  -->
<svg version="1.1" id="Layer_1" xmlns="http://www.w3.org/2000/svg" xmlns:xlink="http://www.w3.org/1999/xlink" x="0px" y="0px"
	 viewBox="0 0 512.003 512.003" style="enable-background:new 0 0 512.003 512.003;" xml:space="preserve">
<g>
	<g>
		<path style="fill:#4482C3;" d="M8.828,240.22c-4.873,0-8.828-3.955-8.828-8.828v-13.974c0-3.769,2.392-7.124,5.95-8.351
			c36.008-12.412,67.098-23.128,107.352-30.499c4.838-0.821,9.401,2.304,10.275,7.097s-2.304,9.393-7.097,10.275
			c-36.732,6.718-65.969,16.463-98.825,27.763v7.689C17.655,236.265,13.7,240.22,8.828,240.22"/>
		<path style="fill:#4482C3;" d="M503.172,240.22c-4.873,0-8.828-3.955-8.828-8.828v-7.689
			c-32.856-11.299-62.084-21.045-98.825-27.763c-4.793-0.883-7.971-5.482-7.097-10.275c0.883-4.793,5.455-7.927,10.275-7.097
			c40.254,7.371,71.353,18.088,107.352,30.499c3.558,1.227,5.95,4.582,5.95,8.351v13.974C512,236.265,508.045,240.22,503.172,240.22
			"/>
		<path style="fill:#4482C3;" d="M397.116,196.082c-0.521,0-1.051-0.044-1.589-0.141c-91.286-16.578-187.772-16.578-279.058,0
			c-4.802,0.865-9.393-2.313-10.266-7.106c-0.865-4.802,2.313-9.393,7.115-10.266c93.343-16.958,192.026-16.958,285.369,0
			c4.793,0.874,7.98,5.464,7.106,10.266C405.017,193.098,401.3,196.082,397.116,196.082"/>
		<path style="fill:#4482C3;" d="M258.263,319.668h-4.529c-23.031,0-41.869-18.847-41.869-41.878v-22.175
			c0-23.031,18.838-41.878,41.869-41.878h4.529c23.031,0,41.878,18.847,41.878,41.878v22.175
			C300.141,300.821,281.294,319.668,258.263,319.668"/>
	</g>
	<path style="fill:#285680;" d="M211.862,277.797v-22.184c0-7.036,1.924-13.577,5.023-19.412
		c-11.829-11.97-50.741-47.113-101.994-48.949c0,0-27.78,30.57-26.58,79.448c-1.201,48.887,26.58,79.448,26.58,79.448
		c51.253-1.827,90.165-36.97,101.994-48.94C213.786,291.374,211.862,284.824,211.862,277.797"/>
	<g>
		<path style="fill:#4482C3;" d="M88.315,266.702c-0.327-13.206,1.492-25.017,4.281-35.31H0.004v70.621h92.593
			C89.807,291.72,87.988,279.908,88.315,266.702"/>
		<path style="fill:#4482C3;" d="M419.401,231.392c2.79,10.293,4.608,22.104,4.281,35.31c0.327,13.206-1.492,25.017-4.281,35.31
			h92.601v-70.621H419.401z"/>
	</g>
	<g>
		<path style="fill:#285680;" d="M300.138,277.792v-22.184c0-7.036-1.924-13.577-5.023-19.412
			c11.829-11.97,50.741-47.113,101.994-48.94c0,0,27.78,30.561,26.58,79.448c1.201,48.878-26.58,79.448-26.58,79.448
			c-51.253-1.836-90.165-36.979-101.994-48.949C298.214,291.369,300.138,284.828,300.138,277.792"/>
		<path style="fill:#285680;" d="M238.345,293.185c-2.26,0-4.52-0.865-6.241-2.586c-3.452-3.452-3.452-9.031,0-12.482l35.31-35.31
			c3.452-3.452,9.031-3.452,12.482,0c3.452,3.452,3.452,9.031,0,12.482l-35.31,35.31
			C242.865,292.32,240.605,293.185,238.345,293.185"/>
		<path style="fill:#285680;" d="M273.655,293.185c-2.26,0-4.52-0.865-6.241-2.586l-35.31-35.31c-3.452-3.452-3.452-9.031,0-12.482
			c3.452-3.452,9.031-3.452,12.482,0l35.31,35.31c3.452,3.452,3.452,9.031,0,12.482C278.175,292.32,275.915,293.185,273.655,293.185
			"/>
	</g>
</g>
<g>
</g>
<g>
</g>
<g>
</g>
<g>
</g>
<g>
</g>
<g>
</g>
<g>
</g>
<g>
</g>
<g>
</g>
<g>
</g>
<g>
</g>
<g>
</g>
<g>
</g>
<g>
</g>
<g>
</g>
</svg>
