<?xml version="1.0" encoding="iso-8859-1"?>
<!-- Generator: Adobe Illustrator 19.0.0, SVG Export Plug-In . SVG Version: 6.00 Build 0)  -->
<svg version="1.1" id="Layer_1" xmlns="http://www.w3.org/2000/svg" xmlns:xlink="http://www.w3.org/1999/xlink" x="0px" y="0px"
	 viewBox="0 0 512.002 512.002" style="enable-background:new 0 0 512.002 512.002;" xml:space="preserve">
<g>
	<g>
		<path style="fill:#C03A2B;" d="M474.087,282.585c-2.185,0-4.369-0.836-6.033-2.5l-36.207-36.207
			c-3.328-3.337-3.328-8.738,0-12.066c3.337-3.337,8.738-3.337,12.066,0l36.207,36.207c3.337,3.337,3.337,8.73,0,12.066
			C478.457,281.749,476.272,282.585,474.087,282.585"/>
		<path style="fill:#C03A2B;" d="M449.949,306.719c-2.185,0-4.369-0.836-6.033-2.5l-36.207-36.198
			c-3.328-3.337-3.328-8.738,0-12.066c3.337-3.337,8.738-3.337,12.066,0l36.207,36.198c3.337,3.337,3.337,8.73,0,12.066
			C454.318,305.882,452.134,306.719,449.949,306.719"/>
		<path style="fill:#C03A2B;" d="M425.816,330.86c-2.185,0-4.369-0.836-6.033-2.5l-36.207-36.207c-3.328-3.337-3.328-8.738,0-12.066
			c3.337-3.337,8.738-3.337,12.066,0l36.207,36.207c3.337,3.337,3.337,8.73,0,12.066C430.185,330.024,428.001,330.86,425.816,330.86
			"/>
		<path style="fill:#C03A2B;" d="M401.679,354.994c-2.185,0-4.369-0.836-6.033-2.5l-36.207-36.207
			c-3.328-3.337-3.328-8.738,0-12.066c3.337-3.337,8.738-3.337,12.066,0l36.207,36.207c3.337,3.337,3.337,8.73,0,12.066
			C406.048,354.157,403.863,354.994,401.679,354.994"/>
		<path style="fill:#C03A2B;" d="M377.541,379.127c-2.185,0-4.369-0.836-6.033-2.5l-36.207-36.198
			c-3.328-3.337-3.328-8.738,0-12.066c3.337-3.337,8.738-3.337,12.066,0l36.207,36.198c3.337,3.337,3.337,8.73,0,12.066
			C381.91,378.29,379.726,379.127,377.541,379.127"/>
		<path style="fill:#C03A2B;" d="M353.408,403.26c-2.185,0-4.369-0.836-6.033-2.5l-36.207-36.198c-3.328-3.337-3.328-8.738,0-12.066
			c3.337-3.337,8.738-3.337,12.066,0l36.207,36.198c3.337,3.337,3.337,8.73,0,12.066C357.777,402.423,355.593,403.26,353.408,403.26
			"/>
	</g>
	<path style="fill:#9E2C23;" d="M317.204,367.06c-2.185,0-4.369-0.836-6.033-2.5L202.541,255.939
		c-1.596-1.604-2.492-3.772-2.492-6.033V8.566c0-1.852,0.597-3.644,1.707-5.111c1.485-1.988,3.755-3.226,6.221-3.405
		c2.466-0.196,4.898,0.717,6.647,2.466l229.291,229.299c3.337,3.337,3.337,8.738,0,12.066L323.237,364.559
		C321.573,366.223,319.388,367.06,317.204,367.06"/>
	<g>
		<polygon style="fill:#F0C419;" points="281.491,140.777 293.557,213.182 221.152,201.116 209.086,128.711 		"/>
		<polygon style="fill:#F0C419;" points="365.966,225.252 378.032,297.657 305.627,285.591 293.561,213.186 		"/>
	</g>
	<g>
		<path style="fill:#9E2C23;" d="M208.579,512.002c-4.71,0-8.533-3.814-8.533-8.533v-51.2c0-4.719,3.823-8.533,8.533-8.533
			s8.533,3.814,8.533,8.533v51.2C217.112,508.187,213.289,512.002,208.579,512.002"/>
		<path style="fill:#9E2C23;" d="M174.445,512.002c-4.71,0-8.533-3.814-8.533-8.533v-51.2c0-4.719,3.823-8.533,8.533-8.533
			s8.533,3.814,8.533,8.533v51.2C182.979,508.187,179.156,512.002,174.445,512.002"/>
		<path style="fill:#9E2C23;" d="M140.312,512.002c-4.71,0-8.533-3.814-8.533-8.533v-51.2c0-4.719,3.823-8.533,8.533-8.533
			s8.533,3.814,8.533,8.533v51.2C148.845,508.187,145.023,512.002,140.312,512.002"/>
		<path style="fill:#9E2C23;" d="M106.179,512.002c-4.71,0-8.533-3.814-8.533-8.533v-51.2c0-4.719,3.823-8.533,8.533-8.533
			s8.533,3.814,8.533,8.533v51.2C114.712,508.187,110.889,512.002,106.179,512.002"/>
		<path style="fill:#9E2C23;" d="M72.045,512.002c-4.71,0-8.533-3.814-8.533-8.533v-51.2c0-4.719,3.823-8.533,8.533-8.533
			c4.71,0,8.533,3.814,8.533,8.533v51.2C80.579,508.187,76.756,512.002,72.045,512.002"/>
		<path style="fill:#9E2C23;" d="M37.912,512.002c-4.71,0-8.533-3.814-8.533-8.533v-51.2c0-4.719,3.823-8.533,8.533-8.533
			s8.533,3.814,8.533,8.533v51.2C46.445,508.187,42.623,512.002,37.912,512.002"/>
	</g>
	<path style="fill:#C03A2B;" d="M208.579,460.802H37.912c-4.71,0-8.533-3.814-8.533-8.533V8.535c0-4.719,3.823-8.533,8.533-8.533
		h170.667c4.71,0,8.533,3.814,8.533,8.533v443.733C217.112,456.987,213.289,460.802,208.579,460.802"/>
	<g>
		<polygon style="fill:#F0C419;" points="165.912,153.602 123.245,213.335 80.579,153.602 123.245,93.868 		"/>
		<polygon style="fill:#F0C419;" points="165.912,273.068 123.245,332.802 80.579,273.068 123.245,213.335 		"/>
		<polygon style="fill:#F0C419;" points="168.958,396.802 123.245,460.802 77.532,396.802 123.245,332.802 		"/>
		<polygon style="fill:#F0C419;" points="80.579,28.16 123.245,93.867 165.912,28.16 147.625,0 98.866,0 		"/>
	</g>
</g>
<g>
</g>
<g>
</g>
<g>
</g>
<g>
</g>
<g>
</g>
<g>
</g>
<g>
</g>
<g>
</g>
<g>
</g>
<g>
</g>
<g>
</g>
<g>
</g>
<g>
</g>
<g>
</g>
<g>
</g>
</svg>
