<?xml version="1.0" encoding="iso-8859-1"?>
<!-- Generator: Adobe Illustrator 19.0.0, SVG Export Plug-In . SVG Version: 6.00 Build 0)  -->
<svg version="1.1" id="Layer_1" xmlns="http://www.w3.org/2000/svg" xmlns:xlink="http://www.w3.org/1999/xlink" x="0px" y="0px"
	 viewBox="0 0 503.499 503.499" style="enable-background:new 0 0 503.499 503.499;" xml:space="preserve">
<g>
	<g>
		<path style="fill:#325B39;" d="M416.632,373.153c11.568,38.617,11.568,82.519,0,121.492c-109.507,11.802-219.778,11.811-329.763,0
			c-11.524-38.791-11.62-82.701,0-121.492H416.632z"/>
		<path style="fill:#325B39;" d="M312.497,60.746c0,33.549-27.197,60.746-60.746,60.746s-60.746-27.197-60.746-60.746
			S218.202,0,251.751,0S312.497,27.197,312.497,60.746"/>
	</g>
	<path style="fill:#71C285;" d="M407.37,373.153c0.312-5.745,0.581-11.498,0.581-17.356c0-103.276-48.059-224.976-113.612-251.765
		c-10.96,10.787-25.999,17.46-42.591,17.46c-16.601,0-31.622-6.673-42.591-17.46C143.594,130.82,95.544,252.52,95.544,355.797
		c0,5.858,0.278,11.611,0.59,17.356H407.37z"/>
	<path style="fill:#4C8056;" d="M321.175,329.763c0-91.691-10.457-173.264-26.711-225.671c-0.043-0.017-0.087-0.043-0.13-0.061
		c-10.952,10.787-25.99,17.46-42.583,17.46c-16.601,0-31.631-6.673-42.591-17.46c-0.035,0.017-0.078,0.043-0.121,0.061
		c-16.254,52.406-26.711,133.979-26.711,225.671c0,14.753,0.269,29.236,0.79,43.39h137.259
		C320.906,358.999,321.175,344.515,321.175,329.763"/>
	<path style="fill:#71C285;" d="M251.751,347.258c-4.799,0-8.678-3.888-8.678-8.678c0-9.572-7.784-17.356-17.356-17.356
		c-4.799,0-8.678-3.888-8.678-8.678c0-4.79,3.879-8.678,8.678-8.678c10.353,0,19.673,4.556,26.034,11.776
		c6.361-7.22,15.681-11.776,26.034-11.776c4.799,0,8.678,3.888,8.678,8.678c0,4.79-3.879,8.678-8.678,8.678
		c-9.572,0-17.356,7.784-17.356,17.356C260.429,343.371,256.55,347.258,251.751,347.258"/>
	<g>
		<path style="fill:#4C8056;" d="M130.26,407.864H79.832c-0.677,5.736-1.111,11.49-1.336,17.278c0.13,0.009,0.243,0.078,0.364,0.078
			h51.4c4.799,0,8.678-3.888,8.678-8.678C138.938,411.752,135.058,407.864,130.26,407.864"/>
		<path style="fill:#4C8056;" d="M112.904,442.576H78.877c-0.139,0-0.243,0.069-0.373,0.078c0.226,5.788,0.668,11.55,1.354,17.278
			h33.046c4.799,0,8.678-3.888,8.678-8.678S117.703,442.576,112.904,442.576"/>
	</g>
</g>
<g>
</g>
<g>
</g>
<g>
</g>
<g>
</g>
<g>
</g>
<g>
</g>
<g>
</g>
<g>
</g>
<g>
</g>
<g>
</g>
<g>
</g>
<g>
</g>
<g>
</g>
<g>
</g>
<g>
</g>
</svg>
