<?xml version="1.0" encoding="iso-8859-1"?>
<!-- Generator: Adobe Illustrator 19.0.0, SVG Export Plug-In . SVG Version: 6.00 Build 0)  -->
<svg version="1.1" id="Layer_1" xmlns="http://www.w3.org/2000/svg" xmlns:xlink="http://www.w3.org/1999/xlink" x="0px" y="0px"
	 viewBox="0 0 512 512" style="enable-background:new 0 0 512 512;" xml:space="preserve">
<g>
	<g>
		<path style="fill:#BDC3C7;" d="M123.586,392.828H97.103c-4.882,0-8.828-3.946-8.828-8.828s3.946-8.828,8.828-8.828h26.483
			c4.873,0,8.828-3.955,8.828-8.828V348.69c0-4.882,3.946-8.828,8.828-8.828s8.828,3.946,8.828,8.828v17.655
			C150.069,380.946,138.187,392.828,123.586,392.828"/>
		<path style="fill:#BDC3C7;" d="M414.897,392.828h-26.483c-14.601,0-26.483-11.882-26.483-26.483V348.69
			c0-4.882,3.946-8.828,8.828-8.828c4.882,0,8.828,3.946,8.828,8.828v17.655c0,4.873,3.955,8.828,8.828,8.828h26.483
			c4.882,0,8.828,3.946,8.828,8.828S419.778,392.828,414.897,392.828"/>
		<path style="fill:#BDC3C7;" d="M256,216.276c-4.882,0-8.828-3.946-8.828-8.828v-18.776c-15.219-3.919-26.483-17.77-26.483-34.189
			c0-19.474,15.837-35.31,35.31-35.31s35.31,15.837,35.31,35.31c0,4.882-3.946,8.828-8.828,8.828s-8.828-3.946-8.828-8.828
			c0-9.737-7.918-17.655-17.655-17.655c-9.737,0-17.655,7.918-17.655,17.655s7.918,17.655,17.655,17.655
			c4.882,0,8.828,3.946,8.828,8.828v26.483C264.828,212.33,260.882,216.276,256,216.276"/>
	</g>
	<path style="fill:#593923;" d="M35.31,348.69c-19.5,0-35.31-6.983-35.31-26.483c0-19.5,15.81-35.31,35.31-35.31h26.483
		c119.72-3.858,167.724-52.966,167.724-52.966c0-14.627,11.855-26.483,26.483-26.483c14.627,0,26.483,11.855,26.483,26.483
		c0,0,48.004,49.108,167.724,52.966h26.483c19.5,0,35.31,15.81,35.31,35.31c0,19.5-15.81,26.483-35.31,26.483H35.31z"/>
	<path style="fill:#805333;" d="M476.69,286.897h-26.483c-119.72-3.858-167.724-52.966-167.724-52.966
		c0-14.627-11.855-26.483-26.483-26.483c-14.627,0-26.483,11.855-26.483,26.483c0,0-48.004,49.108-167.724,52.966H35.31
		c-16.428,0-30.12,11.273-34.057,26.483h509.493C506.809,298.169,493.118,286.897,476.69,286.897"/>
</g>
<g>
</g>
<g>
</g>
<g>
</g>
<g>
</g>
<g>
</g>
<g>
</g>
<g>
</g>
<g>
</g>
<g>
</g>
<g>
</g>
<g>
</g>
<g>
</g>
<g>
</g>
<g>
</g>
<g>
</g>
</svg>
