<?xml version="1.0" encoding="iso-8859-1"?>
<!-- Generator: Adobe Illustrator 19.0.0, SVG Export Plug-In . SVG Version: 6.00 Build 0)  -->
<svg version="1.1" id="Layer_1" xmlns="http://www.w3.org/2000/svg" xmlns:xlink="http://www.w3.org/1999/xlink" x="0px" y="0px"
	 viewBox="0 0 512.004 512.004" style="enable-background:new 0 0 512.004 512.004;" xml:space="preserve">
<g>
	<path style="fill:#556080;" d="M247.176,432.553H17.659c-9.746,0-17.655-7.91-17.655-17.655V97.105
		c0-9.746,7.91-17.655,17.655-17.655h229.517V432.553z"/>
	<path style="fill:#45506D;" d="M494.348,432.553H247.176V79.45h247.172c9.746,0,17.655,7.91,17.655,17.655v317.793
		C512.004,424.644,504.094,432.553,494.348,432.553"/>
	<g>
		<polygon style="fill:#2D384F;" points="247.176,185.381 512.004,185.381 512.004,150.071 247.176,150.071 		"/>
		<polygon style="fill:#2D384F;" points="247.176,361.933 512.004,361.933 512.004,326.622 247.176,326.622 		"/>
		<path style="fill:#2D384F;" d="M21.551,79.45h-3.893c-2.251,0-4.378,0.459-6.365,1.227l-6.788,4.749
			c-2.772,3.116-4.502,7.177-4.502,11.679v13.135l225.624,322.313h21.548v-30.782L21.551,79.45z"/>
		<polygon style="fill:#2D384F;" points="225.624,79.45 123.586,225.22 145.134,256.002 247.172,110.232 247.172,79.45 		"/>
		<path style="fill:#2D384F;" d="M102.038,256.002L0,401.763v13.135c0,4.502,1.739,8.563,4.511,11.679l6.788,4.749
			c1.977,0.768,4.114,1.227,6.356,1.227h3.893l102.038-145.77L102.038,256.002z"/>
	</g>
	<g>
		<polygon style="fill:#F6EFCA;" points="282.486,150.071 476.693,150.071 476.693,114.76 282.486,114.76 		"/>
		<polygon style="fill:#F6EFCA;" points="282.486,326.622 476.693,326.622 476.693,185.381 282.486,185.381 		"/>
		<polygon style="fill:#F6EFCA;" points="282.486,397.243 476.693,397.243 476.693,361.933 282.486,361.933 		"/>
	</g>
	<g>
		<path style="fill:#BCB596;" d="M370.762,229.519h-52.966c-4.873,0-8.828-3.955-8.828-8.828s3.955-8.828,8.828-8.828h52.966
			c4.873,0,8.828,3.955,8.828,8.828S375.635,229.519,370.762,229.519"/>
		<path style="fill:#BCB596;" d="M441.383,264.829h-70.621c-4.873,0-8.828-3.955-8.828-8.828s3.955-8.828,8.828-8.828h70.621
			c4.873,0,8.828,3.955,8.828,8.828S446.256,264.829,441.383,264.829"/>
		<path style="fill:#BCB596;" d="M441.383,229.519h-35.31c-4.873,0-8.828-3.955-8.828-8.828s3.955-8.828,8.828-8.828h35.31
			c4.873,0,8.828,3.955,8.828,8.828S446.256,229.519,441.383,229.519"/>
		<path style="fill:#BCB596;" d="M335.452,264.829h-17.655c-4.873,0-8.828-3.955-8.828-8.828s3.955-8.828,8.828-8.828h17.655
			c4.873,0,8.828,3.955,8.828,8.828S340.325,264.829,335.452,264.829"/>
		<path style="fill:#BCB596;" d="M353.107,300.14h-35.31c-4.873,0-8.828-3.955-8.828-8.828s3.955-8.828,8.828-8.828h35.31
			c4.873,0,8.828,3.955,8.828,8.828S357.98,300.14,353.107,300.14"/>
		<path style="fill:#BCB596;" d="M441.383,300.14h-52.966c-4.873,0-8.828-3.955-8.828-8.828s3.955-8.828,8.828-8.828h52.966
			c4.873,0,8.828,3.955,8.828,8.828S446.256,300.14,441.383,300.14"/>
	</g>
</g>
<g>
</g>
<g>
</g>
<g>
</g>
<g>
</g>
<g>
</g>
<g>
</g>
<g>
</g>
<g>
</g>
<g>
</g>
<g>
</g>
<g>
</g>
<g>
</g>
<g>
</g>
<g>
</g>
<g>
</g>
</svg>
