<?xml version="1.0" encoding="iso-8859-1"?>
<!-- Generator: Adobe Illustrator 19.0.0, SVG Export Plug-In . SVG Version: 6.00 Build 0)  -->
<svg version="1.1" id="Layer_1" xmlns="http://www.w3.org/2000/svg" xmlns:xlink="http://www.w3.org/1999/xlink" x="0px" y="0px"
	 viewBox="0 0 512.002 512.002" style="enable-background:new 0 0 512.002 512.002;" xml:space="preserve">
<g>
	<g>
		<path style="fill:#95A5A5;" d="M384.001,349.868h-8.499c-14.131,0-25.634-11.503-25.634-25.634v-18.722
			c0-4.719,3.814-8.533,8.533-8.533c4.719,0,8.533,3.814,8.533,8.533v18.722c0,4.727,3.84,8.567,8.567,8.567h8.499
			c4.719,0,8.533,3.814,8.533,8.533S388.72,349.868,384.001,349.868"/>
		<path style="fill:#95A5A5;" d="M136.501,349.868h-8.499c-4.719,0-8.533-3.814-8.533-8.533s3.814-8.533,8.533-8.533h8.499
			c4.727,0,8.567-3.84,8.567-8.567v-21.001c0-4.719,3.814-8.533,8.533-8.533c4.719,0,8.533,3.814,8.533,8.533v21.001
			C162.135,338.365,150.632,349.868,136.501,349.868"/>
	</g>
	<path style="fill:#BDC3C7;" d="M256.001,256.001c-4.719,0-8.533-3.814-8.533-8.533v-26.684c-14.711-3.789-25.6-17.178-25.6-33.05
		c0-18.825,15.309-34.133,34.133-34.133c18.825,0,34.133,15.309,34.133,34.133c0,4.719-3.814,8.533-8.533,8.533
		c-4.719,0-8.533-3.814-8.533-8.533c0-9.412-7.654-17.067-17.067-17.067c-9.412,0-17.067,7.654-17.067,17.067
		c0,9.412,7.654,17.067,17.067,17.067c4.719,0,8.533,3.814,8.533,8.533v34.133C264.534,252.187,260.72,256.001,256.001,256.001"/>
	<g>
		<path style="fill:#7F8C8D;" d="M503.468,358.401c-4.659,0-8.465-3.738-8.533-8.405c-0.085-5.666-2.039-10.24-5.99-13.969
			c-11.358-10.735-36.25-12.16-44.834-11.767c-118.46-3.797-166.613-51.729-168.61-53.76c-3.302-3.371-3.234-8.772,0.137-12.066
			c3.354-3.302,8.755-3.243,12.049,0.119c0.751,0.742,46.396,45.107,156.322,48.657c0.947-0.102,37.641-1.519,56.619,16.375
			c7.398,6.963,11.221,15.77,11.375,26.155c0.068,4.719-3.703,8.593-8.405,8.661H503.468z"/>
		<path style="fill:#7F8C8D;" d="M8.534,358.401H8.406c-4.702-0.068-8.474-3.942-8.405-8.661
			c0.154-10.385,3.977-19.191,11.375-26.155c18.978-17.877,55.68-16.435,57.276-16.375c110.362-3.584,155.204-48.188,155.648-48.64
			c3.294-3.371,8.713-3.43,12.066-0.137c3.371,3.294,3.439,8.695,0.137,12.066c-1.997,2.031-50.15,49.963-167.962,53.76
			c-9.267-0.29-34.116,1.024-45.483,11.767c-3.951,3.729-5.905,8.303-5.99,13.969C16.999,354.663,13.193,358.401,8.534,358.401"/>
	</g>
	<path style="fill:#95A5A5;" d="M247.468,256.001c-4.71,0-8.533,3.823-8.533,8.533c0,4.71,3.823,8.533,8.533,8.533h17.067
		c4.71,0,8.533-3.823,8.533-8.533c0-4.71-3.823-8.533-8.533-8.533H247.468z M264.534,290.134h-17.067
		c-14.114,0-25.6-11.486-25.6-25.6c0-14.114,11.486-25.6,25.6-25.6h17.067c14.114,0,25.6,11.486,25.6,25.6
		C290.134,278.648,278.648,290.134,264.534,290.134L264.534,290.134z"/>
</g>
<g>
</g>
<g>
</g>
<g>
</g>
<g>
</g>
<g>
</g>
<g>
</g>
<g>
</g>
<g>
</g>
<g>
</g>
<g>
</g>
<g>
</g>
<g>
</g>
<g>
</g>
<g>
</g>
<g>
</g>
</svg>
