<?xml version="1.0" encoding="iso-8859-1"?>
<!-- Generator: Adobe Illustrator 19.0.0, SVG Export Plug-In . SVG Version: 6.00 Build 0)  -->
<svg version="1.1" id="Layer_1" xmlns="http://www.w3.org/2000/svg" xmlns:xlink="http://www.w3.org/1999/xlink" x="0px" y="0px"
	 viewBox="0 0 511.999 511.999" style="enable-background:new 0 0 511.999 511.999;" xml:space="preserve">
<g>
	<path style="fill:#DF4D60;" d="M258.268,308.966h-4.537c-23.022,0-41.869-18.847-41.869-41.878v-22.175
		c0-23.031,18.847-41.878,41.869-41.878h4.537c23.022,0,41.869,18.847,41.869,41.878v22.175
		C300.137,290.119,281.29,308.966,258.268,308.966"/>
	<g>
		<path style="fill:#FF5364;" d="M211.863,267.095v-22.184c0-7.036,1.924-13.577,5.014-19.412
			c-11.82-11.97-50.741-47.113-101.976-48.949c0,0-27.789,30.57-26.589,79.448c-1.201,48.887,26.589,79.448,26.589,79.448
			c51.235-1.827,90.156-36.97,101.976-48.94C213.787,280.672,211.863,274.122,211.863,267.095"/>
		<path style="fill:#FF5364;" d="M397.105,176.552c-51.244,1.836-90.165,36.97-101.985,48.94c3.098,5.844,5.023,12.385,5.023,19.421
			v22.184c0,7.027-1.924,13.568-5.023,19.412c11.82,11.97,50.741,47.104,101.985,48.94c0,0,27.78-30.561,26.589-79.448
			C424.885,207.113,397.105,176.552,397.105,176.552"/>
	</g>
	<g>
		<path style="fill:#DF4D60;" d="M88.311,256c-0.318-13.206,1.501-25.017,4.29-35.31H0v70.621h92.601
			C89.812,281.018,87.993,269.207,88.311,256"/>
		<path style="fill:#DF4D60;" d="M419.398,220.69c2.79,10.293,4.608,22.104,4.29,35.31c0.318,13.206-1.501,25.017-4.29,35.31h92.601
			V220.69H419.398z"/>
	</g>
</g>
<g>
</g>
<g>
</g>
<g>
</g>
<g>
</g>
<g>
</g>
<g>
</g>
<g>
</g>
<g>
</g>
<g>
</g>
<g>
</g>
<g>
</g>
<g>
</g>
<g>
</g>
<g>
</g>
<g>
</g>
</svg>
