<?xml version="1.0" encoding="iso-8859-1"?>
<!-- Generator: Adobe Illustrator 19.0.0, SVG Export Plug-In . SVG Version: 6.00 Build 0)  -->
<svg version="1.1" id="Layer_1" xmlns="http://www.w3.org/2000/svg" xmlns:xlink="http://www.w3.org/1999/xlink" x="0px" y="0px"
	 viewBox="0 0 512 512" style="enable-background:new 0 0 512 512;" xml:space="preserve">
<g>
	<path style="fill:#F0C419;" d="M0,336.863c0-97.51,79.042-176.552,176.552-176.552s176.552,79.042,176.552,176.552
		C239.042,372.173,116.277,372.173,0,336.863"/>
	<g>
		<path style="fill:#E57E25;" d="M353.103,336.863c-28.963,8.969-58.492,15.634-88.338,20.047l60.857,19.359
			c62.367,19.844,130.26,11.917,186.377-21.751L353.103,336.863z"/>
		<path style="fill:#E57E25;" d="M162.681,161.009c4.582-0.415,9.19-0.697,13.868-0.697c4.687,0,9.295,0.282,13.877,0.697
			c3.469,0.274,6.903,0.68,10.319,1.156c1.457-3.275,2.286-6.868,2.286-10.681c0-14.627-11.847-26.483-26.483-26.483
			c-14.627,0-26.483,11.855-26.483,26.483c0,3.814,0.839,7.406,2.286,10.681C155.778,161.689,159.203,161.283,162.681,161.009"/>
		<polygon style="fill:#E57E25;" points="176.552,195.621 195.257,240.492 238.345,246.565 206.822,276.076 213.963,319.208 
			176.552,292.725 139.14,319.208 146.282,276.076 114.759,246.565 157.846,240.492 		"/>
	</g>
</g>
<g>
</g>
<g>
</g>
<g>
</g>
<g>
</g>
<g>
</g>
<g>
</g>
<g>
</g>
<g>
</g>
<g>
</g>
<g>
</g>
<g>
</g>
<g>
</g>
<g>
</g>
<g>
</g>
<g>
</g>
</svg>
