<?xml version="1.0" encoding="iso-8859-1"?>
<!-- Generator: Adobe Illustrator 19.0.0, SVG Export Plug-In . SVG Version: 6.00 Build 0)  -->
<svg version="1.1" id="Layer_1" xmlns="http://www.w3.org/2000/svg" xmlns:xlink="http://www.w3.org/1999/xlink" x="0px" y="0px"
	 viewBox="0 0 511.996 511.996" style="enable-background:new 0 0 511.996 511.996;" xml:space="preserve">
<g transform="translate(-1)">
	<polygon style="fill:#F29C1F;" points="212.86,35.306 301.136,35.306 256.998,97.099 	"/>
	<polygon style="fill:#F0C419;" points="301.136,459.03 256.998,511.996 212.86,459.03 221.687,123.582 256.998,97.099 
		292.308,123.582 	"/>
	<g>
		<polygon style="fill:#E57E25;" points="287.343,54.616 371.761,26.474 327.614,0 274.657,35.302 301.131,35.302 		"/>
		<polygon style="fill:#E57E25;" points="226.653,54.616 142.235,26.474 186.382,0 239.338,35.302 212.864,35.302 		"/>
	</g>
	<polygon style="fill:#F29C1F;" points="213.352,440.25 300.241,424.917 298.856,372.198 214.755,387.038 	"/>
	<polygon style="fill:#E57E25;" points="214.756,387.038 298.848,372.19 297.462,319.472 216.151,333.826 	"/>
	<polygon style="fill:#F29C1F;" points="216.153,333.823 297.463,319.478 296.078,266.751 217.556,280.61 	"/>
	<polygon style="fill:#E57E25;" points="217.558,280.612 296.079,266.753 294.685,214.035 218.953,227.399 	"/>
	<polygon style="fill:#F29C1F;" points="218.954,227.4 294.686,214.035 293.3,161.317 220.358,174.188 	"/>
</g>
<g>
</g>
<g>
</g>
<g>
</g>
<g>
</g>
<g>
</g>
<g>
</g>
<g>
</g>
<g>
</g>
<g>
</g>
<g>
</g>
<g>
</g>
<g>
</g>
<g>
</g>
<g>
</g>
<g>
</g>
</svg>
