<?xml version="1.0" encoding="iso-8859-1"?>
<!-- Generator: Adobe Illustrator 19.0.0, SVG Export Plug-In . SVG Version: 6.00 Build 0)  -->
<svg version="1.1" id="Layer_1" xmlns="http://www.w3.org/2000/svg" xmlns:xlink="http://www.w3.org/1999/xlink" x="0px" y="0px"
	 viewBox="0 0 512 512" style="enable-background:new 0 0 512 512;" xml:space="preserve">
<g>
	<g>
		<path style="fill:#805333;" d="M150.069,211.862H17.655C7.91,211.862,0,219.772,0,229.517v52.966
			c0,9.746,7.91,17.655,17.655,17.655h132.414V211.862z"/>
		<polygon style="fill:#805333;" points="344.276,300.138 388.414,300.138 388.414,211.862 344.276,211.862 		"/>
		<path style="fill:#805333;" d="M441.379,211.862v88.276h52.966c9.746,0,17.655-7.91,17.655-17.655v-52.966
			c0-9.746-7.91-17.655-17.655-17.655H441.379z"/>
	</g>
	<path style="fill:#56351E;" d="M88.276,256c0,4.873-3.946,8.828-8.828,8.828c-4.882,0-8.828-3.955-8.828-8.828
		s3.946-8.828,8.828-8.828C84.33,247.172,88.276,251.127,88.276,256"/>
	<polygon style="fill:#464F5D;" points="150.069,317.793 344.276,317.793 344.276,194.207 150.069,194.207 	"/>
	<polygon style="fill:#56351E;" points="388.414,317.793 441.379,317.793 441.379,194.207 388.414,194.207 	"/>
	<path style="fill:#2C2F38;" d="M308.966,256c0,34.127-27.666,61.793-61.793,61.793S185.379,290.127,185.379,256
		s27.666-61.793,61.793-61.793S308.966,221.873,308.966,256"/>
	<path style="fill:#464F5D;" d="M273.655,264.828H220.69c-4.882,0-8.828-3.955-8.828-8.828s3.946-8.828,8.828-8.828h52.966
		c4.882,0,8.828,3.955,8.828,8.828S278.537,264.828,273.655,264.828"/>
</g>
<g>
</g>
<g>
</g>
<g>
</g>
<g>
</g>
<g>
</g>
<g>
</g>
<g>
</g>
<g>
</g>
<g>
</g>
<g>
</g>
<g>
</g>
<g>
</g>
<g>
</g>
<g>
</g>
<g>
</g>
</svg>
