<?xml version="1.0" encoding="iso-8859-1"?>
<!-- Generator: Adobe Illustrator 19.0.0, SVG Export Plug-In . SVG Version: 6.00 Build 0)  -->
<svg version="1.1" id="Layer_1" xmlns="http://www.w3.org/2000/svg" xmlns:xlink="http://www.w3.org/1999/xlink" x="0px" y="0px"
	 viewBox="0 0 503.499 503.499" style="enable-background:new 0 0 503.499 503.499;" xml:space="preserve">
<g>
	<g>
		<path style="fill:#93271F;" d="M416.632,373.153c11.568,38.617,11.568,82.519,0,121.492c-109.507,11.802-219.778,11.811-329.763,0
			c-11.524-38.791-11.62-82.701,0-121.492H416.632z"/>
		<path style="fill:#93271F;" d="M312.497,60.746c0,33.549-27.197,60.746-60.746,60.746s-60.746-27.197-60.746-60.746
			S218.202,0,251.751,0S312.497,27.197,312.497,60.746"/>
	</g>
	<g>
		<path style="fill:#C03A2B;" d="M407.37,373.153c0.312-5.745,0.581-11.498,0.581-17.356c0-103.276-48.059-224.976-113.612-251.765
			c-10.96,10.787-25.999,17.46-42.591,17.46c-16.601,0-31.622-6.673-42.591-17.46C143.594,130.82,95.544,252.52,95.544,355.797
			c0,5.858,0.278,11.611,0.59,17.356H407.37z"/>
		<path style="fill:#C03A2B;" d="M269.107,86.78c-2.222,0-4.443-0.85-6.135-2.543L228.26,49.525c-3.393-3.393-3.393-8.878,0-12.271
			c3.393-3.393,8.878-3.393,12.271,0l34.712,34.712c3.393,3.393,3.393,8.878,0,12.271C273.55,85.929,271.329,86.78,269.107,86.78"/>
		<path style="fill:#C03A2B;" d="M234.395,86.78c-2.222,0-4.443-0.85-6.135-2.543c-3.393-3.393-3.393-8.878,0-12.271l34.712-34.712
			c3.393-3.393,8.878-3.393,12.271,0c3.393,3.393,3.393,8.878,0,12.271L240.53,84.237C238.838,85.929,236.617,86.78,234.395,86.78"
			/>
	</g>
	<path style="fill:#F6EFCA;" d="M286.463,459.932h-69.424c-9.58,0-17.356-7.775-17.356-17.356V425.22
		c0-9.58,7.775-17.356,17.356-17.356h69.424c9.58,0,17.356,7.775,17.356,17.356v17.356
		C303.819,452.157,296.043,459.932,286.463,459.932"/>
	<g>
		<path style="fill:#F0C419;" d="M294.336,104.03c-1.935,1.909-4.035,3.627-6.213,5.259c-1.085,5.346-1.658,10.873-1.658,16.54
			c0,45.533,36.907,82.441,82.441,82.441c3.22,0,6.387-0.234,9.511-0.59C358.084,157.998,328.605,118.036,294.336,104.03"/>
		<path style="fill:#F0C419;" d="M208.582,373.153H373.02c-2.274-43.503-38.148-78.102-82.215-78.102
			C246.73,295.051,210.855,329.65,208.582,373.153"/>
		<path style="fill:#F0C419;" d="M99.632,301.796c5.675,1.241,11.559,1.935,17.608,1.935c45.533,0,82.441-36.916,82.441-82.441
			c0-31.137-17.26-58.212-42.739-72.244C128.652,188.011,107.972,244.747,99.632,301.796"/>
	</g>
</g>
<g>
</g>
<g>
</g>
<g>
</g>
<g>
</g>
<g>
</g>
<g>
</g>
<g>
</g>
<g>
</g>
<g>
</g>
<g>
</g>
<g>
</g>
<g>
</g>
<g>
</g>
<g>
</g>
<g>
</g>
</svg>
