<?xml version="1.0" encoding="iso-8859-1"?>
<!-- Generator: Adobe Illustrator 19.0.0, SVG Export Plug-In . SVG Version: 6.00 Build 0)  -->
<svg version="1.1" id="Layer_1" xmlns="http://www.w3.org/2000/svg" xmlns:xlink="http://www.w3.org/1999/xlink" x="0px" y="0px"
	 viewBox="0 0 512 512" style="enable-background:new 0 0 512 512;" xml:space="preserve">
<g>
	<path style="fill:#E6E7E8;" d="M255.999,86.78c-4.79,0-8.678-3.888-8.678-8.678V68.33c-14.952-3.87-26.034-17.477-26.034-33.618
		C221.287,15.568,236.856,0,255.999,0s34.712,15.568,34.712,34.712c0,4.79-3.888,8.678-8.678,8.678c-4.79,0-8.678-3.888-8.678-8.678
		c0-9.572-7.784-17.356-17.356-17.356c-9.572,0-17.356,7.784-17.356,17.356s7.784,17.356,17.356,17.356
		c4.79,0,8.678,3.888,8.678,8.678v17.356C264.677,82.892,260.789,86.78,255.999,86.78"/>
	<path style="fill:#805333;" d="M351.694,173.559h46.531L256.002,88.22L113.77,173.559h46.531l0.243-8.912
		c0.13-4.703,3.975-8.444,8.678-8.444h52.068c4.695,0,8.548,3.74,8.669,8.444l0.243,8.912h51.59l0.243-8.912
		c0.13-4.703,3.975-8.444,8.678-8.444h52.068c4.695,0,8.548,3.74,8.669,8.444L351.694,173.559z M429.561,190.915H343.25
		c-4.703,0-8.548-3.74-8.678-8.444l-0.234-8.912h-35.18l-0.243,8.912c-0.13,4.703-3.974,8.444-8.678,8.444h-68.478
		c-4.703,0-8.548-3.74-8.678-8.444l-0.234-8.912h-35.18l-0.243,8.912c-0.13,4.703-3.975,8.444-8.678,8.444H82.442
		c-3.905,0-7.324-2.603-8.366-6.361c-1.041-3.758,0.555-7.749,3.896-9.754L251.533,70.665c2.751-1.657,6.179-1.657,8.93,0
		L434.022,174.8c3.35,2.005,4.938,5.996,3.905,9.754C436.877,188.312,433.457,190.915,429.561,190.915L429.561,190.915z"/>
	<polygon style="fill:#C03A2B;" points="229.965,485.966 195.253,512 160.541,485.966 169.219,164.881 221.287,164.881 	"/>
	<polygon style="fill:#4482C3;" points="351.457,485.966 316.745,512 282.033,485.966 290.711,164.881 342.779,164.881 	"/>
	<g>
		<polygon style="fill:#F0C419;" points="164.296,347.119 226.213,347.119 224.807,295.051 165.701,295.051 		"/>
		<polygon style="fill:#F0C419;" points="161.478,451.254 229.027,451.254 227.621,399.186 162.892,399.186 		"/>
	</g>
	<g>
		<path style="fill:#C03A2B;" d="M186.575,425.22c0,4.79,3.888,8.678,8.678,8.678s8.678-3.888,8.678-8.678s-3.888-8.678-8.678-8.678
			S186.575,420.43,186.575,425.22"/>
		<path style="fill:#C03A2B;" d="M186.575,321.085c0,4.79,3.888,8.678,8.678,8.678s8.678-3.888,8.678-8.678
			s-3.888-8.678-8.678-8.678S186.575,316.295,186.575,321.085"/>
	</g>
</g>
<g>
</g>
<g>
</g>
<g>
</g>
<g>
</g>
<g>
</g>
<g>
</g>
<g>
</g>
<g>
</g>
<g>
</g>
<g>
</g>
<g>
</g>
<g>
</g>
<g>
</g>
<g>
</g>
<g>
</g>
</svg>
