<?xml version="1.0" encoding="iso-8859-1"?>
<!-- Generator: Adobe Illustrator 19.0.0, SVG Export Plug-In . SVG Version: 6.00 Build 0)  -->
<svg version="1.1" id="Layer_1" xmlns="http://www.w3.org/2000/svg" xmlns:xlink="http://www.w3.org/1999/xlink" x="0px" y="0px"
	 viewBox="0 0 512 512" style="enable-background:new 0 0 512 512;" xml:space="preserve">
<g>
	<path style="fill:#C8A27D;" d="M414.897,0h-35.31c-4.875,0-8.828,3.953-8.828,8.828v150.069h52.966V8.828
		C423.724,3.953,419.772,0,414.897,0z"/>
	<path style="fill:#C8A27D;" d="M132.414,0h-35.31c-4.875,0-8.828,3.953-8.828,8.828v150.069h52.966V8.828
		C141.241,3.953,137.289,0,132.414,0z"/>
</g>
<g>
	<path style="fill:#DCB991;" d="M105.931,158.897H88.276V8.828C88.276,3.953,92.228,0,97.103,0l0,0c4.875,0,8.828,3.953,8.828,8.828
		V158.897z"/>
	<path style="fill:#DCB991;" d="M423.724,158.897h-17.655V8.828c0-4.875,3.953-8.828,8.828-8.828l0,0
		c4.875,0,8.828,3.953,8.828,8.828V158.897z"/>
	<path style="fill:#DCB991;" d="M70.621,300.138c-9.75,0-17.655,7.904-17.655,17.655v141.241c0,9.75,7.905,17.655,17.655,17.655
		h17.655V300.138H70.621z"/>
</g>
<rect x="52.966" y="344.276" style="fill:#C8A27D;" width="35.31" height="17.655"/>
<path style="fill:#DCB991;" d="M441.379,300.138h-17.655V476.69h17.655c9.75,0,17.655-7.905,17.655-17.655V317.793
	C459.034,308.042,451.129,300.138,441.379,300.138z"/>
<rect x="423.724" y="344.276" style="fill:#C8A27D;" width="35.31" height="17.655"/>
<path style="fill:#EBC9A0;" d="M397.241,512H114.759c-19.501,0-35.31-15.809-35.31-35.31V158.897
	c0-58.504,47.427-105.931,105.931-105.931h141.241c58.504,0,105.931,47.427,105.931,105.931V476.69
	C432.552,496.191,416.743,512,397.241,512z"/>
<g>
	<path style="fill:#DCB991;" d="M397.241,80.098c-18.751-16.815-43.45-27.133-70.621-27.133H185.379
		c-27.17,0-51.87,10.317-70.621,27.133v78.798c0,58.411,47.52,105.931,105.931,105.931h70.621
		c58.411,0,105.931-47.52,105.931-105.931V80.098z"/>
	<path style="fill:#DCB991;" d="M291.31,0H220.69c-19.474,0-35.31,15.84-35.31,35.31v26.483h17.655V35.31
		c0-9.737,7.923-17.655,17.655-17.655h70.621c9.732,0,17.655,7.918,17.655,17.655v26.483h17.655V35.31
		C326.621,15.84,310.784,0,291.31,0z"/>
</g>
<path style="fill:#F5DCB4;" d="M370.759,476.69H141.241c-9.751,0-17.655-7.904-17.655-17.655V317.793
	c0-9.751,7.904-17.655,17.655-17.655h229.517c9.751,0,17.655,7.904,17.655,17.655v141.241
	C388.414,468.786,380.51,476.69,370.759,476.69z"/>
<path style="fill:#C8A27D;" d="M370.759,300.138H141.241c-9.751,0-17.655,7.904-17.655,17.655v35.31h264.828v-35.31
	C388.414,308.042,380.51,300.138,370.759,300.138z"/>
<path style="fill:#A58269;" d="M353.103,361.931H158.897c-4.879,0-8.828-3.953-8.828-8.828s3.948-8.828,8.828-8.828h194.207
	c4.879,0,8.828,3.953,8.828,8.828S357.983,361.931,353.103,361.931z"/>
<path style="fill:#F5DCB4;" d="M361.931,52.966H150.069c-9.75,0-17.655,7.904-17.655,17.655v88.276
	c0,48.754,39.522,88.276,88.276,88.276h70.621c48.754,0,88.276-39.522,88.276-88.276V70.621
	C379.586,60.87,371.681,52.966,361.931,52.966z"/>
<path style="fill:#C8A27D;" d="M256,273.655L256,273.655c-9.751,0-17.655-7.904-17.655-17.655v-26.483
	c0-4.875,3.953-8.828,8.828-8.828h17.655c4.875,0,8.828,3.953,8.828,8.828V256C273.655,265.751,265.751,273.655,256,273.655z"/>
<path style="fill:#DCB991;" d="M317.793,397.241h-17.655v-44.138c0-4.875,3.953-8.828,8.828-8.828l0,0
	c4.875,0,8.828,3.953,8.828,8.828V397.241z"/>
<circle style="fill:#C8A27D;" cx="308.966" cy="406.069" r="13.241"/>
<g>
</g>
<g>
</g>
<g>
</g>
<g>
</g>
<g>
</g>
<g>
</g>
<g>
</g>
<g>
</g>
<g>
</g>
<g>
</g>
<g>
</g>
<g>
</g>
<g>
</g>
<g>
</g>
<g>
</g>
</svg>
