<?xml version="1.0" encoding="iso-8859-1"?>
<!-- Generator: Adobe Illustrator 19.0.0, SVG Export Plug-In . SVG Version: 6.00 Build 0)  -->
<svg version="1.1" id="Layer_1" xmlns="http://www.w3.org/2000/svg" xmlns:xlink="http://www.w3.org/1999/xlink" x="0px" y="0px"
	 viewBox="0 0 511.999 511.999" style="enable-background:new 0 0 511.999 511.999;" xml:space="preserve">
<path style="fill:#F5DCB4;" d="M17.423,287.122v26.488c0,4.876,3.953,8.829,8.829,8.829h97.122c4.876,0,8.829-3.953,8.829-8.829
	v-26.488H17.423z"/>
<path style="fill:#B4E1FA;" d="M402.058,226.75c-2.758-0.8-5.737,0.18-7.577,2.385c-12.119,14.529-73.994,61.078-332.912-30.306
	C26.853,186.576,17.423,190,17.423,190s-25.552,55.963-14.768,96.356c1.534,5.746,6.966,9.595,12.913,9.595h116.636
	c79.463,0,150.097,26.488,256.049,26.488c97.122,0,123.61-44.146,123.61-44.146S520.451,261.112,402.058,226.75z"/>
<path style="fill:#A0D2F0;" d="M402.056,296.391c-117.011,0-195.018-26.488-282.777-26.488H0.177
	c0.307,5.642,1.069,11.182,2.477,16.453c1.534,5.746,6.966,9.595,12.913,9.595h116.636c79.463,0,150.097,26.488,256.049,26.488
	c97.122,0,123.61-44.146,123.61-44.146s0.684-1.385-1.025-4.148C490.148,285.239,455.969,296.391,402.056,296.391z"/>
<g>
</g>
<g>
</g>
<g>
</g>
<g>
</g>
<g>
</g>
<g>
</g>
<g>
</g>
<g>
</g>
<g>
</g>
<g>
</g>
<g>
</g>
<g>
</g>
<g>
</g>
<g>
</g>
<g>
</g>
</svg>
