<?xml version="1.0" encoding="iso-8859-1"?>
<!-- Generator: Adobe Illustrator 19.0.0, SVG Export Plug-In . SVG Version: 6.00 Build 0)  -->
<svg version="1.1" id="Layer_1" xmlns="http://www.w3.org/2000/svg" xmlns:xlink="http://www.w3.org/1999/xlink" x="0px" y="0px"
	 viewBox="0 0 512 512" style="enable-background:new 0 0 512 512;" xml:space="preserve">
<path style="fill:#FF5A64;" d="M355.01,12.346c4.046,22.454,15.52,71.255,43.465,110.234c4.925,6.869,7.011,15.37,6.126,23.775
	l-13.859,131.668c-1.551,14.734-2.328,29.54-2.328,44.355v180.793c0,4.875-3.953,8.828-8.828,8.828H132.414
	c-4.875,0-8.828-3.953-8.828-8.828V322.379c0-14.816-0.777-29.621-2.328-44.355l-13.859-131.668
	c-0.885-8.406,1.203-16.906,6.126-23.775c27.945-38.98,39.418-87.782,43.465-110.234C158.281,5.184,164.479,0,171.755,0h168.489
	C347.521,0,353.719,5.184,355.01,12.346z"/>
<path style="fill:#D74B55;" d="M159.244,6.892C162.793,57.29,204.698,97.103,256,97.103s93.207-39.814,96.756-90.211
	C350.06,2.735,345.469,0,340.245,0h-168.49C166.531,0,161.94,2.735,159.244,6.892z"/>
<path style="fill:#D5DCED;" d="M176.552,0c0,43.878,35.57,79.448,79.448,79.448S335.448,43.878,335.448,0H176.552z"/>
<path style="fill:#C8414B;" d="M203.034,0c0,29.252,23.713,52.966,52.966,52.966c29.252,0,52.966-23.713,52.966-52.966H203.034z"/>
<g>
	<path style="fill:#E4EAF8;" d="M225.103,194.207c-21.906,0-39.724,17.818-39.724,39.724v4.414c0,4.879,3.948,8.828,8.828,8.828
		c4.879,0,8.828-3.948,8.828-8.828v-4.414c0-12.172,9.897-22.069,22.069-22.069s22.069,9.897,22.069,22.069v9.888
		c0,5.164-2.25,10.051-6.164,13.405l-43.31,37.121c-7.828,6.707-12.319,16.483-12.319,26.802v5.474c0,4.879,3.948,8.828,8.828,8.828
		H256c4.879,0,8.828-3.948,8.828-8.828c0-4.879-3.948-8.828-8.828-8.828h-52.647c0.75-3.88,2.784-7.431,5.836-10.044l43.31-37.121
		c7.837-6.715,12.328-16.49,12.328-26.809v-9.888C264.828,212.025,247.009,194.207,225.103,194.207z"/>
	<path style="fill:#E4EAF8;" d="M326.621,317.793h-8.828V203.034c0-4.879-3.948-8.828-8.828-8.828c-4.879,0-8.828,3.948-8.828,8.828
		c0,4.871-3.957,8.828-8.828,8.828c-4.879,0-8.828,3.948-8.828,8.828s3.948,8.828,8.828,8.828c3.111,0,6.052-0.638,8.828-1.628
		v89.903h-8.828c-4.879,0-8.828,3.948-8.828,8.828c0,4.879,3.948,8.828,8.828,8.828h35.31c4.879,0,8.828-3.948,8.828-8.828
		C335.448,321.741,331.5,317.793,326.621,317.793z"/>
</g>
<g>
</g>
<g>
</g>
<g>
</g>
<g>
</g>
<g>
</g>
<g>
</g>
<g>
</g>
<g>
</g>
<g>
</g>
<g>
</g>
<g>
</g>
<g>
</g>
<g>
</g>
<g>
</g>
<g>
</g>
</svg>
