<?xml version="1.0" encoding="iso-8859-1"?>
<!-- Generator: Adobe Illustrator 19.0.0, SVG Export Plug-In . SVG Version: 6.00 Build 0)  -->
<svg version="1.1" id="Layer_1" xmlns="http://www.w3.org/2000/svg" xmlns:xlink="http://www.w3.org/1999/xlink" x="0px" y="0px"
	 viewBox="0 0 512 512" style="enable-background:new 0 0 512 512;" xml:space="preserve">
<path style="fill:#FF9BA9;" d="M308.966,256l40.825-32.66c2.094-1.675,3.313-4.212,3.313-6.893V57.133
	c0-13.375-7.556-25.601-19.519-31.583l-15.791-7.895L305.309,5.171C301.998,1.86,297.507,0,292.825,0h-73.65
	c-4.682,0-9.173,1.86-12.484,5.171l-12.484,12.484l-15.791,7.895c-11.962,5.982-19.519,18.208-19.519,31.583v159.314
	c0,2.681,1.219,5.218,3.313,6.893L203.035,256H308.966z"/>
<g>
	<path style="fill:#FF8B9B;" d="M222.622,225.761l-63.725-47.797v38.483c0,2.681,1.219,5.218,3.313,6.893L203.035,256
		L222.622,225.761z"/>
	<path style="fill:#FF8B9B;" d="M289.378,225.761l63.725-47.797v38.483c0,2.681-1.219,5.218-3.313,6.893L308.966,256
		L289.378,225.761z"/>
</g>
<path style="fill:#FFAAB9;" d="M325.178,79.998c0.954-6.201,3.002-12.184,6.05-17.67l14.685-26.433
	c-3.221-4.267-7.365-7.863-12.328-10.345l-15.793-7.895L305.309,5.171C301.998,1.86,297.507,0,292.825,0h-73.65
	c-4.682,0-9.173,1.86-12.484,5.171l-12.484,12.484l-15.791,7.895c-4.962,2.482-9.107,6.078-12.328,10.345l14.685,26.433
	c3.048,5.485,5.096,11.468,6.05,17.67l16.212,105.382v35.31l-4.986,28.774c-8.424,33.696-13.397,68.161-14.844,102.863
	l-6.27,150.478c-0.209,5.015,3.8,9.195,8.82,9.195h140.491c5.02,0,9.028-4.18,8.82-9.195l-6.27-150.478
	c-1.447-34.702-6.419-69.167-14.844-102.863l-4.986-28.774v-35.31L325.178,79.998z"/>
<path style="fill:#FF9BA9;" d="M233.621,76.866c-8.28,8.28-12.931,19.509-12.931,31.219V512h17.655V108.077
	c0-7.023,2.79-13.76,7.756-18.727l71.692-71.695L305.309,5.171C301.998,1.86,297.507,0,292.825,0h-73.65
	c-4.682,0-9.173,1.86-12.484,5.171l-12.484,12.484l49.312,49.312L233.621,76.866z"/>
<g>
	<path style="fill:#FF8B9B;" d="M256,44.138L298.978,1.16C297.023,0.431,294.952,0,292.825,0h-73.65
		c-2.127,0-4.198,0.431-6.153,1.16L256,44.138z"/>
	<path style="fill:#FF8B9B;" d="M308.966,185.379H203.035v35.31h61.793v79.448c0,4.875,3.953,8.828,8.828,8.828
		s8.828-3.953,8.828-8.828V220.69h26.483V185.379z"/>
</g>
<g>
</g>
<g>
</g>
<g>
</g>
<g>
</g>
<g>
</g>
<g>
</g>
<g>
</g>
<g>
</g>
<g>
</g>
<g>
</g>
<g>
</g>
<g>
</g>
<g>
</g>
<g>
</g>
<g>
</g>
</svg>
