<?xml version="1.0" encoding="iso-8859-1"?>
<!-- Generator: Adobe Illustrator 19.0.0, SVG Export Plug-In . SVG Version: 6.00 Build 0)  -->
<svg version="1.1" id="Layer_1" xmlns="http://www.w3.org/2000/svg" xmlns:xlink="http://www.w3.org/1999/xlink" x="0px" y="0px"
	 viewBox="0 0 512 512" style="enable-background:new 0 0 512 512;" xml:space="preserve">
<path style="fill:#5B5D6E;" d="M503.467,307.2H8.533C3.821,307.2,0,303.379,0,298.667v-85.333c0-4.713,3.821-8.533,8.533-8.533
	h494.933c4.713,0,8.533,3.821,8.533,8.533v85.333C512,303.379,508.179,307.2,503.467,307.2z"/>
<g>
	<rect x="204.8" y="221.867" style="fill:#464655;" width="102.4" height="17.067"/>
	<path style="fill:#464655;" d="M503.467,204.8H384c18.851,0,34.133,15.282,34.133,34.133v34.133
		c0,18.851-15.282,34.133-34.133,34.133h119.467c4.713,0,8.533-3.821,8.533-8.533v-85.333C512,208.621,508.179,204.8,503.467,204.8z
		"/>
</g>
<path style="fill:#F5DCB4;" d="M315.733,196.267H196.267c-9.426,0-17.067,7.641-17.067,17.067v85.333
	c0,9.426,7.641,17.067,17.067,17.067h119.467c9.426,0,17.067-7.641,17.067-17.067v-85.333
	C332.8,203.907,325.159,196.267,315.733,196.267z M307.2,290.133H204.8v-68.267h102.4V290.133z"/>
<path style="fill:#FAEBC8;" d="M341.333,264.533h-42.667c-4.717,0-8.533-3.817-8.533-8.533c0-4.717,3.817-8.533,8.533-8.533h42.667
	c4.717,0,8.533,3.817,8.533,8.533C349.867,260.717,346.05,264.533,341.333,264.533z"/>
<g>
	<circle style="fill:#464655;" cx="42.667" cy="256" r="8.533"/>
	<circle style="fill:#464655;" cx="102.4" cy="256" r="8.533"/>
	<circle style="fill:#464655;" cx="230.4" cy="256" r="8.533"/>
	<circle style="fill:#464655;" cx="162.133" cy="256" r="8.533"/>
</g>
<circle style="fill:#5B5D6E;" cx="435.2" cy="256" r="8.533"/>
<g>
</g>
<g>
</g>
<g>
</g>
<g>
</g>
<g>
</g>
<g>
</g>
<g>
</g>
<g>
</g>
<g>
</g>
<g>
</g>
<g>
</g>
<g>
</g>
<g>
</g>
<g>
</g>
<g>
</g>
</svg>
