<?xml version="1.0" encoding="iso-8859-1"?>
<!-- Generator: Adobe Illustrator 19.0.0, SVG Export Plug-In . SVG Version: 6.00 Build 0)  -->
<svg version="1.1" id="Layer_1" xmlns="http://www.w3.org/2000/svg" xmlns:xlink="http://www.w3.org/1999/xlink" x="0px" y="0px"
	 viewBox="0 0 512.001 512.001" style="enable-background:new 0 0 512.001 512.001;" xml:space="preserve">
<path style="fill:#7F8499;" d="M408.334,16.015l-28.748-7.188H132.413l-28.748,7.188c-3.872,0.968-6.547,4.444-6.648,8.434
	c-1.566,61.799-24.074,106.452-32.268,120.739c-1.921,3.349-2.607,7.2-2.039,11.019c22.765,153.113,38.828,311.164,42.449,347.862
	c0.446,4.519,4.242,7.932,8.782,7.932h284.12c4.541,0,8.337-3.413,8.782-7.932c3.62-36.698,19.683-194.749,42.449-347.862
	c0.568-3.819-0.118-7.67-2.039-11.019c-8.194-14.286-30.702-58.94-32.268-120.739C414.882,20.459,412.206,16.983,408.334,16.015z"/>
<rect x="220.689" y="52.966" style="opacity:0.5;fill:#707487;enable-background:new    ;" width="70.621" height="459.034"/>
<rect x="247.172" y="52.966" style="fill:#5B5D6E;" width="17.655" height="459.034"/>
<path style="fill:#707487;" d="M370.225,0H141.774c-5.278,0-9.396,4.611-8.831,9.858c4.401,40.858,35.89,74.965,78.92,89.076V476.69
	c0,4.875,3.953,8.828,8.828,8.828s8.828-3.953,8.828-8.828V88.276l15.89-21.186c5.297-7.062,15.89-7.062,21.186,0l15.889,21.186
	V476.69c0,4.875,3.953,8.828,8.828,8.828s8.828-3.953,8.828-8.828V98.934c43.03-14.111,74.519-48.217,78.92-89.076
	C379.622,4.611,375.503,0,370.225,0z"/>
<path style="fill:#5B5D6E;" d="M167.724,0c0,29.252,39.522,52.966,88.276,52.966S344.275,29.252,344.275,0H167.724z"/>
<g>
	<path style="fill:#707487;" d="M114.758,13.241l-11.094,2.773c-3.871,0.968-6.547,4.444-6.647,8.434
		c-1.562,61.661-23.974,106.253-32.213,120.643c-1.955,3.416-2.656,7.337-2.077,11.23c0.927,6.232,1.839,12.473,2.743,18.714
		l11.012-15.172c1.56-2.346,38.275-58.376,38.275-142.208V13.241z"/>
	<path style="fill:#707487;" d="M397.241,13.241l11.094,2.773c3.871,0.968,6.547,4.444,6.647,8.434
		c1.562,61.661,23.974,106.253,32.213,120.643c1.955,3.416,2.656,7.337,2.077,11.23c-0.927,6.232-1.839,12.473-2.743,18.714
		l-11.012-15.172c-1.56-2.346-38.275-58.376-38.275-142.208V13.241z"/>
</g>
<g>
</g>
<g>
</g>
<g>
</g>
<g>
</g>
<g>
</g>
<g>
</g>
<g>
</g>
<g>
</g>
<g>
</g>
<g>
</g>
<g>
</g>
<g>
</g>
<g>
</g>
<g>
</g>
<g>
</g>
</svg>
