<?xml version="1.0" encoding="iso-8859-1"?>
<!-- Generator: Adobe Illustrator 19.0.0, SVG Export Plug-In . SVG Version: 6.00 Build 0)  -->
<svg version="1.1" id="Layer_1" xmlns="http://www.w3.org/2000/svg" xmlns:xlink="http://www.w3.org/1999/xlink" x="0px" y="0px"
	 viewBox="0 0 512 512" style="enable-background:new 0 0 512 512;" xml:space="preserve">
<path style="fill:#FFF082;" d="M503.172,432.552l-9.062-27.185c-5.395-16.184-18.255-28.78-34.549-33.836L248.15,305.92
	c-11.081-3.438-18.633-13.689-18.633-25.292V35.31c0-4.875-3.953-8.828-8.828-8.828H8.916c-4.909,0-8.92,3.939-8.856,8.849
	c1.145,88.555,18.769,213.647,24.58,252.689c1.183,7.947,0.986,15.923-0.58,23.802C19.222,336.16,8.828,402.794,8.828,450.207v8.828
	H476.69L503.172,432.552z"/>
<path style="fill:#FFDC64;" d="M496.062,411.221c-26.102,7.702-82.115,21.331-151.786,21.331c-76.429,0-136.675-8.092-211.862-8.713
	v-45.482c64.647-10.187,98.248-49.352,113.128-73.484c-5.775-2.492-10.401-6.857-13.158-12.302
	c-11.732,20.258-40.916,57.619-99.971,67.933V26.483h-17.655v397.241H9.719c-0.556,9.194-0.892,18.145-0.892,26.483v8.828H476.69
	l26.483-26.483L496.062,411.221z"/>
<path style="fill:#EBC9A0;" d="M500.608,427.507c-23.701,7.317-82.325,22.7-156.332,22.7c-79.448,0-141.241-8.828-220.69-8.828
	H8.828c-4.875,0-8.828,3.953-8.828,8.828v26.483c0,4.875,3.953,8.828,8.828,8.828h300.138c99.852,0,164.566-15.06,190.355-22.466
	c7.542-2.166,12.68-9.095,12.68-16.942v-10.159C512,430.002,506.291,425.751,500.608,427.507z"/>
<g>
</g>
<g>
</g>
<g>
</g>
<g>
</g>
<g>
</g>
<g>
</g>
<g>
</g>
<g>
</g>
<g>
</g>
<g>
</g>
<g>
</g>
<g>
</g>
<g>
</g>
<g>
</g>
<g>
</g>
</svg>
