<?xml version="1.0" encoding="iso-8859-1"?>
<!-- Generator: Adobe Illustrator 19.0.0, SVG Export Plug-In . SVG Version: 6.00 Build 0)  -->
<svg version="1.1" id="Layer_1" xmlns="http://www.w3.org/2000/svg" xmlns:xlink="http://www.w3.org/1999/xlink" x="0px" y="0px"
	 viewBox="0 0 512 512" style="enable-background:new 0 0 512 512;" xml:space="preserve">
<path style="fill:#DCB991;" d="M256,246.006L222.515,86.953c-1.002-4.759-5.967-7.545-10.518-5.83
	c-11.61,4.378-32.122,14.242-44.274,32.468l17.655,97.103L256,246.006z"/>
<path style="fill:#F09846;" d="M498.386,340.129c-2.211-17.688-17.209-31.006-35.034-30.922
	c-30.395,0.143-87.977-2.81-136.73-19.062L194.207,184.214l-44.138-70.621l-68.576,22.859c-7.201,2.4-14.742,3.624-22.333,3.624
	H35.31c-14.626,0-26.483,11.857-26.483,26.483v211.862l406.069,35.31l88.276-35.31L498.386,340.129z"/>
<path style="fill:#AA6455;" d="M167.724,246.006V141.84l-17.655-28.248l-68.576,22.859c-7.201,2.4-14.742,3.624-22.333,3.624H35.31
	c-14.626,0-26.483,11.857-26.483,26.483v79.448H167.724z"/>
<path style="fill:#9B5A50;" d="M133.19,119.219l8.776,43.876c1.042,5.207-0.292,10.549-3.658,14.655
	c-3.367,4.107-8.343,6.462-13.654,6.462h-62.86c-21.099,0-40.014,9.348-52.966,24.066v37.727h158.897V141.839l-17.655-28.248
	L133.19,119.219z"/>
<path style="fill:#DC8C46;" d="M158.897,369.592c44.138-52.966,112.735-51.535,138.443-46.784c7.2,1.331,14.425-2.02,18.193-8.299
	l15.946-26.577c2.273-3.789,1.395-8.674-2.055-11.435L203.034,175.385l-11.232-44.929c-3.548-14.189-17.926-22.816-32.115-19.27
	l-9.619,2.406l9.208,46.04c4.37,21.849-12.342,42.236-34.625,42.236H61.793c-29.252,0-52.966,23.713-52.966,52.966l0,0v105.931
	L158.897,369.592z"/>
<path style="fill:#EBC9A0;" d="M370.759,387.247c-129.736,0-218.327-33.897-361.803-35.267C4.052,351.933,0,355.935,0,360.84v61.719
	c0,4.875,3.953,8.828,8.828,8.828h141.241c4.875,0,8.828-3.953,8.828-8.828v-13.702c69.736,10.112,133.277,22.529,211.862,22.529
	c70.319,0,118.233-11.203,134.816-15.761c3.819-1.049,6.425-4.535,6.425-8.497V381.25c0-5.758-5.366-9.993-10.944-8.565
	C481.272,377.747,435.517,387.247,370.759,387.247z"/>
<g>
	<path style="fill:#AA6455;" d="M252.81,256.058c-2.259,0-4.518-0.862-6.241-2.586c-3.448-3.448-3.448-9.035,0-12.483l17.655-17.655
		c3.448-3.448,9.035-3.448,12.483,0s3.448,9.035,0,12.483l-17.655,17.655C257.327,255.195,255.069,256.058,252.81,256.058z"/>
	<path style="fill:#AA6455;" d="M299.405,293.821c-2.259,0-4.518-0.862-6.241-2.586c-3.448-3.448-3.448-9.035,0-12.483
		l17.655-17.655c3.448-3.448,9.035-3.448,12.483,0c3.448,3.448,3.448,9.035,0,12.483l-17.655,17.655
		C303.923,292.959,301.664,293.821,299.405,293.821z"/>
	<path style="fill:#AA6455;" d="M276.104,274.942c-2.259,0-4.518-0.862-6.241-2.586c-3.448-3.448-3.448-9.035,0-12.483
		l17.655-17.655c3.448-3.448,9.035-3.448,12.483,0s3.448,9.035,0,12.483l-17.655,17.655
		C280.621,274.08,278.362,274.942,276.104,274.942z"/>
	<path style="fill:#AA6455;" d="M229.517,237.178c-2.259,0-4.518-0.862-6.241-2.586c-3.448-3.448-3.448-9.035,0-12.483
		l17.655-17.655c3.448-3.448,9.035-3.448,12.483,0s3.448,9.035,0,12.483l-17.655,17.655
		C234.035,236.317,231.776,237.178,229.517,237.178z"/>
</g>
<path style="fill:#DCB991;" d="M8.956,396.118C4.052,396.07,0,400.073,0,404.978v17.581c0,4.875,3.953,8.828,8.828,8.828h141.241
	c4.875,0,8.828-3.953,8.828-8.828v-13.742C113.515,402.247,65.503,396.658,8.956,396.118z"/>
<g>
</g>
<g>
</g>
<g>
</g>
<g>
</g>
<g>
</g>
<g>
</g>
<g>
</g>
<g>
</g>
<g>
</g>
<g>
</g>
<g>
</g>
<g>
</g>
<g>
</g>
<g>
</g>
<g>
</g>
</svg>
