<?xml version="1.0" encoding="iso-8859-1"?>
<!-- Generator: Adobe Illustrator 19.0.0, SVG Export Plug-In . SVG Version: 6.00 Build 0)  -->
<svg version="1.1" id="Layer_1" xmlns="http://www.w3.org/2000/svg" xmlns:xlink="http://www.w3.org/1999/xlink" x="0px" y="0px"
	 viewBox="0 0 512 512" style="enable-background:new 0 0 512 512;" xml:space="preserve">
<path style="fill:#F09846;" d="M377.828,487.192c1.441,4.324-0.601,8.994-4.761,10.858c-11.56,5.177-37.572,13.95-81.13,13.95
	c-51.357,0-69.515-33.197-142.996-51.309c-4.119-1.015-7.049-4.736-6.812-8.972c0.675-12.073,3.098-37.598,11.802-65.247
	c3.47-11.026,5.108-22.489,4.284-34.018c-4.739-66.348-20.922-292.917-24.48-342.72c-0.377-5.282,3.992-9.671,9.272-9.277
	c14.577,1.085,41.996,4.76,60.653,17.198l0,0C203.66,7.905,211.565,0,221.315,0h86.854c5.397,0,9.53,4.8,8.729,10.137
	l-48.042,320.28c-2.307,15.381-1.185,31.051,3.236,45.962c7.716,26.019,20.441,65.598,28.671,73.827
	c14.743,14.743,43.656,8.651,61.521,13.358c5.466,1.44,9.632,5.892,11.42,11.254L377.828,487.192z"/>
<path style="fill:#DC8C46;" d="M203.66,17.655C185.042,5.242,157.697,1.557,143.098,0.462c-5.325-0.399-9.738,4.026-9.357,9.353
	c3.57,49.972,19.737,276.326,24.474,342.637c0.823,11.53-0.813,22.994-4.285,34.019c-8.704,27.649-11.127,53.174-11.802,65.247
	c-0.237,4.236,2.692,7.957,6.812,8.972c15.913,3.923,29.121,8.567,40.743,13.412c1.742,0.727,3.393,1.463,5.063,2.198
	c4.419-54.727,8.915-113.01,8.915-123.198C203.66,330.327,203.66,85.735,203.66,17.655z"/>
<path style="fill:#464655;" d="M147.384,460.138l10.542,45.046c0.935,3.992,4.495,6.816,8.596,6.816h10.655
	c4.875,0,8.828-3.953,8.828-8.828v-44.138L147.384,460.138z"/>
<path style="fill:#5B5D6E;" d="M377.828,487.192l-2.734-8.204c-0.622,0.526-1.247,1.057-2.027,1.406
	c-11.56,5.178-37.572,13.951-81.13,13.951c-51.357,0-69.516-33.197-142.996-51.309c-2.549-0.628-4.53-2.355-5.699-4.535
	c-0.568,5.273-0.924,9.822-1.113,13.218c-0.237,4.236,2.692,7.957,6.812,8.972C222.421,478.803,240.579,512,291.936,512
	c43.558,0,69.57-8.772,81.13-13.95C377.226,496.186,379.27,491.517,377.828,487.192z"/>
<g>
</g>
<g>
</g>
<g>
</g>
<g>
</g>
<g>
</g>
<g>
</g>
<g>
</g>
<g>
</g>
<g>
</g>
<g>
</g>
<g>
</g>
<g>
</g>
<g>
</g>
<g>
</g>
<g>
</g>
</svg>
