<?xml version="1.0" encoding="iso-8859-1"?>
<!-- Generator: Adobe Illustrator 19.0.0, SVG Export Plug-In . SVG Version: 6.00 Build 0)  -->
<svg version="1.1" id="Layer_1" xmlns="http://www.w3.org/2000/svg" xmlns:xlink="http://www.w3.org/1999/xlink" x="0px" y="0px"
	 viewBox="0 0 512 512" style="enable-background:new 0 0 512 512;" xml:space="preserve">
<path style="fill:#D74B55;" d="M8.828,229.517c-4.875,0-8.828,3.953-8.828,8.828v35.31c0,4.875,3.953,8.828,8.828,8.828h79.448
	v-52.966H8.828z"/>
<path style="fill:#C8414B;" d="M88.276,229.517h-33.78c-0.905,8.76-1.53,17.59-1.53,26.483s0.626,17.724,1.53,26.483h33.78V229.517z
	"/>
<path style="fill:#D74B55;" d="M503.172,282.483c4.875,0,8.828-3.953,8.828-8.828v-35.31c0-4.875-3.953-8.828-8.828-8.828h-79.448
	v52.966H503.172z"/>
<path style="fill:#C8414B;" d="M423.724,282.483h33.78c0.904-8.759,1.53-17.589,1.53-26.483c0-8.894-0.626-17.724-1.53-26.483
	h-33.78V282.483z"/>
<g>
	<path style="fill:#FF5A64;" d="M193.009,205.178c-10.911-7.274-22.841-12.886-35.402-16.654l-53.709-16.114
		c-9.001-2.7-18.7,2.049-21.728,10.946C74.828,204.929,70.621,229.653,70.621,256s4.207,51.071,11.549,72.643
		c3.028,8.897,12.727,13.646,21.729,10.946l53.709-16.113c12.559-3.768,24.491-9.38,35.402-16.654l36.508-24.34v-52.966
		L193.009,205.178z"/>
	<path style="fill:#FF5A64;" d="M429.829,183.357c-3.027-8.897-12.726-13.646-21.728-10.945l-53.709,16.114
		c-12.559,3.768-24.49,9.38-35.401,16.654l-36.509,24.338v52.966l36.509,24.339c10.911,7.274,22.841,12.887,35.401,16.654
		l53.709,16.113c9.002,2.7,18.701-2.048,21.728-10.945c7.342-21.572,11.55-46.295,11.55-72.643S437.172,204.929,429.829,183.357z"/>
</g>
<g>
	<path style="fill:#D74B55;" d="M364.069,273.922l-55.104-13.775v-8.294l55.104-13.775c4.733-1.181,7.612-5.974,6.422-10.698
		c-1.181-4.733-5.992-7.629-10.698-6.422l-51.227,12.807c-0.855-6.317-3.349-12.095-7.08-16.916l-19.005,12.669v52.966l19.005,12.67
		c3.73-4.82,6.223-10.599,7.079-16.916l51.227,12.807c0.715,0.181,1.44,0.267,2.146,0.267c3.957,0,7.552-2.673,8.552-6.69
		C371.681,279.896,368.802,275.104,364.069,273.922z"/>
	<path style="fill:#D74B55;" d="M210.513,216.847c-3.73,4.821-6.223,10.599-7.08,16.916l-51.226-12.807
		c-4.724-1.216-9.526,1.681-10.698,6.422c-1.19,4.724,1.689,9.517,6.422,10.698l55.104,13.777v8.294l-55.104,13.775
		c-4.733,1.181-7.612,5.974-6.422,10.698c1,4.018,4.595,6.69,8.552,6.69c0.707,0,1.431-0.086,2.146-0.267l51.226-12.807
		c0.855,6.317,3.349,12.096,7.079,16.916l19.006-12.67v-52.966L210.513,216.847z"/>
</g>
<path style="fill:#FF5A64;" d="M273.655,291.31h-35.31c-9.751,0-17.655-7.904-17.655-17.655v-35.31
	c0-9.751,7.904-17.655,17.655-17.655h35.31c9.751,0,17.655,7.904,17.655,17.655v35.31C291.31,283.406,283.406,291.31,273.655,291.31
	z"/>
<g>
</g>
<g>
</g>
<g>
</g>
<g>
</g>
<g>
</g>
<g>
</g>
<g>
</g>
<g>
</g>
<g>
</g>
<g>
</g>
<g>
</g>
<g>
</g>
<g>
</g>
<g>
</g>
<g>
</g>
</svg>
