<?xml version="1.0" encoding="iso-8859-1"?>
<!-- Generator: Adobe Illustrator 19.0.0, SVG Export Plug-In . SVG Version: 6.00 Build 0)  -->
<svg version="1.1" id="Layer_1" xmlns="http://www.w3.org/2000/svg" xmlns:xlink="http://www.w3.org/1999/xlink" x="0px" y="0px"
	 viewBox="0 0 512 512" style="enable-background:new 0 0 512 512;" xml:space="preserve">
<rect x="203.035" y="331.035" style="fill:#FAEBC8;" width="105.931" height="52.966"/>
<path style="fill:#F5DCB4;" d="M44.138,384l7.368,81.047c0.826,9.094,8.451,16.056,17.582,16.056h373.823
	c9.131,0,16.756-6.963,17.582-16.056l7.369-81.046L44.138,384z"/>
<g>
	<path style="fill:#FAEBC8;" d="M43.771,39.34l-8.46,194.591h35.31V39.724c0-4.875-3.953-8.828-8.828-8.828H52.59
		C47.864,30.897,43.976,34.619,43.771,39.34z"/>
	<path style="fill:#FAEBC8;" d="M236.786,364.999c-23.914-78.781-86.037-140.905-164.818-164.819
		c-5.135-1.559-10.679-0.477-15.137,2.511C18.699,228.26-4.979,273.697,0.889,324.257c6.741,58.078,53.749,105.082,111.827,111.82
		c50.557,5.865,95.989-17.812,121.557-55.941C237.262,375.678,238.344,370.133,236.786,364.999z"/>
</g>
<path style="fill:#F7E3BE;" d="M56.834,202.697c-10.18,6.846-19.308,15.128-27.146,24.521
	c93.24,13.081,166.979,86.82,180.061,180.061c9.393-7.839,17.675-16.967,24.521-27.147c2.996-4.455,4.074-10.006,2.514-15.144
	c-23.915-78.773-86.033-140.891-164.806-164.806C66.84,198.623,61.289,199.701,56.834,202.697z"/>
<g>
	<path style="fill:#FAEBC8;" d="M468.23,39.34l8.46,194.591h-35.31V39.724c0-4.875,3.953-8.828,8.828-8.828h9.203
		C464.136,30.897,468.024,34.619,468.23,39.34z"/>
	<path style="fill:#FAEBC8;" d="M275.214,364.999c23.914-78.781,86.037-140.905,164.818-164.819
		c5.135-1.559,10.679-0.477,15.137,2.511c38.132,25.569,61.81,71.006,55.941,121.566c-6.741,58.078-53.749,105.082-111.827,111.82
		c-50.557,5.865-95.989-17.812-121.557-55.941C274.738,375.678,273.656,370.133,275.214,364.999z"/>
</g>
<path style="fill:#F7E3BE;" d="M455.166,202.697c10.18,6.846,19.308,15.128,27.146,24.521
	c-93.24,13.081-166.979,86.82-180.061,180.061c-9.393-7.839-17.675-16.967-24.521-27.147c-2.996-4.455-4.074-10.006-2.514-15.144
	c23.915-78.773,86.033-140.891,164.806-164.806C445.16,198.623,450.711,199.701,455.166,202.697z"/>
<path style="fill:#FAEBC8;" d="M460.494,465.046l0.948-10.425H50.558l0.948,10.425c0.826,9.095,8.451,16.057,17.582,16.057h373.823
	C452.043,481.104,459.668,474.141,460.494,465.046z"/>
<g>
</g>
<g>
</g>
<g>
</g>
<g>
</g>
<g>
</g>
<g>
</g>
<g>
</g>
<g>
</g>
<g>
</g>
<g>
</g>
<g>
</g>
<g>
</g>
<g>
</g>
<g>
</g>
<g>
</g>
</svg>
