<?xml version="1.0" encoding="iso-8859-1"?>
<!-- Generator: Adobe Illustrator 19.0.0, SVG Export Plug-In . SVG Version: 6.00 Build 0)  -->
<svg version="1.1" id="Layer_1" xmlns="http://www.w3.org/2000/svg" xmlns:xlink="http://www.w3.org/1999/xlink" x="0px" y="0px"
	 viewBox="0 0 512 512" style="enable-background:new 0 0 512 512;" xml:space="preserve">
<path style="fill:#FF5A64;" d="M362.998,56.228c-0.642-7.283-5.707-13.416-12.736-15.425l-23.641-5.493H185.379l-23.64,5.493
	c-7.03,2.008-12.094,8.141-12.736,15.425l-24.888,282.063c-0.319,3.612,1.603,7.05,4.846,8.672l30.07,15.034
	c-6.382,45.166-12.996,96.585-16.959,140.449c-0.466,5.161,3.629,9.553,8.811,9.553h210.234c5.182,0,9.277-4.392,8.811-9.553
	c-3.964-43.864-10.577-95.283-16.959-140.449l30.07-15.034c3.242-1.622,5.165-5.06,4.846-8.672L362.998,56.228z M335.452,247.19
	l-0.003-0.018c0,0,0.003-0.033,0.003-0.035V247.19z"/>
<g>
	<path style="fill:#D74B55;" d="M159.026,362.029c6.049-42.809,11.89-79.996,15.065-99.754c1.656-10.303,1.996-20.644,1.022-31.033
		c-3.116-33.244-11.171-112.789-22.913-183.415c-1.704,2.463-2.922,5.282-3.198,8.401L124.114,338.29
		c-0.319,3.612,1.603,7.051,4.846,8.672l30.07,15.034C159.029,362.008,159.028,362.019,159.026,362.029z"/>
	<path style="fill:#D74B55;" d="M362.998,56.228c-0.275-3.118-1.494-5.938-3.198-8.401c-11.743,70.63-19.797,150.173-22.913,183.415
		c-0.974,10.389-0.635,20.73,1.022,31.033c3.176,19.758,9.017,56.945,15.066,99.754c-0.001-0.01-0.002-0.022-0.004-0.032
		l30.07-15.036c3.243-1.621,5.164-5.06,4.845-8.672L362.998,56.228z"/>
	<rect x="247.172" y="256" style="fill:#D74B55;" width="17.655" height="256"/>
</g>
<g>
	<circle style="fill:#EBC9A0;" cx="269.241" cy="295.724" r="13.241"/>
	<circle style="fill:#EBC9A0;" cx="269.241" cy="348.69" r="13.241"/>
	<path style="fill:#EBC9A0;" d="M337.908,262.275c-1.655-10.302-1.995-20.643-1.022-31.033c0.05-0.53,0.111-1.172,0.163-1.725
		h-73.617l61.722-146.59c0.915-2.173,0.679-4.658-0.629-6.62l-11.871-17.806c-2.038-3.058-1.212-7.188,1.845-9.227l15.351-10.233
		c3.264-2.176,4.114-6.562,1.91-9.806C324.904,19.137,308.478,0,282.483,0h-52.966c-25.995,0-42.421,19.137-49.279,29.235
		c-2.204,3.244-1.354,7.631,1.91,9.806L197.5,49.274c3.058,2.038,3.884,6.169,1.845,9.227l-11.871,17.806
		c-1.308,1.961-1.544,4.447-0.629,6.62l61.721,146.59H174.95c0.052,0.553,0.115,1.195,0.163,1.725
		c0.974,10.39,0.634,20.732-1.022,31.035c-0.124,0.768-0.276,1.731-0.408,2.552h29.352V370.76c0,4.875,3.953,8.828,8.828,8.828
		h8.828c4.875,0,8.828-3.953,8.828-8.828V264.829h108.799C338.184,264.007,338.031,263.043,337.908,262.275z"/>
</g>
<g>
	<rect x="203.034" y="264.828" style="fill:#DCB991;" width="26.483" height="17.655"/>
	<path style="fill:#DCB991;" d="M258.879,227.02l28.114-196.792C289.271,14.274,276.892,0,260.776,0h-9.551
		c-16.116,0-28.495,14.274-26.217,30.228l28.114,196.792c0.204,1.432,1.431,2.497,2.879,2.497l0,0
		C257.448,229.517,258.674,228.454,258.879,227.02z"/>
</g>
<g>
</g>
<g>
</g>
<g>
</g>
<g>
</g>
<g>
</g>
<g>
</g>
<g>
</g>
<g>
</g>
<g>
</g>
<g>
</g>
<g>
</g>
<g>
</g>
<g>
</g>
<g>
</g>
<g>
</g>
</svg>
