<?xml version="1.0" encoding="iso-8859-1"?>
<!-- Generator: Adobe Illustrator 19.0.0, SVG Export Plug-In . SVG Version: 6.00 Build 0)  -->
<svg version="1.1" id="Layer_1" xmlns="http://www.w3.org/2000/svg" xmlns:xlink="http://www.w3.org/1999/xlink" x="0px" y="0px"
	 viewBox="0 0 512 512" style="enable-background:new 0 0 512 512;" xml:space="preserve">
<rect x="185.379" y="185.379" style="fill:#DC8246;" width="141.241" height="52.966"/>
<path style="fill:#FFA050;" d="M174.62,0.002c6.34,0.001,12.618,1.268,18.324,4.033c17.67,8.564,39.467,13.62,63.049,13.62
	s45.378-5.056,63.047-13.619C324.749,1.268,331.053,0,337.399,0h14.419c5.349,0,9.47,4.719,8.747,10.02L337.53,178.937
	c-1.193,8.748-8.664,15.27-17.493,15.27H191.962c-8.829,0-16.3-6.521-17.493-15.27L151.435,10.02C150.712,4.721,154.812,0,160.161,0
	C164.684,0.001,170.023,0.001,174.62,0.002z"/>
<path style="fill:#F09146;" d="M337.399,0c-6.346,0-12.65,1.268-18.36,4.035c-17.668,8.563-39.465,13.62-63.047,13.62
	s-45.379-5.057-63.049-13.62c-5.706-2.765-11.982-4.032-18.324-4.033c-2.184,0-4.544-0.001-6.897-0.001
	c0.002,48.753,39.524,88.275,88.277,88.275c48.754,0,88.276-39.522,88.276-88.276H337.399z"/>
<path style="fill:#FFA050;" d="M361.065,512h-210.13c-5.201,0-9.274-4.473-8.789-9.652l23.327-248.82
	c1.276-13.609,12.698-24.011,26.367-24.011h128.32c13.668,0,25.091,10.402,26.367,24.011l23.327,248.82
	C370.339,507.527,366.265,512,361.065,512z"/>
<path style="fill:#DC8246;" d="M319.039,4.035c-17.668,8.563-39.465,13.62-63.047,13.62s-45.379-5.057-63.049-13.62
	c-2.404-1.165-4.926-2.008-7.495-2.658c0.74,38.359,32.013,69.244,70.551,69.244c38.539,0,69.812-30.884,70.551-69.246
	C323.975,2.025,321.447,2.869,319.039,4.035z"/>
<g>
	<path style="fill:#F09146;" d="M256,459.034c4.879,0,8.828-3.953,8.828-8.828v-220.69h-17.655v220.69
		C247.172,455.082,251.121,459.034,256,459.034z"/>
	<path style="fill:#F09146;" d="M291.319,388.879c0.25,4.712,4.147,8.362,8.81,8.362c0.156,0,0.319-0.004,0.474-0.013
		c4.871-0.254,8.604-4.409,8.353-9.28l-8.338-158.431h-17.687L291.319,388.879z"/>
	<path style="fill:#F09146;" d="M211.396,397.228c0.163,0.009,0.319,0.013,0.474,0.013c4.664,0,8.561-3.656,8.81-8.362
		l8.387-159.362h-17.687l-8.339,158.431C202.793,392.819,206.526,396.974,211.396,397.228z"/>
</g>
<g>
</g>
<g>
</g>
<g>
</g>
<g>
</g>
<g>
</g>
<g>
</g>
<g>
</g>
<g>
</g>
<g>
</g>
<g>
</g>
<g>
</g>
<g>
</g>
<g>
</g>
<g>
</g>
<g>
</g>
</svg>
