<?xml version="1.0" encoding="iso-8859-1"?>
<!-- Generator: Adobe Illustrator 19.0.0, SVG Export Plug-In . SVG Version: 6.00 Build 0)  -->
<svg version="1.1" id="Layer_1" xmlns="http://www.w3.org/2000/svg" xmlns:xlink="http://www.w3.org/1999/xlink" x="0px" y="0px"
	 viewBox="0 0 512 512" style="enable-background:new 0 0 512 512;" xml:space="preserve">
<path style="fill:#64DCA0;" d="M369.882,502.355c-3.81-40.084-20.297-195.832-54.348-291.08l24.044-6.557
	c3.683-1.004,6.304-4.263,6.494-8.076l6.987-139.744c0.874-17.475-11.183-32.957-28.341-36.388l-14.276-2.855H203.034l-14.276,2.855
	c-17.159,3.432-29.215,18.912-28.341,36.388l6.986,139.706c0.192,3.831,2.836,7.101,6.542,8.089l22.711,6.057
	c-34.179,95.199-50.721,251.446-54.538,291.604c-0.493,5.185,3.581,9.645,8.79,9.645h210.184
	C366.3,512,370.374,507.54,369.882,502.355z"/>
<path style="fill:#7DF5A5;" d="M167.88,33.378l21.79,38.132c2.993,5.236,4.879,11.03,5.546,17.024l7.818,70.362h105.931
	l7.818-70.361c0.667-5.994,2.553-11.788,5.546-17.024l22.353-39.116c-5.001-5.913-11.88-10.268-19.964-11.884l-14.276-2.856H203.034
	l-14.276,2.855C180.207,22.22,172.929,26.927,167.88,33.378z"/>
<rect x="220.689" style="fill:#50BE8C;" width="70.621" height="35.31"/>
<g>
	<path style="fill:#5ACD96;" d="M256,379.586c-4.879,0-8.828-3.953-8.828-8.828V194.207c0-4.875,3.948-8.828,8.828-8.828
		s8.828,3.953,8.828,8.828v176.552C264.827,375.634,260.879,379.586,256,379.586z"/>
	<path style="fill:#5ACD96;" d="M291.301,317.793c-4.569,0-8.439-3.521-8.793-8.151l-8.828-114.759
		c-0.371-4.862,3.267-9.103,8.12-9.479c5.009-0.375,9.112,3.267,9.483,8.125l8.828,114.759c0.371,4.862-3.267,9.103-8.12,9.479
		C291.758,317.784,291.525,317.793,291.301,317.793z"/>
	<path style="fill:#5ACD96;" d="M220.698,317.793c-0.224,0-0.457-0.009-0.69-0.025c-4.853-0.375-8.491-4.617-8.12-9.479
		l8.828-114.759c0.371-4.857,4.509-8.509,9.483-8.125c4.853,0.375,8.491,4.617,8.12,9.479l-8.828,114.759
		C229.137,314.272,225.266,317.793,220.698,317.793z"/>
</g>
<path style="fill:#64DCA0;" d="M291.31,0L256,35.31L220.689,0l-17.655,17.655l20.666,34.443c2.955,4.925,9.75,5.761,13.811,1.7
	l5.894-5.894c1.39-1.39,3.767-0.406,3.767,1.56v29.983c0,4.875,3.948,8.828,8.828,8.828c4.879,0,8.828-3.953,8.828-8.828V49.465
	c0-1.966,2.377-2.951,3.767-1.56l5.894,5.894c4.061,4.061,10.857,3.224,13.811-1.7l20.666-34.443L291.31,0z"/>
<rect x="203.034" y="158.897" style="fill:#B4FFB4;" width="105.931" height="35.31"/>
<g>
</g>
<g>
</g>
<g>
</g>
<g>
</g>
<g>
</g>
<g>
</g>
<g>
</g>
<g>
</g>
<g>
</g>
<g>
</g>
<g>
</g>
<g>
</g>
<g>
</g>
<g>
</g>
<g>
</g>
</svg>
