<?xml version="1.0" encoding="iso-8859-1"?>
<!-- Generator: Adobe Illustrator 19.0.0, SVG Export Plug-In . SVG Version: 6.00 Build 0)  -->
<svg version="1.1" id="Layer_1" xmlns="http://www.w3.org/2000/svg" xmlns:xlink="http://www.w3.org/1999/xlink" x="0px" y="0px"
	 viewBox="0 0 512 512" style="enable-background:new 0 0 512 512;" xml:space="preserve">
<path style="fill:#F5DCB4;" d="M203.034,158.897c0,0,0.001,8.828,0.001,17.655h105.93v-17.655l24.103-104.446
	c1.294-5.609-2.993-11.002-8.746-10.827c-15.006,0.456-42.055,5.431-61.197,32.658c-3.403,4.841-10.85,4.841-14.253,0
	c-19.143-27.225-46.189-32.202-61.195-32.658c-5.753-0.175-10.04,5.218-8.746,10.827L203.034,158.897z"/>
<path style="fill:#FAEBC8;" d="M308.965,176.552h-105.93v17.655c-68.822,107.054-91.275,267.1-96.051,308.002
	c-0.612,5.248,3.494,9.791,8.777,9.791h280.477c5.284,0,9.39-4.543,8.777-9.791c-4.776-40.903-27.229-200.948-96.05-308.002V176.552
	z"/>
<g>
	<path style="fill:#F5DCB4;" d="M256,379.586c-4.879,0-8.828-3.953-8.828-8.828V185.379c0-4.875,3.948-8.828,8.828-8.828
		c4.879,0,8.828,3.953,8.828,8.828v185.379C264.827,375.634,260.879,379.586,256,379.586z"/>
	<path style="fill:#F5DCB4;" d="M210.776,326.621c-0.388,0-0.793-0.025-1.19-0.077c-4.828-0.655-8.215-5.099-7.569-9.931
		l1.897-14.125c5.603-42.056,12.586-94.392,21.603-128.207c1.259-4.719,6.112-7.482,10.802-6.259
		c4.707,1.255,7.509,6.091,6.25,10.802c-8.715,32.724-15.612,84.444-21.155,126.001l-1.897,14.151
		C218.914,323.405,215.129,326.621,210.776,326.621z"/>
	<path style="fill:#F5DCB4;" d="M301.224,326.612c-4.353,0-8.138-3.215-8.741-7.647l-1.897-14.155
		c-5.543-41.551-12.439-93.263-21.155-125.987c-1.259-4.712,1.543-9.547,6.25-10.802c4.715-1.228,9.551,1.539,10.802,6.259
		c9.017,33.811,16,86.146,21.603,128.194l1.897,14.13c0.647,4.832-2.741,9.276-7.569,9.931
		C302.017,326.586,301.612,326.612,301.224,326.612z"/>
	<path style="fill:#F5DCB4;" d="M205.683,0h-6.24c-3.02,0-5.599,2.184-6.095,5.163l-7.968,47.802h26.483V6.179
		C211.862,2.766,209.096,0,205.683,0z"/>
	<path style="fill:#F5DCB4;" d="M306.317,0h6.24c3.02,0,5.599,2.184,6.095,5.163l7.968,47.802h-26.483V6.179
		C300.138,2.766,302.904,0,306.317,0z"/>
</g>
<rect x="203.034" y="158.897" style="fill:#EBC9A0;" width="105.931" height="35.31"/>
<path style="fill:#FAEBC8;" d="M191.23,107.742c7.319,4.424,15.87,7.017,25.046,7.017c13.15,0,25.062-5.242,33.798-13.739
	c3.24-3.15,8.614-3.15,11.853,0c8.736,8.497,20.648,13.739,33.798,13.739c9.176,0,17.727-2.593,25.046-7.017l12.298-53.291
	c1.294-5.609-2.993-11.002-8.746-10.827c-14.993,0.456-42.005,5.422-61.144,32.583c-3.428,4.866-10.873,4.96-14.295,0.09
	c-19.14-27.235-46.191-32.215-61.201-32.672c-5.756-0.175-10.046,5.216-8.75,10.827L191.23,107.742z"/>
<g>
</g>
<g>
</g>
<g>
</g>
<g>
</g>
<g>
</g>
<g>
</g>
<g>
</g>
<g>
</g>
<g>
</g>
<g>
</g>
<g>
</g>
<g>
</g>
<g>
</g>
<g>
</g>
<g>
</g>
</svg>
