<?xml version="1.0" encoding="iso-8859-1"?>
<!-- Generator: Adobe Illustrator 19.0.0, SVG Export Plug-In . SVG Version: 6.00 Build 0)  -->
<svg version="1.1" id="Layer_1" xmlns="http://www.w3.org/2000/svg" xmlns:xlink="http://www.w3.org/1999/xlink" x="0px" y="0px"
	 viewBox="0 0 512 512" style="enable-background:new 0 0 512 512;" xml:space="preserve">
<g>
	<path style="fill:#D74B55;" d="M185.379,317.793V44.138l-39.913-15.965c-2.82,4.107-4.557,8.941-4.718,14.103l-8.111,259.576
		c-0.13,4.152,2.653,7.832,6.682,8.84l28.405,7.101H185.379z"/>
	<path style="fill:#D74B55;" d="M371.251,42.276c-0.161-5.162-1.898-9.996-4.718-14.103L326.62,44.138v273.655h17.655l28.406-7.102
		c4.03-1.007,6.812-4.687,6.682-8.84L371.251,42.276z"/>
</g>
<g>
	<path style="fill:#C8414B;" d="M379.363,301.852c0.13,4.152-2.653,7.832-6.682,8.84l-28.405,7.102H326.62v-35.31l51.815-10.362
		L379.363,301.852z"/>
	<path style="fill:#C8414B;" d="M132.636,301.852c-0.13,4.152,2.653,7.832,6.682,8.84l28.405,7.102h17.655v-35.31l-51.815-10.362
		L132.636,301.852z"/>
</g>
<path style="fill:#FF5A64;" d="M142.766,33.431c6.771,31.072,33.785,157.479,33.785,196.086c0,52.966-17.655,70.621-17.655,141.241
	c0,43.349,5.913,110.35,8.061,133.251c0.426,4.539,4.23,7.99,8.788,7.99h160.511c4.558,0,8.362-3.452,8.788-7.99
	c2.146-22.901,8.06-89.902,8.06-133.251c0-70.621-17.655-88.276-17.655-141.241c0-38.607,27.015-165.014,33.785-196.086
	c-2.364-5.962-6.685-11.053-12.607-14.015l-27.65-13.825C321.622,1.914,313.512,0,305.289,0h-98.58
	c-8.223,0-16.332,1.914-23.687,5.591l-27.651,13.825C149.451,22.378,145.128,27.469,142.766,33.431z"/>
<path style="fill:#D74B55;" d="M277.19,109.056c25.987-33.697,43.683-76.249,53.14-102.787l-1.355-0.678
	C321.622,1.914,313.512,0,305.289,0h-98.58c-8.223,0-16.332,1.914-23.687,5.591l-1.355,0.678
	c9.457,26.538,27.153,69.09,53.14,102.787C245.572,123.014,266.426,123.014,277.19,109.056z"/>
<path style="fill:#C8414B;" d="M207.643,0.021c9.132,25.451,22.921,56.898,41.364,80.114c3.58,4.506,10.407,4.506,13.987,0
	c18.447-23.222,32.238-54.679,41.37-80.134L207.643,0.021z"/>
<g>
</g>
<g>
</g>
<g>
</g>
<g>
</g>
<g>
</g>
<g>
</g>
<g>
</g>
<g>
</g>
<g>
</g>
<g>
</g>
<g>
</g>
<g>
</g>
<g>
</g>
<g>
</g>
<g>
</g>
</svg>
