<?xml version="1.0" encoding="iso-8859-1"?>
<!-- Generator: Adobe Illustrator 19.0.0, SVG Export Plug-In . SVG Version: 6.00 Build 0)  -->
<svg version="1.1" id="Layer_1" xmlns="http://www.w3.org/2000/svg" xmlns:xlink="http://www.w3.org/1999/xlink" x="0px" y="0px"
	 viewBox="0 0 512 512" style="enable-background:new 0 0 512 512;" xml:space="preserve">
<g>
	<path style="fill:#FF9BA9;" d="M180.398,9.591l7.334,58.675h25.6V8.533c0-4.713-3.821-8.533-8.533-8.533h-15.934
		C183.733,0,179.762,4.498,180.398,9.591z"/>
	<path style="fill:#FF9BA9;" d="M298.666,8.533v59.733h25.6l7.334-58.675C332.237,4.498,328.266,0,323.133,0h-15.934
		C302.487,0,298.666,3.821,298.666,8.533z"/>
	<path style="fill:#FF9BA9;" d="M324.266,128l-68.267-25.6L187.733,128c0,0-48.47,258.961-58.949,374.677
		c-0.454,5.012,3.468,9.323,8.5,9.323h237.433c5.033,0,8.955-4.31,8.5-9.323C372.737,386.961,324.266,128,324.266,128z"/>
</g>
<g>
	<path style="fill:#FF8B9B;" d="M247.466,110.933v187.733c0,4.717,3.817,8.533,8.533,8.533s8.533-3.817,8.533-8.533V110.933H247.466
		z"/>
	<path style="fill:#FF8B9B;" d="M307.116,237.725L290.05,118.258l-16.9,2.417l17.067,119.467c0.608,4.258,4.258,7.325,8.442,7.325
		c0.4,0,0.809-0.025,1.217-0.083C304.541,246.717,307.783,242.391,307.116,237.725z"/>
	<path style="fill:#FF8B9B;" d="M221.949,118.258l-17.067,119.467c-0.667,4.667,2.575,8.992,7.242,9.659
		c0.409,0.059,0.817,0.083,1.217,0.083c4.183,0,7.834-3.067,8.442-7.325l17.067-119.467L221.949,118.258z"/>
</g>
<path style="fill:#FFAAB9;" d="M251.878,81.6c-19.165-15.763-48.466-20.163-63.331-21.392c-5.047-0.417-9.325,3.677-9.142,8.738
	c0.506,13.978,2.256,40.836,8.329,59.053c0,0,26.669,0,56.434-5.893c7.813-1.547,15.853-1.547,23.666,0
	C297.597,128,324.266,128,324.266,128c6.073-18.217,7.824-45.075,8.329-59.053c0.182-5.062-4.094-9.155-9.142-8.738
	c-14.865,1.228-44.168,5.628-63.331,21.392C257.715,83.58,254.284,83.58,251.878,81.6z"/>
<g>
</g>
<g>
</g>
<g>
</g>
<g>
</g>
<g>
</g>
<g>
</g>
<g>
</g>
<g>
</g>
<g>
</g>
<g>
</g>
<g>
</g>
<g>
</g>
<g>
</g>
<g>
</g>
<g>
</g>
</svg>
