<?xml version="1.0" encoding="iso-8859-1"?>
<!-- Generator: Adobe Illustrator 19.0.0, SVG Export Plug-In . SVG Version: 6.00 Build 0)  -->
<svg version="1.1" id="Layer_1" xmlns="http://www.w3.org/2000/svg" xmlns:xlink="http://www.w3.org/1999/xlink" x="0px" y="0px"
	 viewBox="0 0 512 512" style="enable-background:new 0 0 512 512;" xml:space="preserve">
<g>
	<rect x="194.207" y="176.73" style="fill:#959CB5;" width="123.586" height="17.655"/>
	<path style="fill:#959CB5;" d="M285.095,253.407c-4.052,0-7.699-2.802-8.612-6.914c-2.112-9.535-10.724-16.448-20.483-16.448
		s-18.37,6.914-20.483,16.448c-1.052,4.767-5.759,7.742-10.535,6.707c-4.759-1.06-7.758-5.775-6.707-10.535
		c3.957-17.827,19.474-30.276,37.725-30.276s33.768,12.448,37.725,30.276c1.052,4.759-1.949,9.474-6.707,10.535
		C286.37,253.338,285.732,253.407,285.095,253.407z"/>
	<path style="fill:#959CB5;" d="M8.828,203.218c-4.875,0-8.828,3.953-8.828,8.828v8.828c0,9.75,7.905,17.655,17.655,17.655H35.31
		v-35.31H8.828z"/>
	<path style="fill:#959CB5;" d="M503.172,203.218H476.69v35.31h17.655c9.75,0,17.655-7.905,17.655-17.655v-8.828
		C512,207.17,508.047,203.218,503.172,203.218z"/>
</g>
<g>
	<path style="fill:#7F8499;" d="M126.164,335.209c-23.345,0-45.802-8.061-63.844-23.121c-22.776-19-35.837-46.914-35.837-76.577
		v-23.466c0-19.474,15.837-35.31,35.31-35.31h141.241c19.474,0,35.31,15.837,35.31,35.31v8.69c0,55.5-39.629,102.983-94.232,112.905
		v-0.018C138.103,334.691,132.104,335.209,126.164,335.209z"/>
	<path style="fill:#7F8499;" d="M450.207,176.735H308.966c-19.474,0-35.31,15.837-35.31,35.31v8.69
		c0,55.5,39.629,102.983,94.232,112.905l0.034,0.009c5.974,1.095,11.975,1.63,17.931,1.621c23.155,0,45.716-8.061,63.828-23.181
		c22.776-19,35.837-46.914,35.837-76.577v-23.466C485.517,192.572,469.681,176.735,450.207,176.735z"/>
</g>
<g>
	<path style="fill:#D5DCED;" d="M308.966,194.39c-9.732,0-17.655,7.923-17.655,17.655v8.69c0,46.966,33.535,87.138,79.733,95.543
		c0.19,0.025,0.38,0.069,0.561,0.12l0.034,0.009c23.466,4.242,47.982-2.225,66.733-17.87c18.741-15.647,29.491-38.612,29.491-63.026
		v-23.466c0-9.732-7.923-17.655-17.655-17.655L308.966,194.39L308.966,194.39z"/>
	<path style="fill:#D5DCED;" d="M61.793,194.39c-9.732,0-17.655,7.923-17.655,17.655v23.466c0,24.414,10.75,47.38,29.492,63.026
		c18.75,15.647,43.276,22.069,67.293,17.75l0.034-0.009c46.198-8.405,79.733-48.578,79.733-95.543v-8.69
		c0-9.732-7.923-17.655-17.655-17.655H61.793z"/>
</g>
<g>
	<path style="fill:#E4EAF8;" d="M126.044,300.321c-4.879,0-8.828-3.948-8.828-8.828c0-4.879,3.948-8.828,8.828-8.828
		c2.828,0,5.707-0.258,8.561-0.785c17.992-3.267,33.526-14.241,42.621-30.087c2.776-4.845,4.879-10.044,6.25-15.448
		c1.198-4.742,6.008-7.577,10.733-6.388c4.724,1.207,7.586,6.008,6.388,10.733c-1.768,6.957-4.483,13.646-8.061,19.887
		c-11.681,20.371-31.647,34.465-54.776,38.673C133.87,299.959,129.931,300.321,126.044,300.321z"/>
	<path style="fill:#E4EAF8;" d="M385.956,300.321c-3.887,0-7.844-0.362-11.758-1.078c-4.793-0.871-7.975-5.465-7.095-10.268
		c0.879-4.793,5.492-8.009,10.268-7.095c2.862,0.518,5.759,0.785,8.586,0.785c25.689,0,46.595-21,46.595-46.81
		c0-4.879,3.948-8.828,8.828-8.828c4.879,0,8.828,3.948,8.828,8.828C450.207,271.399,421.388,300.321,385.956,300.321z"/>
</g>
<g>
	<path style="fill:#C7CFE2;" d="M335.448,282.666c0-39.241,23.324-72.962,56.822-88.276h-83.305
		c-9.732,0-17.655,7.923-17.655,17.655v8.69c0,34.665,18.301,65.582,46.446,82.804C336.28,296.809,335.448,289.838,335.448,282.666z
		"/>
	<path style="fill:#C7CFE2;" d="M88.276,282.666c0-39.241,23.324-72.962,56.822-88.276H61.793c-9.732,0-17.655,7.923-17.655,17.655
		v23.466c0,24.414,10.75,47.38,29.492,63.026c5.724,4.776,12.029,8.58,18.649,11.594C89.711,301.416,88.276,292.213,88.276,282.666z
		"/>
</g>
<g>
</g>
<g>
</g>
<g>
</g>
<g>
</g>
<g>
</g>
<g>
</g>
<g>
</g>
<g>
</g>
<g>
</g>
<g>
</g>
<g>
</g>
<g>
</g>
<g>
</g>
<g>
</g>
<g>
</g>
</svg>
