<?xml version="1.0" encoding="iso-8859-1"?>
<!-- Generator: Adobe Illustrator 19.0.0, SVG Export Plug-In . SVG Version: 6.00 Build 0)  -->
<svg version="1.1" id="Layer_1" xmlns="http://www.w3.org/2000/svg" xmlns:xlink="http://www.w3.org/1999/xlink" x="0px" y="0px"
	 viewBox="0 0 512 512" style="enable-background:new 0 0 512 512;" xml:space="preserve">
<path style="fill:#AA6455;" d="M46.526,205.689c11.585-6.493,25.899-1.47,31.073,10.37l17.429,39.837
	c2.374,5.426,7.733,8.931,13.654,8.931c8.231,0,14.904-6.673,14.904-14.904V102.778c0-11.544,8.306-22.065,19.794-23.215
	c13.209-1.323,24.344,9.015,24.344,21.954V75.034c0-12.189,9.88-22.069,22.069-22.069c12.189,0,22.069,9.88,22.069,22.069v26.483
	c0-12.189,9.88-22.069,22.069-22.069S256,89.329,256,101.517v35.31c0-12.189,9.88-22.069,22.069-22.069
	c12.189,0,22.069,9.88,22.069,22.069v119.574c0,17.322-2.124,34.579-6.325,51.384l-13.832,55.326
	c-4.201,16.804-6.325,34.062-6.325,51.384v79.849c0,9.75-7.905,17.655-17.655,17.655h-114.76c-9.75,0-17.655-7.905-17.655-17.655
	v-70.621L37.664,234.903C33.033,224.317,36.445,211.339,46.526,205.689z"/>
<g>
	<path style="fill:#9B5A50;" d="M176.552,238.345L176.552,238.345c4.875,0,8.828-3.953,8.828-8.828V79.448
		c0-4.875-3.953-8.828-8.828-8.828l0,0c-4.875,0-8.828,3.953-8.828,8.828v150.069C167.724,234.392,171.677,238.345,176.552,238.345z
		"/>
	<path style="fill:#9B5A50;" d="M132.414,97.103c-4.875,0-8.828,3.953-8.828,8.828v143.992c0,4.895-2.392,9.201-6.037,11.917
		c3.828,2.824,8.842,3.977,14.047,1.994c5.995-2.284,9.645-8.454,9.645-14.869V105.931
		C141.242,101.056,137.289,97.103,132.414,97.103L132.414,97.103z"/>
</g>
<path style="fill:#AA6455;" d="M465.474,152.724c-11.585-6.493-25.899-1.47-31.073,10.37l-17.429,39.837
	c-2.374,5.426-7.733,8.93-13.654,8.93c-8.231,0-14.904-6.673-14.904-14.904V49.813c0-11.544-8.306-22.065-19.794-23.215
	c-13.209-1.323-24.344,9.015-24.344,21.954V22.069C344.276,9.88,334.396,0,322.207,0s-22.069,9.88-22.069,22.069v26.483
	c0-12.189-9.88-22.069-22.069-22.069c-12.189,0-22.069,9.88-22.069,22.069v35.31c0-12.189-9.88-22.069-22.069-22.069
	s-22.069,9.88-22.069,22.069v119.574c0,17.322,2.124,34.579,6.325,51.384l13.832,55.326c4.201,16.804,6.325,34.062,6.325,51.384
	v79.849c0,9.75,7.905,17.655,17.655,17.655h114.759c9.75,0,17.655-7.905,17.655-17.655v-70.621l85.922-188.821
	C478.967,171.351,475.555,158.374,465.474,152.724z"/>
<g>
	<path style="fill:#9B5A50;" d="M353.104,176.552L353.104,176.552c-4.875,0-8.828-3.953-8.828-8.828V52.966
		c0-4.875,3.953-8.828,8.828-8.828l0,0c4.875,0,8.828,3.953,8.828,8.828v114.759C361.931,172.599,357.979,176.552,353.104,176.552z"
		/>
	<path style="fill:#9B5A50;" d="M308.966,185.379L308.966,185.379c-4.875,0-8.828-3.953-8.828-8.828V26.483
		c0-4.875,3.953-8.828,8.828-8.828l0,0c4.875,0,8.828,3.953,8.828,8.828v150.069C317.793,181.427,313.841,185.379,308.966,185.379z"
		/>
	<path style="fill:#9B5A50;" d="M264.828,194.207L264.828,194.207c-4.875,0-8.828-3.953-8.828-8.828V52.966
		c0-4.875,3.953-8.828,8.828-8.828l0,0c4.875,0,8.828,3.953,8.828,8.828v132.414C273.655,190.254,269.703,194.207,264.828,194.207z"
		/>
	<path style="fill:#9B5A50;" d="M388.414,388.414v-17.655H256.32v-9.227c0-17.323-2.124-34.581-6.326-51.386l-13.831-55.324
		c-4.202-16.806-6.326-34.063-6.326-51.385v-115c0-4.963-4.023-8.988-8.988-8.988l0,0c-4.963,0-8.988,4.023-8.988,8.988v115.005
		c0,17.321,2.124,34.577,6.325,51.38l13.831,55.321c4.202,16.806,6.326,34.065,6.326,51.388v79.85
		c0,9.75,7.905,17.655,17.655,17.655h17.975c-9.75,0-17.655-7.905-17.655-17.655h132.095v-35.31H256.32v-17.655H388.414z"/>
	<path style="fill:#9B5A50;" d="M273.655,441.379v-17.655H141.242c0,0-66.489-146.127-82.503-181.32
		c-1.886-4.146-6.822-5.865-10.895-3.828c-3.868,1.934-5.513,6.582-3.722,10.518l79.465,174.63v70.621
		c0,9.75,7.905,17.655,17.655,17.655h17.655c-9.75,0-17.655-7.905-17.655-17.655h132.414v-35.31H141.242v-17.655H273.655z"/>
</g>
<g>
</g>
<g>
</g>
<g>
</g>
<g>
</g>
<g>
</g>
<g>
</g>
<g>
</g>
<g>
</g>
<g>
</g>
<g>
</g>
<g>
</g>
<g>
</g>
<g>
</g>
<g>
</g>
<g>
</g>
</svg>
