<?xml version="1.0" encoding="iso-8859-1"?>
<!-- Generator: Adobe Illustrator 19.0.0, SVG Export Plug-In . SVG Version: 6.00 Build 0)  -->
<svg version="1.1" id="Layer_1" xmlns="http://www.w3.org/2000/svg" xmlns:xlink="http://www.w3.org/1999/xlink" x="0px" y="0px"
	 viewBox="0 0 512 512" style="enable-background:new 0 0 512 512;" xml:space="preserve">
<path style="fill:#7D4641;" d="M406.069,150.069C406.069,67.188,338.881,0,256,0l0,0c-82.881,0-150.069,67.188-150.069,150.069
	v35.31h35.31v-35.31C141.241,86.689,192.62,35.31,256,35.31s114.759,51.379,114.759,114.759v35.31h35.31V150.069z"/>
<path style="fill:#9B5A50;" d="M458.443,390.355L425.98,173.932c-1.297-8.642-8.721-15.036-17.46-15.036h-29.414
	c-4.462,0-8.292,3.33-8.723,7.772c-3.906,40.231-37.817,71.677-79.073,71.677H220.69c-41.256,0-75.167-31.446-79.073-71.677
	c-0.431-4.441-4.26-7.772-8.723-7.772H103.48c-8.739,0-16.163,6.393-17.46,15.036L53.557,390.355
	C43.95,454.401,93.554,512,158.316,512h195.368C418.446,512,468.05,454.401,458.443,390.355z"/>
<path style="fill:#915046;" d="M422.055,266.769l-15.986-107.872v-8.828l0,0C406.069,67.188,338.881,0,256,0
	S105.931,67.188,105.931,150.069v8.828L89.937,266.829c-6.069,40.46,11.665,81.726,47.864,105.084
	c17.457,11.265,38.137,16.501,58.913,16.501h9.398c3.71,0,7.017,2.327,8.248,5.827c6.042,17.173,22.401,29.483,41.64,29.483
	s35.597-12.31,41.64-29.483c1.231-3.499,4.538-5.827,8.248-5.827h8.764c23.486,0,46.802-6.69,65.634-20.723
	C412.367,343.788,427.785,304.968,422.055,266.769z M388.414,158.897h-9.308c-4.462,0-8.292,3.33-8.723,7.772
	c-3.906,40.231-37.817,71.677-79.073,71.677H220.69c-41.256,0-75.167-31.446-79.073-71.677c-0.431-4.441-4.26-7.772-8.724-7.772
	h-9.306v-8.828c0-73.13,59.284-132.414,132.414-132.414s132.414,59.284,132.414,132.414V158.897z"/>
<path style="fill:#AA6455;" d="M194.705,370.759h122.592c53.97,0,95.305-48,87.299-101.372l-16.182-110.49h-9.308
	c-4.462,0-8.292,3.33-8.723,7.772c-3.906,40.231-37.817,71.677-79.073,71.677H220.69c-41.256,0-75.167-31.446-79.073-71.677
	c-0.431-4.441-4.26-7.772-8.724-7.772h-9.306l-16.181,110.49C99.4,322.759,140.735,370.759,194.705,370.759z"/>
<path style="fill:#F5DCB4;" d="M256,406.069L256,406.069c-14.626,0-26.483-11.857-26.483-26.483v-17.655
	c0-4.875,3.953-8.828,8.828-8.828h35.31c4.875,0,8.828,3.953,8.828,8.828v17.655C282.483,394.212,270.626,406.069,256,406.069z"/>
<path style="fill:#EBC9A0;" d="M247.172,353.103v26.483c0,4.875,3.953,8.828,8.828,8.828s8.828-3.953,8.828-8.828v-26.483H247.172z"
	/>
<g>
</g>
<g>
</g>
<g>
</g>
<g>
</g>
<g>
</g>
<g>
</g>
<g>
</g>
<g>
</g>
<g>
</g>
<g>
</g>
<g>
</g>
<g>
</g>
<g>
</g>
<g>
</g>
<g>
</g>
</svg>
