<?xml version="1.0" encoding="iso-8859-1"?>
<!-- Generator: Adobe Illustrator 19.0.0, SVG Export Plug-In . SVG Version: 6.00 Build 0)  -->
<svg version="1.1" id="Layer_1" xmlns="http://www.w3.org/2000/svg" xmlns:xlink="http://www.w3.org/1999/xlink" x="0px" y="0px"
	 viewBox="0 0 512 512" style="enable-background:new 0 0 512 512;" xml:space="preserve">
<path style="fill:#464655;" d="M401.067,332.8c-4.717,0-8.533-3.817-8.533-8.533V153.6c0-75.283-61.25-136.533-136.533-136.533
	S119.467,78.317,119.467,153.6v170.667c0,4.717-3.817,8.533-8.533,8.533s-8.533-3.817-8.533-8.533V153.6
	C102.4,68.909,171.309,0,256,0s153.6,68.909,153.6,153.6v170.667C409.6,328.983,405.783,332.8,401.067,332.8z"/>
<path style="fill:#5B5D6E;" d="M119.467,358.4v128c0,14.139,11.461,25.6,25.6,25.6h221.867c14.139,0,25.6-11.461,25.6-25.6v-128
	H119.467z"/>
<path style="fill:#707487;" d="M392.533,315.733H119.467c-4.713,0-8.533,3.821-8.533,8.533v42.667
	c0,32.99,26.743,59.733,59.733,59.733h170.667c32.99,0,59.733-26.743,59.733-59.733v-42.667
	C401.067,319.554,397.246,315.733,392.533,315.733z"/>
<path style="fill:#C7CFE2;" d="M256,460.8L256,460.8c-9.426,0-17.067-7.641-17.067-17.067v-25.6c0-9.426,7.641-17.067,17.067-17.067
	l0,0c9.426,0,17.067,7.641,17.067,17.067v25.6C273.067,453.159,265.426,460.8,256,460.8z"/>
<path style="fill:#E4EAF8;" d="M256,435.2L256,435.2c-9.426,0-17.067-7.641-17.067-17.067l0,0c0-9.426,7.641-17.067,17.067-17.067
	l0,0c9.426,0,17.067,7.641,17.067,17.067l0,0C273.067,427.56,265.426,435.2,256,435.2z"/>
<g>
</g>
<g>
</g>
<g>
</g>
<g>
</g>
<g>
</g>
<g>
</g>
<g>
</g>
<g>
</g>
<g>
</g>
<g>
</g>
<g>
</g>
<g>
</g>
<g>
</g>
<g>
</g>
<g>
</g>
</svg>
