<?xml version="1.0" encoding="iso-8859-1"?>
<!-- Generator: Adobe Illustrator 19.0.0, SVG Export Plug-In . SVG Version: 6.00 Build 0)  -->
<svg version="1.1" id="Layer_1" xmlns="http://www.w3.org/2000/svg" xmlns:xlink="http://www.w3.org/1999/xlink" x="0px" y="0px"
	 viewBox="0 0 512 512" style="enable-background:new 0 0 512 512;" xml:space="preserve">
<path style="fill:#707487;" d="M346.352,146.014c-36.14-25.489-63.246,8.498-90.352,8.498s-54.211-33.987-90.352-8.498
	c-46.283,32.644-63.246,220.918-63.246,220.918h307.196C409.599,366.932,392.635,178.658,346.352,146.014z"/>
<path style="fill:#464655;" d="M108.691,315.732c-4.344,29.696-6.289,51.199-6.289,51.199h307.196c0,0-1.945-21.504-6.289-51.199
	H108.691z"/>
<path style="fill:#5B5D6E;" d="M460.797,375.465H51.203c-27.3,0-45.708-9.049-46.483-9.433c-4.216-2.109-5.925-7.233-3.816-11.449
	c2.116-4.216,7.242-5.908,11.449-3.816c0.125,0.067,15.8,7.633,38.85,7.633h409.595c23.316,0,38.699-7.558,38.85-7.633
	c4.216-2.092,9.333-0.4,11.449,3.816c2.109,4.216,0.4,9.342-3.816,11.449C506.506,366.415,488.097,375.465,460.797,375.465z"/>
<g>
</g>
<g>
</g>
<g>
</g>
<g>
</g>
<g>
</g>
<g>
</g>
<g>
</g>
<g>
</g>
<g>
</g>
<g>
</g>
<g>
</g>
<g>
</g>
<g>
</g>
<g>
</g>
<g>
</g>
</svg>
