<?xml version="1.0" encoding="iso-8859-1"?>
<!-- Generator: Adobe Illustrator 19.0.0, SVG Export Plug-In . SVG Version: 6.00 Build 0)  -->
<svg version="1.1" id="Layer_1" xmlns="http://www.w3.org/2000/svg" xmlns:xlink="http://www.w3.org/1999/xlink" x="0px" y="0px"
	 viewBox="0 0 512 512" style="enable-background:new 0 0 512 512;" xml:space="preserve">
<path style="fill:#F5DCB4;" d="M59.734,223.203v150.99c0,4.713-3.821,8.533-8.533,8.533h-9.318c-4.395,0-8.035-3.38-8.476-7.754
	C25.6,297.392,0,271.792,0,229.126v-5.923H59.734z"/>
<path style="fill:#5B5D6E;" d="M512,350.281c0,4.012-2.736,7.471-6.655,8.325c-25.04,5.455-115.502,24.119-181.078,24.119
	c-59.733,0-102.4-34.133-170.667-85.333c-51.118-38.339-112.332-52.754-139.595-57.578c-8.494-1.503-14.577-9.23-13.962-17.834
	c2.51-35.079,12.987-65.633,19.722-82.163c3.328-8.167,12.371-12.438,20.766-9.734c27.534,8.87,96.362,41.17,232.535,158.775
	c53.401,46.118,111.839,21.805,130.474,12.002c4.073-2.142,8.79-2.605,13.178-1.217l79.766,25.232
	C505.897,328.91,512,338.351,512,348.592V350.281z"/>
<path style="fill:#EBC9A0;" d="M29.794,348.592c1.418,8.098,2.652,16.837,3.612,26.38c0.441,4.373,4.081,7.754,8.476,7.754H51.2
	c4.713,0,8.533-3.821,8.533-8.533v-25.6H29.794z"/>
<path style="fill:#464655;" d="M332.8,357.126c-59.733,0-102.4-34.133-170.667-85.333C114.91,236.375,45.757,215.444,1.846,205.728
	c-0.752,5.298-1.405,10.69-1.803,16.254c-0.615,8.604,5.468,16.331,13.962,17.834c27.264,4.823,88.478,19.238,139.596,57.578
	c68.267,51.2,110.933,85.333,170.667,85.333c65.577,0,156.038-18.665,181.078-24.119c3.919-0.853,6.655-4.314,6.655-8.325v-1.689
	c0-5.155-1.552-10.102-4.288-14.265C476.384,340.965,393.842,357.126,332.8,357.126z"/>
<g>
</g>
<g>
</g>
<g>
</g>
<g>
</g>
<g>
</g>
<g>
</g>
<g>
</g>
<g>
</g>
<g>
</g>
<g>
</g>
<g>
</g>
<g>
</g>
<g>
</g>
<g>
</g>
<g>
</g>
</svg>
