<?xml version="1.0" encoding="iso-8859-1"?>
<!-- Generator: Adobe Illustrator 19.0.0, SVG Export Plug-In . SVG Version: 6.00 Build 0)  -->
<svg version="1.1" id="Layer_1" xmlns="http://www.w3.org/2000/svg" xmlns:xlink="http://www.w3.org/1999/xlink" x="0px" y="0px"
	 viewBox="0 0 512 512" style="enable-background:new 0 0 512 512;" xml:space="preserve">
<path style="fill:#D74B55;" d="M194.207,320.354C148.902,199.54,79.78,119.497,60.734,98.872c-3.001-3.251-3.62-8.002-1.612-11.945
	l7.889-15.484c1.858-3.647,6.66-4.514,9.699-1.772c10.206,9.209,32.469,30.478,60.854,64.568
	c66.24,79.55,127.816,218.115,178.759,229.517l-104.46,0.735L194.207,320.354z"/>
<path style="fill:#EBC9A0;" d="M0,232.078c0,34.333,16.691,110.395,25.73,203.841c0.438,4.525,4.222,8.021,8.768,8.021h9.64
	c4.875,0,8.828-3.953,8.828-8.828V251.94L0,232.078z"/>
<path style="fill:#FF5A64;" d="M512,411.174c0,3.796-2.387,7.165-5.99,8.361c-18.807,6.243-79.804,24.405-152.907,24.405
	c-35.31,0-88.276-8.828-176.552-88.276C97.54,284.555,0,232.078,0,232.078l6.217-24.867c1.356-5.425,7.35-8.25,12.385-5.816
	c27.761,13.416,112.079,56.011,219.743,127.787c83.243,55.495,121.817,34.525,142.078,16.495c5.133-4.568,12.385-5.784,18.701-3.078
	l96.825,41.496c9.737,4.173,16.051,13.748,16.051,24.342L512,411.174L512,411.174z"/>
<path style="fill:#DCB991;" d="M22.814,408.63c1.026,8.927,2.017,17.994,2.916,27.289c0.438,4.525,4.222,8.021,8.768,8.021h9.64
	c4.875,0,8.828-3.953,8.828-8.828V408.63H22.814z"/>
<g>
</g>
<g>
</g>
<g>
</g>
<g>
</g>
<g>
</g>
<g>
</g>
<g>
</g>
<g>
</g>
<g>
</g>
<g>
</g>
<g>
</g>
<g>
</g>
<g>
</g>
<g>
</g>
<g>
</g>
</svg>
