<?xml version="1.0" encoding="iso-8859-1"?>
<!-- Generator: Adobe Illustrator 19.0.0, SVG Export Plug-In . SVG Version: 6.00 Build 0)  -->
<svg version="1.1" id="Layer_1" xmlns="http://www.w3.org/2000/svg" xmlns:xlink="http://www.w3.org/1999/xlink" x="0px" y="0px"
	 viewBox="0 0 512.001 512.001" style="enable-background:new 0 0 512.001 512.001;" xml:space="preserve">
<path style="fill:#DCB991;" d="M358.296,42.623l41.547,302.192c0.981,7.139-2.631,14.124-9.024,17.449l-41.047,21.344h-17.049
	V42.623H358.296z"/>
<path style="fill:#F5DCB4;" d="M399.842,344.814c0.981,7.139-2.631,14.124-9.024,17.449l-41.046,21.345h-17.049v-30.435
	l63.942-31.473L399.842,344.814z"/>
<path style="fill:#DCB991;" d="M153.705,42.623l-41.547,302.192c-0.981,7.139,2.631,14.124,9.024,17.449l41.047,21.344h17.049
	V42.623H153.705z"/>
<path style="fill:#F5DCB4;" d="M112.158,344.814c-0.981,7.139,2.631,14.124,9.024,17.449l41.047,21.345h17.049v-30.435
	L115.337,321.7L112.158,344.814z"/>
<path style="fill:#EBC9A0;" d="M335.962,232.321c6.883-32.782,22.332-113.016,22.332-172.649l-51.148-25.575l-5.296-21.184
	C299.954,5.325,293.136,0,285.312,0h-58.624c-7.823,0-14.643,5.325-16.54,12.914l-5.296,21.184l-51.148,25.575
	c0,59.635,15.451,139.871,22.333,172.652c2.009,9.566,1.647,19.439-1.142,28.807c-26.015,87.351-35.974,208.23-38.207,241.84
	c-0.327,4.919,3.581,9.03,8.511,9.03l221.617-0.523c4.929,0,8.838-4.111,8.511-9.03c-2.233-33.608-12.204-154.007-38.218-241.308
	C334.315,251.768,333.954,241.891,335.962,232.321z"/>
<circle style="fill:#5B5D6E;" cx="277.316" cy="140.656" r="12.787"/>
<g>
	<path style="fill:#DCB991;" d="M256.001,59.672c22.175,0,42.306-8.537,57.469-22.414l-6.32-3.16l-5.296-21.184
		C299.954,5.325,293.136,0,285.312,0h-58.625c-7.823,0-14.642,5.325-16.54,12.914l-5.296,21.184l-6.32,3.16
		C213.695,51.135,233.826,59.672,256.001,59.672z"/>
	<path style="fill:#DCB991;" d="M337.108,261.14c-2.793-9.371-3.154-19.249-1.146-28.819c0.139-0.661,0.302-1.458,0.447-2.157
		H175.591c0.146,0.7,0.309,1.497,0.448,2.159c2.009,9.567,1.647,19.439-1.142,28.808c-0.308,1.031-0.601,2.091-0.905,3.132H338.01
		C337.708,263.224,337.415,262.169,337.108,261.14z"/>
	<rect x="247.48" y="460.329" style="fill:#DCB991;" width="17.049" height="51.148"/>
</g>
<g>
	<path style="fill:#FAEBC8;" d="M162.23,68.197h25.574c14.124,0,25.574-11.45,25.574-25.574l0,0
		c0-14.124-11.45-25.574-25.574-25.574H162.23c-14.124,0-25.574,11.45-25.574,25.574l0,0
		C136.656,56.747,148.106,68.197,162.23,68.197z"/>
	<path style="fill:#FAEBC8;" d="M349.771,68.197h-25.574c-14.124,0-25.574-11.45-25.574-25.574l0,0
		c0-14.124,11.45-25.574,25.574-25.574h25.574c14.124,0,25.574,11.45,25.574,25.574l0,0
		C375.345,56.747,363.894,68.197,349.771,68.197z"/>
</g>
<g>
	<circle style="fill:#5B5D6E;" cx="277.316" cy="285.575" r="12.787"/>
	<circle style="fill:#5B5D6E;" cx="277.316" cy="430.493" r="12.787"/>
</g>
<path style="fill:#DCB991;" d="M321.275,340.985c-4.055,0-7.651-2.906-8.383-7.035c-2.114-11.896-4.371-23.243-6.701-33.74
	c-1.016-4.596,1.882-9.149,6.477-10.173c4.596-0.957,9.149,1.882,10.173,6.477c2.381,10.73,4.679,22.319,6.835,34.457
	c0.824,4.637-2.264,9.057-6.902,9.881C322.266,340.943,321.766,340.985,321.275,340.985z M190.717,340.985
	c-0.491,0-1-0.042-1.498-0.133c-4.637-0.824-7.725-5.245-6.902-9.881c2.156-12.171,4.463-23.759,6.835-34.456
	c1.024-4.596,5.611-7.426,10.173-6.477c4.596,1.024,7.492,5.577,6.477,10.173c-2.331,10.456-4.579,21.811-6.701,33.74
	C198.368,338.079,194.771,340.985,190.717,340.985z"/>
<path style="fill:#F5DCB4;" d="M264.446,468.854h-16.893c-4.751,0-8.603-3.852-8.603-8.603V8.603c0-4.751,3.852-8.603,8.603-8.603
	h16.893c4.751,0,8.603,3.852,8.603,8.603v451.648C273.05,465.002,269.198,468.854,264.446,468.854z"/>
<g>
	<rect x="238.956" y="230.165" style="fill:#EBC9A0;" width="34.098" height="34.098"/>
	<path style="fill:#EBC9A0;" d="M238.951,8.603v49.312c5.509,1.13,11.201,1.757,17.049,1.757s11.54-0.629,17.049-1.757V8.603
		c0-4.751-3.852-8.603-8.603-8.603h-16.893C242.802,0,238.951,3.852,238.951,8.603z"/>
</g>
<g>
</g>
<g>
</g>
<g>
</g>
<g>
</g>
<g>
</g>
<g>
</g>
<g>
</g>
<g>
</g>
<g>
</g>
<g>
</g>
<g>
</g>
<g>
</g>
<g>
</g>
<g>
</g>
<g>
</g>
</svg>
