<?xml version="1.0" encoding="iso-8859-1"?>
<!-- Generator: Adobe Illustrator 19.0.0, SVG Export Plug-In . SVG Version: 6.00 Build 0)  -->
<svg version="1.1" id="Layer_1" xmlns="http://www.w3.org/2000/svg" xmlns:xlink="http://www.w3.org/1999/xlink" x="0px" y="0px"
	 viewBox="0 0 512 512" style="enable-background:new 0 0 512 512;" xml:space="preserve">
<path style="fill:#A0D2F0;" d="M123.586,467.862v35.31c0,4.875,3.953,8.828,8.828,8.828h247.172c4.875,0,8.828-3.953,8.828-8.828
	v-35.31H123.586z"/>
<path style="fill:#B4E1FA;" d="M123.547,483.552l-62.274-31.24c-6.241-3.13-10.051-9.646-9.719-16.62l1.411-29.623h70.621
	L123.547,483.552z"/>
<polygon style="fill:#A0D2F0;" points="123.547,483.551 123.586,406.069 97.103,406.069 97.103,470.285 "/>
<path style="fill:#B4E1FA;" d="M388.452,483.552l62.274-31.24c6.241-3.13,10.05-9.646,9.719-16.62l-1.411-29.623h-70.621
	L388.452,483.552z"/>
<polygon style="fill:#A0D2F0;" points="388.452,483.551 388.413,406.069 414.896,406.069 414.896,470.285 "/>
<path style="fill:#B4E1FA;" d="M459.998,99.86c-0.585-17.722-11.719-33.375-28.269-39.741l-87.454-33.636H167.724L80.27,60.118
	c-16.551,6.366-27.684,22.018-28.269,39.741l-9.406,293.995c-0.249,7.349,4.082,14.082,10.872,16.903l61.291,26.767v30.338
	c0,4.875,3.953,8.828,8.828,8.828h264.828c4.875,0,8.828-3.953,8.828-8.828v-30.338l61.291-26.766
	c6.791-2.822,11.121-9.555,10.873-16.903L459.998,99.86z"/>
<g>
	<rect x="176.551" y="229.517" style="fill:#A0D2F0;" width="17.655" height="247.172"/>
	<rect x="317.793" y="229.517" style="fill:#A0D2F0;" width="17.655" height="247.172"/>
</g>
<g>
	<path style="fill:#91C5E6;" d="M203.034,238.345h-35.31c-9.751,0-17.655-7.904-17.655-17.655v-52.966
		c0-4.875,3.953-8.828,8.828-8.828h52.966c4.875,0,8.828,3.953,8.828,8.828v52.966C220.689,230.441,212.784,238.345,203.034,238.345
		z"/>
	<path style="fill:#91C5E6;" d="M344.275,238.345h-35.31c-9.751,0-17.655-7.904-17.655-17.655v-52.966
		c0-4.875,3.953-8.828,8.828-8.828h52.966c4.875,0,8.828,3.953,8.828,8.828v52.966C361.931,230.441,354.025,238.345,344.275,238.345
		z"/>
</g>
<path style="fill:#A0D2F0;" d="M459.998,99.86c-0.275-8.337-2.955-16.17-7.363-22.839l-9.302,9.302
	c-6.078-5.298-12.988-9.711-20.739-12.693l-86.897-33.422l8.578-13.725L326.62,0H185.379l-17.655,26.483l8.578,13.725L89.413,73.63
	c-7.755,2.982-14.667,7.395-20.746,12.694l-9.303-9.303c-4.409,6.669-7.089,14.503-7.363,22.839l-9.406,293.995
	c-0.249,7.349,4.082,14.082,10.872,16.903l61.291,26.766V176.552h35.31v8.828l27.415,13.707c4.97,2.485,10.82,2.485,15.791,0
	l27.414-13.707v-8.828h26.483V476.69h17.655V176.552h26.483v8.828l27.415,13.707c4.97,2.485,10.82,2.485,15.791,0l27.414-13.707
	v-8.828h35.31v260.972l61.291-26.766c6.791-2.822,11.121-9.555,10.873-16.903L459.998,99.86z M114.758,158.897V147.04
	c0-9.365-3.721-18.346-10.343-24.968l-23.299-23.3c4.332-3.598,9.223-6.582,14.633-8.66l90.086-34.652l20.77,33.233
	c2.798,4.478,8.876,5.513,13,2.215L240,74.592c2.89-2.312,7.171-0.254,7.171,3.447v80.857H114.758z M264.827,158.897V78.038
	c0-3.701,4.281-5.759,7.171-3.447l20.395,16.316c4.124,3.299,10.201,2.263,13-2.215l20.771-33.234l90.093,34.653
	c5.407,2.078,10.295,5.06,14.627,8.659l-23.302,23.302c-6.623,6.622-10.343,15.603-10.343,24.968v11.858H264.827z"/>
<g>
	<path style="fill:#91C5E6;" d="M406.069,176.552c4.875,0,8.828,3.953,8.828,8.828v244.435l-17.655,7.71V185.379
		C397.241,180.504,401.192,176.552,406.069,176.552z"/>
	<path style="fill:#91C5E6;" d="M105.931,176.552c-4.875,0-8.828,3.953-8.828,8.828v244.435l17.655,7.71V185.379
		C114.758,180.504,110.806,176.552,105.931,176.552z"/>
	<path style="fill:#91C5E6;" d="M326.62,0H185.379l64.808,56.706c3.328,2.912,8.298,2.912,11.626,0L326.62,0z"/>
</g>
<g>
</g>
<g>
</g>
<g>
</g>
<g>
</g>
<g>
</g>
<g>
</g>
<g>
</g>
<g>
</g>
<g>
</g>
<g>
</g>
<g>
</g>
<g>
</g>
<g>
</g>
<g>
</g>
<g>
</g>
</svg>
