<?xml version="1.0" encoding="iso-8859-1"?>
<!-- Generator: Adobe Illustrator 19.0.0, SVG Export Plug-In . SVG Version: 6.00 Build 0)  -->
<svg version="1.1" id="Layer_1" xmlns="http://www.w3.org/2000/svg" xmlns:xlink="http://www.w3.org/1999/xlink" x="0px" y="0px"
	 viewBox="0 0 511.999 511.999" style="enable-background:new 0 0 511.999 511.999;" xml:space="preserve">
<path style="fill:#707487;" d="M367.589,298.001l15.585-54.564l13.611,217.103c0.246,3.917,3.825,6.762,7.697,6.116l38.002-6.334
	c4.407-0.735,7.57-4.646,7.367-9.108L433.254,86.099c-0.152-3.337-1.122-6.456-2.432-9.415l0.004-0.017l-0.007,0.012
	c-2.442-5.516-6.545-10.228-12.107-13.03L361.93,35.31H150.068L93.272,63.647c-5.54,2.795-9.629,7.487-12.072,12.978l-0.071-0.119
	l0.047,0.168c-1.31,2.958-2.28,6.078-2.432,9.416L62.148,451.213c-0.203,4.463,2.961,8.374,7.368,9.108l38.057,6.343
	c3.853,0.642,7.421-2.174,7.693-6.07l13.559-217.159l15.588,54.558c3.721,13.023,4.395,26.727,1.971,40.052l-29.753,163.546
	c-0.985,5.419,3.177,10.408,8.685,10.408h89.651c13.356,0,24.621-9.945,26.278-23.198L256,370.762l14.756,118.039
	c1.656,13.252,12.922,23.198,26.277,23.198h89.654c5.508,0,9.671-4.989,8.685-10.408L365.62,338.045
	C363.196,324.723,363.87,311.021,367.589,298.001z"/>
<path style="fill:#5B5D6E;" d="M368.289,43.836c-7.836-22.585-25.506-34.044-37.716-39.473C323.791,1.347,316.387,0,308.965,0
	H203.034c-7.42,0-14.822,1.347-21.601,4.361c-12.188,5.418-29.817,16.844-37.675,39.348c-1.702,4.873,1.258,10.2,6.264,11.452
	l19.753,4.938c2.982,0.746,4.01,4.459,1.837,6.632l-16.966,16.963c-2.727,2.727-3.369,6.908-1.585,10.326L255.996,291.31
	l-0.034-0.125l0.038,0.111v79.461v0.01l0.001-0.006l14.756,118.039c1.412,11.302,9.822,20.173,20.548,22.548
	c0.155,0.03,0.314,0.061,0.46,0.09l-18.111-141.247V266.137c0-5.687,1.374-11.29,4.004-16.333l81.28-155.784
	c1.783-3.418,1.142-7.599-1.585-10.326l-16.966-16.963c-2.174-2.173-1.145-5.887,1.837-6.632l19.777-4.945
	C366.964,53.914,369.964,48.666,368.289,43.836z"/>
<path style="fill:#4E4F5F;" d="M280.391,0h-48.782c-23.283,0-40.192,22.138-34.067,44.6l58.454,229.055L314.457,44.6
	C320.582,22.138,303.673,0,280.391,0z"/>
<g>
	<path style="fill:#5B5D6E;" d="M128.825,243.436L81.177,76.672c-1.31,2.958-2.28,6.078-2.432,9.416L62.148,451.213
		c-0.203,4.463,2.961,8.374,7.368,9.108l38.006,6.334c3.871,0.646,7.45-2.199,7.697-6.116L128.825,243.436z"/>
	<path style="fill:#5B5D6E;" d="M383.174,243.436l47.648-166.763c1.31,2.958,2.28,6.078,2.432,9.416l16.597,365.125
		c0.203,4.463-2.961,8.374-7.368,9.108l-38.006,6.334c-3.871,0.646-7.45-2.199-7.697-6.116L383.174,243.436z"/>
	<path style="fill:#5B5D6E;" d="M273.655,35.31h-35.31c-4.875,0-8.828-3.953-8.828-8.828l0,0c0-4.875,3.953-8.828,8.828-8.828h35.31
		c4.875,0,8.828,3.953,8.828,8.828l0,0C282.482,31.358,278.53,35.31,273.655,35.31z"/>
	<circle style="fill:#5B5D6E;" cx="216.275" cy="295.724" r="13.241"/>
	<circle style="fill:#5B5D6E;" cx="216.275" cy="357.517" r="13.241"/>
</g>
<g>
</g>
<g>
</g>
<g>
</g>
<g>
</g>
<g>
</g>
<g>
</g>
<g>
</g>
<g>
</g>
<g>
</g>
<g>
</g>
<g>
</g>
<g>
</g>
<g>
</g>
<g>
</g>
<g>
</g>
</svg>
