<?xml version="1.0" encoding="iso-8859-1"?>
<!-- Generator: Adobe Illustrator 19.0.0, SVG Export Plug-In . SVG Version: 6.00 Build 0)  -->
<svg version="1.1" id="Layer_1" xmlns="http://www.w3.org/2000/svg" xmlns:xlink="http://www.w3.org/1999/xlink" x="0px" y="0px"
	 viewBox="0 0 512 512" style="enable-background:new 0 0 512 512;" xml:space="preserve">
<path style="fill:#6487C8;" d="M430.694,60.314L361.931,35.31H150.069L81.306,60.314c-17.09,6.215-28.619,22.274-29.042,40.455
	l-7.988,343.471c-0.084,3.604,2.033,6.898,5.346,8.318l56.286,24.131l0.002-0.022l-0.001,26.505c0,4.875,3.953,8.828,8.828,8.828
	h107.757c4.11,0,7.677-2.837,8.601-6.842l24.905-107.916l24.903,107.916c0.925,4.006,4.491,6.842,8.601,6.842h108.034
	c4.875,0,8.828-3.951,8.828-8.828l0.001-26.605l56.008-24.01c3.314-1.42,5.431-4.714,5.347-8.319l-7.988-343.47
	C459.313,82.59,447.784,66.529,430.694,60.314z"/>
<path style="fill:#5A7DBE;" d="M368.289,43.836c-7.836-22.585-25.506-34.044-37.716-39.473C323.791,1.347,316.387,0,308.966,0
	H203.034c-7.42,0-14.822,1.347-21.601,4.361c-12.21,5.429-29.884,16.886-37.719,39.474c-1.676,4.831,1.324,10.08,6.285,11.32
	l20.502,5.126c2.663,0.665,3.581,3.982,1.64,5.922l-17.494,17.492c-2.727,2.727-3.369,6.908-1.585,10.326l102.934,197.29
	l-0.034-0.125l0.042,0.125L358.941,94.02c1.783-3.418,1.142-7.599-1.585-10.326l-17.494-17.492c-1.941-1.941-1.023-5.257,1.64-5.922
	l20.502-5.126C366.965,53.914,369.964,48.666,368.289,43.836z"/>
<path style="fill:#4D71B4;" d="M280.392,0h-48.782c-23.283,0-40.192,22.138-34.067,44.6l58.454,246.71l0.003-0.013v105.95
	l0.001-0.004l17.654,76.504V228.146c0-7.54,0.874-15.034,2.612-22.37c16.888-71.268,38.19-161.174,38.19-161.174
	C320.583,22.138,303.673,0,280.392,0z"/>
<g>
	<path style="fill:#5A7DBE;" d="M370.759,406.073c-1.035,0-2.078-0.185-3.104-0.565l-70.621-26.483
		c-4.561-1.716-6.871-6.802-5.164-11.367c1.716-4.569,6.802-6.849,11.371-5.169l70.621,26.483c4.561,1.716,6.871,6.802,5.164,11.367
		C377.698,403.884,374.327,406.073,370.759,406.073z"/>
	<path style="fill:#5A7DBE;" d="M141.241,406.073c-3.569,0-6.94-2.189-8.267-5.732c-1.707-4.565,0.604-9.651,5.164-11.367
		l70.621-26.483c4.569-1.677,9.655,0.599,11.371,5.169c1.707,4.565-0.604,9.651-5.164,11.367l-70.621,26.483
		C143.319,405.888,142.276,406.073,141.241,406.073z"/>
</g>
<path style="fill:#6487C8;" d="M273.655,44.138h-35.319c-4.879,0-8.828-3.953-8.828-8.828s3.948-8.828,8.828-8.828h35.319
	c4.879,0,8.828,3.953,8.828,8.828S278.535,44.138,273.655,44.138z"/>
<path style="fill:#5A7DBE;" d="M59.716,77.394c-4.529,6.805-7.254,14.833-7.452,23.375l-7.988,343.471
	c-0.084,3.604,2.033,6.898,5.346,8.318l56.286,24.131V145.525c0-14.047-5.58-27.519-15.513-37.452L59.716,77.394z"/>
<path style="fill:#4D71B4;" d="M88.276,469.13l17.633,7.56V167.617c-0.061-4.823-3.968-8.721-8.806-8.721
	c-4.875,0-8.828,3.953-8.828,8.828V469.13z"/>
<path style="fill:#5A7DBE;" d="M452.262,77.394c4.529,6.805,7.254,14.833,7.452,23.375l7.988,343.471
	c0.084,3.604-2.033,6.898-5.346,8.318l-56.286,24.131V145.525c0-14.047,5.58-27.519,15.513-37.452L452.262,77.394z"/>
<path style="fill:#4D71B4;" d="M423.702,469.13l-17.633,7.56V167.617c0.061-4.824,3.968-8.721,8.806-8.721
	c4.875,0,8.828,3.953,8.828,8.828V469.13z"/>
<g>
</g>
<g>
</g>
<g>
</g>
<g>
</g>
<g>
</g>
<g>
</g>
<g>
</g>
<g>
</g>
<g>
</g>
<g>
</g>
<g>
</g>
<g>
</g>
<g>
</g>
<g>
</g>
<g>
</g>
</svg>
