<?xml version="1.0" encoding="iso-8859-1"?>
<!-- Generator: Adobe Illustrator 19.0.0, SVG Export Plug-In . SVG Version: 6.00 Build 0)  -->
<svg version="1.1" id="Layer_1" xmlns="http://www.w3.org/2000/svg" xmlns:xlink="http://www.w3.org/1999/xlink" x="0px" y="0px"
	 viewBox="0 0 512 512" style="enable-background:new 0 0 512 512;" xml:space="preserve">
<path style="fill:#A0D2F0;" d="M150.069,8.828v35.31h211.862V8.828c0-4.875-3.953-8.828-8.828-8.828H158.897
	C154.022,0,150.069,3.953,150.069,8.828z"/>
<path style="fill:#B4E1FA;" d="M352.437,35.31h-43.471V8.828c0-4.875-3.953-8.828-8.828-8.828s-8.828,3.953-8.828,8.828V35.31
	H220.69V8.828c0-4.875-3.953-8.828-8.828-8.828s-8.828,3.953-8.828,8.828V35.31h-43.471c-10.007,0-18.014,8.308-17.643,18.308
	l16.662,449.88c0.175,4.745,4.073,8.501,8.821,8.501h62.114c4.875,0,8.828-3.953,8.828-8.828V158.897
	c0-9.75,7.905-17.655,17.655-17.655s17.655,7.905,17.655,17.655v344.276c0,4.875,3.953,8.828,8.828,8.828h62.114
	c4.748,0,8.646-3.756,8.821-8.501l16.662-449.88C370.451,43.618,362.444,35.31,352.437,35.31z"/>
<g>
	<path style="fill:#A0D2F0;" d="M362.264,83.529c-17.064,0-30.897-13.833-30.897-30.897V35.31h-13.575v17.655
		c0,24.376,19.762,44.138,44.138,44.138h6.539l0.503-13.575H362.264z"/>
	<path style="fill:#A0D2F0;" d="M149.736,83.529c17.064,0,30.897-13.833,30.897-30.897V35.31h13.575v17.655
		c0,24.376-19.762,44.138-44.138,44.138h-6.539l-0.503-13.575H149.736z"/>
	<path style="fill:#A0D2F0;" d="M247.172,143.69c2.605-1.517,5.596-2.449,8.828-2.449s6.222,0.932,8.828,2.449V35.31h-17.655V143.69
		z"/>
	<path style="fill:#A0D2F0;" d="M238.345,503.172v-17.655h-80.429l0.666,17.982c0.175,4.745,4.073,8.501,8.821,8.501h62.114
		C234.392,512,238.345,508.047,238.345,503.172z"/>
	<path style="fill:#A0D2F0;" d="M353.418,503.499l0.667-17.982h-80.429v17.655c0,4.875,3.953,8.828,8.828,8.828h62.114
		C349.345,512,353.242,508.244,353.418,503.499z"/>
</g>
<g>
</g>
<g>
</g>
<g>
</g>
<g>
</g>
<g>
</g>
<g>
</g>
<g>
</g>
<g>
</g>
<g>
</g>
<g>
</g>
<g>
</g>
<g>
</g>
<g>
</g>
<g>
</g>
<g>
</g>
</svg>
