<?xml version="1.0" encoding="iso-8859-1"?>
<!-- Generator: Adobe Illustrator 19.0.0, SVG Export Plug-In . SVG Version: 6.00 Build 0)  -->
<svg version="1.1" id="Layer_1" xmlns="http://www.w3.org/2000/svg" xmlns:xlink="http://www.w3.org/1999/xlink" x="0px" y="0px"
	 viewBox="0 0 512.001 512.001" style="enable-background:new 0 0 512.001 512.001;" xml:space="preserve">
<path style="fill:#FFDC64;" d="M259.25,68.167l-46.461-12.673c-44.925-12.252-89.203,21.567-89.203,68.131v98.332
	c0,11.033-13.34,16.559-21.142,8.757l-22.996-22.996c-8.828-8.828-21.337-12.664-32.922-6.173
	c-10.081,5.651-13.494,18.627-8.862,29.214l82.719,211.267c-3.283,1.287-5.624,4.442-5.624,8.181v52.966
	c0,4.875,3.953,8.828,8.828,8.828h167.724c4.875,0,8.828-3.953,8.828-8.828v-52.966c0-4.875-3.953-8.828-8.828-8.828v-13.641
	c0-28.872,3.541-57.633,10.543-85.643l3.815-15.255c8.053-32.212,12.125-65.288,12.125-98.49v-83.534
	C317.793,108.988,293.814,77.594,259.25,68.167z"/>
<g>
	<path style="fill:#FFC850;" d="M300.138,450.207c0-4.875-3.953-8.828-8.828-8.828v-13.641c0-28.872,3.541-57.635,10.545-85.645
		l3.812-15.25c8.054-32.212,12.126-65.29,12.126-98.494v-83.534c0-35.828-23.979-67.222-58.543-76.649l-46.461-12.673
		c-28.276-7.712-56.291,2.833-73.176,23.314c-0.27,0.405-0.557,0.809-0.875,1.212c10.787-2.728,22.415-3.829,34.326-3.121
		c2.54,0.151,4.396,2.432,4.103,4.96c-0.382,3.29-0.616,6.616-0.616,9.991v83.534c0,34.613,4.257,69.191,12.652,102.773
		l3.815,15.255c6.646,26.585,10.016,53.959,10.016,81.361v2.745c-5.415,4.852-8.828,11.896-8.828,19.723v26.483h-80.99l6.913,17.655
		h74.078v17.655h-79.448v17.655h185.379V450.207z"/>
	<path style="fill:#FFC850;" d="M46.526,201.546c11.585-6.492,24.095-2.655,32.922,6.173l6.506,6.505
		c-15.36-1.148-35.094,3.671-45.234,24.343l-3.057-7.806C33.033,220.174,36.445,207.197,46.526,201.546z"/>
</g>
<path style="fill:#FF9BA9;" d="M465.474,148.581c-11.585-6.492-24.095-2.655-32.922,6.173l-22.996,22.996
	c-7.801,7.802-21.142,2.276-21.142-8.757V70.66c0-46.564-44.277-80.384-89.202-68.131l-46.461,12.672
	c-34.566,9.428-58.545,40.822-58.545,76.65v83.534c0,33.203,4.072,66.279,12.125,98.49l3.815,15.255
	c7.002,28.01,10.543,56.771,10.543,85.643v22.468h167.724l85.922-219.448C478.969,167.208,475.556,154.232,465.474,148.581z"/>
<path style="fill:#FF8B9B;" d="M220.567,370.759c0.015,1.34,0.122,2.675,0.122,4.014v22.468h167.724l10.369-26.483H220.567z"/>
<path style="fill:#FF9BA9;" d="M388.414,459.035H220.69c-4.875,0-8.828-3.953-8.828-8.828v-52.966c0-4.875,3.953-8.828,8.828-8.828
	h167.724c4.875,0,8.828,3.953,8.828,8.828v52.966C397.242,455.084,393.289,459.035,388.414,459.035z"/>
<g>
	<rect x="211.862" y="406.069" style="fill:#FF8B9B;" width="185.379" height="17.655"/>
	<path style="fill:#FF8B9B;" d="M250.73,48.244l58.794-18.914c21.798-7.012,44.151-7.229,63.738-2.276
		c-16.771-21.24-45.245-32.381-74.05-24.525l-46.461,12.672c-33.571,9.155-57.088,39.049-58.415,73.586
		C205.994,71.007,225.733,56.285,250.73,48.244z"/>
	<path style="fill:#FF8B9B;" d="M465.474,148.581c-11.585-6.492-24.095-2.655-32.922,6.173l-6.506,6.505
		c15.36-1.148,35.094,3.671,45.234,24.343l3.057-7.806C478.969,167.208,475.556,154.232,465.474,148.581z"/>
</g>
<g>
</g>
<g>
</g>
<g>
</g>
<g>
</g>
<g>
</g>
<g>
</g>
<g>
</g>
<g>
</g>
<g>
</g>
<g>
</g>
<g>
</g>
<g>
</g>
<g>
</g>
<g>
</g>
<g>
</g>
</svg>
