<?xml version="1.0" encoding="iso-8859-1"?>
<!-- Generator: Adobe Illustrator 19.0.0, SVG Export Plug-In . SVG Version: 6.00 Build 0)  -->
<svg version="1.1" id="Layer_1" xmlns="http://www.w3.org/2000/svg" xmlns:xlink="http://www.w3.org/1999/xlink" x="0px" y="0px"
	 viewBox="0 0 512 512" style="enable-background:new 0 0 512 512;" xml:space="preserve">
<path style="fill:#EBC9A0;" d="M256,315.732c-112.708,0-212.849-55.458-255.124-141.299c-2.075-4.225-0.341-9.342,3.891-11.425
	c4.208-2.067,9.333-0.341,11.425,3.891C55.61,246.941,149.743,298.665,256,298.665S456.39,246.941,495.806,166.9
	c2.092-4.225,7.217-5.95,11.425-3.891c4.234,2.083,5.967,7.2,3.891,11.425C468.849,260.274,368.708,315.732,256,315.732z"/>
<circle style="fill:#FAEBC8;" cx="136.533" cy="281.599" r="25.6"/>
<path style="fill:#F5DCB4;" d="M147.201,294.399c-12.96,0-23.467-10.507-23.467-23.467c0-4.963,1.561-9.55,4.191-13.342
	c-9.882,3.547-16.991,12.907-16.991,24.008c0,14.139,11.461,25.6,25.6,25.6c11.103,0,20.462-7.108,24.008-16.991
	C156.752,292.838,152.165,294.399,147.201,294.399z"/>
<circle style="fill:#FAEBC8;" cx="375.465" cy="281.599" r="25.6"/>
<path style="fill:#F5DCB4;" d="M386.133,294.399c-12.96,0-23.467-10.507-23.467-23.467c0-4.963,1.561-9.55,4.191-13.342
	c-9.882,3.547-16.991,12.907-16.991,24.008c0,14.139,11.461,25.6,25.6,25.6c11.103,0,20.462-7.108,24.008-16.991
	C395.683,292.838,391.097,294.399,386.133,294.399z"/>
<circle style="fill:#FAEBC8;" cx="187.733" cy="298.665" r="34.133"/>
<path style="fill:#F5DCB4;" d="M200.534,315.732c-16.495,0-29.866-13.372-29.866-29.866c0-7.667,2.973-14.586,7.722-19.875
	c-14.276,4.085-24.788,17.088-24.788,32.675c0,18.851,15.282,34.133,34.133,34.133c15.588,0,28.59-10.512,32.674-24.787
	C215.12,312.759,208.201,315.732,200.534,315.732z"/>
<circle style="fill:#FFFFFF;" cx="200.533" cy="285.865" r="8.533"/>
<circle style="fill:#FAEBC8;" cx="324.265" cy="298.665" r="34.133"/>
<path style="fill:#F5DCB4;" d="M337.066,315.732c-16.495,0-29.866-13.372-29.866-29.866c0-7.667,2.973-14.586,7.722-19.875
	c-14.276,4.085-24.788,17.088-24.788,32.675c0,18.851,15.282,34.133,34.133,34.133c15.588,0,28.59-10.512,32.674-24.787
	C351.653,312.759,344.733,315.732,337.066,315.732z"/>
<circle style="fill:#FFFFFF;" cx="337.065" cy="285.865" r="8.533"/>
<circle style="fill:#FAEBC8;" cx="255.999" cy="307.199" r="42.666"/>
<path style="fill:#F5DCB4;" d="M268.8,332.798c-21.207,0-38.4-17.191-38.4-38.4c0-10.658,4.352-20.292,11.364-27.25
	c-16.527,5.882-28.431,21.504-28.431,40.05c0,23.565,19.103,42.666,42.666,42.666c18.545,0,34.169-11.904,40.05-28.431
	C289.093,328.447,279.459,332.798,268.8,332.798z"/>
<circle style="fill:#FFFFFF;" cx="268.799" cy="294.399" r="12.8"/>
<g>
</g>
<g>
</g>
<g>
</g>
<g>
</g>
<g>
</g>
<g>
</g>
<g>
</g>
<g>
</g>
<g>
</g>
<g>
</g>
<g>
</g>
<g>
</g>
<g>
</g>
<g>
</g>
<g>
</g>
</svg>
