<?xml version="1.0" encoding="iso-8859-1"?>
<!-- Generator: Adobe Illustrator 19.0.0, SVG Export Plug-In . SVG Version: 6.00 Build 0)  -->
<svg version="1.1" id="Layer_1" xmlns="http://www.w3.org/2000/svg" xmlns:xlink="http://www.w3.org/1999/xlink" x="0px" y="0px"
	 viewBox="0 0 512 512" style="enable-background:new 0 0 512 512;" xml:space="preserve">
<g>
	<path style="fill:#00AAF0;" d="M344.276,0h-17.655c-4.875,0-8.828,3.953-8.828,8.828v123.586h35.31V8.828
		C353.103,3.953,349.151,0,344.276,0z"/>
	<path style="fill:#00AAF0;" d="M185.379,0h-17.655c-4.875,0-8.828,3.953-8.828,8.828v123.586h35.31V8.828
		C194.207,3.953,190.254,0,185.379,0z"/>
</g>
<path style="fill:#00C3FF;" d="M397.241,512H290.21c-4.425,0-8.166-3.275-8.75-7.661l-15.466-116.002
	c-0.668-5.01-4.941-8.75-9.994-8.75l0,0c-5.054,0-9.326,3.741-9.994,8.75L230.54,504.339c-0.585,4.385-4.326,7.661-8.75,7.661
	H114.759c-4.875,0-8.828-3.953-8.828-8.828V280.31c0-10.023,3.411-19.746,9.672-27.573l15.966-19.958
	c6.261-7.827,9.672-17.55,9.672-27.573v-72.792c0-4.875,3.953-8.828,8.828-8.828H361.93c4.875,0,8.828,3.953,8.828,8.828v72.793
	c0,10.023,3.411,19.746,9.672,27.573l15.966,19.958c6.261,7.827,9.672,17.55,9.672,27.573v222.861
	C406.069,508.047,402.116,512,397.241,512z"/>
<path style="fill:#00AAF0;" d="M300.138,204.396c0,5.122-2.061,10.189-6.093,13.347c-9.319,7.299-22.898,11.907-38.045,11.907
	c-15.147,0-28.725-4.608-38.045-11.907c-4.033-3.158-6.093-8.225-6.093-13.347v-45.5c0-4.875,3.953-8.828,8.828-8.828h70.621
	c4.875,0,8.828,3.953,8.828,8.828V204.396z"/>
<g>
	<circle style="fill:#D5DCED;" cx="176.552" cy="158.897" r="8.828"/>
	<circle style="fill:#D5DCED;" cx="335.448" cy="158.897" r="8.828"/>
</g>
<g>
	<path style="fill:#00AAF0;" d="M403.19,264.828H108.81c-1.847,4.925-2.879,10.148-2.879,15.483v72.793h8.828
		c19.501,0,35.31-15.809,35.31-35.31V291.31c0-4.875,3.953-8.828,8.828-8.828h88.276v102.329c1.728-3.138,5.057-5.226,8.828-5.226
		s7.1,2.089,8.828,5.226V282.483h88.276c4.875,0,8.828,3.953,8.828,8.828v26.483c0,19.501,15.809,35.31,35.31,35.31h8.828V280.31
		C406.069,274.976,405.037,269.752,403.19,264.828z"/>
	<path style="fill:#00AAF0;" d="M114.759,512H221.79c4.424,0,8.166-3.276,8.75-7.661l2.509-18.822H105.931v17.655
		C105.931,508.047,109.884,512,114.759,512z"/>
	<path style="fill:#00AAF0;" d="M278.951,485.517l2.509,18.822c0.585,4.386,4.326,7.661,8.75,7.661h107.031
		c4.875,0,8.828-3.953,8.828-8.828v-17.655H278.951z"/>
</g>
<g>
</g>
<g>
</g>
<g>
</g>
<g>
</g>
<g>
</g>
<g>
</g>
<g>
</g>
<g>
</g>
<g>
</g>
<g>
</g>
<g>
</g>
<g>
</g>
<g>
</g>
<g>
</g>
<g>
</g>
</svg>
