<?xml version="1.0" encoding="iso-8859-1"?>
<!-- Generator: Adobe Illustrator 19.0.0, SVG Export Plug-In . SVG Version: 6.00 Build 0)  -->
<svg version="1.1" id="Layer_1" xmlns="http://www.w3.org/2000/svg" xmlns:xlink="http://www.w3.org/1999/xlink" x="0px" y="0px"
	 viewBox="0 0 512 512" style="enable-background:new 0 0 512 512;" xml:space="preserve">
<path style="fill:#FAEBC8;" d="M386.903,265.502c-11.638-55.282-60.41-94.855-116.905-94.855h-27.998
	c-56.494,0-105.266,39.573-116.905,94.855l-14.163,67.278h290.133L386.903,265.502z"/>
<polygon style="fill:#FF9BA9;" points="110.933,332.78 401.067,332.78 393.889,298.687 118.111,298.687 "/>
<path style="fill:#FF8B9B;" d="M256.531,328.554c5.379-9.319,5.888-20.365,2.062-29.867H151.007
	c-3.826,9.502-3.317,20.547,2.062,29.866c0.891,1.542,2.041,2.865,3.142,4.228h97.178
	C254.491,331.418,255.641,330.095,256.531,328.554z"/>
<path style="fill:#FFAAB9;" d="M238.254,298.687c5.981-5.261,7.632-14.171,3.497-21.333c-4.135-7.163-12.677-10.188-20.224-7.638
	c-1.566-7.81-8.457-13.695-16.726-13.695c-8.27,0-15.161,5.885-16.726,13.695c-7.547-2.549-16.089,0.476-20.224,7.638
	c-4.134,7.163-2.484,16.073,3.497,21.333c-5.981,5.261-7.632,14.171-3.497,21.333c4.135,7.163,12.677,10.187,20.224,7.638
	c1.566,7.81,8.455,13.695,16.726,13.695c8.271,0,15.161-5.886,16.726-13.695c7.547,2.548,16.089-0.476,20.224-7.638
	C245.886,312.857,244.235,303.948,238.254,298.687z"/>
<path style="fill:#EBC9A0;" d="M503.467,341.311H8.533c-4.717,0-8.533-3.817-8.533-8.533s3.817-8.533,8.533-8.533h494.933
	c4.717,0,8.533,3.817,8.533,8.533S508.184,341.311,503.467,341.311z"/>
<circle style="fill:#FF9BA9;" cx="204.8" cy="298.688" r="12.8"/>
<g>
</g>
<g>
</g>
<g>
</g>
<g>
</g>
<g>
</g>
<g>
</g>
<g>
</g>
<g>
</g>
<g>
</g>
<g>
</g>
<g>
</g>
<g>
</g>
<g>
</g>
<g>
</g>
<g>
</g>
</svg>
