<?xml version="1.0" encoding="iso-8859-1"?>
<!-- Generator: Adobe Illustrator 19.0.0, SVG Export Plug-In . SVG Version: 6.00 Build 0)  -->
<svg version="1.1" id="Layer_1" xmlns="http://www.w3.org/2000/svg" xmlns:xlink="http://www.w3.org/1999/xlink" x="0px" y="0px"
	 viewBox="0 0 512.001 512.001" style="enable-background:new 0 0 512.001 512.001;" xml:space="preserve">
<path style="fill:#FFAAB9;" d="M310.896,512c10.009,0,19.549-4.248,26.246-11.689l59.864-66.516
	c5.835-6.484,9.064-14.898,9.064-23.62V167.724l36.919,14.767c4.127,1.651,8.836-0.024,10.995-3.91l37.423-67.362
	c1.771-3.188,1.399-7.137-0.936-9.939l-73.814-88.577C409.948,4.654,400.01,0,389.531,0H122.47
	c-10.479,0-20.417,4.654-27.126,12.705L21.53,101.282c-2.335,2.802-2.707,6.751-0.935,9.939l37.423,67.362
	c2.158,3.885,6.869,5.56,10.995,3.91l36.918-14.769v242.451c0,8.723,3.229,17.137,9.064,23.62l59.864,66.516
	c6.697,7.441,16.236,11.689,26.246,11.689H310.896z"/>
<g>
	<path style="fill:#FF8B9B;" d="M337.14,500.311l59.864-66.516c5.835-6.484,9.064-14.898,9.064-23.62v-0.633
		c-8.479-2.187-17.321-3.471-26.483-3.471c-58.505,0-105.931,47.426-105.931,105.931h37.24
		C320.905,512,330.445,507.752,337.14,500.311z"/>
	<path style="fill:#FF8B9B;" d="M132.414,406.069c-9.162,0-18.004,1.286-26.483,3.471v0.633c0,8.723,3.229,17.137,9.064,23.62
		l59.864,66.516c6.697,7.442,16.236,11.69,26.246,11.69h37.24C238.345,453.495,190.919,406.069,132.414,406.069z"/>
</g>
<g>
	<path style="fill:#FF9BA9;" d="M174.861,500.311c6.696,7.441,16.235,11.689,26.244,11.689h109.79
		c10.009,0,19.549-4.248,26.246-11.689l1.443-1.603c-19.415-24.168-49.17-39.673-82.583-39.673s-63.168,15.506-82.583,39.674
		L174.861,500.311z"/>
	<path style="fill:#FF9BA9;" d="M107.268,3.471c-4.537,2.166-8.627,5.278-11.924,9.235L21.53,101.282
		c-2.335,2.802-2.707,6.751-0.936,9.938l37.423,67.362c2.158,3.885,6.869,5.56,10.995,3.908l36.919-14.766
		C137.061,93.791,113.33,19.94,107.268,3.471z"/>
	<path style="fill:#FF9BA9;" d="M416.657,12.705c-3.297-3.956-7.386-7.069-11.924-9.235c-6.062,16.471-29.793,90.321,1.336,164.253
		l0.001,0.001l36.918,14.766c4.127,1.651,8.836-0.023,10.995-3.908l37.423-67.362c1.771-3.188,1.399-7.136-0.936-9.938
		L416.657,12.705z"/>
	<path style="fill:#FF9BA9;" d="M150.07,0c0,58.504,47.426,105.931,105.931,105.931S361.932,58.504,361.932,0H150.07z"/>
</g>
<path style="fill:#FF8B9B;" d="M185.38,0c0,39.002,31.618,70.621,70.621,70.621S326.621,39.002,326.621,0H185.38z"/>
<g>
	<path style="fill:#FFAAB9;" d="M42.373,76.27L21.53,101.282c-2.335,2.802-2.707,6.751-0.936,9.938l37.423,67.362
		c2.158,3.885,6.869,5.56,10.995,3.908l26.486-10.594L42.373,76.27z"/>
	<path style="fill:#FFAAB9;" d="M490.471,101.282L469.628,76.27l-53.127,95.627l26.486,10.594c4.127,1.651,8.836-0.023,10.995-3.908
		l37.423-67.362C493.178,108.033,492.806,104.084,490.471,101.282z"/>
</g>
<g>
</g>
<g>
</g>
<g>
</g>
<g>
</g>
<g>
</g>
<g>
</g>
<g>
</g>
<g>
</g>
<g>
</g>
<g>
</g>
<g>
</g>
<g>
</g>
<g>
</g>
<g>
</g>
<g>
</g>
</svg>
