<?xml version="1.0" encoding="iso-8859-1"?>
<!-- Generator: Adobe Illustrator 19.0.0, SVG Export Plug-In . SVG Version: 6.00 Build 0)  -->
<svg version="1.1" id="Layer_1" xmlns="http://www.w3.org/2000/svg" xmlns:xlink="http://www.w3.org/1999/xlink" x="0px" y="0px"
	 viewBox="0 0 512 512" style="enable-background:new 0 0 512 512;" xml:space="preserve">
<path style="fill:#00C3FF;" d="M460.362,80.689c-2.887-17.322-15.931-31.196-33.042-35.145l-84.542-19.51H169.22L84.679,45.543
	c-17.112,3.948-30.156,17.823-33.044,35.146L32.095,197.937c-1.006,6.034,2.326,11.954,8.005,14.226l77.052,30.82v260.339h277.695
	V242.983l77.052-30.821c5.68-2.271,9.011-8.192,8.005-14.226L460.362,80.689z"/>
<path style="fill:#00AAF0;" d="M62.651,58.313c-5.66,6.097-9.587,13.808-11.016,22.376L32.095,197.937
	c-1.006,6.033,2.326,11.954,8.005,14.225l77.052,30.821V130.787c0-11.508-4.571-22.544-12.709-30.681L62.651,58.313z"/>
<g>
	<path style="fill:#D5DCED;" d="M238.644,60.746v95.458c0,4.792,3.886,8.678,8.678,8.678h17.356c4.792,0,8.678-3.886,8.678-8.678
		V60.746H238.644z"/>
	<path style="fill:#D5DCED;" d="M32.095,197.937c-1.006,6.034,2.326,11.954,8.005,14.225l77.052,30.821v-34.712l-81.356-32.542
		L32.095,197.937z"/>
</g>
<polygon style="fill:#C7CFE2;" points="99.796,236.041 117.152,242.983 117.152,208.271 99.796,201.329 "/>
<path style="fill:#0096DC;" d="M108.474,147.525c-4.792,0-8.678,3.886-8.678,8.678v45.125l17.356,6.942v-52.068
	C117.152,151.411,113.266,147.525,108.474,147.525z"/>
<path style="fill:#00AAF0;" d="M449.348,58.313c5.66,6.097,9.587,13.808,11.016,22.376l19.542,117.247
	c1.006,6.033-2.326,11.954-8.005,14.225l-77.053,30.822V130.787c0-11.508,4.571-22.544,12.709-30.681L449.348,58.313z"/>
<path style="fill:#D5DCED;" d="M479.904,197.937c1.006,6.034-2.326,11.954-8.005,14.225l-77.052,30.821v-34.712l81.356-32.542
	L479.904,197.937z"/>
<polygon style="fill:#C7CFE2;" points="412.203,236.041 394.847,242.983 394.847,208.271 412.203,201.329 "/>
<path style="fill:#0096DC;" d="M403.525,147.525c4.792,0,8.678,3.886,8.678,8.678v45.125l-17.356,6.942v-52.068
	C394.847,151.411,398.732,147.525,403.525,147.525z"/>
<g>
	<path style="fill:#D5DCED;" d="M386.169,512H125.83c-4.792,0-8.678-3.886-8.678-8.678v-17.356h277.695v17.356
		C394.847,508.114,390.961,512,386.169,512z"/>
	<rect x="117.152" y="451.254" style="fill:#D5DCED;" width="277.695" height="17.356"/>
</g>
<polygon style="fill:#C7CFE2;" points="238.644,96.857 255.999,82.972 273.355,96.857 273.355,60.746 238.644,60.746 "/>
<path style="fill:#D5DCED;" d="M325.423,0H186.576L169.22,26.034l38.223,61.157c2.751,4.402,8.726,5.419,12.779,2.177l35.777-28.622
	l35.777,28.622c4.054,3.242,10.028,2.225,12.78-2.177l38.222-61.157L325.423,0z"/>
<polygon style="fill:#C7CFE2;" points="255.999,60.746 186.576,0 325.423,0 "/>
<g>
</g>
<g>
</g>
<g>
</g>
<g>
</g>
<g>
</g>
<g>
</g>
<g>
</g>
<g>
</g>
<g>
</g>
<g>
</g>
<g>
</g>
<g>
</g>
<g>
</g>
<g>
</g>
<g>
</g>
</svg>
