<?xml version="1.0" encoding="iso-8859-1"?>
<!-- Generator: Adobe Illustrator 19.0.0, SVG Export Plug-In . SVG Version: 6.00 Build 0)  -->
<svg version="1.1" id="Layer_1" xmlns="http://www.w3.org/2000/svg" xmlns:xlink="http://www.w3.org/1999/xlink" x="0px" y="0px"
	 viewBox="0 0 512 512" style="enable-background:new 0 0 512 512;" xml:space="preserve">
<path style="fill:#7DC882;" d="M114.759,467.862v35.31c0,4.875,3.953,8.828,8.828,8.828h264.828c4.875,0,8.828-3.953,8.828-8.828
	v-35.31H114.759z"/>
<path style="fill:#8CE187;" d="M467.862,435.924c0,3.343-1.889,6.4-4.879,7.895l-56.914,28.457v-75.034h61.793V435.924z"/>
<polygon style="fill:#7DC882;" points="406.069,472.276 406.069,397.241 430.52,397.241 432.11,459.255 "/>
<path style="fill:#8CE187;" d="M44.138,435.924c0,3.343,1.889,6.4,4.879,7.895l56.914,28.457v-75.034H44.138V435.924z"/>
<polygon style="fill:#7DC882;" points="105.931,472.276 105.931,397.241 81.48,397.241 79.89,459.255 "/>
<path style="fill:#8CE187;" d="M469.224,92.524c-0.813-34.172-23.392-63.992-56.061-74.045l-49.91-15.357
	C356.524,1.053,349.524,0,342.484,0H169.516c-7.04,0-14.04,1.053-20.768,3.123L98.837,18.479
	C66.168,28.532,43.59,58.353,42.776,92.524l-7.324,307.574c-0.086,3.607,2.031,6.903,5.347,8.324l56.303,24.129h1.132l-0.668,26.03
	c-0.254,9.924,7.722,18.108,17.65,18.108h281.566c9.928,0,17.903-8.183,17.65-18.108l-0.669-26.03h1.132l56.303-24.13
	c3.316-1.421,5.433-4.717,5.347-8.324L469.224,92.524z"/>
<g>
	<path style="fill:#7DC882;" d="M344.275,0.033C343.678,0.019,343.082,0,342.484,0H169.516c-0.597,0-1.194,0.019-1.791,0.033
		c0.018,48.738,39.532,88.243,88.275,88.243S344.257,48.771,344.275,0.033z"/>
	<path style="fill:#7DC882;" d="M471.2,408.422l-56.303,24.13h-1.132l-7.695-300.138v-17.028c0-11.705,4.65-22.933,12.928-31.21
		l35.613-35.613v-0.001c8.914,12.596,14.23,27.774,14.615,43.962l7.324,307.574C476.633,403.704,474.516,407,471.2,408.422z"/>
</g>
<path style="fill:#6EB978;" d="M406.301,141.468c-0.127-4.962,3.861-9.054,8.825-9.054c4.787,0,8.702,3.816,8.824,8.601
	l7.295,284.53l-17.469,7.487L406.301,141.468z"/>
<path style="fill:#7DC882;" d="M40.8,408.422l56.303,24.13h1.132l7.695-300.138v-17.028c0-11.705-4.65-22.933-12.928-31.21
	L57.39,48.563v-0.001c-8.914,12.596-14.23,27.774-14.615,43.962l-7.324,307.574C35.367,403.704,37.484,407,40.8,408.422z"/>
<g>
	<path style="fill:#6EB978;" d="M105.699,141.468c0.127-4.962-3.861-9.054-8.825-9.054c-4.787,0-8.702,3.816-8.824,8.601
		l-7.295,284.53l17.469,7.487L105.699,141.468z"/>
	<path style="fill:#6EB978;" d="M194.207,0c0,34.127,27.666,61.793,61.793,61.793S317.793,34.127,317.793,0H194.207z"/>
</g>
<path style="fill:#FFDC64;" d="M273.655,35.31h-35.31c-4.855,0-8.828-3.972-8.828-8.828l0,0c0-4.855,3.972-8.828,8.828-8.828h35.31
	c4.855,0,8.828,3.972,8.828,8.828l0,0C282.483,31.338,278.51,35.31,273.655,35.31z"/>
<path style="fill:#7DC882;" d="M411.881,359.081l-21.434,8.878c-4.327,1.792-9.187,1.792-13.514,0l-29.105-12.056
	c-4.328-1.793-9.191-1.792-13.517,0.001l-29.069,12.05c-4.33,1.795-9.196,1.794-13.526-0.002L262.69,355.91
	c-4.332-1.798-9.201-1.798-13.533,0L220.14,367.95c-4.331,1.798-9.199,1.798-13.532,0.001l-29.031-12.042
	c-4.331-1.796-9.198-1.796-13.529,0l-29.03,12.043c-4.331,1.796-9.198,1.796-13.529,0l-21.37-8.865l-0.896,34.94l22.266,9.237
	c4.331,1.796,9.198,1.796,13.529,0l29.031-12.043c4.331-1.796,9.198-1.796,13.529,0l29.031,12.042
	c4.331,1.796,9.199,1.796,13.532-0.001l29.017-12.041c4.332-1.798,9.201-1.798,13.533,0l29.025,12.042
	c4.33,1.796,9.196,1.798,13.526,0.002l29.069-12.05c4.327-1.794,9.19-1.794,13.517-0.001l29.105,12.056
	c4.327,1.792,9.187,1.792,13.514,0l22.33-9.25L411.881,359.081z"/>
<path style="fill:#FFDC64;" d="M412.329,376.551l-21.881,9.064c-4.327,1.792-9.187,1.792-13.514,0l-29.105-12.056
	c-4.328-1.793-9.191-1.792-13.517,0.001l-29.069,12.05c-4.33,1.795-9.196,1.794-13.526-0.002l-29.025-12.042
	c-4.332-1.798-9.201-1.798-13.533,0l-29.017,12.041c-4.331,1.798-9.199,1.798-13.532,0.001l-29.031-12.042
	c-4.331-1.796-9.198-1.796-13.529,0l-29.03,12.043c-4.331,1.796-9.199,1.796-13.53,0l-21.818-9.05l-0.896,34.94l22.714,9.422
	c4.331,1.796,9.198,1.796,13.529,0l29.031-12.043c4.331-1.796,9.198-1.796,13.529,0l29.031,12.042
	c4.331,1.796,9.199,1.796,13.532-0.001l29.017-12.041c4.332-1.797,9.201-1.797,13.533,0l29.025,12.042
	c4.33,1.796,9.196,1.798,13.526,0.002l29.069-12.05c4.327-1.794,9.19-1.794,13.517-0.001l29.105,12.056
	c4.327,1.792,9.187,1.792,13.514,0l22.777-9.436L412.329,376.551z"/>
<path style="fill:#7DC882;" d="M408.298,219.324l-17.85,7.394c-4.327,1.792-9.187,1.792-13.514,0l-29.105-12.056
	c-4.328-1.793-9.191-1.792-13.517,0.001l-29.069,12.05c-4.33,1.795-9.196,1.794-13.526-0.002l-29.025-12.042
	c-4.332-1.798-9.201-1.798-13.533,0l-29.017,12.041c-4.331,1.798-9.199,1.798-13.532,0.001l-29.031-12.042
	c-4.331-1.796-9.198-1.796-13.529,0l-29.03,12.043c-4.331,1.796-9.198,1.796-13.529,0l-17.789-7.379l-0.896,34.94l18.682,7.75
	c4.331,1.796,9.198,1.796,13.529,0l29.031-12.043c4.331-1.796,9.198-1.796,13.529,0l29.031,12.042
	c4.331,1.796,9.199,1.796,13.532-0.001l29.017-12.041c4.332-1.798,9.201-1.798,13.533,0l29.025,12.042
	c4.33,1.796,9.196,1.798,13.526,0.002l29.069-12.05c4.327-1.794,9.19-1.794,13.517-0.001l29.105,12.056
	c4.327,1.792,9.187,1.792,13.514,0l18.746-7.766L408.298,219.324z"/>
<path style="fill:#FFDC64;" d="M408.745,236.793l-18.298,7.58c-4.327,1.792-9.187,1.792-13.514,0l-29.105-12.056
	c-4.328-1.793-9.191-1.792-13.517,0.001l-29.069,12.05c-4.33,1.795-9.196,1.794-13.526-0.002l-29.025-12.042
	c-4.332-1.798-9.201-1.798-13.533,0l-29.017,12.041c-4.331,1.798-9.199,1.798-13.532,0.001l-29.031-12.042
	c-4.331-1.796-9.198-1.796-13.529,0l-29.03,12.043c-4.331,1.796-9.198,1.796-13.529,0l-18.236-7.564l-0.896,34.94l19.13,7.936
	c4.331,1.796,9.198,1.796,13.529,0l29.031-12.043c4.331-1.796,9.198-1.796,13.529,0l29.031,12.042
	c4.331,1.796,9.199,1.796,13.532-0.001l29.017-12.041c4.332-1.798,9.201-1.798,13.533,0l29.025,12.042
	c4.33,1.796,9.196,1.798,13.526,0.002l29.069-12.05c4.327-1.794,9.19-1.794,13.517-0.001l29.105,12.056
	c4.327,1.792,9.187,1.792,13.514,0l19.194-7.951L408.745,236.793z"/>
<g>
</g>
<g>
</g>
<g>
</g>
<g>
</g>
<g>
</g>
<g>
</g>
<g>
</g>
<g>
</g>
<g>
</g>
<g>
</g>
<g>
</g>
<g>
</g>
<g>
</g>
<g>
</g>
<g>
</g>
</svg>
