<?xml version="1.0" encoding="iso-8859-1"?>
<!-- Generator: Adobe Illustrator 19.0.0, SVG Export Plug-In . SVG Version: 6.00 Build 0)  -->
<svg version="1.1" id="Layer_1" xmlns="http://www.w3.org/2000/svg" xmlns:xlink="http://www.w3.org/1999/xlink" x="0px" y="0px"
	 viewBox="0 0 512.001 512.001" style="enable-background:new 0 0 512.001 512.001;" xml:space="preserve">
<polygon style="fill:#EBC9A0;" points="256,77.534 207.301,126.234 219.367,138.3 256,101.668 292.634,138.3 304.7,126.234 "/>
<path style="fill:#DC8C46;" d="M510.88,357.541l-27.011-166.569c-4.69-28.922-29.664-50.172-58.963-50.172H256H87.095
	c-29.299,0-54.273,21.25-58.963,50.172L1.12,357.541c-8.416,51.902,31.654,98.993,84.234,98.993H256h170.646
	C479.226,456.534,519.296,409.442,510.88,357.541z"/>
<path style="fill:#F09846;" d="M485.61,361.639L458.599,195.07c-0.174-1.073-0.524-2.067-0.791-3.101
	c-8.861-0.081-17.22-3.501-23.557-9.706c-4.83-4.727-11.179-7.33-17.879-7.33H95.629c-6.7,0-13.05,2.603-17.87,7.321
	c-6.34,6.215-14.704,9.643-23.569,9.721c-0.267,1.031-0.617,2.023-0.789,3.094l-27.01,166.57
	c-2.807,17.316,2.101,34.911,13.47,48.271c11.369,13.361,27.95,21.024,45.493,21.024H256h170.646
	c17.542,0,34.125-7.663,45.493-21.024C483.509,396.55,488.418,378.956,485.61,361.639z"/>
<g>
	<path style="fill:#FAEBC8;" d="M458.125,174.934c-4.308,0-8.617-1.617-11.937-4.867c-8.037-7.866-18.629-12.199-29.817-12.199
		H95.629c-11.187,0-21.779,4.334-29.817,12.201c-6.734,6.601-17.534,6.475-24.138-0.267c-6.592-6.734-6.475-17.541,0.262-24.133
		c14.459-14.142,33.525-21.934,53.692-21.934h320.741c20.166,0,39.233,7.792,53.692,21.934c6.737,6.592,6.854,17.401,0.262,24.133
		C466.98,173.217,462.555,174.934,458.125,174.934z"/>
	<circle style="fill:#FAEBC8;" cx="234.667" cy="76.8" r="21.333"/>
	<circle style="fill:#FAEBC8;" cx="277.334" cy="76.8" r="21.333"/>
</g>
<g>
</g>
<g>
</g>
<g>
</g>
<g>
</g>
<g>
</g>
<g>
</g>
<g>
</g>
<g>
</g>
<g>
</g>
<g>
</g>
<g>
</g>
<g>
</g>
<g>
</g>
<g>
</g>
<g>
</g>
</svg>
