<?xml version="1.0" encoding="iso-8859-1"?>
<!-- Generator: Adobe Illustrator 19.0.0, SVG Export Plug-In . SVG Version: 6.00 Build 0)  -->
<svg version="1.1" id="Layer_1" xmlns="http://www.w3.org/2000/svg" xmlns:xlink="http://www.w3.org/1999/xlink" x="0px" y="0px"
	 viewBox="0 0 512 512" style="enable-background:new 0 0 512 512;" xml:space="preserve">
<g>
	<path style="fill:#DCB991;" d="M128,443.733v59.733c0,4.717,3.817,8.533,8.533,8.533s8.533-3.816,8.533-8.533v-59.733H128z"/>
	<path style="fill:#DCB991;" d="M162.133,443.733v59.733c0,4.717,3.817,8.533,8.533,8.533s8.533-3.816,8.533-8.533v-59.733H162.133z
		"/>
	<path style="fill:#DCB991;" d="M230.4,443.733v59.733c0,4.717,3.817,8.533,8.533,8.533s8.533-3.816,8.533-8.533v-59.733H230.4z"/>
	<path style="fill:#DCB991;" d="M264.533,443.733v59.733c0,4.717,3.817,8.533,8.533,8.533s8.533-3.816,8.533-8.533v-59.733H264.533z
		"/>
	<path style="fill:#DCB991;" d="M298.667,443.733v59.733c0,4.717,3.817,8.533,8.533,8.533s8.533-3.816,8.533-8.533v-59.733H298.667z
		"/>
	<path style="fill:#DCB991;" d="M196.267,443.733v59.733c0,4.717,3.817,8.533,8.533,8.533c4.717,0,8.533-3.816,8.533-8.533v-59.733
		H196.267z"/>
</g>
<path style="fill:#EBC9A0;" d="M196.267,136.533h-51.2c-9.426,0-17.067,7.641-17.067,17.067v290.133
	c0,4.713,3.821,8.533,8.533,8.533H307.2c4.713,0,8.533-3.821,8.533-8.533v-307.2H196.267z"/>
<path style="fill:#F5DCB4;" d="M145.067,136.533c-9.426,0-17.067,7.641-17.067,17.067v290.133c0,4.713,3.821,8.533,8.533,8.533h25.6
	V136.533H145.067z"/>
<path style="fill:#EBC9A0;" d="M145.067,136.533c-9.425,0-17.067,7.641-17.067,17.067v8.533c0-4.713,3.821-8.533,8.533-8.533
	s8.533,3.821,8.533,8.533v213.333c0,9.425,7.642,17.067,17.067,17.067v-256H145.067z"/>
<rect x="162.133" y="136.533" style="fill:#DCB991;" width="153.6" height="256"/>
<path style="fill:#C8A582;" d="M179.2,375.467c-9.426,0-17.067-7.641-17.067-17.067V153.6c0-9.425-7.642-17.067-17.067-17.067h51.2
	V358.4C196.267,367.826,188.626,375.467,179.2,375.467L179.2,375.467z"/>
<path style="fill:#F5DCB4;" d="M281.6,136.533v315.733h25.6c4.713,0,8.533-3.821,8.533-8.533v-307.2H281.6z"/>
<rect x="281.6" y="136.533" style="fill:#EBC9A0;" width="34.133" height="256"/>
<g>
	<path style="fill:#DCB991;" d="M204.8,0c-4.717,0-8.533,3.817-8.533,8.533v59.733h17.067V8.533C213.333,3.817,209.517,0,204.8,0z"
		/>
	<path style="fill:#DCB991;" d="M238.933,0c-4.717,0-8.533,3.817-8.533,8.533v59.733h17.067V8.533C247.467,3.817,243.65,0,238.933,0
		z"/>
	<path style="fill:#DCB991;" d="M307.2,0c-4.717,0-8.533,3.817-8.533,8.533v59.733h17.067V8.533C315.733,3.817,311.917,0,307.2,0z"
		/>
	<path style="fill:#DCB991;" d="M341.333,0c-4.717,0-8.533,3.817-8.533,8.533v59.733h17.067V8.533C349.867,3.817,346.05,0,341.333,0
		z"/>
	<path style="fill:#DCB991;" d="M375.467,0c-4.717,0-8.533,3.817-8.533,8.533v59.733H384V8.533C384,3.817,380.183,0,375.467,0z"/>
	<path style="fill:#DCB991;" d="M273.067,0c-4.717,0-8.533,3.817-8.533,8.533v59.733H281.6V8.533C281.6,3.817,277.783,0,273.067,0z"
		/>
</g>
<path style="fill:#EBC9A0;" d="M366.933,375.467c9.426,0,17.067-7.641,17.067-17.067V68.267c0-4.713-3.821-8.533-8.533-8.533H204.8
	c-4.713,0-8.533,3.821-8.533,8.533V358.4c0,9.425-7.642,17.067-17.067,17.067h119.467H366.933z"/>
<g>
	<path style="fill:#F5DCB4;" d="M349.867,59.733V358.4c0,9.425-7.642,17.067-17.067,17.067h34.133
		c9.426,0,17.067-7.641,17.067-17.067V68.267c0-4.713-3.821-8.533-8.533-8.533H349.867z"/>
	<path style="fill:#F5DCB4;" d="M204.8,59.733c-4.713,0-8.533,3.821-8.533,8.533V358.4c0,9.425-7.642,17.067-17.067,17.067h34.133
		c9.426,0,17.067-7.641,17.067-17.067V59.733H204.8z"/>
</g>
<g>
</g>
<g>
</g>
<g>
</g>
<g>
</g>
<g>
</g>
<g>
</g>
<g>
</g>
<g>
</g>
<g>
</g>
<g>
</g>
<g>
</g>
<g>
</g>
<g>
</g>
<g>
</g>
<g>
</g>
</svg>
