<?xml version="1.0" encoding="iso-8859-1"?>
<!-- Generator: Adobe Illustrator 19.0.0, SVG Export Plug-In . SVG Version: 6.00 Build 0)  -->
<svg version="1.1" id="Layer_1" xmlns="http://www.w3.org/2000/svg" xmlns:xlink="http://www.w3.org/1999/xlink" x="0px" y="0px"
	 viewBox="0 0 512 512" style="enable-background:new 0 0 512 512;" xml:space="preserve">
<g>
	<path style="fill:#D5DCED;" d="M128,153.6h-25.6V8.533c0-4.713,3.821-8.533,8.533-8.533h8.533C124.179,0,128,3.821,128,8.533V153.6
		z"/>
	<path style="fill:#D5DCED;" d="M409.6,153.6H384V8.533C384,3.821,387.821,0,392.533,0h8.533c4.713,0,8.533,3.821,8.533,8.533V153.6
		z"/>
</g>
<path style="fill:#E4EAF8;" d="M399.941,136.533c-5.65,0-11.219,1.43-16.042,4.375c-29.619,18.089-75.826,29.758-127.9,29.758
	s-98.281-11.669-127.9-29.758c-4.822-2.945-10.391-4.375-16.042-4.375l0,0c-9.917,0-19.395,4.53-25.313,12.487
	c-11.59,15.586-18.479,34.861-18.479,55.779c0,29.149,13.287,55.193,34.133,72.409v226.258c0,4.713,3.821,8.533,8.533,8.533h290.133
	c4.713,0,8.533-3.821,8.533-8.533V277.209c20.846-17.217,34.133-43.261,34.133-72.409c0-20.918-6.889-40.193-18.479-55.779
	C419.337,141.063,409.858,136.533,399.941,136.533L399.941,136.533z"/>
<g>
	<rect x="102.4" y="477.867" style="fill:#D5DCED;" width="307.2" height="17.067"/>
	<path style="fill:#D5DCED;" d="M162.133,298.667c-22.673,0-43.492-8.084-59.733-21.516v20.977
		c17.265,11.089,37.734,17.605,59.733,17.605c4.717,0,8.533-3.817,8.533-8.533S166.85,298.667,162.133,298.667z"/>
	<path style="fill:#D5DCED;" d="M409.6,277.151c-16.241,13.431-37.06,21.516-59.733,21.516c-4.717,0-8.533,3.817-8.533,8.533
		s3.817,8.533,8.533,8.533c21.999,0,42.468-6.516,59.733-17.605V277.151z"/>
</g>
<g>
</g>
<g>
</g>
<g>
</g>
<g>
</g>
<g>
</g>
<g>
</g>
<g>
</g>
<g>
</g>
<g>
</g>
<g>
</g>
<g>
</g>
<g>
</g>
<g>
</g>
<g>
</g>
<g>
</g>
</svg>
