<?xml version="1.0" encoding="iso-8859-1"?>
<!-- Generator: Adobe Illustrator 19.0.0, SVG Export Plug-In . SVG Version: 6.00 Build 0)  -->
<svg version="1.1" id="Layer_1" xmlns="http://www.w3.org/2000/svg" xmlns:xlink="http://www.w3.org/1999/xlink" x="0px" y="0px"
	 viewBox="0 0 512.001 512.001" style="enable-background:new 0 0 512.001 512.001;" xml:space="preserve">
<path style="fill:#B4E1FA;" d="M468.635,106.769c-0.59-21.831-14.532-41.056-35.098-48.401l-89.345-31.91H167.806l-89.345,31.91
	c-20.566,7.345-34.508,26.571-35.098,48.401l-7.67,283.804c-0.101,3.761,2.195,7.173,5.718,8.495l64.644,24.249l0.022-0.138v46.277
	c0,3.996,2.687,7.492,6.547,8.521l117.989,31.463c4.111,1.096,8.249-1.668,8.811-5.885l16.578-124.335l17.637,132.287
	l125.746-33.532c3.857-1.029,6.543-4.521,6.547-8.513l0.045-46.158l64.61-24.237c3.523-1.322,5.819-4.734,5.718-8.495
	L468.635,106.769z"/>
<polygon style="fill:#91C5E6;" points="326.553,0 185.447,0 256,70.553 "/>
<path style="fill:#B4E1FA;" d="M47.289,388.041l-2.577,46.469c-0.219,3.837,2.072,7.375,5.664,8.744l55.699,21.225v-76.439H47.289z"
	/>
<g>
	<polygon style="fill:#A0D2F0;" points="88.437,388.041 88.437,457.759 106.075,464.48 106.075,388.041 	"/>
	<path style="fill:#A0D2F0;" d="M194.267,229.297H158.99c-9.742,0-17.638-7.896-17.638-17.638v-52.915
		c0-4.87,3.949-8.819,8.819-8.819h52.915c4.87,0,8.819,3.949,8.819,8.819v52.915C211.905,221.4,204.008,229.297,194.267,229.297z"/>
</g>
<path style="fill:#91C5E6;" d="M211.905,167.563c0,9.742-7.896,17.638-17.638,17.638H158.99c-9.742,0-17.638-7.896-17.638-17.638
	v44.096c0,9.742,7.896,17.638,17.638,17.638h35.276c9.742,0,17.638-7.896,17.638-17.638V167.563z"/>
<path style="fill:#A0D2F0;" d="M43.363,106.77l-7.67,283.803c-0.101,3.762,2.195,7.174,5.718,8.496l64.644,24.248l0.022-0.138
	V150.552c0-11.695-4.645-22.911-12.916-31.18L52.467,78.679C46.968,86.836,43.641,96.485,43.363,106.77z"/>
<path style="fill:#91C5E6;" d="M97.256,167.563c-4.87,0-8.819,3.949-8.819,8.819v240.326l17.617,6.609l0.022-0.138V176.382
	C106.075,171.512,102.128,167.563,97.256,167.563z"/>
<path style="fill:#B4E1FA;" d="M464.711,388.041l2.577,46.469c0.219,3.837-2.072,7.375-5.664,8.744l-55.699,21.225v-76.439H464.711z
	"/>
<g>
	<polygon style="fill:#A0D2F0;" points="423.563,388.041 423.563,457.759 405.925,464.48 405.925,388.041 	"/>
	<path style="fill:#A0D2F0;" d="M468.638,106.77l7.67,283.803c0.101,3.762-2.195,7.174-5.718,8.496l-64.643,24.248l-0.022-0.138
		V150.552c0-11.695,4.645-22.911,12.916-31.18l40.692-40.692C465.033,86.836,468.36,96.485,468.638,106.77z"/>
</g>
<path style="fill:#91C5E6;" d="M414.744,167.563c4.87,0,8.819,3.949,8.819,8.819v240.326l-17.616,6.609l-0.022-0.138V176.382
	C405.925,171.512,409.874,167.563,414.744,167.563z"/>
<g>
	<path style="fill:#A0D2F0;" d="M326.553,0L256,61.734L185.447,0l-17.638,26.457l38.844,62.15c2.796,4.473,8.869,5.509,12.988,2.212
		l20.375-16.3c2.887-2.31,7.164-0.255,7.164,3.443v272.01c0,19.874,1.317,39.727,3.944,59.426l12.844,96.476
		c0.563,4.224,4.713,6.988,8.828,5.88l9.412-2.534l-13.598-102.134c-2.526-18.94-3.792-38.027-3.792-57.135V77.963
		c0-3.697,4.277-5.753,7.164-3.443l20.375,16.301c4.12,3.296,10.192,2.261,12.987-2.212l38.845-62.152L326.553,0z"/>
	<path style="fill:#A0D2F0;" d="M264.819,35.276h-17.638c-4.85,0-8.819-3.969-8.819-8.819l0,0c0-4.851,3.969-8.819,8.819-8.819
		h17.638c4.851,0,8.819,3.969,8.819,8.819l0,0C273.639,31.308,269.67,35.276,264.819,35.276z"/>
</g>
<g>
	<circle style="fill:#91C5E6;" cx="291.273" cy="141.106" r="8.819"/>
	<circle style="fill:#91C5E6;" cx="291.273" cy="202.84" r="8.819"/>
	<circle style="fill:#91C5E6;" cx="291.273" cy="264.573" r="8.819"/>
	<circle style="fill:#91C5E6;" cx="291.273" cy="326.307" r="8.819"/>
	<circle style="fill:#91C5E6;" cx="291.273" cy="388.041" r="8.819"/>
</g>
<g>
</g>
<g>
</g>
<g>
</g>
<g>
</g>
<g>
</g>
<g>
</g>
<g>
</g>
<g>
</g>
<g>
</g>
<g>
</g>
<g>
</g>
<g>
</g>
<g>
</g>
<g>
</g>
<g>
</g>
</svg>
