<?xml version="1.0" encoding="iso-8859-1"?>
<!-- Generator: Adobe Illustrator 19.0.0, SVG Export Plug-In . SVG Version: 6.00 Build 0)  -->
<svg version="1.1" id="Layer_1" xmlns="http://www.w3.org/2000/svg" xmlns:xlink="http://www.w3.org/1999/xlink" x="0px" y="0px"
	 viewBox="0 0 512 512" style="enable-background:new 0 0 512 512;" xml:space="preserve">
<path style="fill:#FF5A64;" d="M491.226,60.737c-3.467-20.8-18.942-37.562-39.399-42.677L394.346,3.69
	C384.544,1.239,374.478,0,364.375,0H147.626c-10.104,0-20.17,1.239-29.972,3.69L60.172,18.06
	C39.715,23.175,24.24,39.936,20.773,60.736L2.413,170.901c-1.398,8.392,3.386,16.587,11.381,19.495l83.309,30.294v282.483
	c0,4.875,3.953,8.828,8.828,8.828h300.138c4.875,0,8.828-3.953,8.828-8.828V220.69l83.309-30.294
	c7.996-2.908,12.78-11.103,11.381-19.495L491.226,60.737z"/>
<g>
	<path style="fill:#D74B55;" d="M370.756,0.178C368.632,0.067,366.505,0,364.375,0H147.626c-2.13,0-4.258,0.067-6.382,0.178
		C141.339,63.475,192.68,114.759,256,114.759S370.66,63.475,370.756,0.178z"/>
	<path style="fill:#D74B55;" d="M79.005,79.005L33.841,33.842c-6.708,7.381-11.358,16.638-13.068,26.895L2.413,170.901
		c-1.398,8.392,3.386,16.587,11.381,19.495l83.309,30.294v-97.991C97.103,106.311,90.593,90.593,79.005,79.005z"/>
</g>
<path style="fill:#C8414B;" d="M344.276,0c0,48.754-39.522,88.276-88.276,88.276S167.724,48.754,167.724,0"/>
<path style="fill:#FF5A64;" d="M5.496,152.401l-3.083,18.5c-1.398,8.392,3.386,16.587,11.381,19.495l83.309,30.294v-35.31
	L5.496,152.401z"/>
<path style="fill:#C8414B;" d="M88.276,123.586c-4.875,0-8.828,3.953-8.828,8.828v81.856l17.655,6.42v-88.276
	C97.103,127.539,93.151,123.586,88.276,123.586z"/>
<g>
	<polygon style="fill:#D74B55;" points="79.448,214.27 97.103,220.69 97.103,185.379 79.448,179.023 	"/>
	<path style="fill:#D74B55;" d="M432.995,79.005l45.163-45.163c6.708,7.381,11.358,16.638,13.068,26.895l18.36,110.164
		c1.398,8.392-3.386,16.587-11.381,19.495l-83.309,30.294v-97.991C414.896,106.311,421.407,90.593,432.995,79.005z"/>
</g>
<path style="fill:#FF5A64;" d="M506.504,152.401l3.083,18.5c1.398,8.392-3.386,16.587-11.381,19.495l-83.309,30.294v-35.31
	L506.504,152.401z"/>
<path style="fill:#C8414B;" d="M423.724,123.586c4.875,0,8.828,3.953,8.828,8.828v81.856l-17.655,6.42v-88.276
	C414.896,127.539,418.849,123.586,423.724,123.586z"/>
<g>
	<polygon style="fill:#D74B55;" points="432.552,214.27 414.896,220.69 414.896,185.379 432.552,179.023 	"/>
	<path style="fill:#D74B55;" d="M406.069,512H105.931c-4.875,0-8.828-3.953-8.828-8.828v-17.655h317.793v17.655
		C414.896,508.047,410.944,512,406.069,512z"/>
</g>
<path style="fill:#FF5A64;" d="M273.655,35.31h-35.31c-4.855,0-8.828-3.972-8.828-8.828l0,0c0-4.855,3.972-8.828,8.828-8.828h35.31
	c4.855,0,8.828,3.972,8.828,8.828l0,0C282.483,31.338,278.51,35.31,273.655,35.31z"/>
<g>
</g>
<g>
</g>
<g>
</g>
<g>
</g>
<g>
</g>
<g>
</g>
<g>
</g>
<g>
</g>
<g>
</g>
<g>
</g>
<g>
</g>
<g>
</g>
<g>
</g>
<g>
</g>
<g>
</g>
</svg>
