<?xml version="1.0" encoding="iso-8859-1"?>
<!-- Generator: Adobe Illustrator 19.0.0, SVG Export Plug-In . SVG Version: 6.00 Build 0)  -->
<svg version="1.1" id="Layer_1" xmlns="http://www.w3.org/2000/svg" xmlns:xlink="http://www.w3.org/1999/xlink" x="0px" y="0px"
	 viewBox="0 0 512 512" style="enable-background:new 0 0 512 512;" xml:space="preserve">
<path style="fill:#E4EAF8;" d="M442.519,91.438c-0.69-17.928-12.161-33.654-29.022-39.785l-69.222-25.171H167.724L98.502,51.654
	C81.641,57.784,70.17,73.511,69.48,91.438l-7.122,185.153c-0.328,8.524,5.485,16.063,13.812,17.913l61.162,13.591l1.938,13.563
	c1.309,9.159,1.504,18.442,0.584,27.648l-15.299,152.985c-0.52,5.197,3.561,9.706,8.783,9.706h245.319
	c5.223,0,9.303-4.51,8.783-9.706l-15.296-152.984c-0.92-9.206-0.725-18.489,0.584-27.648l1.938-13.562l61.163-13.591
	c8.327-1.85,14.14-9.389,13.812-17.913L442.519,91.438z"/>
<path style="fill:#D5DCED;" d="M435.976,70.177c-18.937,22.465-29.844,50.497-35.008,66.68c-2.23,6.989-3.861,14.151-4.898,21.414
	l-21.404,149.826l61.163-13.591c8.327-1.85,14.14-9.389,13.812-17.913L442.52,91.439C442.223,83.727,439.833,76.486,435.976,70.177z
	"/>
<path style="fill:#C7CFE2;" d="M405.98,151.317L405.98,151.317c-4.826-0.69-9.298,2.664-9.987,7.49l-21.327,149.289l18.419-4.093
	l20.386-142.699C414.16,156.478,410.807,152.007,405.98,151.317z"/>
<path style="fill:#E4EAF8;" d="M449.64,276.593l-1.114-28.964l-67.512,16.033l-6.348,44.436l61.163-13.591
	C444.155,292.655,449.968,285.116,449.64,276.593z"/>
<g>
	<polygon style="fill:#D5DCED;" points="399.474,259.277 381.014,263.661 374.665,308.097 393.084,304.003 	"/>
	<path style="fill:#D5DCED;" d="M76.023,70.177c18.937,22.465,29.844,50.497,35.008,66.68c2.23,6.989,3.861,14.151,4.898,21.414
		l21.404,149.826L76.17,294.506c-8.327-1.85-14.14-9.389-13.812-17.913L69.48,91.439C69.776,83.727,72.166,76.486,76.023,70.177z"/>
</g>
<path style="fill:#C7CFE2;" d="M106.019,151.317L106.019,151.317c4.826-0.69,9.298,2.664,9.987,7.49l21.327,149.289l-18.419-4.093
	L98.529,161.304C97.839,156.478,101.192,152.007,106.019,151.317z"/>
<path style="fill:#E4EAF8;" d="M62.359,276.593l1.114-28.964l67.512,16.033l6.348,44.436L76.17,294.506
	C67.844,292.655,62.031,285.116,62.359,276.593z"/>
<g>
	<polygon style="fill:#D5DCED;" points="112.525,259.277 130.985,263.661 137.334,308.097 118.915,304.003 	"/>
	<path style="fill:#D5DCED;" d="M326.62,0H185.379l-17.655,26.483l38.882,62.21c2.798,4.478,8.876,5.513,13,2.215l20.395-16.316
		c2.89-2.312,7.171-0.255,7.171,3.446V512h17.655V78.038c0-3.701,4.281-5.759,7.171-3.446l20.395,16.316
		c4.124,3.298,10.201,2.263,13-2.215l38.882-62.21L326.62,0z"/>
</g>
<g>
	<circle style="fill:#C7CFE2;" cx="291.31" cy="141.241" r="8.828"/>
	<circle style="fill:#C7CFE2;" cx="291.31" cy="264.828" r="8.828"/>
	<circle style="fill:#C7CFE2;" cx="291.31" cy="203.034" r="8.828"/>
	<circle style="fill:#C7CFE2;" cx="291.31" cy="326.621" r="8.828"/>
	<circle style="fill:#C7CFE2;" cx="291.31" cy="450.207" r="8.828"/>
	<circle style="fill:#C7CFE2;" cx="291.31" cy="388.414" r="8.828"/>
	<path style="fill:#C7CFE2;" d="M253.093,59.25L185.379,0H326.62l-67.714,59.25C257.242,60.706,254.757,60.706,253.093,59.25z"/>
</g>
<g>
</g>
<g>
</g>
<g>
</g>
<g>
</g>
<g>
</g>
<g>
</g>
<g>
</g>
<g>
</g>
<g>
</g>
<g>
</g>
<g>
</g>
<g>
</g>
<g>
</g>
<g>
</g>
<g>
</g>
</svg>
