<?xml version="1.0" encoding="iso-8859-1"?>
<!-- Generator: Adobe Illustrator 19.0.0, SVG Export Plug-In . SVG Version: 6.00 Build 0)  -->
<svg version="1.1" id="Layer_1" xmlns="http://www.w3.org/2000/svg" xmlns:xlink="http://www.w3.org/1999/xlink" x="0px" y="0px"
	 viewBox="0 0 512 512" style="enable-background:new 0 0 512 512;" xml:space="preserve">
<path style="fill:#7DF5A5;" d="M220.691,232.702c0,0,44.138,17.655,141.241,26.483c62.164,5.651,132.413,0,132.413,0
	s-142.811-33.602-223.558-84.418c-3.574-2.249-8.167-1.766-11.065,1.304C251.097,185.202,233.354,205.801,220.691,232.702z"/>
<path style="fill:#64DCA0;" d="M22.256,186.211C11.038,183.11,0,191.608,0,203.248l0.002,100.075
	c0,14.626,11.857,26.483,26.483,26.483h361.929l79.448-17.655l34.813-13.925c5.632-2.253,9.325-7.708,9.325-13.773v-7.841
	c0-9.587-7.592-17.41-17.176-17.626C359.888,255.932,140.084,218.789,22.256,186.211z"/>
<path style="fill:#EBC9A0;" d="M229.518,303.322c-245.512,0-107.463,0-203.017,0c-14.626,0-26.499-11.871-26.499-26.497v26.497
	c0,19.501,15.809,35.31,35.31,35.31h291.309c113.988,0,158.628-24.453,175.553-40.129
	C383.737,345.097,335.449,303.322,229.518,303.322z"/>
<g>
</g>
<g>
</g>
<g>
</g>
<g>
</g>
<g>
</g>
<g>
</g>
<g>
</g>
<g>
</g>
<g>
</g>
<g>
</g>
<g>
</g>
<g>
</g>
<g>
</g>
<g>
</g>
<g>
</g>
</svg>
