<?xml version="1.0" encoding="iso-8859-1"?>
<!-- Generator: Adobe Illustrator 19.0.0, SVG Export Plug-In . SVG Version: 6.00 Build 0)  -->
<svg version="1.1" id="Layer_1" xmlns="http://www.w3.org/2000/svg" xmlns:xlink="http://www.w3.org/1999/xlink" x="0px" y="0px"
	 viewBox="0 0 512 512" style="enable-background:new 0 0 512 512;" xml:space="preserve">
<path style="fill:#F5DCB4;" d="M319.267,29.134L295.133,4.998C291.932,1.798,287.591,0,283.065,0h-54.128
	c-4.527,0-8.867,1.798-12.068,4.998l-24.135,24.135c-3.201,3.2-4.999,7.541-4.999,12.068v69.731h34.133v-76.8h68.267v76.8h34.133
	V41.202C324.267,36.676,322.468,32.335,319.267,29.134z"/>
<g>
	<path style="fill:#FAEBC8;" d="M228.935,0c-4.527,0-8.867,1.798-12.068,4.998l-24.135,24.135c-1.454,1.454-2.575,3.164-3.413,4.999
		H322.68c-0.838-1.835-1.958-3.546-3.413-4.999L295.133,4.998C291.932,1.798,287.591,0,283.065,0H228.935z"/>
	<path style="fill:#FAEBC8;" d="M376.931,512H135.069c-4.526,0-8.867-1.798-12.068-4.998l-32.669-32.669
		c-3.201-3.201-4.998-7.541-4.998-12.068V119.467c0-4.713,3.821-8.533,8.533-8.533h324.267c4.713,0,8.533,3.821,8.533,8.533v342.798
		c0,4.526-1.798,8.867-4.998,12.068l-32.669,32.669C385.798,510.202,381.457,512,376.931,512z"/>
</g>
<path style="fill:#F5DCB4;" d="M401.067,145.067H110.933c-4.713,0-8.533-3.821-8.533-8.533l0,0c0-4.713,3.821-8.533,8.533-8.533
	h290.133c4.713,0,8.533,3.821,8.533,8.533l0,0C409.6,141.246,405.779,145.067,401.067,145.067z"/>
<path style="fill:#EBC9A0;" d="M328.533,337.067c0-66.608-63.6-135.217-66.308-138.1c-3.233-3.45-9.217-3.45-12.45,0
	c-2.708,2.883-66.308,71.492-66.308,138.1c0,37.1,28.021,67.742,64,71.985v34.682c0,4.717,3.817,8.533,8.533,8.533
	c4.717,0,8.533-3.817,8.533-8.533v-34.682C300.512,404.809,328.533,374.166,328.533,337.067z M247.467,346.334l-41.655-41.655
	c9.12-30.231,28.185-58.678,41.655-76.217V346.334z M264.533,228.462c9.729,12.666,22.358,31.008,32.102,51.636l-32.102,32.102
	V228.462z M200.533,337.067c0-4.174,0.391-8.379,0.945-12.589l45.988,45.989v21.34C220.93,387.681,200.533,364.741,200.533,337.067z
	 M264.533,391.807v-55.473l39.182-39.182c4.685,13.092,7.751,26.644,7.751,39.915C311.467,364.741,291.07,387.681,264.533,391.807z"
	/>
<g>
</g>
<g>
</g>
<g>
</g>
<g>
</g>
<g>
</g>
<g>
</g>
<g>
</g>
<g>
</g>
<g>
</g>
<g>
</g>
<g>
</g>
<g>
</g>
<g>
</g>
<g>
</g>
<g>
</g>
</svg>
