<?xml version="1.0" encoding="iso-8859-1"?>
<!-- Generator: Adobe Illustrator 19.0.0, SVG Export Plug-In . SVG Version: 6.00 Build 0)  -->
<svg version="1.1" id="Layer_1" xmlns="http://www.w3.org/2000/svg" xmlns:xlink="http://www.w3.org/1999/xlink" x="0px" y="0px"
	 viewBox="0 0 511.999 511.999" style="enable-background:new 0 0 511.999 511.999;" xml:space="preserve">
<path style="fill:#64DCA0;" d="M459.751,38.959H52.247c-4.892,0-8.859,3.967-8.859,8.859v70.87H468.61v-70.87
	C468.61,42.925,464.645,38.959,459.751,38.959z"/>
<rect x="43.386" y="74.392" style="fill:#FFDC64;" width="425.222" height="17.718"/>
<path style="fill:#7DF5A5;" d="M511.956,463.321L479.03,125.826c-0.886-9.076-8.516-15.997-17.633-15.997H50.602
	c-9.119,0-16.749,6.921-17.633,15.997L0.043,463.321c-0.508,5.208,3.584,9.719,8.817,9.719h196.756
	c8.635,0,16.011-6.224,17.465-14.736l24.187-141.667c1.678-9.823,15.787-9.823,17.465,0l24.187,141.667
	c1.453,8.511,8.83,14.736,17.465,14.736h196.756C508.372,473.04,512.465,468.529,511.956,463.321z"/>
<path style="fill:#FFF082;" d="M0.043,463.321c-0.508,5.208,3.584,9.719,8.817,9.719H34.53l25.877-265.764L22.785,230.21
	L0.043,463.321z"/>
<path style="fill:#FFC850;" d="M211.705,65.535c-4.897,0-8.859,3.962-8.859,8.859v168.317h17.718V74.394
	C220.564,69.497,216.602,65.535,211.705,65.535z"/>
<circle style="fill:#FFF082;" cx="211.703" cy="251.568" r="17.718"/>
<path style="fill:#FFC850;" d="M300.293,65.535c-4.897,0-8.859,3.962-8.859,8.859v168.317h17.718V74.394
	C309.152,69.497,305.19,65.535,300.293,65.535z"/>
<circle style="fill:#FFF082;" cx="300.291" cy="251.568" r="17.718"/>
<path style="fill:#64DCA0;" d="M24.256,215.125l-2.971,30.452c43.528-18.332,100.76-57.256,103.058-135.748H97.474
	C95.056,166.132,58.134,197.879,24.256,215.125z"/>
<path style="fill:#FFF082;" d="M511.956,463.321c0.508,5.208-3.585,9.719-8.817,9.719h-25.671l-25.877-265.764l37.621,22.934
	L511.956,463.321z"/>
<path style="fill:#64DCA0;" d="M487.742,215.125l2.971,30.452c-43.528-18.332-100.76-57.256-103.058-135.748h26.87
	C416.942,166.132,453.864,197.879,487.742,215.125z"/>
<g>
</g>
<g>
</g>
<g>
</g>
<g>
</g>
<g>
</g>
<g>
</g>
<g>
</g>
<g>
</g>
<g>
</g>
<g>
</g>
<g>
</g>
<g>
</g>
<g>
</g>
<g>
</g>
<g>
</g>
</svg>
