<?xml version="1.0" encoding="iso-8859-1"?>
<!-- Generator: Adobe Illustrator 19.0.0, SVG Export Plug-In . SVG Version: 6.00 Build 0)  -->
<svg version="1.1" id="Layer_1" xmlns="http://www.w3.org/2000/svg" xmlns:xlink="http://www.w3.org/1999/xlink" x="0px" y="0px"
	 viewBox="0 0 512 512" style="enable-background:new 0 0 512 512;" xml:space="preserve">
<path style="fill:#FF5A64;" d="M423.725,52.966V8.828c0-4.875-3.953-8.828-8.828-8.828H97.104c-4.875,0-8.828,3.953-8.828,8.828
	v44.138c-54.759,187.745-67.925,403.22-70.212,449.843C17.817,507.848,21.84,512,26.885,512h458.23c5.046,0,9.069-4.152,8.821-9.192
	C491.65,456.185,478.483,240.711,423.725,52.966z"/>
<g>
	<path style="fill:#D74B55;" d="M256.001,445.793c-7.31,0-13.241-5.927-13.241-13.241V44.138c0-7.315,5.931-13.241,13.241-13.241
		c7.31,0,13.241,5.927,13.241,13.241v388.414C269.242,439.866,263.311,445.793,256.001,445.793z"/>
	<path style="fill:#D74B55;" d="M176.57,357.517c-0.518,0-1.035-0.03-1.56-0.09c-7.267-0.853-12.466-7.435-11.604-14.698
		l35.31-300.138c0.845-7.263,7.414-12.427,14.69-11.604c7.267,0.853,12.466,7.435,11.604,14.698L189.7,345.823
		C188.914,352.561,183.191,357.517,176.57,357.517z"/>
	<path style="fill:#D74B55;" d="M335.431,357.517c-6.621,0-12.345-4.957-13.129-11.694l-35.31-300.138
		c-0.862-7.263,4.337-13.845,11.604-14.698c7.095-0.836,13.845,4.341,14.69,11.604l35.31,300.138
		c0.862,7.263-4.337,13.845-11.604,14.698C336.475,357.487,335.949,357.517,335.431,357.517z"/>
</g>
<path style="fill:#C8414B;" d="M88.276,8.828v44.138h335.448V8.828c0-4.875-3.953-8.828-8.828-8.828H97.104
	C92.229,0,88.276,3.953,88.276,8.828z"/>
<g>
	<path style="fill:#D74B55;" d="M141.242,52.966c0,39.002-31.618,70.621-70.621,70.621c-0.201,0-0.397-0.018-0.596-0.03
		c-2.048,8.742-4.216,17.474-6.113,26.211c2.223,0.152,4.448,0.301,6.709,0.301c53.629,0,97.103-43.475,97.103-97.103H141.242z"/>
	<path style="fill:#D74B55;" d="M370.759,52.966c0,39.002,31.618,70.621,70.621,70.621c0.201,0,0.397-0.018,0.596-0.03
		c2.048,8.742,4.216,17.474,6.113,26.211c-2.222,0.152-4.447,0.301-6.708,0.301c-53.629,0-97.103-43.475-97.103-97.103H370.759z"/>
	<path style="fill:#D74B55;" d="M414.897,17.655H97.104c-4.875,0-8.828-3.953-8.828-8.828l0,0C88.276,3.953,92.229,0,97.104,0
		h317.793c4.875,0,8.828,3.953,8.828,8.828l0,0C423.725,13.703,419.772,17.655,414.897,17.655z"/>
</g>
<g>
</g>
<g>
</g>
<g>
</g>
<g>
</g>
<g>
</g>
<g>
</g>
<g>
</g>
<g>
</g>
<g>
</g>
<g>
</g>
<g>
</g>
<g>
</g>
<g>
</g>
<g>
</g>
<g>
</g>
</svg>
