<?xml version="1.0" encoding="iso-8859-1"?>
<!-- Generator: Adobe Illustrator 19.0.0, SVG Export Plug-In . SVG Version: 6.00 Build 0)  -->
<svg version="1.1" id="Layer_1" xmlns="http://www.w3.org/2000/svg" xmlns:xlink="http://www.w3.org/1999/xlink" x="0px" y="0px"
	 viewBox="0 0 512 512" style="enable-background:new 0 0 512 512;" xml:space="preserve">
<path style="fill:#A0FFB4;" d="M256,512h178.502c4.983,0,8.913-4.192,8.511-9.159C439.372,457.885,421.655,254.542,384,51.2V8.533
	C384,3.821,380.179,0,375.467,0H136.533C131.821,0,128,3.821,128,8.533V51.2C90.345,254.542,72.628,457.885,68.987,502.841
	c-0.402,4.967,3.527,9.159,8.511,9.159H256z"/>
<path style="fill:#7DF5A5;" d="M375.04,512h17.089c-2.131-42.736-13.135-249.396-36.173-460.8H384V8.533
	C384,3.821,380.179,0,375.467,0H136.533C131.821,0,128,3.821,128,8.533V51.2h28.044c-23.045,211.404-34.043,418.064-36.172,460.8
	h17.088c2.218-44.321,13.25-250.433,36.255-460.8h24.97c-11.935,211.904-17.65,417.728-18.772,460.8h17.074
	c1.136-43.779,6.86-249.342,18.786-460.8h32.194V512H256h8.533V51.2h32.186c11.926,211.451,17.657,417.019,18.794,460.8h17.074
	c-1.122-43.071-6.845-248.893-18.78-460.8h24.978C361.782,261.567,372.822,467.679,375.04,512z"/>
<path style="fill:#FFC850;" d="M385.554,59.733c-0.518-2.845-1.027-5.689-1.554-8.533v-8.533H128V51.2
	c-0.527,2.845-1.036,5.689-1.555,8.533H385.554z"/>
<g>
	<path style="fill:#FFDC64;" d="M247.467,59.733l-39.968,13.323c-5.525,1.842-11.232-2.271-11.232-8.095V37.439
		c0-5.824,5.707-9.937,11.232-8.095l39.968,13.323V59.733z"/>
	<path style="fill:#FFDC64;" d="M264.533,42.667l39.968-13.323c5.525-1.842,11.232,2.271,11.232,8.095V64.96
		c0,5.824-5.707,9.937-11.232,8.095l-39.968-13.322V42.667z"/>
</g>
<path style="fill:#FFF082;" d="M264.533,68.267h-17.067c-4.713,0-8.533-3.821-8.533-8.533V42.667c0-4.713,3.821-8.533,8.533-8.533
	h17.067c4.713,0,8.533,3.821,8.533,8.533v17.067C273.067,64.446,269.246,68.267,264.533,68.267z"/>
<g>
</g>
<g>
</g>
<g>
</g>
<g>
</g>
<g>
</g>
<g>
</g>
<g>
</g>
<g>
</g>
<g>
</g>
<g>
</g>
<g>
</g>
<g>
</g>
<g>
</g>
<g>
</g>
<g>
</g>
</svg>
