<?xml version="1.0" encoding="iso-8859-1"?>
<!-- Generator: Adobe Illustrator 19.0.0, SVG Export Plug-In . SVG Version: 6.00 Build 0)  -->
<svg version="1.1" id="Layer_1" xmlns="http://www.w3.org/2000/svg" xmlns:xlink="http://www.w3.org/1999/xlink" x="0px" y="0px"
	 viewBox="0 0 512 512" style="enable-background:new 0 0 512 512;" xml:space="preserve">
<path style="fill:#FF9BA9;" d="M332.678,396.601L221.471,274.261c-5.665-6.262-8.809-14.401-8.822-22.846l0.021-183.149
	c0-4.714-3.822-8.53-8.535-8.529L84.669,59.754c-4.713,0.001-8.532,3.821-8.532,8.533v208.654c0,24.995,9.141,49.126,25.702,67.847
	l127.898,143.907c25.589,28.927,69.926,31.248,98.397,5.151l0,0C356.122,468.191,358.151,424.754,332.678,396.601z"/>
<path style="fill:#FFDC64;" d="M204.137,59.733H84.67c-4.713,0-8.533,3.821-8.533,8.533V128H212.67V68.267
	C212.67,63.554,208.85,59.733,204.137,59.733z"/>
<g>
	<path style="fill:#FFC850;" d="M93.203,128H76.137V68.267c0-4.713,3.821-8.533,8.533-8.533h8.533V128z"/>
	<rect x="110.272" y="59.733" style="fill:#FFC850;" width="17.067" height="68.267"/>
</g>
<path style="fill:#FF8B9B;" d="M332.678,396.601L221.471,274.261c-5.665-6.262-8.809-14.401-8.822-22.846l0.013-106.349L212.663,128
	l0.006-59.733c0-4.714-3.822-8.53-8.535-8.53l-59.731,0.009V128H76.137v17.067h68.267v72.141c0,29.185,10.65,57.296,29.986,79.155
	l127.923,143.936c11.683,13.206,27.09,22.298,43.945,26.447C354.807,443.422,350.487,416.284,332.678,396.601z"/>
<g>
	<path style="fill:#FFDC64;" d="M152.937,320c0-40.06-32.475-72.533-72.533-72.533c-1.441,0-2.847,0.133-4.267,0.215v29.259
		c0,24.995,9.141,49.126,25.702,67.847l26.368,29.667C143.338,361.163,152.937,341.724,152.937,320z"/>
	<path style="fill:#FFDC64;" d="M328.133,493.846L328.133,493.846c27.988-25.655,30.019-69.092,4.546-97.246l-6.017-6.619
		l-106.085,88.407l9.159,10.307C255.326,517.622,299.664,519.943,328.133,493.846z"/>
</g>
<g>
	<path style="fill:#FFC850;" d="M80.403,264.533c-1.441,0-2.854,0.108-4.267,0.215v12.192c0,24.995,9.141,49.126,25.702,67.847
		l15.042,16.925C128.497,351.547,135.87,336.65,135.87,320C135.87,289.366,111.037,264.533,80.403,264.533z"/>
	<path style="fill:#FFC850;" d="M328.133,493.846L328.133,493.846c23.6-21.634,28.665-55.881,14.425-82.976l-103.66,86.385
		C264.969,517.733,302.812,517.058,328.133,493.846z"/>
	<rect x="144.405" y="59.733" style="fill:#FFC850;" width="17.067" height="68.267"/>
	<path style="fill:#FFC850;" d="M326.662,389.982l-39.68,33.068l15.331,17.25c11.682,13.206,27.09,22.299,43.943,26.446
		c8.549-23.324,4.229-50.463-13.579-70.146L326.662,389.982z"/>
</g>
<path style="fill:#F5B44B;" d="M304.537,442.557c11.371,11.932,25.834,20.26,41.639,24.167c6.605-18.082,5.538-38.429-3.618-55.853
	L304.537,442.557z"/>
<path style="fill:#FF9BA9;" d="M418.012,336.867L306.804,214.528c-5.665-6.262-8.809-14.401-8.822-22.846l0.021-183.149
	c0-4.714-3.822-8.53-8.535-8.529L170.002,0.02c-4.713,0.001-8.532,3.821-8.532,8.533v208.654c0,24.995,9.141,49.126,25.702,67.847
	L315.07,428.962c25.589,28.927,69.926,31.248,98.397,5.151l0,0C441.455,408.458,443.485,365.021,418.012,336.867z"/>
<path style="fill:#FFDC64;" d="M289.47,0H170.003c-4.713,0-8.533,3.821-8.533,8.533v59.733h136.533V8.533
	C298.003,3.821,294.183,0,289.47,0z"/>
<g>
	<path style="fill:#FFC850;" d="M178.537,68.267H161.47V8.533c0-4.713,3.821-8.533,8.533-8.533h8.533V68.267z"/>
	<rect x="195.605" style="fill:#FFC850;" width="17.067" height="68.267"/>
	<rect x="229.739" style="fill:#FFC850;" width="17.067" height="68.267"/>
	<rect x="263.872" style="fill:#FFC850;" width="17.067" height="68.267"/>
</g>
<rect x="161.472" y="68.267" style="fill:#FF8B9B;" width="136.533" height="17.067"/>
<g>
	<path style="fill:#FFDC64;" d="M238.27,260.267c0-40.06-32.475-72.533-72.533-72.533c-1.441,0-2.847,0.133-4.267,0.215v29.259
		c0,24.995,9.141,49.126,25.702,67.847l26.368,29.667C228.671,301.429,238.27,281.99,238.27,260.267z"/>
	<path style="fill:#FFDC64;" d="M413.467,434.113L413.467,434.113c27.988-25.655,30.019-69.092,4.546-97.246l-6.017-6.619
		L305.91,418.656l9.159,10.307C340.659,457.889,384.997,460.21,413.467,434.113z"/>
</g>
<g>
	<path style="fill:#FFC850;" d="M165.737,204.8c-1.441,0-2.854,0.108-4.267,0.215v12.192c0,24.995,9.141,49.126,25.702,67.847
		l15.042,16.925c11.616-10.166,18.989-25.063,18.989-41.713C221.203,229.633,196.37,204.8,165.737,204.8z"/>
	<path style="fill:#FFC850;" d="M413.467,434.113L413.467,434.113c23.6-21.634,28.665-55.881,14.425-82.976l-103.66,86.385
		C350.302,458,388.145,457.325,413.467,434.113z"/>
</g>
<g>
</g>
<g>
</g>
<g>
</g>
<g>
</g>
<g>
</g>
<g>
</g>
<g>
</g>
<g>
</g>
<g>
</g>
<g>
</g>
<g>
</g>
<g>
</g>
<g>
</g>
<g>
</g>
<g>
</g>
</svg>
