<?xml version="1.0" encoding="iso-8859-1"?>
<!-- Generator: Adobe Illustrator 19.0.0, SVG Export Plug-In . SVG Version: 6.00 Build 0)  -->
<svg version="1.1" id="Layer_1" xmlns="http://www.w3.org/2000/svg" xmlns:xlink="http://www.w3.org/1999/xlink" x="0px" y="0px"
	 viewBox="0 0 512 512" style="enable-background:new 0 0 512 512;" xml:space="preserve">
<g>
	<rect x="211.862" y="17.655" style="fill:#5B5D6E;" width="17.655" height="132.414"/>
	<rect x="282.483" y="17.655" style="fill:#5B5D6E;" width="17.655" height="132.414"/>
</g>
<g>
	<path style="fill:#464655;" d="M167.724,512h-17.655c-4.875,0-8.828-3.953-8.828-8.828v-44.138h35.31v44.138
		C176.552,508.047,172.599,512,167.724,512z"/>
	<path style="fill:#464655;" d="M361.931,512h-17.655c-4.875,0-8.828-3.953-8.828-8.828v-44.138h35.31v44.138
		C370.759,508.047,366.806,512,361.931,512z"/>
</g>
<path style="fill:#FF5A64;" d="M370.759,476.69H141.241c-9.751,0-17.655-7.904-17.655-17.655V185.379
	c0-24.376,19.762-44.138,44.138-44.138h176.552c24.376,0,44.138,19.762,44.138,44.138v273.655
	C388.414,468.786,380.51,476.69,370.759,476.69z"/>
<g>
	<path style="fill:#D74B55;" d="M335.448,273.655H176.552c-9.751,0-17.655,7.904-17.655,17.655v105.931
		c0,9.751,7.904,17.655,17.655,17.655h158.897c9.751,0,17.655-7.904,17.655-17.655V291.31
		C353.103,281.559,345.199,273.655,335.448,273.655z"/>
	<path style="fill:#D74B55;" d="M335.448,238.345H176.552c-9.751,0-17.655-7.904-17.655-17.655v-26.483
		c0-9.751,7.904-17.655,17.655-17.655h158.897c9.751,0,17.655,7.904,17.655,17.655v26.483
		C353.103,230.441,345.199,238.345,335.448,238.345z"/>
</g>
<path style="fill:#5B5D6E;" d="M326.621,317.793H185.379c-4.879,0-8.828-3.948-8.828-8.828s3.948-8.828,8.828-8.828h141.241
	c4.879,0,8.828,3.948,8.828,8.828S331.5,317.793,326.621,317.793z"/>
<path style="fill:#707487;" d="M300.138,26.483h-88.276c-4.875,0-8.828-3.953-8.828-8.828V8.828c0-4.875,3.953-8.828,8.828-8.828
	h88.276c4.875,0,8.828,3.953,8.828,8.828v8.828C308.966,22.53,305.013,26.483,300.138,26.483z"/>
<path style="fill:#5B5D6E;" d="M123.586,450.207h264.828v8.828c0,9.751-7.904,17.655-17.655,17.655H141.241
	c-9.751,0-17.655-7.904-17.655-17.655V450.207z"/>
<g>
</g>
<g>
</g>
<g>
</g>
<g>
</g>
<g>
</g>
<g>
</g>
<g>
</g>
<g>
</g>
<g>
</g>
<g>
</g>
<g>
</g>
<g>
</g>
<g>
</g>
<g>
</g>
<g>
</g>
</svg>
