<?xml version="1.0" encoding="iso-8859-1"?>
<!-- Generator: Adobe Illustrator 19.0.0, SVG Export Plug-In . SVG Version: 6.00 Build 0)  -->
<svg version="1.1" id="Layer_1" xmlns="http://www.w3.org/2000/svg" xmlns:xlink="http://www.w3.org/1999/xlink" x="0px" y="0px"
	 viewBox="0 0 512 512" style="enable-background:new 0 0 512 512;" xml:space="preserve">
<g>
	<path style="fill:#00AAF0;" d="M158.555,7.861c-0.572-5.149-5.432-8.703-10.513-7.687l-26.67,5.334
		c-4.54,0.908-7.608,5.166-7.034,9.758l9.149,63.859h44.171L158.555,7.861z"/>
	<path style="fill:#00AAF0;" d="M387.963,5.508l-26.67-5.334c-5.081-1.016-9.941,2.538-10.513,7.687l-6.438,71.264h44.171
		l6.483-63.859C395.57,10.673,392.501,6.416,387.963,5.508z"/>
</g>
<path style="fill:#00C3FF;" d="M423.85,150.283c0-32.706-29.407-65.972-44.414-80.817c-5.128-5.073-12.707-6.616-19.342-3.785
	c-17.036,7.264-52.492,24.598-93.098,57.311c-6.394,5.151-15.598,5.151-21.992,0c-40.605-32.713-76.062-50.047-93.098-57.311
	c-6.636-2.83-14.214-1.288-19.342,3.785c-15.006,14.846-44.414,48.11-44.414,80.817c0,23.857,10.554,45.207,27.192,59.78
	l15.433,162.63c0.955,9.649,5.822,18.437,13.465,24.403c21.191,16.541,64.791,55.044,81.747,103.246
	C228.454,507.354,235.1,512,242.532,512h26.938c7.432,0,14.078-4.647,16.544-11.658c16.956-48.202,60.556-86.705,81.747-103.246
	c7.644-5.966,12.51-14.754,13.466-24.403l15.432-162.63C413.297,195.49,423.85,174.14,423.85,150.283z"/>
<g>
	<path style="fill:#00AAF0;" d="M151.75,227.71c-13.843-2.809-26.303-8.782-36.408-17.647l2.178,22.949
		c9.29,5.626,19.62,9.768,30.71,12.022c0.595,0.113,1.19,0.172,1.769,0.172c4.116,0,7.799-2.89,8.653-7.074
		C159.617,233.352,156.529,228.686,151.75,227.71z"/>
	<path style="fill:#00AAF0;" d="M360.255,227.71c13.843-2.809,26.303-8.782,36.408-17.647l-2.178,22.949
		c-9.29,5.626-19.62,9.768-30.71,12.022c-0.595,0.113-1.19,0.172-1.769,0.172c-4.116,0-7.799-2.89-8.653-7.074
		C352.387,233.352,355.476,228.686,360.255,227.71z"/>
</g>
<g>
</g>
<g>
</g>
<g>
</g>
<g>
</g>
<g>
</g>
<g>
</g>
<g>
</g>
<g>
</g>
<g>
</g>
<g>
</g>
<g>
</g>
<g>
</g>
<g>
</g>
<g>
</g>
<g>
</g>
</svg>
