<?xml version="1.0" encoding="iso-8859-1"?>
<!-- Generator: Adobe Illustrator 19.0.0, SVG Export Plug-In . SVG Version: 6.00 Build 0)  -->
<svg version="1.1" id="Layer_1" xmlns="http://www.w3.org/2000/svg" xmlns:xlink="http://www.w3.org/1999/xlink" x="0px" y="0px"
	 viewBox="0 0 512.001 512.001" style="enable-background:new 0 0 512.001 512.001;" xml:space="preserve">
<path style="fill:#91C5E6;" d="M477.24,101.132H34.76V56.884c0-9.775,7.924-17.699,17.699-17.699h407.081
	c9.775,0,17.699,7.924,17.699,17.699V101.132z"/>
<path style="fill:#B4E1FA;" d="M256,366.62l17.205,91.758c1.57,8.372,8.879,14.437,17.396,14.437h212.55
	c5.131,0,9.185-4.348,8.829-9.466l-24.741-354.6c-0.647-9.274-8.36-16.467-17.656-16.467H42.417
	c-9.297,0-17.009,7.193-17.656,16.467L0.022,463.35c-0.357,5.117,3.698,9.466,8.829,9.466H221.4c8.517,0,15.826-6.066,17.396-14.437
	L256,366.62z"/>
<g>
	<path style="fill:#A0D2F0;" d="M290.601,472.815h212.55c5.129,0,9.185-4.348,8.829-9.466l-1.809-25.933H269.274l3.93,20.961
		C274.774,466.749,282.083,472.815,290.601,472.815z"/>
	<path style="fill:#A0D2F0;" d="M242.725,437.417H1.831L0.022,463.35c-0.357,5.117,3.698,9.466,8.829,9.466H221.4
		c8.517,0,15.826-6.066,17.396-14.437L242.725,437.417z"/>
	<path style="fill:#A0D2F0;" d="M487.941,118.832l-0.702-10.082c-0.646-9.274-8.357-16.467-17.654-16.467H42.417
		c-9.297,0-17.009,7.193-17.656,16.467l-0.704,10.082h108.744c8.273,0,15.443,5.731,17.264,13.801l43.487,192.586
		c5.467,24.209,26.975,41.403,51.793,41.403h21.307c24.819,0,46.328-17.193,51.793-41.403l43.486-192.585
		c1.822-8.07,8.991-13.801,17.264-13.801h108.745V118.832z"/>
</g>
<rect x="247.147" y="92.279" style="fill:#91C5E6;" width="17.699" height="274.337"/>
<g>
</g>
<g>
</g>
<g>
</g>
<g>
</g>
<g>
</g>
<g>
</g>
<g>
</g>
<g>
</g>
<g>
</g>
<g>
</g>
<g>
</g>
<g>
</g>
<g>
</g>
<g>
</g>
<g>
</g>
</svg>
