<?xml version="1.0" encoding="iso-8859-1"?>
<!-- Generator: Adobe Illustrator 19.0.0, SVG Export Plug-In . SVG Version: 6.00 Build 0)  -->
<svg version="1.1" id="Layer_1" xmlns="http://www.w3.org/2000/svg" xmlns:xlink="http://www.w3.org/1999/xlink" x="0px" y="0px"
	 viewBox="0 0 512 512" style="enable-background:new 0 0 512 512;" xml:space="preserve">
<path style="fill:#C7CFE2;" d="M441.378,186.579c0-5.881-2.938-11.329-7.83-14.594c-25.452-16.989-45.134-51.535-45.134-81.132
	v-32.93c0-8.102-5.514-15.164-13.373-17.128l-21.938-5.484l-24.968-24.968C321.513,3.72,312.532,0,303.167,0h-94.334
	c-9.365,0-18.346,3.72-24.968,10.343L158.897,35.31l-21.938,5.484c-7.859,1.965-13.373,9.027-13.373,17.128v32.93
	c0,29.597-19.682,64.143-45.134,81.132c-4.892,3.265-7.83,8.713-7.83,14.593l-0.001,316.595c0,4.875,3.953,8.828,8.828,8.828h88.276
	C216.478,512,256,472.478,256,423.724C256,472.478,295.522,512,344.276,512h88.276c4.875,0,8.828-3.953,8.828-8.828L441.378,186.579
	z"/>
<path style="fill:#A1A8C0;" d="M132.414,441.379h44.138c9.751,0,17.655-7.904,17.655-17.655v-70.621
	c0-4.875-3.953-8.828-8.828-8.828h-61.793c-4.875,0-8.828,3.953-8.828,8.828v70.621
	C114.759,433.475,122.663,441.379,132.414,441.379z"/>
<path style="fill:#AFB9D2;" d="M353.103,35.31l-24.968-24.968C321.513,3.72,312.532,0,303.167,0h-94.334
	c-9.365,0-18.346,3.72-24.968,10.343L158.897,35.31l93.866,255.998c2.142,5.841,3.238,12.013,3.238,18.233v114.183
	c0,19.829,6.617,38.068,17.655,52.804V262.959c0-7.257,1.279-14.458,3.777-21.272L353.103,35.31z"/>
<path style="fill:#959CB5;" d="M256,247.172L317.069,2.895C312.713,1.027,308,0,303.167,0h-94.334
	c-4.832,0-9.546,1.027-13.902,2.895L256,247.172z"/>
<polygon style="fill:#7F8499;" points="311.172,26.483 200.828,26.483 256,247.172 "/>
<path style="fill:#959CB5;" d="M273.655,61.793h-35.31c-4.879,0-8.828-3.953-8.828-8.828s3.948-8.828,8.828-8.828h35.31
	c4.879,0,8.828,3.953,8.828,8.828S278.535,61.793,273.655,61.793z"/>
<path style="fill:#AFB9D2;" d="M132.414,379.586h44.138c9.751,0,17.655-7.904,17.655-17.655v-8.828c0-4.875-3.953-8.828-8.828-8.828
	h-61.793c-4.875,0-8.828,3.953-8.828,8.828v8.828C114.759,371.682,122.663,379.586,132.414,379.586z"/>
<path style="fill:#A1A8C0;" d="M335.448,441.379h44.138c9.751,0,17.655-7.904,17.655-17.655v-70.621
	c0-4.875-3.953-8.828-8.828-8.828h-61.793c-4.875,0-8.828,3.953-8.828,8.828v70.621
	C317.793,433.475,325.697,441.379,335.448,441.379z"/>
<g>
	<path style="fill:#AFB9D2;" d="M335.448,379.586h44.138c9.751,0,17.655-7.904,17.655-17.655v-8.828
		c0-4.875-3.953-8.828-8.828-8.828h-61.793c-4.875,0-8.828,3.953-8.828,8.828v8.828
		C317.793,371.682,325.697,379.586,335.448,379.586z"/>
	<path style="fill:#AFB9D2;" d="M78.517,192.345c35.172-17.587,62.724-62.168,62.724-101.492V39.724l-4.281,1.07
		c-7.86,1.964-13.374,9.026-13.374,17.128v32.93c0,29.596-19.681,64.143-45.134,81.132c-4.892,3.265-7.83,8.713-7.83,14.594v9.41
		L78.517,192.345z"/>
	<path style="fill:#AFB9D2;" d="M433.483,192.345c-35.172-17.587-62.724-62.168-62.724-101.492V39.724l4.281,1.07
		c7.86,1.964,13.374,9.026,13.374,17.128v32.93c0,29.596,19.681,64.143,45.134,81.132c4.892,3.265,7.83,8.713,7.83,14.594v9.41
		L433.483,192.345z"/>
</g>
<g>
</g>
<g>
</g>
<g>
</g>
<g>
</g>
<g>
</g>
<g>
</g>
<g>
</g>
<g>
</g>
<g>
</g>
<g>
</g>
<g>
</g>
<g>
</g>
<g>
</g>
<g>
</g>
<g>
</g>
</svg>
