<?xml version="1.0" encoding="iso-8859-1"?>
<!-- Generator: Adobe Illustrator 19.0.0, SVG Export Plug-In . SVG Version: 6.00 Build 0)  -->
<svg version="1.1" id="Layer_1" xmlns="http://www.w3.org/2000/svg" xmlns:xlink="http://www.w3.org/1999/xlink" x="0px" y="0px"
	 viewBox="0 0 512 512" style="enable-background:new 0 0 512 512;" xml:space="preserve">
<path style="fill:#9B5A50;" d="M435.2,443.733H59.733C26.743,443.733,0,416.99,0,384V128c0-32.99,26.743-59.733,59.733-59.733H435.2
	c32.99,0,59.733,26.743,59.733,59.733v256C494.933,416.99,468.19,443.733,435.2,443.733z"/>
<path style="fill:#915046;" d="M494.933,179.2h-25.6V128c0-18.825-15.309-34.133-34.133-34.133H59.733
	C40.909,93.867,25.6,109.175,25.6,128v256c0,18.825,15.309,34.133,34.133,34.133H435.2c18.825,0,34.133-15.309,34.133-34.133v-51.2
	h25.6V179.2z M452.267,384c0,9.408-7.659,17.067-17.067,17.067H59.733c-9.408,0-17.067-7.659-17.067-17.067V128
	c0-9.408,7.659-17.067,17.067-17.067H435.2c9.408,0,17.067,7.659,17.067,17.067v51.2H409.6c-28.232,0-51.2,22.969-51.2,51.2v51.2
	c0,28.231,22.969,51.2,51.2,51.2h42.667V384z"/>
<path style="fill:#AA6455;" d="M409.6,315.733h85.333c9.426,0,17.067-7.641,17.067-17.067v-85.333
	c0-9.426-7.641-17.067-17.067-17.067H409.6c-18.851,0-34.133,15.282-34.133,34.133v51.2
	C375.467,300.451,390.749,315.733,409.6,315.733z"/>
<circle style="fill:#EBC9A0;" cx="426.667" cy="256" r="25.6"/>
<g>
</g>
<g>
</g>
<g>
</g>
<g>
</g>
<g>
</g>
<g>
</g>
<g>
</g>
<g>
</g>
<g>
</g>
<g>
</g>
<g>
</g>
<g>
</g>
<g>
</g>
<g>
</g>
<g>
</g>
</svg>
