<?xml version="1.0" encoding="iso-8859-1"?>
<!-- Generator: Adobe Illustrator 19.0.0, SVG Export Plug-In . SVG Version: 6.00 Build 0)  -->
<svg version="1.1" id="Layer_1" xmlns="http://www.w3.org/2000/svg" xmlns:xlink="http://www.w3.org/1999/xlink" x="0px" y="0px"
	 viewBox="0 0 512 512" style="enable-background:new 0 0 512 512;" xml:space="preserve">
<rect x="348.69" y="247.172" style="fill:#EBC9A0;" width="26.483" height="17.655"/>
<path style="fill:#E4EAF8;" d="M328.276,185.655l-13.55-72.518c-0.78-4.178-4.427-7.207-8.678-7.207H179.469
	c-4.25,0-7.896,3.029-8.678,7.207l-13.55,72.518H328.276z"/>
<path style="fill:#D5DCED;" d="M163.946,149.774l-6.705,35.881h171.034l-6.705-35.881c-22.037-16.378-49.247-26.188-78.813-26.188
	S185.983,133.396,163.946,149.774z"/>
<path style="fill:#FAEBC8;" d="M286.897,114.759h-88.276c-4.875,0-8.828-3.953-8.828-8.828V8.828c0-4.875,3.953-8.828,8.828-8.828
	h88.276c4.875,0,8.828,3.953,8.828,8.828v97.103C295.724,110.806,291.772,114.759,286.897,114.759z"/>
<rect x="216.276" style="fill:#F5DCB4;" width="52.966" height="114.759"/>
<path style="fill:#E4EAF8;" d="M157.241,326.345l13.55,72.518c0.78,4.178,4.427,7.207,8.678,7.207h126.58
	c4.25,0,7.896-3.029,8.678-7.207l13.55-72.518H157.241z"/>
<path style="fill:#D5DCED;" d="M321.571,362.502l6.705-35.881H157.241l6.705,35.881c22.037,16.378,49.247,26.188,78.813,26.188
	S299.534,378.88,321.571,362.502z"/>
<path style="fill:#FAEBC8;" d="M242.759,141.241C179.379,141.241,128,192.621,128,256s51.38,114.759,114.759,114.759
	S357.517,319.379,357.517,256S306.138,141.241,242.759,141.241z"/>
<circle style="fill:#FFFFFF;" cx="242.759" cy="256" r="88.276"/>
<circle style="fill:#FAEBC8;" cx="242.759" cy="256" r="26.483"/>
<g>
	<path style="fill:#F5DCB4;" d="M180.966,264.828h-8.828c-4.879,0-8.828-3.948-8.828-8.828c0-4.879,3.948-8.828,8.828-8.828h8.828
		c4.879,0,8.828,3.948,8.828,8.828C189.793,260.879,185.845,264.828,180.966,264.828z"/>
	<path style="fill:#F5DCB4;" d="M313.379,264.828h-8.828c-4.879,0-8.828-3.948-8.828-8.828c0-4.879,3.948-8.828,8.828-8.828h8.828
		c4.879,0,8.828,3.948,8.828,8.828C322.207,260.879,318.259,264.828,313.379,264.828z"/>
	<path style="fill:#F5DCB4;" d="M242.759,203.034c-4.879,0-8.828-3.948-8.828-8.828v-8.828c0-4.879,3.948-8.828,8.828-8.828
		s8.828,3.948,8.828,8.828v8.828C251.586,199.086,247.638,203.034,242.759,203.034z"/>
	<path style="fill:#F5DCB4;" d="M242.759,335.448c-4.879,0-8.828-3.948-8.828-8.828v-8.828c0-4.879,3.948-8.828,8.828-8.828
		s8.828,3.948,8.828,8.828v8.828C251.586,331.5,247.638,335.448,242.759,335.448z"/>
</g>
<path style="fill:#EBC9A0;" d="M242.759,264.828c-2.259,0-4.518-0.862-6.241-2.586c-3.448-3.448-3.448-9.035,0-12.483l39.724-39.724
	c3.448-3.448,9.035-3.448,12.483,0s3.448,9.035,0,12.483l-39.724,39.724C247.276,263.966,245.017,264.828,242.759,264.828z"/>
<g>
	<path style="fill:#FFFFFF;" d="M225.103,105.931c-4.879,0-8.828-3.953-8.828-8.828v-8.828c0-4.875,3.948-8.828,8.828-8.828
		c4.879,0,8.828,3.953,8.828,8.828v8.828C233.931,101.978,229.983,105.931,225.103,105.931z"/>
	<path style="fill:#FFFFFF;" d="M225.103,61.793c-4.879,0-8.828-3.953-8.828-8.828v-8.828c0-4.875,3.948-8.828,8.828-8.828
		c4.879,0,8.828,3.953,8.828,8.828v8.828C233.931,57.841,229.983,61.793,225.103,61.793z"/>
	<path style="fill:#FFFFFF;" d="M260.414,105.931c-4.879,0-8.828-3.953-8.828-8.828v-8.828c0-4.875,3.948-8.828,8.828-8.828
		c4.879,0,8.828,3.953,8.828,8.828v8.828C269.241,101.978,265.293,105.931,260.414,105.931z"/>
	<path style="fill:#FFFFFF;" d="M260.414,61.793c-4.879,0-8.828-3.953-8.828-8.828v-8.828c0-4.875,3.948-8.828,8.828-8.828
		c4.879,0,8.828,3.953,8.828,8.828v8.828C269.241,57.841,265.293,61.793,260.414,61.793z"/>
	<path style="fill:#FFFFFF;" d="M216.276,8.828c0,4.875,3.948,8.828,8.828,8.828c4.879,0,8.828-3.953,8.828-8.828V0h-17.655V8.828z"
		/>
	<path style="fill:#FFFFFF;" d="M251.586,0v8.828c0,4.875,3.948,8.828,8.828,8.828c4.879,0,8.828-3.953,8.828-8.828V0H251.586z"/>
</g>
<g>
	<path style="fill:#FAEBC8;" d="M375.172,273.655c-4.879,0-8.828-3.948-8.828-8.828v-17.655c0-4.879,3.948-8.828,8.828-8.828
		c4.879,0,8.828,3.948,8.828,8.828v17.655C384,269.707,380.052,273.655,375.172,273.655z"/>
	<path style="fill:#FAEBC8;" d="M198.621,397.241h88.276c4.875,0,8.828,3.953,8.828,8.828v97.103c0,4.875-3.953,8.828-8.828,8.828
		h-88.276c-4.875,0-8.828-3.953-8.828-8.828v-97.103C189.793,401.194,193.746,397.241,198.621,397.241z"/>
</g>
<rect x="216.276" y="397.241" style="fill:#F5DCB4;" width="52.966" height="114.759"/>
<g>
	<path style="fill:#FFFFFF;" d="M260.414,406.069c4.879,0,8.828,3.953,8.828,8.828v8.828c0,4.875-3.948,8.828-8.828,8.828
		c-4.879,0-8.828-3.953-8.828-8.828v-8.828C251.586,410.022,255.534,406.069,260.414,406.069z"/>
	<path style="fill:#FFFFFF;" d="M260.414,450.207c4.879,0,8.828,3.953,8.828,8.828v8.828c0,4.875-3.948,8.828-8.828,8.828
		c-4.879,0-8.828-3.953-8.828-8.828v-8.828C251.586,454.159,255.534,450.207,260.414,450.207z"/>
	<path style="fill:#FFFFFF;" d="M225.103,406.069c4.879,0,8.828,3.953,8.828,8.828v8.828c0,4.875-3.948,8.828-8.828,8.828
		c-4.879,0-8.828-3.953-8.828-8.828v-8.828C216.276,410.022,220.224,406.069,225.103,406.069z"/>
	<path style="fill:#FFFFFF;" d="M225.103,450.207c4.879,0,8.828,3.953,8.828,8.828v8.828c0,4.875-3.948,8.828-8.828,8.828
		c-4.879,0-8.828-3.953-8.828-8.828v-8.828C216.276,454.159,220.224,450.207,225.103,450.207z"/>
	<path style="fill:#FFFFFF;" d="M269.241,503.172c0-4.875-3.948-8.828-8.828-8.828c-4.879,0-8.828,3.953-8.828,8.828V512h17.655
		V503.172z"/>
	<path style="fill:#FFFFFF;" d="M233.931,512v-8.828c0-4.875-3.948-8.828-8.828-8.828c-4.879,0-8.828,3.953-8.828,8.828V512H233.931
		z"/>
</g>
<g>
</g>
<g>
</g>
<g>
</g>
<g>
</g>
<g>
</g>
<g>
</g>
<g>
</g>
<g>
</g>
<g>
</g>
<g>
</g>
<g>
</g>
<g>
</g>
<g>
</g>
<g>
</g>
<g>
</g>
</svg>
