<?xml version="1.0" encoding="iso-8859-1"?>
<!-- Generator: Adobe Illustrator 19.0.0, SVG Export Plug-In . SVG Version: 6.00 Build 0)  -->
<svg version="1.1" id="Layer_1" xmlns="http://www.w3.org/2000/svg" xmlns:xlink="http://www.w3.org/1999/xlink" x="0px" y="0px"
	 viewBox="0 0 512 512" style="enable-background:new 0 0 512 512;" xml:space="preserve">
<path style="fill:#46C79C;" d="M316.934,191.174c-0.866,0-1.742-0.063-2.624-0.191c-9.807-1.436-16.592-10.552-15.155-20.361
	L321.91,15.346c1.437-9.806,10.553-16.586,20.359-15.156c9.807,1.438,16.592,10.555,15.156,20.361l-22.754,155.278
	C333.361,184.751,325.695,191.174,316.934,191.174z"/>
<path style="fill:#C3DDF7;" d="M424.078,174.298c1.033-7.828-4.582-14.235-12.478-14.235H100.401
	c-7.897,0-13.513,6.405-12.478,14.235l42.693,323.47c1.033,7.828,8.34,14.233,16.237,14.233h218.297
	c7.897,0,15.202-6.403,16.236-14.233L424.078,174.298z"/>
<g>
	<path style="fill:#3F4963;" d="M430.077,139.129h-32.722c0-18.502-14.999-33.5-33.5-33.5H148.147c-18.503,0-33.5,15-33.5,33.5
		H81.923c-7.897,0-14.358,6.461-14.358,14.359v39.476c0,7.896,6.461,14.357,14.358,14.357h348.153
		c7.897,0,14.358-6.461,14.358-14.357v-39.476C444.434,145.59,437.973,139.129,430.077,139.129z"/>
	<path style="fill:#3F4963;" d="M241.142,285.402c-12.745,0-23.112-10.369-23.112-23.112c0-4.56,3.696-8.254,8.254-8.254
		c4.559,0,8.254,3.695,8.254,8.254c0,3.642,2.962,6.603,6.603,6.603c3.642,0,6.603-2.962,6.603-6.603
		c0-4.56,3.696-8.254,8.254-8.254c4.559,0,8.254,3.695,8.254,8.254C264.254,275.033,253.887,285.402,241.142,285.402z"/>
	<path style="fill:#3F4963;" d="M270.858,285.402c-12.745,0-23.112-10.369-23.112-23.112c0-4.56,3.696-8.254,8.254-8.254
		c4.559,0,8.254,3.695,8.254,8.254c0,3.642,2.962,6.603,6.603,6.603c3.642,0,6.603-2.962,6.603-6.603
		c0-4.56,3.696-8.254,8.254-8.254s8.254,3.695,8.254,8.254C293.97,275.033,283.602,285.402,270.858,285.402z"/>
</g>
<path style="fill:#FF9596;" d="M345.505,298.117h-31.977c-4.559,0-8.254-3.695-8.254-8.254c0-4.56,3.696-8.254,8.254-8.254h31.977
	c4.559,0,8.254,3.695,8.254,8.254C353.76,294.422,350.064,298.117,345.505,298.117z"/>
<path style="fill:#3F4963;" d="M344.463,261.895c-4.559,0-8.254-3.695-8.254-8.254c0-3.69-3.002-6.691-6.691-6.691
	c-3.69,0-6.691,3.001-6.691,6.691c0,4.56-3.696,8.254-8.254,8.254c-4.559,0-8.254-3.695-8.254-8.254c0-12.793,10.408-23.2,23.2-23.2
	c12.793,0,23.2,10.407,23.2,23.2C352.717,258.199,349.022,261.895,344.463,261.895z"/>
<path style="fill:#FF9596;" d="M198.471,298.117h-31.976c-4.559,0-8.254-3.695-8.254-8.254c0-4.56,3.696-8.254,8.254-8.254h31.977
	c4.559,0,8.254,3.695,8.254,8.254C206.725,294.422,203.03,298.117,198.471,298.117z"/>
<path style="fill:#3F4963;" d="M197.429,261.895c-4.559,0-8.254-3.695-8.254-8.254c0-3.69-3.002-6.691-6.691-6.691
	c-3.69,0-6.691,3.001-6.691,6.691c0,4.56-3.696,8.254-8.254,8.254s-8.254-3.695-8.254-8.254c0-12.793,10.407-23.2,23.2-23.2
	c12.793,0,23.2,10.407,23.2,23.2C205.683,258.199,201.987,261.895,197.429,261.895z"/>
<path style="fill:#866539;" d="M105.054,321.669c-6.053,0-10.358,4.91-9.565,10.911l15.229,115.382
	c0.792,6.001,6.393,10.911,12.446,10.911h265.669c6.053,0,11.654-4.91,12.446-10.911l15.229-115.382
	c0.792-6.001-3.512-10.911-9.565-10.911H105.054z"/>
<circle style="fill:#FFFFFF;" cx="255.993" cy="390.274" r="55.992"/>
<path style="fill:#866539;" d="M263.426,361.655c-4.103,0-7.429,3.327-7.429,7.429c0-4.102-3.326-7.429-7.429-7.429
	c-6.325,0-16.78,14.307-16.78,31.366s7.421,23.662,16.78,23.662c4.103,0,7.429-3.326,7.429-7.429c0,4.103,3.326,7.429,7.429,7.429
	c9.358,0,16.78-6.603,16.78-23.662S269.749,361.655,263.426,361.655z"/>
<g>
</g>
<g>
</g>
<g>
</g>
<g>
</g>
<g>
</g>
<g>
</g>
<g>
</g>
<g>
</g>
<g>
</g>
<g>
</g>
<g>
</g>
<g>
</g>
<g>
</g>
<g>
</g>
<g>
</g>
</svg>
