<?xml version="1.0" encoding="iso-8859-1"?>
<!-- Generator: Adobe Illustrator 19.0.0, SVG Export Plug-In . SVG Version: 6.00 Build 0)  -->
<svg version="1.1" id="Layer_1" xmlns="http://www.w3.org/2000/svg" xmlns:xlink="http://www.w3.org/1999/xlink" x="0px" y="0px"
	 viewBox="0 0 512.002 512.002" style="enable-background:new 0 0 512.002 512.002;" xml:space="preserve">
<path style="fill:#866539;" d="M366.577,137.029h-0.01c0-31.177-23.023-56.968-52.994-61.324
	c5.844-22.291-3.403-53.886-22.127-72.625C289.552,1.178,286.933,0,284.038,0c-5.773,0-10.455,4.681-10.455,10.453
	c0,38.648-47.993,64.595-66.165,64.595c-34.231,0-61.981,27.749-61.981,61.98h-0.01c-34.231,0-61.981,27.75-61.981,61.981
	s27.75,61.98,61.981,61.98h221.15c34.231,0,61.981-27.749,61.981-61.98C428.558,164.779,400.809,137.029,366.577,137.029z"/>
<path style="fill:#FDBA55;" d="M418.169,284.688c2.668-12.209-5.373-22.197-17.869-22.197H111.705
	c-12.496,0-20.538,9.989-17.869,22.197l44.837,205.115C141.342,502.011,153.75,512,166.247,512h179.51
	c12.497,0,24.905-9.989,27.574-22.197L418.169,284.688z"/>
<g>
	<path style="fill:#CF9945;" d="M417.31,273.047c-2.186-5.248-6.864-9.052-13.043-10.194l-42.142,42.142l-41.443-41.444l1.061-1.061
		h-25.358l1.061,1.061l-41.443,41.443l-41.443-41.443l1.061-1.061h-25.359l1.061,1.061l-41.443,41.444l-42.142-42.142
		c-6.179,1.141-10.857,4.946-13.043,10.194l43.566,43.567l-30.729,30.729l4.168,19.069l38.179-38.179l41.443,41.443l-41.443,41.443
		l-36.353-36.352l6.5,29.737l18.234,18.234l-11.692,11.692l4.168,19.069l19.142-19.142l41.443,41.443L156.922,510.2
		c2.998,1.156,6.157,1.802,9.324,1.802h12.111l24.583-24.583l24.583,24.583h22.751l0.242-0.242l-35.959-35.959l41.443-41.443
		l41.443,41.443l-35.959,35.959l0.242,0.242h22.751l24.583-24.583l24.583,24.583h12.111c3.167,0,6.326-0.646,9.324-1.802
		l-34.399-34.399l41.443-41.443l19.142,19.142l4.168-19.069l-11.692-11.692l18.234-18.234l6.5-29.737l-36.353,36.352l-41.443-41.443
		l41.443-41.443l38.181,38.178l4.168-19.069l-30.729-30.729L417.31,273.047z M161.497,316.615l41.443-41.444l41.443,41.443
		l-41.443,41.443L161.497,316.615z M202.94,464.18l-41.443-41.443l41.443-41.443l41.443,41.443L202.94,464.18z M214.559,369.676
		l41.443-41.444l41.443,41.444l-41.443,41.443L214.559,369.676z M350.507,422.737l-41.443,41.443l-41.443-41.443l41.443-41.443
		L350.507,422.737z M309.063,358.058l-41.443-41.443l41.443-41.443l41.443,41.444L309.063,358.058z"/>
	<path style="fill:#CF9945;" d="M134.735,471.794l3.937,18.008C141.341,502.011,153.749,512,166.246,512h179.51
		c12.497,0,24.905-9.989,27.574-22.197l3.937-18.008H134.735z"/>
</g>
<path style="fill:#FFD553;" d="M440.748,244.659c0-12.497-10.224-22.722-22.722-22.722H93.976
	c-12.497,0-22.722,10.224-22.722,22.722v52.095c0,12.497,10.224,22.723,22.722,22.723h324.05c12.497,0,22.722-10.226,22.722-22.723
	V244.659z"/>
<circle style="fill:#3F4963;" cx="179.669" cy="252.983" r="15.52"/>
<path style="fill:#FF6376;" d="M196.268,302.301h-33.205c-4.537,0-8.215-3.678-8.215-8.215c0-4.537,3.678-8.216,8.215-8.216h33.205
	c4.537,0,8.216,3.678,8.216,8.216C204.483,298.623,200.805,302.301,196.268,302.301z"/>
<circle style="fill:#3F4963;" cx="332.346" cy="252.983" r="15.52"/>
<path style="fill:#FF6376;" d="M348.947,302.301h-33.205c-4.537,0-8.216-3.678-8.216-8.215c0-4.537,3.678-8.216,8.216-8.216h33.205
	c4.537,0,8.215,3.678,8.215,8.216C357.162,298.623,353.484,302.301,348.947,302.301z"/>
<g>
	<path style="fill:#3F4963;" d="M240.577,289.098c-13.037,0-23.643-10.606-23.643-23.643c0-4.537,3.678-8.216,8.215-8.216
		c4.537,0,8.215,3.678,8.215,8.216c0,3.976,3.236,7.211,7.212,7.211c3.977,0,7.212-3.235,7.212-7.211
		c0-4.537,3.678-8.215,8.215-8.215c4.537,0,8.216,3.678,8.216,8.215C264.221,278.492,253.614,289.098,240.577,289.098z"/>
	<path style="fill:#3F4963;" d="M271.433,289.098c-13.037,0-23.644-10.606-23.644-23.643c0-4.537,3.678-8.216,8.215-8.216
		c4.537,0,8.216,3.678,8.216,8.216c0,3.976,3.236,7.211,7.213,7.211s7.213-3.235,7.213-7.211c0-4.537,3.678-8.215,8.216-8.215
		c4.537,0,8.215,3.678,8.215,8.215C295.077,278.492,284.471,289.098,271.433,289.098z"/>
</g>
<g>
	<path style="fill:#FF6376;" d="M302.711,186.322c-2.102,0-4.205-0.802-5.809-2.407c-3.208-3.208-3.208-8.41,0-11.618l19.096-19.096
		c3.208-3.208,8.41-3.208,11.618,0c3.208,3.208,3.208,8.41,0,11.618l-19.096,19.096C306.916,185.52,304.814,186.322,302.711,186.322
		z"/>
	<path style="fill:#FF6376;" d="M152.835,205.418c-2.103,0-4.205-0.802-5.809-2.407l-19.096-19.096
		c-3.208-3.208-3.208-8.41,0-11.618c3.208-3.208,8.41-3.208,11.618,0l19.096,19.096c3.208,3.208,3.208,8.41,0,11.619
		C157.039,204.616,154.937,205.418,152.835,205.418z"/>
</g>
<g>
	<path style="fill:#65F7C4;" d="M275.1,152.542c-2.102,0-4.205-0.802-5.809-2.407l-19.096-19.096c-3.208-3.208-3.208-8.41,0-11.618
		c3.208-3.208,8.41-3.208,11.619,0l19.096,19.096c3.208,3.208,3.208,8.41,0,11.618C279.306,151.74,277.204,152.542,275.1,152.542z"
		/>
	<path style="fill:#65F7C4;" d="M388.546,205.418c-2.102,0-4.205-0.802-5.809-2.407l-19.096-19.096
		c-3.208-3.208-3.208-8.41,0-11.618c3.208-3.208,8.41-3.208,11.618,0l19.096,19.096c3.208,3.208,3.208,8.41,0,11.619
		C392.75,204.615,390.648,205.418,388.546,205.418z"/>
</g>
<g>
	<path style="fill:#FFFFFF;" d="M309.085,125.989c-2.103,0-4.205-0.802-5.809-2.407l-19.096-19.096
		c-3.208-3.208-3.208-8.41,0-11.618c3.208-3.208,8.41-3.208,11.618,0l19.096,19.096c3.208,3.208,3.208,8.41,0,11.618
		C313.289,125.186,311.187,125.989,309.085,125.989z"/>
	<path style="fill:#FFFFFF;" d="M210.575,195.87c-2.102,0-4.205-0.802-5.809-2.407c-3.208-3.208-3.208-8.41,0-11.619l19.096-19.096
		c3.208-3.208,8.41-3.208,11.618,0c3.208,3.208,3.208,8.41,0,11.618l-19.096,19.096C214.78,195.068,212.677,195.87,210.575,195.87z"
		/>
</g>
<path style="fill:#FF9596;" d="M179.665,138.711c-2.102,0-4.205-0.802-5.809-2.407c-3.208-3.208-3.208-8.41,0-11.618l19.096-19.096
	c3.208-3.208,8.41-3.208,11.619,0c3.208,3.208,3.208,8.41,0,11.618l-19.096,19.096C183.87,137.908,181.768,138.711,179.665,138.711z
	"/>
<circle style="fill:#FF6376;" cx="233.64" cy="59.623" r="32.862"/>
<path style="fill:#725E24;" d="M222.922,57.128c-2.102,0-4.205-0.802-5.809-2.407l-24.162-24.162c-3.208-3.208-3.208-8.41,0-11.619
	c3.208-3.208,8.41-3.208,11.619,0l24.162,24.163c3.208,3.208,3.208,8.41,0,11.618C227.127,56.325,225.025,57.128,222.922,57.128z"/>
<g>
</g>
<g>
</g>
<g>
</g>
<g>
</g>
<g>
</g>
<g>
</g>
<g>
</g>
<g>
</g>
<g>
</g>
<g>
</g>
<g>
</g>
<g>
</g>
<g>
</g>
<g>
</g>
<g>
</g>
</svg>
