<?xml version="1.0" encoding="iso-8859-1"?>
<!-- Generator: Adobe Illustrator 19.0.0, SVG Export Plug-In . SVG Version: 6.00 Build 0)  -->
<svg version="1.1" id="Layer_1" xmlns="http://www.w3.org/2000/svg" xmlns:xlink="http://www.w3.org/1999/xlink" x="0px" y="0px"
	 viewBox="0 0 512 512" style="enable-background:new 0 0 512 512;" xml:space="preserve">
<path style="fill:#FF6376;" d="M316,168.553V53.914H195.999v114.639c0,76.887-68.6,51.439-68.6,102.901v216.777
	c0,13.127,10.641,23.769,23.77,23.769h209.662c13.129,0,23.77-10.642,23.77-23.769V271.454C384.601,219.992,316,245.44,316,168.553z
	"/>
<path style="fill:#C3DDF7;" d="M316,53.914V11.31C316,5.09,310.909,0,304.688,0h-97.379c-6.221,0-11.311,5.09-11.311,11.31v42.604
	H316z"/>
<g style="opacity:0.2;">
	<path style="fill:#2F3953;" d="M256,42.404c-4.545,0-8.228-3.684-8.228-8.228V19.737c0-4.544,3.683-8.228,8.228-8.228
		s8.228,3.684,8.228,8.228v14.438C264.228,38.72,260.545,42.404,256,42.404z"/>
	<path style="fill:#2F3953;" d="M222.068,42.404c-4.545,0-8.228-3.684-8.228-8.228V19.737c0-4.544,3.683-8.228,8.228-8.228
		c4.545,0,8.228,3.684,8.228,8.228v14.438C230.296,38.72,226.613,42.404,222.068,42.404z"/>
	<path style="fill:#2F3953;" d="M289.932,42.404c-4.545,0-8.228-3.684-8.228-8.228V19.737c0-4.544,3.683-8.228,8.228-8.228
		s8.228,3.684,8.228,8.228v14.438C298.161,38.72,294.476,42.404,289.932,42.404z"/>
</g>
<path style="fill:#FFFFFF;" d="M340.23,448.927v-83.214c0-6.034-4.937-10.971-10.971-10.971H182.74
	c-6.034,0-10.971,4.937-10.971,10.971v83.214L340.23,448.927L340.23,448.927z"/>
<path style="fill:#866539;" d="M280.218,421.865l-16.033-22.466l10.796-9.673c3.385-3.033,3.67-8.235,0.637-11.619
	c-3.034-3.385-8.235-3.672-11.62-0.637l-17.291,15.494v-10.038c0-4.544-3.683-8.228-8.228-8.228c-4.545,0-8.228,3.684-8.228,8.228
	v43.72c0,4.544,3.683,8.228,8.228,8.228c4.545,0,8.228-3.684,8.228-8.228V415.06l5.146-4.611l14.97,20.977
	c1.606,2.25,4.136,3.449,6.705,3.449c1.653,0,3.323-0.497,4.773-1.532C282,430.704,282.858,425.565,280.218,421.865z"/>
<path style="fill:#FFD553;" d="M340.23,448.927v17.722c0,6.034-4.937,10.971-10.971,10.971H182.74
	c-6.034,0-10.971-4.937-10.971-10.971v-17.722L340.23,448.927L340.23,448.927z"/>
<circle style="fill:#3F4963;" cx="182.716" cy="273.833" r="14.899"/>
<path style="fill:#FF9596;" d="M198.651,321.521h-31.876c-4.545,0-8.228-3.684-8.228-8.228s3.683-8.228,8.228-8.228h31.877
	c4.545,0,8.228,3.684,8.228,8.228C206.879,317.836,203.196,321.521,198.651,321.521z"/>
<circle style="fill:#3F4963;" cx="329.282" cy="273.833" r="14.899"/>
<path style="fill:#FF9596;" d="M345.225,321.521h-31.877c-4.545,0-8.228-3.684-8.228-8.228s3.683-8.228,8.228-8.228h31.877
	c4.545,0,8.228,3.684,8.228,8.228S349.771,321.521,345.225,321.521z"/>
<g>
	<path style="fill:#3F4963;" d="M241.189,308.845c-12.704,0-23.04-10.335-23.04-23.039c0-4.544,3.683-8.228,8.228-8.228
		s8.228,3.684,8.228,8.228c0,3.629,2.952,6.582,6.583,6.582c3.63,0,6.583-2.952,6.583-6.582c0-4.544,3.683-8.228,8.228-8.228
		s8.228,3.684,8.228,8.228C264.228,298.51,253.892,308.845,241.189,308.845z"/>
	<path style="fill:#3F4963;" d="M270.811,308.845c-12.704,0-23.04-10.335-23.04-23.039c0-4.544,3.683-8.228,8.228-8.228
		s8.228,3.684,8.228,8.228c0,3.629,2.952,6.582,6.583,6.582c3.63,0,6.583-2.952,6.583-6.582c0-4.544,3.683-8.228,8.228-8.228
		s8.228,3.684,8.228,8.228C293.851,298.51,283.515,308.845,270.811,308.845z"/>
</g>
<rect x="196.002" y="98.018" style="fill:#FFD553;" width="120.004" height="49.319"/>
<g>
</g>
<g>
</g>
<g>
</g>
<g>
</g>
<g>
</g>
<g>
</g>
<g>
</g>
<g>
</g>
<g>
</g>
<g>
</g>
<g>
</g>
<g>
</g>
<g>
</g>
<g>
</g>
<g>
</g>
</svg>
