<?xml version="1.0" encoding="iso-8859-1"?>
<!-- Generator: Adobe Illustrator 19.0.0, SVG Export Plug-In . SVG Version: 6.00 Build 0)  -->
<svg version="1.1" id="Layer_1" xmlns="http://www.w3.org/2000/svg" xmlns:xlink="http://www.w3.org/1999/xlink" x="0px" y="0px"
	 viewBox="0 0 512 512" style="enable-background:new 0 0 512 512;" xml:space="preserve">
<path style="fill:#BFBFEC;" d="M152.182,279.435v178.977c0,15.2,12.436,27.634,27.636,27.634h152.365
	c15.2,0,27.637-12.435,27.637-27.634V279.435H152.182z"/>
<g>
	<rect x="247.716" y="279.437" style="opacity:0.1;fill:#2F3953;enable-background:new    ;" width="16.574" height="206.612"/>
	<rect x="188.038" y="279.437" style="opacity:0.1;fill:#2F3953;enable-background:new    ;" width="16.574" height="206.612"/>
	<rect x="307.393" y="279.437" style="opacity:0.1;fill:#2F3953;enable-background:new    ;" width="16.574" height="206.612"/>
</g>
<path style="fill:#866539;" d="M159.547,243.744L117.042,305c-3.064,4.414-1.967,10.474,2.447,13.54
	c1.692,1.176,3.623,1.738,5.538,1.738c3.082,0,6.113-1.461,8.003-4.185l1.561-2.249c0.737,2.049,2.161,3.864,4.179,5.063
	c1.56,0.928,3.273,1.369,4.964,1.369c3.319,0,6.553-1.698,8.373-4.758l1.122-1.884c0.791,2.369,2.489,4.432,4.904,5.631
	c1.39,0.687,2.863,1.013,4.314,1.013c3.581,0,7.027-1.984,8.726-5.41l0.706-1.423c0.847,2.705,2.858,5.019,5.698,6.146
	c1.177,0.469,2.391,0.688,3.584,0.688c3.872,0,7.532-2.327,9.047-6.147l0.337-0.845c0.899,3.055,3.275,5.609,6.557,6.585
	c0.924,0.276,1.859,0.406,2.777,0.406c4.194,0,8.067-2.734,9.323-6.958l0.031-0.11c0.971,3.398,3.755,6.145,7.459,6.88
	c0.64,0.126,1.275,0.188,1.903,0.188c4.295,0,8.153-2.858,9.347-7.074c1.062,3.729,4.302,6.617,8.393,7.025
	c0.328,0.031,0.652,0.049,0.972,0.049c4.366,0,8.172-2.928,9.344-7.072c1.159,4.081,4.902,7.069,9.353,7.069
	c4.451,0,8.195-2.991,9.354-7.072c1.171,4.143,4.979,7.072,9.344,7.072c0.32,0,0.644-0.015,0.972-0.049
	c4.093-0.406,7.33-3.294,8.392-7.023c1.194,4.215,5.052,7.074,9.347,7.074c0.626,0,1.263-0.062,1.903-0.188
	c3.705-0.734,6.488-3.482,7.459-6.88l0.031,0.111c1.256,4.224,5.128,6.958,9.323,6.958c0.918,0,1.853-0.129,2.777-0.406
	c3.282-0.977,5.656-3.53,6.557-6.585l0.337,0.845c1.514,3.819,5.176,6.147,9.047,6.147c1.193,0,2.408-0.22,3.584-0.688
	c2.84-1.127,4.852-3.44,5.697-6.146l0.707,1.423c1.697,3.426,5.143,5.41,8.726,5.41c1.451,0,2.925-0.326,4.314-1.013
	c2.414-1.197,4.111-3.262,4.905-5.631l1.122,1.886c1.821,3.058,5.054,4.758,8.373,4.758c1.692,0,3.404-0.441,4.965-1.369
	c2.017-1.201,3.442-3.017,4.179-5.065l1.561,2.249c1.889,2.725,4.92,4.185,8.003,4.185c1.914,0,3.845-0.564,5.538-1.738
	c4.414-3.063,5.51-9.126,2.449-13.54l-42.506-61.255L159.547,243.744L159.547,243.744z"/>
<path style="fill:#F0F8C6;" d="M512,209.692c0,38.422-31.147,69.57-69.57,69.57H69.57c-38.424,0-69.57-31.147-69.57-69.57
	C0,87.861,132.581,25.951,256.001,25.951S512,87.861,512,209.692z"/>
<path style="fill:#C3DDF7;" d="M512,209.692c0,38.422-31.147,69.57-69.57,69.57H69.57c-38.424,0-69.57-31.147-69.57-69.57
	C0,87.861,132.581,25.951,256.001,25.951S512,87.861,512,209.692z"/>
<g>
	<circle style="fill:#3F4963;" cx="135.675" cy="157.584" r="15.591"/>
	<circle style="fill:#3F4963;" cx="376.33" cy="157.584" r="15.591"/>
</g>
<g>
	<path style="fill:#FF6376;" d="M152.355,211.755h-33.359c-4.577,0-8.287-3.709-8.287-8.287s3.71-8.287,8.287-8.287h33.359
		c4.578,0,8.287,3.709,8.287,8.287S156.932,211.755,152.355,211.755z"/>
	<path style="fill:#FF6376;" d="M393.01,211.755h-33.359c-4.578,0-8.287-3.709-8.287-8.287s3.709-8.287,8.287-8.287h33.359
		c4.578,0,8.287,3.709,8.287,8.287S397.588,211.755,393.01,211.755z"/>
</g>
<g>
	<path style="fill:#3F4963;" d="M236.48,200.982c-15.334,0-27.81-12.475-27.81-27.809c0-4.578,3.71-8.287,8.287-8.287
		c4.578,0,8.287,3.709,8.287,8.287c0,6.195,5.041,11.235,11.236,11.235s11.236-5.04,11.236-11.235c0-4.578,3.709-8.287,8.287-8.287
		c4.578,0,8.287,3.709,8.287,8.287C264.29,188.507,251.814,200.982,236.48,200.982z"/>
	<path style="fill:#3F4963;" d="M275.525,200.982c-15.334,0-27.809-12.475-27.809-27.809c0-4.578,3.709-8.287,8.287-8.287
		c4.578,0,8.287,3.709,8.287,8.287c0,6.195,5.041,11.235,11.235,11.235c6.195,0,11.236-5.04,11.236-11.235
		c0-4.578,3.709-8.287,8.287-8.287s8.287,3.709,8.287,8.287C303.335,188.507,290.859,200.982,275.525,200.982z"/>
	<path style="opacity:0.1;fill:#3F4963;enable-background:new    ;" d="M423.615,68.09c-9.477,11.537-15.169,26.305-15.169,42.404
		c0,36.925,29.934,66.856,66.859,66.856c11.383,0,22.095-2.851,31.477-7.868C495.004,125.737,464.132,91.896,423.615,68.09z"/>
	<path style="opacity:0.1;fill:#3F4963;enable-background:new    ;" d="M48.996,212.404c-17.73,0-33.834,6.915-45.801,18.175
		c8.87,28.216,35.231,48.684,66.375,48.684h46.284C115.854,242.337,85.921,212.404,48.996,212.404z"/>
	<circle style="opacity:0.1;fill:#3F4963;enable-background:new    ;" cx="192.281" cy="75.256" r="23.1"/>
</g>
<g>
</g>
<g>
</g>
<g>
</g>
<g>
</g>
<g>
</g>
<g>
</g>
<g>
</g>
<g>
</g>
<g>
</g>
<g>
</g>
<g>
</g>
<g>
</g>
<g>
</g>
<g>
</g>
<g>
</g>
</svg>
