<?xml version="1.0" encoding="iso-8859-1"?>
<!-- Generator: Adobe Illustrator 19.0.0, SVG Export Plug-In . SVG Version: 6.00 Build 0)  -->
<svg version="1.1" id="Layer_1" xmlns="http://www.w3.org/2000/svg" xmlns:xlink="http://www.w3.org/1999/xlink" x="0px" y="0px"
	 viewBox="0 0 512 512" style="enable-background:new 0 0 512 512;" xml:space="preserve">
<path style="fill:#FFD553;" d="M316,168.553V53.914H195.999v114.639c0,76.887-68.6,51.439-68.6,102.901v216.777
	c0,13.127,10.641,23.769,23.77,23.769h209.662c13.129,0,23.77-10.642,23.77-23.769V271.454C384.601,219.992,316,245.44,316,168.553z
	"/>
<path style="fill:#C3DDF7;" d="M316,53.914V11.31C316,5.09,310.909,0,304.688,0h-97.379c-6.221,0-11.311,5.09-11.311,11.31v42.604
	H316z"/>
<g style="opacity:0.2;">
	<path style="fill:#2F3953;" d="M256,42.404c-4.545,0-8.228-3.684-8.228-8.228V19.737c0-4.544,3.683-8.228,8.228-8.228
		s8.228,3.684,8.228,8.228v14.438C264.228,38.72,260.545,42.404,256,42.404z"/>
	<path style="fill:#2F3953;" d="M222.068,42.404c-4.545,0-8.228-3.684-8.228-8.228V19.737c0-4.544,3.683-8.228,8.228-8.228
		c4.545,0,8.228,3.684,8.228,8.228v14.438C230.296,38.72,226.613,42.404,222.068,42.404z"/>
	<path style="fill:#2F3953;" d="M289.932,42.404c-4.545,0-8.228-3.684-8.228-8.228V19.737c0-4.544,3.683-8.228,8.228-8.228
		s8.228,3.684,8.228,8.228v14.438C298.161,38.72,294.476,42.404,289.932,42.404z"/>
</g>
<path style="fill:#FFFFFF;" d="M340.23,448.927v-83.214c0-6.034-4.937-10.971-10.971-10.971H182.74
	c-6.034,0-10.971,4.937-10.971,10.971v83.214L340.23,448.927L340.23,448.927z"/>
<path style="fill:#FDBA55;" d="M287.747,432.82c-4.545,0-8.228-3.684-8.228-8.228V400.42l-18.931,12.718
	c-2.775,1.864-6.402,1.864-9.176,0l-18.936-12.719v24.174c0,4.544-3.683,8.228-8.228,8.228c-4.545,0-8.228-3.684-8.228-8.228V384.98
	c0-3.04,1.675-5.831,4.359-7.262c2.682-1.431,5.934-1.264,8.458,0.431l27.165,18.245l27.159-18.245
	c2.522-1.694,5.773-1.862,8.459-0.431c2.682,1.43,4.359,4.222,4.359,7.262v39.613C295.975,429.137,292.292,432.82,287.747,432.82z"
	/>
<path style="fill:#46C79C;" d="M340.23,448.927v17.722c0,6.034-4.937,10.971-10.971,10.971H182.74
	c-6.034,0-10.971-4.937-10.971-10.971v-17.722L340.23,448.927L340.23,448.927z"/>
<circle style="fill:#3F4963;" cx="182.716" cy="273.833" r="14.899"/>
<path style="fill:#FF0019;" d="M198.651,321.521h-31.876c-4.545,0-8.228-3.684-8.228-8.228s3.683-8.228,8.228-8.228h31.877
	c4.545,0,8.228,3.684,8.228,8.228C206.879,317.836,203.196,321.521,198.651,321.521z"/>
<g>
	<path style="fill:#3F4963;" d="M241.189,308.845c-12.704,0-23.04-10.335-23.04-23.039c0-4.544,3.683-8.228,8.228-8.228
		s8.228,3.684,8.228,8.228c0,3.629,2.952,6.582,6.583,6.582c3.63,0,6.583-2.952,6.583-6.582c0-4.544,3.683-8.228,8.228-8.228
		s8.228,3.684,8.228,8.228C264.228,298.51,253.892,308.845,241.189,308.845z"/>
	<path style="fill:#3F4963;" d="M270.811,308.845c-12.704,0-23.04-10.335-23.04-23.039c0-4.544,3.683-8.228,8.228-8.228
		s8.228,3.684,8.228,8.228c0,3.629,2.952,6.582,6.583,6.582c3.63,0,6.583-2.952,6.583-6.582c0-4.544,3.683-8.228,8.228-8.228
		s8.228,3.684,8.228,8.228C293.851,298.51,283.515,308.845,270.811,308.845z"/>
</g>
<path style="fill:#FF0019;" d="M345.225,321.521h-31.877c-4.545,0-8.228-3.684-8.228-8.228s3.683-8.228,8.228-8.228h31.877
	c4.545,0,8.228,3.684,8.228,8.228S349.771,321.521,345.225,321.521z"/>
<path style="fill:#3F4963;" d="M344.186,285.412c-4.545,0-8.228-3.684-8.228-8.228c0-3.679-2.993-6.671-6.671-6.671
	c-3.679,0-6.671,2.993-6.671,6.671c0,4.544-3.684,8.228-8.228,8.228c-4.545,0-8.228-3.684-8.228-8.228
	c0-12.753,10.374-23.128,23.128-23.128c12.753,0,23.127,10.376,23.127,23.128C352.415,281.728,348.731,285.412,344.186,285.412z"/>
<rect x="196.002" y="98.018" style="fill:#FDBA55;" width="120.004" height="49.319"/>
<g>
</g>
<g>
</g>
<g>
</g>
<g>
</g>
<g>
</g>
<g>
</g>
<g>
</g>
<g>
</g>
<g>
</g>
<g>
</g>
<g>
</g>
<g>
</g>
<g>
</g>
<g>
</g>
<g>
</g>
</svg>
