<?xml version="1.0" encoding="iso-8859-1"?>
<!-- Generator: Adobe Illustrator 19.0.0, SVG Export Plug-In . SVG Version: 6.00 Build 0)  -->
<svg version="1.1" id="Layer_1" xmlns="http://www.w3.org/2000/svg" xmlns:xlink="http://www.w3.org/1999/xlink" x="0px" y="0px"
	 viewBox="0 0 511.999 511.999" style="enable-background:new 0 0 511.999 511.999;" xml:space="preserve">
<path style="fill:#46C79C;" d="M132.06,511.987c-21.537,0-41.659-3.662-59.808-10.886c-19.043-7.579-30.965-17.094-37.613-23.742
	C23.422,466.14,13.926,449.846,7.9,431.475c-7.534-22.971-9.693-48.345-6.419-75.42c3.906-32.303,15.583-66.28,34.706-100.988
	c22.092-40.098,54.348-81.484,95.872-123.009c46.93-46.93,93.542-81.908,138.541-103.961C308.628,9.461,345.414,0.012,379.943,0.012
	c21.533,0,41.653,3.662,59.802,10.885c19.046,7.58,30.967,17.093,37.613,23.74c11.218,11.219,20.714,27.515,26.741,45.886
	c7.534,22.971,9.694,48.346,6.42,75.421c-3.906,32.303-15.583,66.28-34.705,100.989c-22.092,40.098-54.348,81.483-95.872,123.006
	c-46.926,46.926-93.538,81.903-138.536,103.958C203.376,502.537,166.587,511.987,132.06,511.987z"/>
<path style="fill:#35A57D;" d="M58.681,453.319c30.229,30.228,136.851,66.255,298.871-95.766
	C519.574,195.531,483.547,88.91,453.319,58.681C423.091,28.455,316.47-7.571,154.45,154.45
	C-7.572,316.471,28.455,423.091,58.681,453.319z"/>
<circle style="fill:#65F7C4;" cx="341.58" cy="170.361" r="120.953"/>
<circle style="fill:#3F4963;" cx="264.978" cy="150.148" r="15.573"/>
<path style="fill:#FF6376;" d="M281.638,199.636h-33.319c-4.554,0-8.244-3.691-8.244-8.244s3.69-8.244,8.244-8.244h33.319
	c4.554,0,8.244,3.691,8.244,8.244S286.191,199.636,281.638,199.636z"/>
<circle style="fill:#3F4963;" cx="418.181" cy="150.148" r="15.573"/>
<path style="fill:#FF6376;" d="M434.844,199.636h-33.319c-4.554,0-8.244-3.691-8.244-8.244s3.69-8.244,8.244-8.244h33.319
	c4.554,0,8.244,3.691,8.244,8.244S439.398,199.636,434.844,199.636z"/>
<g>
	<path style="fill:#3F4963;" d="M326.101,186.388c-13.082,0-23.726-10.642-23.726-23.723c0-4.553,3.69-8.244,8.244-8.244
		c4.554,0,8.244,3.691,8.244,8.244c0,3.99,3.247,7.236,7.238,7.236s7.237-3.246,7.237-7.236c0-4.553,3.69-8.244,8.244-8.244
		s8.244,3.691,8.244,8.244C349.826,175.745,339.183,186.388,326.101,186.388z"/>
	<path style="fill:#3F4963;" d="M357.063,186.388c-13.082,0-23.726-10.642-23.726-23.723c0-4.553,3.69-8.244,8.244-8.244
		c4.554,0,8.244,3.691,8.244,8.244c0,3.99,3.247,7.236,7.238,7.236c3.991,0,7.237-3.246,7.237-7.236c0-4.553,3.69-8.244,8.244-8.244
		s8.244,3.691,8.244,8.244C380.787,175.745,370.145,186.388,357.063,186.388z"/>
</g>
<circle style="fill:#65F7C4;" cx="170.416" cy="341.646" r="120.953"/>
<circle style="fill:#3F4963;" cx="93.815" cy="321.432" r="15.573"/>
<path style="fill:#FF6376;" d="M110.476,370.92H77.157c-4.554,0-8.244-3.691-8.244-8.244c0-4.553,3.69-8.244,8.244-8.244h33.319
	c4.554,0,8.244,3.691,8.244,8.244C118.72,367.229,115.029,370.92,110.476,370.92z"/>
<circle style="fill:#3F4963;" cx="247.018" cy="321.432" r="15.573"/>
<path style="fill:#FF6376;" d="M263.681,370.92h-33.319c-4.554,0-8.244-3.691-8.244-8.244c0-4.553,3.69-8.244,8.244-8.244h33.319
	c4.554,0,8.244,3.691,8.244,8.244C271.925,367.229,268.235,370.92,263.681,370.92z"/>
<g>
	<path style="fill:#3F4963;" d="M154.939,357.673c-13.082,0-23.726-10.642-23.726-23.724c0-4.553,3.69-8.244,8.244-8.244
		s8.244,3.691,8.244,8.244c0,3.99,3.247,7.236,7.238,7.236c3.991,0,7.237-3.246,7.237-7.236c0-4.553,3.69-8.244,8.244-8.244
		c4.554,0,8.244,3.691,8.244,8.244C178.664,347.031,168.02,357.673,154.939,357.673z"/>
	<path style="fill:#3F4963;" d="M185.902,357.673c-13.082,0-23.726-10.642-23.726-23.724c0-4.553,3.69-8.244,8.244-8.244
		c4.554,0,8.244,3.691,8.244,8.244c0,3.99,3.247,7.236,7.238,7.236c3.991,0,7.237-3.246,7.237-7.236c0-4.553,3.69-8.244,8.244-8.244
		c4.554,0,8.244,3.691,8.244,8.244C209.626,347.031,198.983,357.673,185.902,357.673z"/>
</g>
<g>
</g>
<g>
</g>
<g>
</g>
<g>
</g>
<g>
</g>
<g>
</g>
<g>
</g>
<g>
</g>
<g>
</g>
<g>
</g>
<g>
</g>
<g>
</g>
<g>
</g>
<g>
</g>
<g>
</g>
</svg>
