<?xml version="1.0" encoding="iso-8859-1"?>
<!-- Generator: Adobe Illustrator 19.0.0, SVG Export Plug-In . SVG Version: 6.00 Build 0)  -->
<svg version="1.1" id="Layer_1" xmlns="http://www.w3.org/2000/svg" xmlns:xlink="http://www.w3.org/1999/xlink" x="0px" y="0px"
	 viewBox="0 0 512 512" style="enable-background:new 0 0 512 512;" xml:space="preserve">
<path style="fill:#866539;" d="M256.233,161.06c-13.836,0-25.051-11.215-25.051-25.05V25.049C231.182,11.213,242.397,0,256.233,0
	c13.836,0,25.05,11.213,25.05,25.049v110.959C281.283,149.844,270.069,161.06,256.233,161.06z"/>
<path style="fill:#46C79C;" d="M284.397,36.88c-28.076,28.077-33.401,71.038-34.273,91.458c-0.377,8.835,2.729,11.862,11.488,11.487
	c20.422-0.871,63.381-6.192,91.456-34.273c28.079-28.075,33.404-71.038,34.273-91.453c0.377-8.764-2.657-11.866-11.487-11.494
	C355.435,3.481,312.473,8.806,284.397,36.88z"/>
<path style="fill:#FFB446;" d="M255.999,512c35.786,0,231.914-68.713,231.914-279.178c0-69.741-56.536-126.278-126.278-126.278
	c-62.868,0-92.581,15.751-105.636,15.751c-13.057,0-42.769-15.751-105.636-15.751c-69.741,0-126.277,56.537-126.277,126.278
	C24.085,443.287,220.213,512,255.999,512z"/>
<path style="fill:#FF6376;" d="M386.78,256.105h-31.843c-4.541,0-8.22-3.679-8.22-8.22c0-4.541,3.679-8.22,8.22-8.22h31.844
	c4.541,0,8.22,3.679,8.22,8.22C395,252.425,391.321,256.105,386.78,256.105z"/>
<g>
	<path style="fill:#3F4963;" d="M237.364,245.822c-14.808,0-26.855-12.047-26.855-26.856c0-4.541,3.68-8.22,8.22-8.22
		c4.54,0,8.22,3.679,8.22,8.22c0,5.743,4.672,10.416,10.415,10.416c5.743,0,10.415-4.673,10.415-10.416c0-4.541,3.68-8.22,8.22-8.22
		c4.541,0,8.22,3.679,8.22,8.22C264.219,233.774,252.172,245.822,237.364,245.822z"/>
	<path style="fill:#3F4963;" d="M274.636,245.822c-14.809,0-26.856-12.047-26.856-26.856c0-4.541,3.68-8.22,8.22-8.22
		c4.541,0,8.22,3.679,8.22,8.22c0,5.743,4.673,10.416,10.416,10.416c5.742,0,10.414-4.673,10.414-10.416
		c0-4.541,3.679-8.22,8.22-8.22c4.54,0,8.22,3.679,8.22,8.22C301.49,233.774,289.444,245.822,274.636,245.822z"/>
	<path style="fill:#3F4963;" d="M385.742,220.034c-4.541,0-8.22-3.679-8.22-8.22c0-3.675-2.989-6.664-6.664-6.664
		s-6.664,2.99-6.664,6.664c0,4.541-3.679,8.22-8.22,8.22s-8.22-3.679-8.22-8.22c0-12.74,10.364-23.104,23.104-23.104
		c12.74,0,23.104,10.364,23.104,23.104C393.962,216.354,390.283,220.034,385.742,220.034z"/>
</g>
<path style="fill:#FF6376;" d="M157.063,256.105h-31.844c-4.54,0-8.22-3.679-8.22-8.22c0-4.541,3.68-8.22,8.22-8.22h31.844
	c4.54,0,8.22,3.679,8.22,8.22C165.283,252.425,161.603,256.105,157.063,256.105z"/>
<path style="fill:#3F4963;" d="M156.024,220.034c-4.54,0-8.22-3.679-8.22-8.22c0-3.675-2.99-6.664-6.664-6.664
	c-3.675,0-6.664,2.99-6.664,6.664c0,4.541-3.68,8.22-8.22,8.22c-4.54,0-8.22-3.679-8.22-8.22c0-12.74,10.364-23.104,23.104-23.104
	s23.104,10.364,23.104,23.104C164.244,216.354,160.564,220.034,156.024,220.034z"/>
<g>
</g>
<g>
</g>
<g>
</g>
<g>
</g>
<g>
</g>
<g>
</g>
<g>
</g>
<g>
</g>
<g>
</g>
<g>
</g>
<g>
</g>
<g>
</g>
<g>
</g>
<g>
</g>
<g>
</g>
</svg>
