<?xml version="1.0" encoding="iso-8859-1"?>
<!-- Generator: Adobe Illustrator 19.0.0, SVG Export Plug-In . SVG Version: 6.00 Build 0)  -->
<svg version="1.1" id="Layer_1" xmlns="http://www.w3.org/2000/svg" xmlns:xlink="http://www.w3.org/1999/xlink" x="0px" y="0px"
	 viewBox="0 0 512.001 512.001" style="enable-background:new 0 0 512.001 512.001;" xml:space="preserve">
<g>
	<path style="fill:#FF6376;" d="M227.697,204.265c0-23.818-19.309-72.582-43.126-72.582c-23.819,0-43.126,48.763-43.126,72.582
		s19.309,43.126,43.126,43.126C208.388,247.392,227.697,228.084,227.697,204.265z"/>
	<path style="fill:#FF6376;" d="M364.85,204.265c0-23.818,19.308-72.582,43.125-72.582c23.819,0,43.126,48.763,43.126,72.582
		s-19.308,43.126-43.126,43.126C384.159,247.392,364.85,228.084,364.85,204.265z"/>
</g>
<path style="fill:#89AAED;" d="M319.91,117.497c0-5.363-4.39-9.753-9.753-9.753h-27.768c-5.364,0-9.754,4.39-9.754,9.753v93.555
	c0,5.363,4.39,9.754,9.754,9.754h27.768c5.363,0,9.753-4.391,9.753-9.754V117.497z"/>
<g>
	<rect x="272.629" y="167.76" style="fill:#B5CCF8;" width="47.276" height="16.649"/>
	<rect x="272.629" y="132.607" style="fill:#B5CCF8;" width="47.276" height="16.649"/>
</g>
<path style="fill:#FDBA55;" d="M319.91,84.105c0-13.055-10.582-65.236-23.637-65.236c-13.055,0-23.639,52.182-23.639,65.236
	c0,13.054,10.583,23.638,23.639,23.638C309.328,107.744,319.91,97.161,319.91,84.105z"/>
<path style="fill:#FF9596;" d="M512,241.128v-18.977c0-9.878-8.006-17.885-17.883-17.885H111.765
	c-7.926-22.3-29.205-38.271-54.223-38.271C25.763,165.994,0,191.757,0,223.535c0,18.601,8.835,35.131,22.529,45.649v205.48
	c0,10.199,8.267,18.468,18.468,18.468h31.941V241.128H512z"/>
<path style="fill:#FF608D;" d="M100.286,226.699c-22.423,0-40.668,18.242-40.668,40.667v225.766h22.199V275.706
	c11.903-5.549,21.591-15.042,27.379-26.808H512v-22.199L100.286,226.699L100.286,226.699z"/>
<path style="fill:#866539;" d="M100.286,248.898c-10.199,0-18.469,8.268-18.469,18.468v225.766h411.715
	c10.199,0,18.469-8.268,18.469-18.468V248.898L100.286,248.898L100.286,248.898z"/>
<rect x="81.815" y="310.135" style="fill:#FFD553;" width="430.177" height="121.752"/>
<g>
	<circle style="fill:#3F4963;" cx="183.455" cy="349.871" r="15.074"/>
	<circle style="fill:#3F4963;" cx="416.103" cy="349.871" r="15.073"/>
</g>
<g>
	<path style="fill:#FF6376;" d="M199.585,402.553h-32.249c-4.599,0-8.325-3.727-8.325-8.325s3.726-8.325,8.325-8.325h32.249
		c4.599,0,8.325,3.727,8.325,8.325S204.182,402.553,199.585,402.553z"/>
	<path style="fill:#FF6376;" d="M432.229,402.553h-32.25c-4.599,0-8.325-3.727-8.325-8.325s3.726-8.325,8.325-8.325h32.25
		c4.599,0,8.325,3.727,8.325,8.325S436.828,402.553,432.229,402.553z"/>
</g>
<g>
	<path style="fill:#3F4963;" d="M277.918,392.139c-14.997,0-27.197-12.201-27.197-27.197c0-4.597,3.726-8.325,8.325-8.325
		c4.599,0,8.325,3.727,8.325,8.325c0,5.816,4.732,10.548,10.548,10.548c5.816,0,10.549-4.732,10.549-10.548
		c0-4.597,3.726-8.325,8.325-8.325c4.599,0,8.325,3.727,8.325,8.325C305.116,379.938,292.916,392.139,277.918,392.139z"/>
	<path style="fill:#3F4963;" d="M315.664,392.139c-14.997,0-27.197-12.201-27.197-27.197c0-4.597,3.726-8.325,8.325-8.325
		c4.599,0,8.325,3.727,8.325,8.325c0,5.816,4.732,10.548,10.548,10.548s10.548-4.732,10.548-10.548c0-4.597,3.726-8.325,8.325-8.325
		s8.325,3.727,8.325,8.325C342.862,379.938,330.66,392.139,315.664,392.139z"/>
</g>
<g>
</g>
<g>
</g>
<g>
</g>
<g>
</g>
<g>
</g>
<g>
</g>
<g>
</g>
<g>
</g>
<g>
</g>
<g>
</g>
<g>
</g>
<g>
</g>
<g>
</g>
<g>
</g>
<g>
</g>
</svg>
