<?xml version="1.0" encoding="iso-8859-1"?>
<!-- Generator: Adobe Illustrator 19.0.0, SVG Export Plug-In . SVG Version: 6.00 Build 0)  -->
<svg version="1.1" id="Layer_1" xmlns="http://www.w3.org/2000/svg" xmlns:xlink="http://www.w3.org/1999/xlink" x="0px" y="0px"
	 viewBox="0 0 512 512" style="enable-background:new 0 0 512 512;" xml:space="preserve">
<g>
	<path style="fill:#46C79C;" d="M304.169,93.016c0,39.388-26.4,73.257-40.113,88.192c-5.932,6.46-10.235,6.405-16.116-0.002
		c-13.714-14.933-40.115-48.8-40.11-88.191c-0.002-39.388,26.398-73.258,40.108-88.188c5.882-6.411,10.187-6.459,16.12-0.004
		C277.769,19.762,304.168,53.632,304.169,93.016z"/>
	<path style="fill:#46C79C;" d="M306.682,77.368c-27.851,27.852-33.133,70.467-33.997,90.724
		c-0.373,8.764,2.707,11.767,11.396,11.396c20.258-0.864,62.873-6.143,90.722-33.999c27.854-27.85,33.137-70.467,33.998-90.718
		c0.374-8.693-2.636-11.77-11.395-11.402C377.149,44.236,334.533,49.519,306.682,77.368z"/>
	<path style="fill:#46C79C;" d="M205.318,77.368c27.851,27.852,33.134,70.467,33.997,90.724c0.373,8.764-2.707,11.767-11.396,11.396
		c-20.258-0.864-62.873-6.143-90.722-33.999c-27.854-27.85-33.137-70.467-33.998-90.718c-0.374-8.693,2.636-11.77,11.395-11.402
		C134.852,44.236,177.468,49.519,205.318,77.368z"/>
</g>
<path style="fill:#65F7C4;" d="M333.848,32.188c-2.695-7.391-6.274-8.922-13.463-5.581c-16.621,7.734-50.391,26.892-64.019,59.79
	c-0.129,0.312-0.241,0.625-0.367,0.939c-0.124-0.313-0.237-0.626-0.367-0.939c-13.628-32.898-47.398-52.055-64.019-59.79
	c-7.188-3.34-10.767-1.81-13.463,5.581c-6.287,17.216-16.62,54.641-2.989,87.541c13.626,32.905,47.394,52.058,64.017,59.789
	c7.131,3.317,26.511,3.317,33.642,0c16.622-7.73,50.391-26.884,64.017-59.789C350.468,86.829,340.136,49.404,333.848,32.188z"/>
<path style="fill:#FFD553;" d="M387.551,380.451c0,72.653-58.897,131.55-131.55,131.55S124.45,453.103,124.45,380.451V270.654
	c0-72.653,58.897-131.55,131.55-131.55s131.551,58.897,131.551,131.551V380.451z"/>
<circle style="fill:#3F4963;" cx="183.377" cy="288.091" r="14.764"/>
<path style="fill:#FF6376;" d="M199.172,335.44h-31.588c-4.56,0-8.257-3.696-8.257-8.257c0-4.561,3.697-8.257,8.257-8.257h31.588
	c4.56,0,8.257,3.696,8.257,8.257C207.429,331.744,203.732,335.44,199.172,335.44z"/>
<circle style="fill:#3F4963;" cx="328.627" cy="288.091" r="14.764"/>
<path style="fill:#FF6376;" d="M344.417,335.44H312.83c-4.56,0-8.257-3.696-8.257-8.257c0-4.561,3.697-8.257,8.257-8.257h31.588
	c4.56,0,8.257,3.696,8.257,8.257C352.675,331.744,348.978,335.44,344.417,335.44z"/>
<g>
	<path style="fill:#3F4963;" d="M241.323,322.88c-12.646,0-22.934-10.289-22.934-22.933c0-4.561,3.697-8.257,8.257-8.257
		s8.257,3.696,8.257,8.257c0,3.54,2.88,6.419,6.42,6.419s6.42-2.879,6.42-6.419c0-4.561,3.697-8.257,8.257-8.257
		c4.56,0,8.257,3.696,8.257,8.257C264.257,312.591,253.97,322.88,241.323,322.88z"/>
	<path style="fill:#3F4963;" d="M270.677,322.88c-12.646,0-22.934-10.289-22.934-22.933c0-4.561,3.697-8.257,8.257-8.257
		c4.56,0,8.257,3.696,8.257,8.257c0,3.54,2.88,6.419,6.42,6.419c3.54,0,6.42-2.879,6.42-6.419c0-4.561,3.697-8.257,8.257-8.257
		c4.56,0,8.257,3.696,8.257,8.257C293.611,312.591,283.324,322.88,270.677,322.88z"/>
</g>
<g>
	<path style="fill:#DFA800;" d="M276.183,252.943c-2.113,0-4.227-0.806-5.838-2.418l-14.343-14.343l-14.343,14.343
		c-3.225,3.225-8.453,3.223-11.677,0c-3.225-3.226-3.225-8.453,0-11.678l20.183-20.182c3.225-3.224,8.453-3.224,11.677,0
		l20.183,20.182c3.225,3.226,3.225,8.453,0,11.678C280.41,252.136,278.296,252.943,276.183,252.943z"/>
	<path style="fill:#DFA800;" d="M199.172,252.943c-2.113,0-4.227-0.806-5.838-2.418l-14.343-14.343l-14.344,14.343
		c-3.225,3.225-8.453,3.224-11.678-0.001c-3.225-3.225-3.225-8.453,0-11.678l20.183-20.182c3.225-3.224,8.452-3.224,11.677,0
		l20.182,20.182c3.225,3.226,3.225,8.453,0,11.678C203.397,252.136,201.284,252.943,199.172,252.943z"/>
	<path style="fill:#DFA800;" d="M237.678,208.948c-2.113,0-4.227-0.806-5.838-2.418l-14.344-14.344l-14.343,14.344
		c-3.225,3.224-8.453,3.224-11.678,0c-3.225-3.226-3.225-8.453,0-11.677l20.183-20.184c1.548-1.548,3.649-2.418,5.838-2.418
		s4.29,0.87,5.838,2.418l20.183,20.183c3.225,3.226,3.225,8.453,0,11.678C241.904,208.141,239.791,208.948,237.678,208.948z"/>
	<path style="fill:#DFA800;" d="M353.194,252.943c-2.113,0-4.227-0.806-5.838-2.418l-14.344-14.343l-14.343,14.343
		c-3.225,3.225-8.453,3.223-11.677,0c-3.225-3.226-3.225-8.453,0-11.678l20.183-20.182c3.225-3.224,8.453-3.224,11.677,0
		l20.183,20.182c3.225,3.225,3.225,8.453,0,11.678C357.421,252.136,355.308,252.943,353.194,252.943z"/>
	<path style="fill:#DFA800;" d="M314.688,208.948c-2.114,0-4.227-0.806-5.838-2.418l-14.343-14.344l-14.344,14.344
		c-3.225,3.224-8.453,3.224-11.677,0c-3.225-3.226-3.225-8.453,0-11.678l20.183-20.183c1.548-1.548,3.649-2.418,5.838-2.418
		c2.19,0,4.29,0.87,5.838,2.418l20.183,20.184c3.225,3.225,3.225,8.452,0,11.677C318.915,208.141,316.801,208.948,314.688,208.948z"
		/>
	<path style="fill:#DFA800;" d="M276.183,397.988c-2.113,0-4.227-0.806-5.838-2.418l-14.343-14.343l-14.343,14.343
		c-3.225,3.225-8.453,3.223-11.677,0c-3.225-3.226-3.225-8.453,0-11.678l20.183-20.182c3.225-3.224,8.453-3.224,11.677,0
		l20.183,20.182c3.225,3.226,3.225,8.453,0,11.678C280.41,397.182,278.296,397.988,276.183,397.988z"/>
	<path style="fill:#DFA800;" d="M276.183,478.925c-2.113,0-4.227-0.806-5.838-2.418l-14.343-14.344l-14.343,14.344
		c-3.225,3.224-8.453,3.224-11.677,0c-3.225-3.226-3.225-8.453,0-11.678l20.183-20.184c1.548-1.548,3.649-2.418,5.838-2.418
		s4.29,0.87,5.838,2.418l20.183,20.184c3.225,3.225,3.225,8.452,0,11.678C280.41,478.118,278.296,478.925,276.183,478.925z"/>
	<path style="fill:#DFA800;" d="M199.172,397.988c-2.113,0-4.227-0.806-5.838-2.418l-14.343-14.343l-14.344,14.343
		c-3.225,3.225-8.453,3.224-11.678-0.001c-3.225-3.225-3.225-8.453,0-11.678l20.183-20.182c3.225-3.225,8.452-3.223,11.677,0
		l20.182,20.182c3.225,3.226,3.225,8.453,0,11.678C203.397,397.182,201.284,397.988,199.172,397.988z"/>
	<path style="fill:#DFA800;" d="M314.688,438.456c-2.114,0-4.227-0.807-5.838-2.418l-14.343-14.344l-14.344,14.344
		c-3.225,3.224-8.453,3.224-11.677,0c-3.225-3.226-3.225-8.453,0-11.678l20.183-20.183c1.548-1.548,3.649-2.418,5.838-2.418
		c2.19,0,4.29,0.87,5.838,2.418l20.183,20.184c3.225,3.225,3.225,8.452,0,11.678C318.915,437.649,316.801,438.456,314.688,438.456z"
		/>
	<path style="fill:#DFA800;" d="M353.194,397.988c-2.113,0-4.227-0.806-5.838-2.418l-14.344-14.343l-14.343,14.343
		c-3.225,3.225-8.453,3.223-11.677,0c-3.225-3.226-3.225-8.453,0-11.678l20.183-20.182c3.225-3.224,8.453-3.224,11.677,0
		l20.183,20.182c3.225,3.225,3.225,8.453,0,11.678C357.421,397.182,355.308,397.988,353.194,397.988z"/>
	<path style="fill:#DFA800;" d="M237.678,438.456c-2.113,0-4.227-0.807-5.838-2.418l-14.344-14.344l-14.343,14.344
		c-3.225,3.224-8.453,3.224-11.678,0c-3.225-3.226-3.225-8.453,0-11.678l20.183-20.184c1.548-1.548,3.649-2.418,5.838-2.418
		s4.29,0.87,5.838,2.418l20.183,20.183c3.225,3.226,3.225,8.453,0,11.678C241.904,437.649,239.791,438.456,237.678,438.456z"/>
</g>
<g>
</g>
<g>
</g>
<g>
</g>
<g>
</g>
<g>
</g>
<g>
</g>
<g>
</g>
<g>
</g>
<g>
</g>
<g>
</g>
<g>
</g>
<g>
</g>
<g>
</g>
<g>
</g>
<g>
</g>
</svg>
