<?xml version="1.0" encoding="iso-8859-1"?>
<!-- Generator: Adobe Illustrator 19.0.0, SVG Export Plug-In . SVG Version: 6.00 Build 0)  -->
<svg version="1.1" id="Layer_1" xmlns="http://www.w3.org/2000/svg" xmlns:xlink="http://www.w3.org/1999/xlink" x="0px" y="0px"
	 viewBox="0 0 511.992 511.992" style="enable-background:new 0 0 511.992 511.992;" xml:space="preserve">
<circle style="fill:#3F4963;" cx="255.996" cy="255.996" r="255.996"/>
<circle style="fill:#FFFFFF;" cx="255.996" cy="255.996" r="224.412"/>
<circle style="fill:#FFD553;" cx="255.996" cy="255.996" r="170.864"/>
<path style="fill:#FFFFFF;" d="M255.999,427.778c-94.719,0-171.778-77.059-171.778-171.778S161.281,84.222,255.999,84.222
	s171.778,77.059,171.778,171.778S350.719,427.778,255.999,427.778z M255.999,85.33c-94.108,0-170.67,76.563-170.67,170.67
	s76.563,170.67,170.67,170.67s170.67-76.562,170.67-170.67S350.107,85.33,255.999,85.33z"/>
<g>
	<path style="fill:#65F7C4;" d="M396.323,157.874c-44.567,4.353-79.398,41.92-79.398,87.63c0,48.634,39.426,88.059,88.059,88.059
		c1.254,0,2.501-0.034,3.742-0.088c11.826-23.266,18.496-49.591,18.496-77.477C427.224,219.495,415.791,185.664,396.323,157.874z"/>
	<path style="fill:#65F7C4;" d="M115.677,157.874c44.567,4.353,79.398,41.92,79.398,87.63c0,48.634-39.426,88.059-88.059,88.059
		c-1.254,0-2.501-0.034-3.742-0.088c-11.826-23.266-18.497-49.591-18.497-77.477C84.776,219.495,96.208,185.664,115.677,157.874z"/>
</g>
<path style="fill:#FF9596;" d="M255.999,255.999c-62.09,0-117.897,26.823-156.526,69.491
	c26.649,59.935,86.702,101.734,156.526,101.734s129.876-41.798,156.526-101.733C373.896,282.824,318.089,255.999,255.999,255.999z"
	/>
<g>
	<circle style="fill:#3F4963;" cx="139.867" cy="199.311" r="15.049"/>
	<circle style="fill:#3F4963;" cx="372.147" cy="199.311" r="15.049"/>
</g>
<g>
	<path style="fill:#FF6376;" d="M155.964,251.913h-32.199c-4.59,0-8.312-3.721-8.312-8.312s3.721-8.312,8.312-8.312h32.199
		c4.59,0,8.312,3.721,8.312,8.312S160.554,251.913,155.964,251.913z"/>
	<path style="fill:#FF6376;" d="M388.242,251.913h-32.199c-4.59,0-8.312-3.721-8.312-8.312s3.721-8.312,8.312-8.312h32.199
		c4.59,0,8.312,3.721,8.312,8.312S392.832,251.913,388.242,251.913z"/>
</g>
<g>
	<path style="fill:#3F4963;" d="M237.16,241.515c-14.973,0-27.154-12.181-27.154-27.153c0-4.59,3.721-8.312,8.312-8.312
		s8.312,3.721,8.312,8.312c0,5.807,4.724,10.53,10.531,10.53c5.807,0,10.532-4.724,10.532-10.53c0-4.59,3.721-8.312,8.312-8.312
		c4.59,0,8.312,3.721,8.312,8.312C264.315,229.334,252.134,241.515,237.16,241.515z"/>
	<path style="fill:#3F4963;" d="M274.847,241.515c-14.973,0-27.154-12.181-27.154-27.153c0-4.59,3.721-8.312,8.312-8.312
		c4.59,0,8.312,3.721,8.312,8.312c0,5.807,4.724,10.53,10.531,10.53c5.807,0,10.531-4.724,10.531-10.53
		c0-4.59,3.721-8.312,8.312-8.312s8.312,3.721,8.312,8.312C302.001,229.334,289.82,241.515,274.847,241.515z"/>
</g>
<g style="opacity:0.2;">
	<path style="fill:#2F3953;" d="M66.502,191.118c-2.127,0-4.253-0.811-5.877-2.434c-3.246-3.246-3.246-8.509,0-11.755l16.14-16.142
		c3.246-3.246,8.508-3.246,11.755-0.001c3.246,3.246,3.246,8.509,0,11.755l-16.14,16.142
		C70.757,190.307,68.629,191.118,66.502,191.118z"/>
	<path style="fill:#2F3953;" d="M445.536,259.986c-2.127,0-4.253-0.811-5.877-2.434c-3.246-3.246-3.246-8.509-0.001-11.755
		l16.14-16.142c3.246-3.246,8.508-3.246,11.755-0.001c3.246,3.246,3.246,8.509,0,11.755l-16.14,16.142
		C449.791,259.173,447.664,259.986,445.536,259.986z"/>
	<path style="fill:#2F3953;" d="M68.719,302.52c-2.127,0-4.254-0.811-5.878-2.435l-16.14-16.142c-3.246-3.246-3.245-8.509,0-11.755
		c3.246-3.245,8.509-3.245,11.755,0.001l16.141,16.142c3.246,3.246,3.245,8.509-0.001,11.755
		C72.973,301.709,70.846,302.52,68.719,302.52z"/>
	<path style="fill:#2F3953;" d="M445.495,196.596c-2.127,0-4.254-0.811-5.878-2.435l-16.141-16.142
		c-3.246-3.246-3.245-8.509,0.001-11.755c3.246-3.245,8.508-3.245,11.755,0l16.141,16.142c3.246,3.246,3.245,8.509-0.001,11.755
		C449.75,195.784,447.622,196.596,445.495,196.596z"/>
	<path style="fill:#2F3953;" d="M120.512,410.31c-2.127,0-4.254-0.811-5.878-2.435l-16.14-16.142c-3.246-3.246-3.245-8.509,0-11.755
		c3.246-3.245,8.509-3.245,11.755,0l16.14,16.142c3.246,3.246,3.245,8.509,0,11.755C124.767,409.497,122.639,410.31,120.512,410.31z
		"/>
	<path style="fill:#2F3953;" d="M203.976,461.398c-2.127,0-4.253-0.811-5.877-2.434c-3.246-3.246-3.246-8.509-0.001-11.755
		l10.123-10.125c3.246-3.246,8.508-3.246,11.755-0.001c3.246,3.246,3.246,8.509,0.001,11.755l-10.123,10.125
		C208.23,460.586,206.102,461.398,203.976,461.398z"/>
	<path style="fill:#2F3953;" d="M383.806,424.993c-2.127,0-4.253-0.811-5.877-2.434l-10.125-10.124
		c-3.246-3.246-3.246-8.509,0-11.755c3.246-3.246,8.508-3.246,11.755-0.001l10.125,10.123c3.246,3.246,3.246,8.509,0.001,11.755
		C388.06,424.182,385.932,424.993,383.806,424.993z"/>
	<path style="fill:#2F3953;" d="M435.611,361.457c-2.127,0-4.253-0.811-5.877-2.434l-10.125-10.123
		c-3.246-3.246-3.246-8.509,0-11.755c3.246-3.246,8.508-3.246,11.755,0l10.125,10.123c3.246,3.246,3.246,8.509,0.001,11.755
		C439.866,360.645,437.738,361.457,435.611,361.457z"/>
	<path style="fill:#2F3953;" d="M300.481,460.455c-2.127,0-4.253-0.811-5.877-2.434c-3.246-3.246-3.246-8.509,0-11.755
		l10.124-10.125c3.246-3.246,8.508-3.246,11.755,0c3.246,3.246,3.246,8.509,0,11.755l-10.124,10.125
		C304.735,459.644,302.607,460.455,300.481,460.455z"/>
	<path style="fill:#2F3953;" d="M299.599,79.945c-2.127,0-4.254-0.811-5.878-2.435l-16.14-16.142
		c-3.246-3.246-3.245-8.509,0.001-11.755c3.246-3.245,8.509-3.245,11.755,0l16.14,16.142c3.246,3.246,3.245,8.509-0.001,11.755
		C303.853,79.134,301.725,79.945,299.599,79.945z"/>
	<path style="fill:#2F3953;" d="M116.299,122.519c-2.127,0-4.253-0.811-5.877-2.434c-3.246-3.246-3.246-8.509-0.001-11.755
		l10.123-10.125c3.246-3.246,8.508-3.246,11.755,0c3.246,3.246,3.246,8.509,0.001,11.755l-10.123,10.125
		C120.554,121.707,118.426,122.519,116.299,122.519z"/>
	<path style="fill:#2F3953;" d="M196.957,81.562c-2.127,0-4.253-0.811-5.877-2.434l-10.125-10.123
		c-3.246-3.246-3.246-8.509-0.001-11.755c3.246-3.246,8.508-3.246,11.755,0l10.125,10.123c3.246,3.246,3.246,8.509,0,11.755
		C201.212,80.751,199.084,81.562,196.957,81.562z"/>
	<path style="fill:#2F3953;" d="M377.052,117.762c-2.127,0-4.253-0.811-5.877-2.434c-3.246-3.246-3.246-8.509,0-11.755
		l10.124-10.125c3.246-3.246,8.508-3.246,11.755-0.001c3.246,3.246,3.246,8.509,0,11.755l-10.124,10.125
		C381.307,116.95,379.179,117.762,377.052,117.762z"/>
</g>
<path style="fill:#FF6376;" d="M255.999,352.152c-38.233,0-72.16,18.763-93.073,47.561c4.663,3.027,9.471,5.849,14.432,8.42
	c17.96-23.882,46.526-39.357,78.641-39.357c32.114,0,60.681,15.475,78.641,39.357c4.961-2.57,9.769-5.393,14.432-8.42
	C328.159,370.915,294.233,352.152,255.999,352.152z M255.999,293.211c-55.251,0-104.562,25.902-136.44,66.197
	c3.432,4.521,7.078,8.87,10.934,13.025c28.738-37.997,74.301-62.598,125.507-62.598s96.768,24.601,125.506,62.598
	c3.855-4.155,7.501-8.503,10.934-13.025C360.561,319.112,311.25,293.211,255.999,293.211z"/>
<g>
</g>
<g>
</g>
<g>
</g>
<g>
</g>
<g>
</g>
<g>
</g>
<g>
</g>
<g>
</g>
<g>
</g>
<g>
</g>
<g>
</g>
<g>
</g>
<g>
</g>
<g>
</g>
<g>
</g>
</svg>
