<?xml version="1.0" encoding="iso-8859-1"?>
<!-- Generator: Adobe Illustrator 19.0.0, SVG Export Plug-In . SVG Version: 6.00 Build 0)  -->
<svg version="1.1" id="Layer_1" xmlns="http://www.w3.org/2000/svg" xmlns:xlink="http://www.w3.org/1999/xlink" x="0px" y="0px"
	 viewBox="0 0 512 512" style="enable-background:new 0 0 512 512;" xml:space="preserve">
<g>
	<path style="fill:#E2411C;" d="M168.825,269.975c-8.93,8.93-23.544,8.93-32.474,0l-60.078-60.078c-8.93-8.93-8.93-23.545,0-32.476
		l60.078-60.075c8.93-8.93,23.544-8.93,32.474,0l60.078,60.075c8.931,8.93,8.931,23.545,0,32.476L168.825,269.975z"/>
	<path style="fill:#E2411C;" d="M343.175,269.975c8.93,8.93,23.544,8.93,32.474,0l60.078-60.078c8.93-8.93,8.93-23.545,0-32.474
		l-60.078-60.078c-8.93-8.929-23.544-8.929-32.474,0l-60.078,60.078c-8.931,8.929-8.931,23.544,0,32.474L343.175,269.975z"/>
</g>
<circle style="fill:#46C79C;" cx="256" cy="175.256" r="75.739"/>
<path style="fill:#FFFFFF;" d="M174.483,316.645c-46.307,0-83.98-37.673-83.98-83.98c0-46.308,37.673-83.981,83.98-83.981
	s83.98,37.673,83.98,83.981C258.463,278.97,220.789,316.645,174.483,316.645z M174.483,165.167
	c-37.218,0-67.497,30.28-67.497,67.498s30.279,67.497,67.497,67.497s67.497-30.279,67.497-67.497S211.701,165.167,174.483,165.167z"
	/>
<circle style="fill:#46C79C;" cx="87.183" cy="272.845" r="75.739"/>
<path style="fill:#FFFFFF;" d="M337.517,316.645c-46.307,0-83.98-37.673-83.98-83.98c0-46.308,37.673-83.981,83.98-83.981
	s83.981,37.673,83.981,83.981C421.498,278.97,383.824,316.645,337.517,316.645z M337.517,165.167
	c-37.218,0-67.497,30.28-67.497,67.498s30.279,67.497,67.497,67.497s67.498-30.279,67.498-67.497S374.736,165.167,337.517,165.167z"
	/>
<circle style="fill:#46C79C;" cx="424.817" cy="272.845" r="75.739"/>
<g>
	<circle style="fill:#FF6376;" cx="468.408" cy="320.261" r="43.592"/>
	<circle style="fill:#FF6376;" cx="43.592" cy="320.261" r="43.592"/>
</g>
<path style="fill:#FDBA55;" d="M475.295,412.482c16.073,0,26.331-2.949,23.899-25.982C486.22,263.649,382.288,167.925,256,167.925
	S25.78,263.649,12.807,386.5c-2.433,23.033,7.825,25.982,23.899,25.982H475.295z"/>
<path style="fill:#FF6376;" d="M387.122,339.204h-31.927c-4.551,0-8.241-3.689-8.241-8.241s3.69-8.241,8.241-8.241h31.927
	c4.551,0,8.241,3.689,8.241,8.241S391.674,339.204,387.122,339.204z"/>
<g>
	<path style="fill:#3F4963;" d="M237.316,328.894c-14.847,0-26.925-12.079-26.925-26.926c0-4.551,3.69-8.241,8.241-8.241
		s8.241,3.69,8.241,8.241c0,5.758,4.684,10.444,10.442,10.444c5.758,0,10.442-4.686,10.442-10.444c0-4.551,3.69-8.241,8.241-8.241
		s8.241,3.69,8.241,8.241C264.241,316.815,252.163,328.894,237.316,328.894z"/>
	<path style="fill:#3F4963;" d="M274.685,328.894c-14.848,0-26.926-12.079-26.926-26.926c0-4.551,3.69-8.241,8.241-8.241
		s8.241,3.69,8.241,8.241c0,5.758,4.686,10.444,10.443,10.444c5.757,0,10.441-4.686,10.441-10.444c0-4.551,3.69-8.241,8.241-8.241
		s8.241,3.69,8.241,8.241C301.609,316.815,289.53,328.894,274.685,328.894z"/>
	<path style="fill:#3F4963;" d="M386.081,303.039c-4.551,0-8.241-3.689-8.241-8.241c0-3.684-2.998-6.681-6.681-6.681
		s-6.681,2.997-6.681,6.681c0,4.553-3.69,8.241-8.241,8.241s-8.241-3.689-8.241-8.241c0-12.773,10.392-23.164,23.164-23.164
		c12.773,0,23.164,10.391,23.164,23.164C394.323,299.349,390.633,303.039,386.081,303.039z"/>
</g>
<path style="fill:#FF6376;" d="M156.805,339.204h-31.927c-4.551,0-8.241-3.689-8.241-8.241s3.69-8.241,8.241-8.241h31.927
	c4.551,0,8.241,3.689,8.241,8.241S161.357,339.204,156.805,339.204z"/>
<g>
	<path style="fill:#3F4963;" d="M155.764,303.039c-4.551,0-8.241-3.689-8.241-8.241c0-3.684-2.998-6.681-6.681-6.681
		c-3.684,0-6.681,2.997-6.681,6.681c0,4.553-3.69,8.241-8.241,8.241s-8.241-3.689-8.241-8.241c0-12.773,10.391-23.164,23.164-23.164
		c12.773,0,23.164,10.391,23.164,23.164C164.005,299.349,160.315,303.039,155.764,303.039z"/>
	<circle style="opacity:0.2;fill:#3F4963;enable-background:new    ;" cx="347.128" cy="232.66" r="15.395"/>
	<circle style="opacity:0.2;fill:#3F4963;enable-background:new    ;" cx="313.855" cy="363.984" r="15.395"/>
	<circle style="opacity:0.2;fill:#3F4963;enable-background:new    ;" cx="204.771" cy="368.567" r="15.395"/>
	<circle style="opacity:0.2;fill:#3F4963;enable-background:new    ;" cx="154.642" cy="232.66" r="15.395"/>
	<circle style="opacity:0.2;fill:#3F4963;enable-background:new    ;" cx="236.891" cy="248.055" r="15.395"/>
	<circle style="opacity:0.2;fill:#3F4963;enable-background:new    ;" cx="69.579" cy="348.578" r="15.395"/>
	<circle style="opacity:0.2;fill:#3F4963;enable-background:new    ;" cx="442.421" cy="336.183" r="15.395"/>
</g>
<g>
</g>
<g>
</g>
<g>
</g>
<g>
</g>
<g>
</g>
<g>
</g>
<g>
</g>
<g>
</g>
<g>
</g>
<g>
</g>
<g>
</g>
<g>
</g>
<g>
</g>
<g>
</g>
<g>
</g>
</svg>
