<?xml version="1.0" encoding="iso-8859-1"?>
<!-- Generator: Adobe Illustrator 19.0.0, SVG Export Plug-In . SVG Version: 6.00 Build 0)  -->
<svg version="1.1" id="Layer_1" xmlns="http://www.w3.org/2000/svg" xmlns:xlink="http://www.w3.org/1999/xlink" x="0px" y="0px"
	 viewBox="0 0 512.001 512.001" style="enable-background:new 0 0 512.001 512.001;" xml:space="preserve">
<g>
	<path style="fill:#FFD553;" d="M347.725,307.031c0,12.062-9.867,21.932-21.931,21.932H251.23c-12.062,0-21.931-9.87-21.931-21.932
		V21.931C229.299,9.869,239.169,0,251.231,0h74.564c12.063,0,21.931,9.869,21.931,21.931v285.101H347.725z"/>
	<path style="fill:#FFD553;" d="M444.382,318.244c-1.671,11.945-12.809,20.353-24.755,18.683l-73.849-10.323
		c-11.946-1.671-20.353-12.811-18.683-24.755l39.476-282.354c1.672-11.945,12.81-20.354,24.756-18.683l73.845,10.323
		c11.945,1.671,20.353,12.811,18.683,24.756L444.382,318.244z"/>
</g>
<g>
	<path style="fill:#FDBA55;" d="M271.426,334.223c0.983,12.021-8.051,22.661-20.072,23.643l-74.316,6.074
		c-12.021,0.983-22.662-8.05-23.643-20.071L130.17,59.714c-0.983-12.022,8.05-22.662,20.072-23.643l74.317-6.072
		c12.021-0.983,22.662,8.049,23.645,20.071L271.426,334.223z"/>
	<path style="fill:#FDBA55;" d="M411.321,363.253c-0.737,12.04-11.189,21.288-23.228,20.551l-74.424-4.554
		c-12.04-0.737-21.288-11.189-20.551-23.23l17.408-284.568c0.737-12.039,11.191-21.288,23.23-20.551l74.427,4.553
		c12.041,0.737,21.288,11.19,20.551,23.23L411.321,363.253z"/>
</g>
<path style="fill:#FFD553;" d="M203.117,300.423c2.488,11.803-5.132,23.496-16.934,25.985l-72.961,15.387
	c-11.802,2.489-23.496-5.129-25.984-16.934L28.404,45.898c-2.489-11.803,5.131-23.497,16.932-25.986l72.96-15.386
	c11.802-2.49,23.496,5.129,25.984,16.932L203.117,300.423z"/>
<path style="fill:#FF6376;" d="M362.199,173.161c-12.062,0-23.99,9.651-26.504,21.449l-10.83,50.768
	c-2.516,11.796-14.444,21.448-26.505,21.448h-73.154c-12.062,0-23.99-9.651-26.507-21.448l-10.828-50.768
	c-2.516-11.796-14.444-21.449-26.507-21.449H60.03c-12.062,0-20.379,9.746-18.482,21.658l47.061,295.524
	c1.897,11.912,13.318,21.658,25.379,21.658h295.587c12.062,0,23.482-9.746,25.382-21.658l47.06-295.524
	c1.898-11.912-6.42-21.658-18.482-21.658H362.199z"/>
<polygon style="fill:#FFD553;" points="79.919,435.769 85.667,471.873 437.897,471.873 443.647,435.769 "/>
<g>
	<circle style="fill:#3F4963;" cx="146.197" cy="330.257" r="14.977"/>
	<circle style="fill:#3F4963;" cx="377.361" cy="330.257" r="14.977"/>
</g>
<g>
	<path style="fill:#FF9596;" d="M162.223,382.596h-32.044c-4.568,0-8.272-3.703-8.272-8.272c0-4.568,3.703-8.272,8.272-8.272h32.044
		c4.568,0,8.272,3.703,8.272,8.272C170.495,378.893,166.792,382.596,162.223,382.596z"/>
	<path style="fill:#FF9596;" d="M393.384,382.596H361.34c-4.569,0-8.272-3.703-8.272-8.272c0-4.568,3.702-8.272,8.272-8.272h32.044
		c4.569,0,8.272,3.703,8.272,8.272C401.656,378.893,397.952,382.596,393.384,382.596z"/>
</g>
<g>
	<path style="fill:#3F4963;" d="M243.03,372.247c-14.901,0-27.024-12.123-27.024-27.023c0-4.568,3.703-8.272,8.272-8.272
		s8.272,3.703,8.272,8.272c0,5.779,4.702,10.48,10.481,10.48c5.779,0,10.482-4.702,10.482-10.48c0-4.568,3.702-8.272,8.272-8.272
		c4.569,0,8.272,3.703,8.272,8.272C270.054,360.125,257.931,372.247,243.03,372.247z"/>
	<path style="fill:#3F4963;" d="M280.534,372.247c-14.901,0-27.024-12.123-27.024-27.023c0-4.568,3.702-8.272,8.272-8.272
		c4.569,0,8.272,3.703,8.272,8.272c0,5.779,4.702,10.48,10.481,10.48c5.778,0,10.48-4.702,10.48-10.48
		c0-4.568,3.702-8.272,8.272-8.272c4.569,0,8.272,3.703,8.272,8.272C307.557,360.125,295.435,372.247,280.534,372.247z"/>
</g>
<g>
</g>
<g>
</g>
<g>
</g>
<g>
</g>
<g>
</g>
<g>
</g>
<g>
</g>
<g>
</g>
<g>
</g>
<g>
</g>
<g>
</g>
<g>
</g>
<g>
</g>
<g>
</g>
<g>
</g>
</svg>
