<?xml version="1.0" encoding="iso-8859-1"?>
<!-- Generator: Adobe Illustrator 19.0.0, SVG Export Plug-In . SVG Version: 6.00 Build 0)  -->
<svg version="1.1" id="Layer_1" xmlns="http://www.w3.org/2000/svg" xmlns:xlink="http://www.w3.org/1999/xlink" x="0px" y="0px"
	 viewBox="0 0 511.997 511.997" style="enable-background:new 0 0 511.997 511.997;" xml:space="preserve">
<path style="fill:#46C79C;" d="M381.107,104.767c-7.452-4.717-20.953-12.065-36.615-15.112c6.426-14.606,8.088-29.886,8.464-38.697
	c0.245-5.728-1.771-7.692-7.449-7.449c-8.812,0.375-24.095,2.035-38.701,8.461c-3.047-15.664-10.396-29.165-15.111-36.616
	c-3.064-4.845-5.839-5.31-10.367-1.871c-10.56,8.013-31.484,26.738-36.061,52.08c-4.578,25.344,8.474,50.206,15.561,61.403
	c1.523,2.41,6.256,7.144,8.666,8.666c11.198,7.087,36.058,20.139,61.403,15.561c25.342-4.578,44.067-25.5,52.081-36.061
	C386.417,110.606,385.952,107.831,381.107,104.767z"/>
<circle style="fill:#593EAA;" cx="278.608" cy="294.128" r="123.493"/>
<circle style="fill:#8162D7;" cx="123.493" cy="330.536" r="123.493"/>
<circle style="fill:#3F4963;" cx="45.566" cy="309.973" r="15.843"/>
<path style="fill:#FF9596;" d="M62.514,360.314H28.619c-4.632,0-8.386-3.754-8.386-8.386s3.755-8.386,8.386-8.386h33.896
	c4.632,0,8.386,3.754,8.386,8.386C70.9,356.559,67.145,360.314,62.514,360.314z"/>
<circle style="fill:#3F4963;" cx="201.419" cy="309.973" r="15.843"/>
<path style="fill:#FF9596;" d="M218.37,360.314h-33.896c-4.632,0-8.386-3.754-8.386-8.386s3.755-8.386,8.386-8.386h33.896
	c4.632,0,8.386,3.754,8.386,8.386C226.757,356.559,223.002,360.314,218.37,360.314z"/>
<g>
	<path style="fill:#3F4963;" d="M107.745,346.836c-13.309,0-24.137-10.827-24.137-24.135c0-4.633,3.755-8.386,8.386-8.386
		c4.632,0,8.386,3.754,8.386,8.386c0,4.06,3.304,7.362,7.364,7.362c4.059,0,7.362-3.302,7.362-7.362
		c0-4.633,3.755-8.386,8.386-8.386c4.632,0,8.386,3.754,8.386,8.386C131.88,336.009,121.054,346.836,107.745,346.836z"/>
	<path style="fill:#3F4963;" d="M139.243,346.836c-13.308,0-24.135-10.827-24.135-24.135c0-4.633,3.755-8.386,8.386-8.386
		c4.632,0,8.386,3.754,8.386,8.386c0,4.06,3.303,7.362,7.362,7.362c4.059,0,7.362-3.302,7.362-7.362
		c0-4.633,3.755-8.386,8.386-8.386c4.632,0,8.386,3.754,8.386,8.386C163.378,336.009,152.551,346.836,139.243,346.836z"/>
</g>
<circle style="fill:#8162D7;" cx="388.504" cy="377.254" r="123.493"/>
<circle style="fill:#3F4963;" cx="310.577" cy="356.702" r="15.843"/>
<path style="fill:#FF9596;" d="M327.524,407.038h-33.896c-4.632,0-8.386-3.754-8.386-8.386s3.755-8.386,8.386-8.386h33.896
	c4.632,0,8.386,3.754,8.386,8.386S332.156,407.038,327.524,407.038z"/>
<circle style="fill:#3F4963;" cx="466.43" cy="356.702" r="15.843"/>
<path style="fill:#FF9596;" d="M483.381,407.038h-33.896c-4.632,0-8.386-3.754-8.386-8.386s3.755-8.386,8.386-8.386h33.896
	c4.632,0,8.386,3.754,8.386,8.386S488.013,407.038,483.381,407.038z"/>
<g>
	<path style="fill:#3F4963;" d="M372.756,393.561c-13.309,0-24.137-10.827-24.137-24.135c0-4.633,3.755-8.386,8.386-8.386
		s8.386,3.754,8.386,8.386c0,4.06,3.304,7.362,7.364,7.362c4.059,0,7.362-3.302,7.362-7.362c0-4.633,3.755-8.386,8.386-8.386
		s8.386,3.754,8.386,8.386C396.891,382.733,386.065,393.561,372.756,393.561z"/>
	<path style="fill:#3F4963;" d="M404.253,393.561c-13.308,0-24.135-10.827-24.135-24.135c0-4.633,3.755-8.386,8.386-8.386
		s8.386,3.754,8.386,8.386c0,4.06,3.303,7.362,7.362,7.362s7.362-3.302,7.362-7.362c0-4.633,3.755-8.386,8.386-8.386
		s8.386,3.754,8.386,8.386C428.388,382.733,417.562,393.561,404.253,393.561z"/>
</g>
<g>
	<path style="fill:#65F7C4;" d="M388.505,284.509c-10.807,0-19.568-8.761-19.568-19.568c0-56.53,45.99-102.521,102.521-102.521
		c10.807,0,19.568,8.761,19.568,19.568s-8.761,19.568-19.568,19.568c-34.95,0-63.385,28.434-63.385,63.385
		C408.073,275.748,399.312,284.509,388.505,284.509z"/>
	<path style="fill:#65F7C4;" d="M123.494,237.785c-10.807,0-19.568-8.761-19.568-19.568c0-34.95-28.434-63.385-63.385-63.385
		c-10.807,0-19.568-8.761-19.568-19.568c0-10.807,8.761-19.568,19.568-19.568c56.53,0,102.521,45.991,102.521,102.521
		C143.062,229.024,134.301,237.785,123.494,237.785z"/>
	<path style="fill:#65F7C4;" d="M278.608,201.387c-10.807,0-19.568-8.761-19.568-19.568c0-34.95-28.434-63.385-63.385-63.385
		c-10.807,0-19.568-8.761-19.568-19.568s8.761-19.568,19.568-19.568c56.53,0,102.521,45.991,102.521,102.521
		C298.176,192.626,289.415,201.387,278.608,201.387z"/>
</g>
<g>
</g>
<g>
</g>
<g>
</g>
<g>
</g>
<g>
</g>
<g>
</g>
<g>
</g>
<g>
</g>
<g>
</g>
<g>
</g>
<g>
</g>
<g>
</g>
<g>
</g>
<g>
</g>
<g>
</g>
</svg>
