<?xml version="1.0" encoding="iso-8859-1"?>
<!-- Generator: Adobe Illustrator 19.0.0, SVG Export Plug-In . SVG Version: 6.00 Build 0)  -->
<svg version="1.1" id="Layer_1" xmlns="http://www.w3.org/2000/svg" xmlns:xlink="http://www.w3.org/1999/xlink" x="0px" y="0px"
	 viewBox="0 0 511.999 511.999" style="enable-background:new 0 0 511.999 511.999;" xml:space="preserve">
<path style="fill:#FDBA55;" d="M464.305,370.148c26.342,0,47.694,21.354,47.694,47.693c0,26.342-21.354,47.695-47.694,47.695
	l-416.609,0.001C21.353,465.537,0.001,444.182,0,417.841c0-26.341,21.353-47.693,47.695-47.691L464.305,370.148z"/>
<path style="fill:#FFD553;" d="M464.305,370.148L47.695,370.15c-20.254-0.001-37.545,12.626-44.462,30.432h505.533
	C501.849,382.776,484.558,370.148,464.305,370.148z"/>
<path style="fill:#866539;" d="M501.989,313.611c0-7.596-6.216-13.812-13.812-13.812H23.829c-7.597,0-13.812,6.216-13.812,13.812
	v42.726c0,7.596,6.216,13.812,13.812,13.812h464.348c7.596,0,13.812-6.216,13.812-13.812V313.611z"/>
<g>
	<path style="fill:#FFD553;" d="M108.258,299.793l47.259,47.261c4.554,4.553,12.007,4.553,16.561,0l47.259-47.261H108.258z"/>
	<path style="fill:#FFD553;" d="M403.75,299.793l-47.259,47.261c-4.555,4.553-12.008,4.553-16.562,0l-47.26-47.261H403.75z"/>
</g>
<path style="fill:#46C79C;" d="M475.656,267.706c0-6.44-5.27-11.71-11.71-11.71H264.728c-6.441,0-11.71,5.27-11.71,11.71v20.378
	c0,6.439,5.269,11.709,11.71,11.709h199.218c6.44,0,11.71-5.27,11.71-11.709V267.706z"/>
<path style="fill:#65F7C4;" d="M283.222,267.706c0-6.44-5.27-11.71-11.71-11.71H48.061c-6.44,0-11.71,5.27-11.71,11.71v20.378
	c0,6.439,5.27,11.709,11.71,11.709h223.451c6.44,0,11.71-5.27,11.71-11.709V267.706z"/>
<path style="fill:#E2411C;" d="M36.35,223.909c0-6.44,5.27-11.71,11.71-11.71h230.866c6.44,0,11.71,5.27,11.71,11.71v20.377
	c0,6.44-5.27,11.71-11.71,11.71H48.061c-6.44,0-11.71-5.27-11.71-11.71V223.909z"/>
<path style="fill:#FF6376;" d="M220.376,223.909c0-6.44,5.27-11.71,11.71-11.71h231.86c6.44,0,11.71,5.27,11.71,11.71v20.377
	c0,6.44-5.27,11.71-11.71,11.71h-231.86c-6.44,0-11.71-5.27-11.71-11.71L220.376,223.909L220.376,223.909z"/>
<path style="fill:#FDBA55;" d="M492.894,100.801l-0.004,0.002l0.004-0.011c-31.118-31.117-124.091-54.331-236.89-54.331
	c-112.8,0-205.771,23.213-236.889,54.332v0.001h-0.001C7.304,112.603,0,128.917,0,146.938c0.001,36.042,29.217,65.258,65.26,65.261
	H446.74v-0.002c36.042,0,65.258-29.218,65.258-65.258C512,128.922,504.698,112.611,492.894,100.801z"/>
<g>
	<path style="fill:#FBD151;" d="M197.452,106.288c-4.582,0-8.296-3.715-8.296-8.296V83.94c0-4.582,3.715-8.296,8.296-8.296
		c4.582,0,8.296,3.715,8.296,8.296v14.052C205.749,102.575,202.034,106.288,197.452,106.288z"/>
	<path style="fill:#FBD151;" d="M65.26,125.245c-4.582,0-8.296-3.715-8.296-8.296v-14.052c0-4.582,3.715-8.296,8.296-8.296
		s8.296,3.715,8.296,8.296v14.052C73.556,121.53,69.841,125.245,65.26,125.245z"/>
	<path style="fill:#FBD151;" d="M256.004,92.236c-4.582,0-8.296-3.715-8.296-8.296V69.887c0-4.582,3.715-8.296,8.296-8.296
		c4.582,0,8.296,3.715,8.296,8.296V83.94C264.3,88.522,260.586,92.236,256.004,92.236z"/>
	<path style="fill:#FBD151;" d="M313.383,106.288c-4.582,0-8.296-3.715-8.296-8.296V83.94c0-4.582,3.715-8.296,8.296-8.296
		c4.582,0,8.296,3.715,8.296,8.296v14.052C321.679,102.575,317.965,106.288,313.383,106.288z"/>
	<path style="fill:#FBD151;" d="M446.739,132.271c-4.582,0-8.296-3.715-8.296-8.296v-14.052c0-4.582,3.715-8.296,8.296-8.296
		s8.296,3.715,8.296,8.296v14.052C455.036,128.557,451.322,132.271,446.739,132.271z"/>
</g>
<g>
	<circle style="fill:#3F4963;" cx="140.077" cy="127.355" r="15.022"/>
	<circle style="fill:#3F4963;" cx="371.922" cy="127.355" r="15.022"/>
</g>
<g>
	<path style="fill:#FF6376;" d="M156.143,179.857h-32.139c-4.582,0-8.296-3.715-8.296-8.296c0-4.582,3.715-8.296,8.296-8.296h32.139
		c4.582,0,8.296,3.715,8.296,8.296C164.439,176.143,160.725,179.857,156.143,179.857z"/>
	<path style="fill:#FF6376;" d="M387.996,179.857h-32.139c-4.582,0-8.296-3.715-8.296-8.296c0-4.582,3.715-8.296,8.296-8.296h32.139
		c4.582,0,8.296,3.715,8.296,8.296C396.293,176.143,392.578,179.857,387.996,179.857z"/>
</g>
<g>
	<path style="fill:#3F4963;" d="M237.191,169.477c-14.946,0-27.105-12.159-27.105-27.104c0-4.582,3.715-8.296,8.296-8.296
		c4.582,0,8.296,3.715,8.296,8.296c0,5.796,4.716,10.511,10.512,10.511c5.796,0,10.512-4.716,10.512-10.511
		c0-4.582,3.715-8.296,8.296-8.296c4.582,0,8.296,3.715,8.296,8.296C264.296,157.318,252.137,169.477,237.191,169.477z"/>
	<path style="fill:#3F4963;" d="M274.809,169.477c-14.946,0-27.105-12.159-27.105-27.104c0-4.582,3.715-8.296,8.296-8.296
		c4.582,0,8.296,3.715,8.296,8.296c0,5.796,4.716,10.511,10.512,10.511c5.796,0,10.512-4.716,10.512-10.511
		c0-4.582,3.715-8.296,8.296-8.296s8.296,3.715,8.296,8.296C301.914,157.318,289.755,169.477,274.809,169.477z"/>
</g>
<g>
</g>
<g>
</g>
<g>
</g>
<g>
</g>
<g>
</g>
<g>
</g>
<g>
</g>
<g>
</g>
<g>
</g>
<g>
</g>
<g>
</g>
<g>
</g>
<g>
</g>
<g>
</g>
<g>
</g>
</svg>
