<?xml version="1.0" encoding="iso-8859-1"?>
<!-- Generator: Adobe Illustrator 19.0.0, SVG Export Plug-In . SVG Version: 6.00 Build 0)  -->
<svg version="1.1" id="Layer_1" xmlns="http://www.w3.org/2000/svg" xmlns:xlink="http://www.w3.org/1999/xlink" x="0px" y="0px"
	 viewBox="0 0 512 512" style="enable-background:new 0 0 512 512;" xml:space="preserve">
<g>
	<path style="fill:#FDBA55;" d="M255.999,429.896c0,37.026-30.015,67.041-67.04,67.041s-67.041-30.015-67.041-67.041V82.104
		c0-37.026,30.015-67.04,67.041-67.04s67.04,30.014,67.04,67.04V429.896z"/>
	<path style="fill:#FDBA55;" d="M256,429.896c0,37.026,30.015,67.041,67.041,67.041s67.041-30.015,67.041-67.041V82.104
		c0-37.026-30.015-67.04-67.041-67.04S256,45.078,256,82.104L256,429.896L256,429.896z"/>
</g>
<path style="fill:#FF6376;" d="M308.435,459.564c0,28.96-23.476,52.436-52.436,52.436c-28.959,0-52.436-23.476-52.436-52.436V52.435
	C203.563,23.475,227.04,0,255.999,0s52.436,23.475,52.436,52.435V459.564z"/>
<g>
	<path style="fill:#3F4963;" d="M241.192,155.592c-12.701,0-23.033-10.332-23.033-23.032c0-4.543,3.683-8.226,8.226-8.226
		c4.543,0,8.226,3.683,8.226,8.226c0,3.628,2.951,6.58,6.581,6.58s6.581-2.951,6.581-6.58c0-4.543,3.683-8.226,8.226-8.226
		c4.544,0,8.226,3.683,8.226,8.226C264.225,145.26,253.893,155.592,241.192,155.592z"/>
	<path style="fill:#3F4963;" d="M270.806,155.592c-12.7,0-23.033-10.332-23.033-23.032c0-4.543,3.683-8.226,8.226-8.226
		c4.544,0,8.226,3.683,8.226,8.226c0,3.628,2.951,6.58,6.581,6.58c3.629,0,6.581-2.951,6.581-6.58c0-4.543,3.682-8.226,8.226-8.226
		c4.544,0,8.226,3.683,8.226,8.226C293.838,145.26,283.505,155.592,270.806,155.592z"/>
</g>
<path style="fill:#FF6376;" d="M178.29,168.263h-31.866c-4.543,0-8.226-3.683-8.226-8.226s3.683-8.226,8.226-8.226h31.866
	c4.543,0,8.226,3.683,8.226,8.226S182.833,168.263,178.29,168.263z"/>
<path style="fill:#3F4963;" d="M177.251,132.165c-4.543,0-8.226-3.683-8.226-8.226c0-3.678-2.992-6.669-6.669-6.669
	c-3.678,0-6.67,2.992-6.67,6.669c0,4.543-3.683,8.226-8.226,8.226c-4.543,0-8.226-3.683-8.226-8.226
	c0-12.749,10.372-23.12,23.122-23.12s23.12,10.371,23.12,23.12C185.477,128.482,181.794,132.165,177.251,132.165z"/>
<path style="fill:#FF6376;" d="M365.577,168.263h-31.867c-4.544,0-8.226-3.683-8.226-8.226s3.682-8.226,8.226-8.226h31.867
	c4.543,0,8.226,3.683,8.226,8.226S370.12,168.263,365.577,168.263z"/>
<path style="fill:#3F4963;" d="M364.537,132.165c-4.544,0-8.226-3.683-8.226-8.226c0-3.678-2.992-6.669-6.669-6.669
	s-6.669,2.992-6.669,6.669c0,4.543-3.682,8.226-8.226,8.226c-4.543,0-8.226-3.683-8.226-8.226c0-12.749,10.371-23.12,23.12-23.12
	c12.749,0,23.12,10.371,23.12,23.12C372.763,128.482,369.081,132.165,364.537,132.165z"/>
<path style="fill:#FBD151;" d="M255.991,457.967c-1.395,0-2.81-0.355-4.105-1.103c-14.622-8.442-22.674-20.198-22.674-33.104
	c0-12.905,8.053-24.66,22.674-33.102c9.182-5.301,14.449-12.173,14.449-18.855s-5.267-13.553-14.449-18.855
	c-14.622-8.442-22.674-20.198-22.674-33.102s8.053-24.661,22.674-33.104c9.182-5.301,14.448-12.173,14.449-18.855
	c0-6.682-5.267-13.554-14.449-18.855c-14.621-8.441-22.674-20.198-22.674-33.102c0-12.905,8.053-24.661,22.674-33.104
	c3.934-2.271,8.966-0.923,11.237,3.011c2.271,3.934,0.923,8.965-3.011,11.237c-9.182,5.301-14.448,12.174-14.448,18.855
	c0,6.682,5.266,13.553,14.448,18.855c14.621,8.442,22.675,20.199,22.675,33.104c-0.001,12.905-8.054,24.66-22.675,33.102
	c-9.182,5.301-14.448,12.174-14.448,18.856c0,6.682,5.267,13.554,14.448,18.855c14.621,8.442,22.675,20.198,22.675,33.102
	s-8.054,24.661-22.675,33.104c-9.182,5.301-14.448,12.174-14.448,18.855c0,6.682,5.266,13.554,14.448,18.855
	c3.934,2.271,5.282,7.302,3.011,11.237C261.6,456.492,258.834,457.967,255.991,457.967z"/>
<g>
</g>
<g>
</g>
<g>
</g>
<g>
</g>
<g>
</g>
<g>
</g>
<g>
</g>
<g>
</g>
<g>
</g>
<g>
</g>
<g>
</g>
<g>
</g>
<g>
</g>
<g>
</g>
<g>
</g>
</svg>
