<?xml version="1.0" encoding="iso-8859-1"?>
<!-- Generator: Adobe Illustrator 19.0.0, SVG Export Plug-In . SVG Version: 6.00 Build 0)  -->
<svg version="1.1" id="Layer_1" xmlns="http://www.w3.org/2000/svg" xmlns:xlink="http://www.w3.org/1999/xlink" x="0px" y="0px"
	 viewBox="0 0 512 512" style="enable-background:new 0 0 512 512;" xml:space="preserve">
<path style="fill:#46C79C;" d="M285.122,25.047c-17.955,17.955-21.359,45.427-21.917,58.486c-0.241,5.649,1.745,7.587,7.346,7.348
	c13.06-0.558,40.531-3.961,58.486-21.917c17.955-17.954,21.36-45.427,21.917-58.485c0.24-5.603-1.699-7.588-7.346-7.349
	C330.549,3.687,303.076,7.093,285.122,25.047z"/>
<path style="fill:#866539;" d="M256.007,152.005c-13.058,0-23.642-10.584-23.642-23.642V23.643C232.365,10.584,242.949,0,256.007,0
	c13.059,0,23.643,10.584,23.643,23.643v104.72C279.648,141.421,269.064,152.005,256.007,152.005z"/>
<path style="fill:#65F7C4;" d="M365.174,258.727c-0.003-0.003-0.008-0.008-0.011-0.012c-0.255-0.271-0.51-0.54-0.767-0.808
	c-18.952-19.842-17.38-51.242-17.38-74.771c0-50.265-40.748-91.014-91.014-91.014s-91.014,40.748-91.014,91.014
	c0,23.529,1.572,54.928-17.38,74.771c-0.258,0.269-0.512,0.538-0.767,0.808c-0.003,0.003-0.008,0.008-0.011,0.012
	c-25.411,26.898-40.997,63.178-40.997,103.104C105.831,444.767,173.065,512,256,512s150.169-67.234,150.169-150.169
	C406.171,321.907,390.586,285.625,365.174,258.727z"/>
<circle style="fill:#3F4963;" cx="179.93" cy="343.34" r="15.466"/>
<path style="fill:#FF6376;" d="M196.475,392.482h-33.09c-4.521,0-8.187-3.666-8.187-8.187s3.666-8.187,8.187-8.187h33.09
	c4.521,0,8.187,3.666,8.187,8.187S200.997,392.482,196.475,392.482z"/>
<circle style="fill:#3F4963;" cx="332.077" cy="343.34" r="15.466"/>
<path style="fill:#FF6376;" d="M348.624,392.482h-33.09c-4.521,0-8.187-3.666-8.187-8.187s3.666-8.187,8.187-8.187h33.09
	c4.521,0,8.187,3.666,8.187,8.187S353.146,392.482,348.624,392.482z"/>
<g>
	<path style="fill:#3F4963;" d="M240.63,379.325c-12.992,0-23.561-10.569-23.561-23.56c0-4.521,3.666-8.187,8.187-8.187
		c4.521,0,8.187,3.666,8.187,8.187c0,3.962,3.225,7.186,7.187,7.186c3.964,0,7.187-3.223,7.187-7.186
		c0-4.521,3.666-8.187,8.187-8.187c4.521,0,8.187,3.666,8.187,8.187C264.191,368.756,253.623,379.325,240.63,379.325z"/>
	<path style="fill:#3F4963;" d="M271.38,379.325c-12.992,0-23.562-10.569-23.562-23.56c0-4.521,3.666-8.187,8.187-8.187
		c4.521,0,8.187,3.666,8.187,8.187c0,3.962,3.225,7.186,7.188,7.186s7.188-3.223,7.188-7.186c0-4.521,3.666-8.187,8.187-8.187
		c4.521,0,8.187,3.666,8.187,8.187C294.942,368.756,284.372,379.325,271.38,379.325z"/>
</g>
<g>
</g>
<g>
</g>
<g>
</g>
<g>
</g>
<g>
</g>
<g>
</g>
<g>
</g>
<g>
</g>
<g>
</g>
<g>
</g>
<g>
</g>
<g>
</g>
<g>
</g>
<g>
</g>
<g>
</g>
</svg>
