<?xml version="1.0" encoding="iso-8859-1"?>
<!-- Generator: Adobe Illustrator 19.0.0, SVG Export Plug-In . SVG Version: 6.00 Build 0)  -->
<svg version="1.1" id="Layer_1" xmlns="http://www.w3.org/2000/svg" xmlns:xlink="http://www.w3.org/1999/xlink" x="0px" y="0px"
	 viewBox="0 0 512 512" style="enable-background:new 0 0 512 512;" xml:space="preserve">
<path style="fill:#9090B5;" d="M317.665,0c-20.727,0-37.53,16.803-37.53,37.531v32.516c0,20.727,16.802,37.529,37.53,37.529
	c20.727,0,37.53-16.802,37.53-37.529V37.531C355.195,16.803,338.393,0,317.665,0z M317.665,50.767
	c-7.31,0-13.236-5.927-13.236-13.236s5.926-13.236,13.236-13.236s13.236,5.926,13.236,13.236S324.977,50.767,317.665,50.767z"/>
<path style="fill:#FF6376;" d="M375.07,109.706c-1.903-5.529-8.245-10.054-14.094-10.054H151.016
	c-5.849,0-12.19,4.525-14.093,10.054l-10.362,30.114c-1.904,5.529-3.46,14.837-3.46,20.686v274.973
	c0,5.849,1.557,15.157,3.46,20.686l10.362,30.114c1.903,5.531,8.245,10.056,14.093,10.056h209.961
	c5.849,0,12.192-4.525,14.094-10.056l10.362-30.114c1.903-5.529,3.46-14.837,3.46-20.686V160.505c0-5.849-1.558-15.157-3.46-20.686
	L375.07,109.706z"/>
<g>
	<circle style="fill:#FFFFFF;" cx="256.465" cy="353.052" r="34.735"/>
	<circle style="fill:#FFFFFF;" cx="298.226" cy="278.125" r="18.096"/>
</g>
<path style="fill:#FFD553;" d="M127.07,457.645l9.853,28.633c1.903,5.531,8.245,10.056,14.093,10.056h66.196
	c68.854-46.014,148.19-110.077,171.681-194.745v-96.592C353.074,334.104,187.393,415.299,127.07,457.645z"/>
<path style="fill:#FFB446;" d="M287.305,380.936c-46.818,40.069-98.058,72.077-139.23,97.797c-3.882,2.424-7.652,4.78-11.314,7.077
	l0.162,0.468c1.903,5.531,8.245,10.056,14.093,10.056h0.207c1.856-1.16,3.736-2.334,5.644-3.527
	c41.642-26.014,93.465-58.386,141.228-99.263c39.833-34.089,69.852-68.141,90.799-103.097v-35.648
	C369.489,297.745,336.11,339.167,287.305,380.936z"/>
<path style="fill:#C3DDF7;" d="M380.12,115.319c8.652,0,15.667-7.014,15.667-15.667c0-8.651-7.015-15.665-15.667-15.665H131.88
	c-8.652,0-15.667,7.014-15.667,15.665c0,8.653,7.014,15.667,15.667,15.667C131.88,115.319,380.12,115.319,380.12,115.319z"/>
<path style="fill:#9090B5;" d="M380.12,480.666c8.652,0,15.667,7.016,15.667,15.669c0,8.649-7.015,15.665-15.667,15.665H131.88
	c-8.652,0-15.667-7.016-15.667-15.665c0-8.653,7.014-15.669,15.667-15.669H380.12z"/>
<circle style="fill:#3F4963;" cx="178.905" cy="176.593" r="15.674"/>
<path style="fill:#FF9596;" d="M195.67,226.394h-33.534c-4.582,0-8.297-3.714-8.297-8.297s3.715-8.297,8.297-8.297h33.534
	c4.582,0,8.297,3.714,8.297,8.297S200.252,226.394,195.67,226.394z"/>
<g>
	<path style="fill:#3F4963;" d="M240.419,213.062c-13.167,0-23.88-10.712-23.88-23.878c0-4.583,3.715-8.297,8.297-8.297
		c4.582,0,8.297,3.714,8.297,8.297c0,4.017,3.269,7.284,7.286,7.284c4.016,0,7.284-3.267,7.284-7.284
		c0-4.583,3.715-8.297,8.297-8.297c4.583,0,8.297,3.714,8.297,8.297C264.297,202.35,253.586,213.062,240.419,213.062z"/>
	<path style="fill:#3F4963;" d="M271.581,213.062c-13.166,0-23.878-10.712-23.878-23.878c0-4.583,3.715-8.297,8.297-8.297
		c4.583,0,8.297,3.714,8.297,8.297c0,4.017,3.267,7.284,7.284,7.284c4.017,0,7.284-3.267,7.284-7.284
		c0-4.583,3.714-8.297,8.297-8.297c4.582,0,8.297,3.714,8.297,8.297C295.458,202.35,284.747,213.062,271.581,213.062z"/>
</g>
<path style="fill:#FF9596;" d="M349.855,226.394H316.33c-4.583,0-8.297-3.714-8.297-8.297s3.714-8.297,8.297-8.297h33.525
	c4.583,0,8.297,3.714,8.297,8.297S354.439,226.394,349.855,226.394z"/>
<path style="fill:#3F4963;" d="M348.762,188.418c-4.583,0-8.297-3.714-8.297-8.297c0-4.066-3.307-7.372-7.372-7.372
	s-7.372,3.307-7.372,7.372c0,4.583-3.714,8.297-8.297,8.297s-8.297-3.714-8.297-8.297c0-13.214,10.752-23.966,23.966-23.966
	c13.214,0,23.966,10.752,23.966,23.966C357.059,184.705,353.344,188.418,348.762,188.418z"/>
<g>
	<path style="fill:#FFFFFF;" d="M157.708,396.268c-4.582,0-8.297-3.714-8.297-8.297v-59.049c0-4.583,3.715-8.297,8.297-8.297
		s8.297,3.714,8.297,8.297v59.049C166.005,392.555,162.29,396.268,157.708,396.268z"/>
	<path style="fill:#FFFFFF;" d="M181.398,396.268c-4.582,0-8.297-3.714-8.297-8.297V355.19c0-4.583,3.715-8.297,8.297-8.297
		c4.582,0,8.297,3.714,8.297,8.297v32.782C189.695,392.555,185.98,396.268,181.398,396.268z"/>
</g>
<g>
</g>
<g>
</g>
<g>
</g>
<g>
</g>
<g>
</g>
<g>
</g>
<g>
</g>
<g>
</g>
<g>
</g>
<g>
</g>
<g>
</g>
<g>
</g>
<g>
</g>
<g>
</g>
<g>
</g>
</svg>
