<?xml version="1.0" encoding="iso-8859-1"?>
<!-- Generator: Adobe Illustrator 19.0.0, SVG Export Plug-In . SVG Version: 6.00 Build 0)  -->
<svg version="1.1" id="Layer_1" xmlns="http://www.w3.org/2000/svg" xmlns:xlink="http://www.w3.org/1999/xlink" x="0px" y="0px"
	 viewBox="0 0 512 512" style="enable-background:new 0 0 512 512;" xml:space="preserve">
<path style="fill:#46C79C;" d="M374.164,393.836C450.289,393.836,512,332.125,512,256s-61.712-137.836-137.836-137.836H137.836
	C61.712,118.164,0,179.876,0,256s61.712,137.836,137.836,137.836H374.164z"/>
<path style="fill:#FF6376;" d="M27.617,256c0-60.775,49.443-110.218,110.218-110.218h236.329
	c60.775,0,110.218,49.443,110.218,110.218H27.617z"/>
<path style="fill:#FFFFFF;" d="M492.668,256h-16.57c0-56.206-45.727-101.933-101.933-101.933H137.836
	c-56.206,0-101.933,45.727-101.933,101.933h-16.57c0-65.343,53.161-118.504,118.504-118.504h236.329
	C439.507,137.496,492.668,190.657,492.668,256z"/>
<g>
	<path style="fill:#65F7C4;" d="M137.836,393.836h236.329c35.603,0,68.053-13.501,92.512-35.66H45.324
		C69.783,380.334,102.233,393.836,137.836,393.836z"/>
	<path style="fill:#65F7C4;" d="M0,256c0,19.225,3.94,37.529,11.051,54.154h489.898C508.06,293.529,512,275.225,512,256H0z"/>
</g>
<g>
	<circle style="fill:#3F4963;" cx="140.239" cy="184.647" r="15.002"/>
	<circle style="fill:#3F4963;" cx="371.77" cy="184.647" r="15.002"/>
</g>
<g>
	<path style="fill:#FF9596;" d="M156.284,237.075h-32.097c-4.576,0-8.285-3.71-8.285-8.285s3.71-8.285,8.285-8.285h32.097
		c4.576,0,8.285,3.71,8.285,8.285C164.569,233.365,160.859,237.075,156.284,237.075z"/>
	<path style="fill:#FF9596;" d="M387.822,237.075h-32.097c-4.576,0-8.285-3.71-8.285-8.285s3.71-8.285,8.285-8.285h32.097
		c4.576,0,8.285,3.71,8.285,8.285C396.107,233.365,392.397,237.075,387.822,237.075z"/>
</g>
<g>
	<path style="fill:#3F4963;" d="M237.22,226.709c-14.925,0-27.068-12.143-27.068-27.068c0-4.576,3.71-8.285,8.285-8.285
		s8.285,3.71,8.285,8.285c0,5.789,4.709,10.498,10.498,10.498c5.789,0,10.499-4.709,10.499-10.498c0-4.576,3.71-8.285,8.285-8.285
		c4.576,0,8.285,3.71,8.285,8.285C264.29,214.567,252.147,226.709,237.22,226.709z"/>
	<path style="fill:#3F4963;" d="M274.787,226.709c-14.925,0-27.068-12.143-27.068-27.068c0-4.576,3.71-8.285,8.285-8.285
		c4.576,0,8.285,3.71,8.285,8.285c0,5.789,4.709,10.498,10.498,10.498c5.789,0,10.498-4.709,10.498-10.498
		c0-4.576,3.71-8.285,8.285-8.285s8.285,3.71,8.285,8.285C301.855,214.567,289.713,226.709,274.787,226.709z"/>
	<path style="fill:#3F4963;" d="M68.756,237.075c-4.576,0-8.285-3.71-8.285-8.285v-6.276c0-4.576,3.71-8.285,8.285-8.285
		c4.576,0,8.285,3.71,8.285,8.285v6.276C77.042,233.365,73.332,237.075,68.756,237.075z"/>
	<path style="fill:#3F4963;" d="M93.612,211.07c-4.576,0-8.285-3.71-8.285-8.285v-6.276c0-4.576,3.71-8.285,8.285-8.285
		c4.576,0,8.285,3.71,8.285,8.285v6.276C101.897,207.361,98.187,211.07,93.612,211.07z"/>
	<path style="fill:#3F4963;" d="M188.062,184.205c-4.576,0-8.285-3.71-8.285-8.285v-6.276c0-4.576,3.71-8.285,8.285-8.285
		c4.576,0,8.285,3.71,8.285,8.285v6.276C196.347,180.495,192.638,184.205,188.062,184.205z"/>
	<path style="fill:#3F4963;" d="M190.271,235.042c-4.576,0-8.285-3.71-8.285-8.285v-6.276c0-4.576,3.71-8.285,8.285-8.285
		s8.285,3.71,8.285,8.285v6.276C198.557,231.332,194.847,235.042,190.271,235.042z"/>
	<path style="fill:#3F4963;" d="M443.252,237.075c-4.576,0-8.285-3.71-8.285-8.285v-6.276c0-4.576,3.71-8.285,8.285-8.285
		c4.576,0,8.285,3.71,8.285,8.285v6.276C451.537,233.365,447.828,237.075,443.252,237.075z"/>
	<path style="fill:#3F4963;" d="M418.397,211.07c-4.576,0-8.285-3.71-8.285-8.285v-6.276c0-4.576,3.71-8.285,8.285-8.285
		s8.285,3.71,8.285,8.285v6.276C426.682,207.361,422.973,211.07,418.397,211.07z"/>
	<path style="fill:#3F4963;" d="M323.947,184.205c-4.576,0-8.285-3.71-8.285-8.285v-6.276c0-4.576,3.71-8.285,8.285-8.285
		s8.285,3.71,8.285,8.285v6.276C332.232,180.495,328.522,184.205,323.947,184.205z"/>
	<path style="fill:#3F4963;" d="M321.737,235.042c-4.576,0-8.285-3.71-8.285-8.285v-6.276c0-4.576,3.71-8.285,8.285-8.285
		s8.285,3.71,8.285,8.285v6.276C330.022,231.332,326.313,235.042,321.737,235.042z"/>
</g>
<g>
</g>
<g>
</g>
<g>
</g>
<g>
</g>
<g>
</g>
<g>
</g>
<g>
</g>
<g>
</g>
<g>
</g>
<g>
</g>
<g>
</g>
<g>
</g>
<g>
</g>
<g>
</g>
<g>
</g>
</svg>
