<?xml version="1.0" encoding="iso-8859-1"?>
<!-- Generator: Adobe Illustrator 19.0.0, SVG Export Plug-In . SVG Version: 6.00 Build 0)  -->
<svg version="1.1" id="Layer_1" xmlns="http://www.w3.org/2000/svg" xmlns:xlink="http://www.w3.org/1999/xlink" x="0px" y="0px"
	 viewBox="0 0 512.002 512.002" style="enable-background:new 0 0 512.002 512.002;" xml:space="preserve">
<path style="fill:#46C79C;" d="M128.494,298.311c-0.816,0-1.643-0.051-2.476-0.16c-10.483-1.354-17.886-10.951-16.531-21.437
	c8.374-64.833,40.066-124.52,89.235-168.066c49.605-43.931,113.454-68.125,179.779-68.125c13.754,0,27.572,1.04,41.075,3.091
	c10.452,1.589,17.636,11.346,16.051,21.796l-0.271,1.791c-0.307,2.031-0.942,4.001-1.876,5.832
	c-22.727,44.525-34.251,92.638-34.251,143.004c0,3.705,0.065,7.467,0.195,11.18c0.368,10.566-7.901,19.429-18.465,19.796
	c-0.226,0.009-0.453,0.013-0.677,0.013c-10.266,0-18.759-8.137-19.119-18.478c-0.145-4.155-0.218-8.363-0.218-12.511
	c0-47.768,9.251-93.741,27.536-137.018c-3.324-0.141-6.655-0.211-9.979-0.211c-56.967,0-111.8,20.776-154.397,58.503
	c-42.238,37.406-69.461,88.659-76.649,144.31C146.208,291.271,137.975,298.311,128.494,298.311z"/>
<circle style="fill:#FF6376;" cx="126.381" cy="391.199" r="120.803"/>
<circle style="fill:#3F4963;" cx="50.15" cy="371.083" r="15.497"/>
<path style="fill:#FF9596;" d="M66.728,420.332H33.571c-4.531,0-8.204-3.672-8.204-8.204c0-4.532,3.673-8.204,8.204-8.204h33.157
	c4.532,0,8.204,3.672,8.204,8.204C74.932,416.659,71.26,420.332,66.728,420.332z"/>
<circle style="fill:#3F4963;" cx="202.611" cy="371.083" r="15.497"/>
<path style="fill:#FF9596;" d="M219.19,420.332h-33.157c-4.532,0-8.204-3.672-8.204-8.204c0-4.532,3.672-8.204,8.204-8.204h33.157
	c4.532,0,8.204,3.672,8.204,8.204C227.394,416.659,223.721,420.332,219.19,420.332z"/>
<g>
	<path style="fill:#3F4963;" d="M110.975,407.148c-13.019,0-23.612-10.592-23.612-23.609c0-4.532,3.672-8.204,8.204-8.204
		s8.204,3.672,8.204,8.204c0,3.972,3.231,7.202,7.204,7.202c3.972,0,7.202-3.23,7.202-7.202c0-4.532,3.672-8.204,8.204-8.204
		s8.204,3.672,8.204,8.204C134.584,396.556,123.994,407.148,110.975,407.148z"/>
	<path style="fill:#3F4963;" d="M141.786,407.148c-13.018,0-23.609-10.592-23.609-23.609c0-4.532,3.672-8.204,8.204-8.204
		s8.204,3.672,8.204,8.204c0,3.972,3.23,7.202,7.202,7.202s7.202-3.23,7.202-7.202c0-4.532,3.672-8.204,8.204-8.204
		c4.532,0,8.204,3.672,8.204,8.204C165.395,396.556,154.805,407.148,141.786,407.148z"/>
</g>
<circle style="fill:#FF6376;" cx="385.62" cy="339.81" r="120.803"/>
<g>
	<path style="fill:#3F4963;" d="M370.214,355.765c-13.019,0-23.612-10.591-23.612-23.607c0-4.532,3.672-8.204,8.204-8.204
		s8.204,3.672,8.204,8.204c0,3.97,3.231,7.2,7.204,7.2c3.972,0,7.202-3.23,7.202-7.2c0-4.532,3.672-8.204,8.204-8.204
		s8.204,3.672,8.204,8.204C393.823,345.176,383.232,355.765,370.214,355.765z"/>
	<path style="fill:#3F4963;" d="M401.025,355.765c-13.018,0-23.609-10.591-23.609-23.607c0-4.532,3.672-8.204,8.204-8.204
		s8.204,3.672,8.204,8.204c0,3.97,3.23,7.2,7.202,7.2c3.972,0,7.202-3.23,7.202-7.2c0-4.532,3.672-8.204,8.204-8.204
		c4.531,0,8.204,3.672,8.204,8.204C424.634,345.176,414.044,355.765,401.025,355.765z"/>
</g>
<path style="fill:#FF9596;" d="M478.429,368.949H445.28c-4.532,0-8.204-3.673-8.204-8.204c0-4.532,3.672-8.204,8.204-8.204h33.149
	c4.532,0,8.204,3.672,8.204,8.204C486.633,365.276,482.96,368.949,478.429,368.949z"/>
<path style="fill:#3F4963;" d="M477.348,331.4c-4.532,0-8.204-3.672-8.204-8.204c0-4.02-3.269-7.289-7.289-7.289
	s-7.289,3.269-7.289,7.289c0,4.532-3.673,8.204-8.204,8.204c-4.532,0-8.204-3.672-8.204-8.204c0-13.066,10.631-23.697,23.697-23.697
	s23.697,10.631,23.697,23.697C485.552,327.727,481.879,331.4,477.348,331.4z"/>
<path style="fill:#FF9596;" d="M325.958,368.949H292.81c-4.532,0-8.204-3.673-8.204-8.204c0-4.532,3.672-8.204,8.204-8.204h33.149
	c4.532,0,8.204,3.672,8.204,8.204C334.162,365.276,330.49,368.949,325.958,368.949z"/>
<path style="fill:#3F4963;" d="M324.878,331.4c-4.532,0-8.204-3.672-8.204-8.204c0-4.02-3.27-7.289-7.289-7.289
	c-4.02,0-7.289,3.269-7.289,7.289c0,4.532-3.672,8.204-8.204,8.204c-4.532,0-8.204-3.672-8.204-8.204
	c0-13.066,10.631-23.697,23.697-23.697c13.066,0,23.697,10.631,23.697,23.697C333.081,327.727,329.408,331.4,324.878,331.4z"/>
<g>
	<path style="fill:#65F7C4;" d="M420.967,141.773c17.813,17.813,45.071,21.191,58.027,21.744c5.604,0.24,7.524-1.733,7.287-7.287
		c-0.551-12.958-3.929-40.216-21.742-58.029c-17.813-17.813-45.071-21.193-58.025-21.742c-5.561-0.24-7.531,1.686-7.294,7.287
		C399.776,96.701,403.155,123.96,420.967,141.773z"/>
	<path style="fill:#65F7C4;" d="M464.431,65.333c17.813-17.813,21.191-45.071,21.744-58.027c0.24-5.604-1.733-7.524-7.287-7.287
		c-12.958,0.551-40.216,3.929-58.029,21.742c-17.813,17.813-21.193,45.071-21.742,58.024c-0.24,5.561,1.686,7.531,7.287,7.294
		C419.36,86.524,446.618,83.144,464.431,65.333z"/>
</g>
<g>
</g>
<g>
</g>
<g>
</g>
<g>
</g>
<g>
</g>
<g>
</g>
<g>
</g>
<g>
</g>
<g>
</g>
<g>
</g>
<g>
</g>
<g>
</g>
<g>
</g>
<g>
</g>
<g>
</g>
</svg>
