<?xml version="1.0" encoding="iso-8859-1"?>
<!-- Generator: Adobe Illustrator 19.0.0, SVG Export Plug-In . SVG Version: 6.00 Build 0)  -->
<svg version="1.1" id="Layer_1" xmlns="http://www.w3.org/2000/svg" xmlns:xlink="http://www.w3.org/1999/xlink" x="0px" y="0px"
	 viewBox="0 0 511.999 511.999" style="enable-background:new 0 0 511.999 511.999;" xml:space="preserve">
<path style="fill:#C3DDF7;" d="M226.228,84.032V211.83h59.544V84.032c22.803-0.471,41.145-19.088,41.145-42.004
	C326.918,18.817,308.101,0,284.89,0c-11.194,0-21.358,4.387-28.89,11.522C248.467,4.387,238.305,0,227.109,0
	c-23.21,0-42.027,18.817-42.027,42.028C185.082,64.943,203.425,83.562,226.228,84.032z"/>
<path style="fill:#FDBA55;" d="M314.75,197.575c0-32.448-26.303-58.751-58.75-58.751s-58.751,26.303-58.751,58.751
	c0,77.075-69.026,81.882-69.026,186.648c0,70.568,57.206,127.775,127.775,127.775s127.775-57.208,127.775-127.775
	C383.775,279.458,314.75,274.651,314.75,197.575z"/>
<circle style="fill:#3F4963;" cx="183.961" cy="356.563" r="14.646"/>
<path style="fill:#FF6376;" d="M199.63,403.538h-31.335c-4.524,0-8.191-3.666-8.191-8.191s3.667-8.191,8.191-8.191h31.335
	c4.524,0,8.191,3.666,8.191,8.191S204.153,403.538,199.63,403.538z"/>
<circle style="fill:#3F4963;" cx="328.047" cy="356.563" r="14.646"/>
<path style="fill:#FF6376;" d="M343.713,403.538h-31.335c-4.524,0-8.191-3.666-8.191-8.191s3.667-8.191,8.191-8.191h31.335
	c4.524,0,8.191,3.666,8.191,8.191S348.236,403.538,343.713,403.538z"/>
<g>
	<path style="fill:#3F4963;" d="M241.444,391.079c-12.544,0-22.75-10.206-22.75-22.749c0-4.525,3.667-8.191,8.191-8.191
		c4.524,0,8.191,3.666,8.191,8.191c0,3.511,2.857,6.367,6.368,6.367c3.511,0,6.368-2.856,6.368-6.367
		c0-4.525,3.667-8.191,8.191-8.191s8.191,3.666,8.191,8.191C264.195,380.873,253.989,391.079,241.444,391.079z"/>
	<path style="fill:#3F4963;" d="M270.563,391.079c-12.544,0-22.75-10.206-22.75-22.749c0-4.525,3.667-8.191,8.191-8.191
		s8.191,3.666,8.191,8.191c0,3.511,2.857,6.367,6.368,6.367s6.368-2.856,6.368-6.367c0-4.525,3.667-8.191,8.191-8.191
		s8.191,3.666,8.191,8.191C293.314,380.873,283.108,391.079,270.563,391.079z"/>
</g>
<g>
	<path style="opacity:0.2;fill:#2F3953;enable-background:new    ;" d="M271.742,265.131c-3.118,0-6.097-1.79-7.467-4.815
		l-12.786-28.242c-1.865-4.121-0.037-8.974,4.084-10.84c4.122-1.87,8.975-0.038,10.841,4.084l12.786,28.242
		c1.865,4.121,0.037,8.974-4.084,10.84C274.02,264.896,272.872,265.131,271.742,265.131z"/>
	<path style="opacity:0.2;fill:#2F3953;enable-background:new    ;" d="M311.298,293.433c-3.118,0-6.097-1.79-7.467-4.814
		l-20.101-44.398c-1.865-4.121-0.037-8.975,4.084-10.841c4.121-1.869,8.974-0.038,10.841,4.082l20.101,44.398
		c1.865,4.121,0.037,8.975-4.084,10.841C313.576,293.198,312.427,293.433,311.298,293.433z"/>
</g>
<g>
</g>
<g>
</g>
<g>
</g>
<g>
</g>
<g>
</g>
<g>
</g>
<g>
</g>
<g>
</g>
<g>
</g>
<g>
</g>
<g>
</g>
<g>
</g>
<g>
</g>
<g>
</g>
<g>
</g>
</svg>
