<?xml version="1.0" encoding="iso-8859-1"?>
<!-- Generator: Adobe Illustrator 19.0.0, SVG Export Plug-In . SVG Version: 6.00 Build 0)  -->
<svg version="1.1" id="Layer_1" xmlns="http://www.w3.org/2000/svg" xmlns:xlink="http://www.w3.org/1999/xlink" x="0px" y="0px"
	 viewBox="0 0 512 512" style="enable-background:new 0 0 512 512;" xml:space="preserve">
<path style="fill:#FDBA55;" d="M121.279,300.875c-19.399,17.449-37.54,34.522-50.896,57.229c-3.711,6.312-7.068,12.833-10.1,19.498
	c-2.339,5.137-4.565,10.325-6.754,15.531c-5.756,13.703-21.532,20.143-35.234,14.387c-10.202-4.288-16.371-14.147-16.487-24.547
	c-0.221-19.731,0.786-39.707,4.161-59.172c5.266-30.369,17.621-58.71,30.801-86.358c12.812-26.87,44.977-38.265,71.846-25.457
	s38.265,44.976,25.456,71.845C130.928,290.429,126.397,296.273,121.279,300.875z"/>
<path style="fill:#CF9945;" d="M197.177,259.448c-0.582-1.196-22.937,9.591-24.97,10.546c-2.235,1.052-4.557,2.051-6.686,3.305
	c-0.786,0.461-1.581,0.93-2.386,1.401c-11.466,6.731-22.103,14.316-31.934,23.295c-8.506,7.767-16.059,16.545-22.851,25.845
	c-3.754,5.14-7.081,10.543-10.609,15.83c-2.521,3.759-5.081,3.862-8.566,2.332c-16.7-7.344-68.621-30.174-85.63-37.648
	c-3.419-1.505-4.443-5.396-2.732-9.478c2.546-6.075,6.019-14.009,6.472-14.996c4.2-9.136,8.84-18.069,13.982-26.714
	c11.587-19.483,25.628-37.839,41.298-54.208c11.736-12.264,24.427-23.648,38.111-33.699c12.672-9.309,26.169-17.31,39.804-25.101
	C140.48,140.157,197.045,259.171,197.177,259.448z"/>
<path style="fill:#FDBA55;" d="M390.721,300.875c19.399,17.449,37.54,34.522,50.896,57.229c3.711,6.312,7.068,12.833,10.1,19.498
	c2.339,5.137,4.565,10.325,6.754,15.531c5.757,13.703,21.532,20.143,35.234,14.387c10.202-4.288,16.371-14.147,16.487-24.547
	c0.221-19.731-0.786-39.707-4.161-59.172c-5.266-30.369-17.621-58.71-30.801-86.358c-12.81-26.87-44.976-38.265-71.846-25.457
	c-26.869,12.808-38.265,44.976-25.456,71.845C381.073,290.429,385.604,296.273,390.721,300.875z"/>
<path style="fill:#CF9945;" d="M314.823,259.448c0.582-1.196,22.937,9.591,24.97,10.546c2.235,1.052,4.557,2.051,6.686,3.305
	c0.786,0.461,1.581,0.93,2.386,1.401c11.466,6.731,22.104,14.316,31.934,23.295c8.506,7.767,16.059,16.545,22.851,25.845
	c3.754,5.14,7.081,10.543,10.609,15.83c2.521,3.759,5.081,3.862,8.566,2.332c16.7-7.344,68.621-30.174,85.63-37.648
	c3.419-1.505,4.443-5.396,2.732-9.478c-2.546-6.075-6.018-14.009-6.472-14.996c-4.201-9.136-8.84-18.069-13.982-26.714
	c-11.587-19.483-25.63-37.839-41.298-54.208c-11.736-12.264-24.427-23.648-38.111-33.699c-12.672-9.309-26.169-17.31-39.805-25.101
	C371.519,140.157,314.955,259.171,314.823,259.448z"/>
<path style="fill:#FDBA55;" d="M256,275.387c8.2,0.022,16.35,0.701,24.505,1.639c18.514,2.133,36.714,7.068,53.796,14.512
	c0.83,0.36,4.731,2.321,9.07,4.492c7.189,3.597,15.969,3.559,21.469-3.374c19.044-24.003,67.272-84.784,83.99-105.854
	c3.662-4.616,0.062-12.454-2.872-14.941c-7.179-6.085-14.597-11.857-22.286-17.334c-6.114-4.351-12.644-8.319-19.124-12.095
	c-24.303-14.168-50.967-24.867-78.243-31.704c-22.2-5.561-50.027-8.355-70.304-8.355s-48.105,2.795-70.304,8.355
	c-27.276,6.837-53.939,17.537-78.243,31.704c-6.479,3.776-13.01,7.744-19.124,12.095c-7.689,5.477-15.107,11.249-22.286,17.334
	c-2.935,2.485-6.533,10.325-2.872,14.941c16.717,21.07,64.945,81.852,83.99,105.854c5.5,6.933,14.28,6.971,21.469,3.374
	c4.338-2.171,8.24-4.132,9.07-4.492c17.082-7.444,35.282-12.379,53.796-14.512C239.65,276.087,247.8,275.407,256,275.387z"/>
<g>
	<path style="fill:#3F4963;" d="M240.621,220.455c-12.996,0-23.57-10.572-23.57-23.566c0-4.524,3.667-8.189,8.189-8.189
		s8.189,3.666,8.189,8.189c0,3.963,3.227,7.187,7.191,7.187c3.964,0,7.189-3.224,7.189-7.187c0-4.524,3.667-8.189,8.189-8.189
		c4.523,0,8.189,3.666,8.189,8.189C264.189,209.883,253.616,220.455,240.621,220.455z"/>
	<path style="fill:#3F4963;" d="M271.379,220.455c-12.995,0-23.568-10.572-23.568-23.566c0-4.524,3.667-8.189,8.189-8.189
		c4.523,0,8.189,3.666,8.189,8.189c0,3.963,3.226,7.187,7.189,7.187s7.189-3.224,7.189-7.187c0-4.524,3.667-8.189,8.189-8.189
		c4.523,0,8.189,3.666,8.189,8.189C294.947,209.883,284.374,220.455,271.379,220.455z"/>
</g>
<path style="fill:#FF6376;" d="M348.647,233.616h-33.091c-4.523,0-8.189-3.666-8.189-8.189c0-4.524,3.667-8.189,8.189-8.189h33.091
	c4.523,0,8.189,3.666,8.189,8.189C356.837,229.951,353.17,233.616,348.647,233.616z"/>
<path style="fill:#3F4963;" d="M347.568,196.133c-4.523,0-8.189-3.667-8.189-8.189c0-4.013-3.264-7.277-7.277-7.277
	c-4.013,0-7.277,3.264-7.277,7.277c0,4.523-3.667,8.189-8.189,8.189c-4.523,0-8.189-3.667-8.189-8.189
	c0-13.043,10.611-23.655,23.655-23.655c13.044,0,23.655,10.612,23.655,23.655C355.757,192.466,352.091,196.133,347.568,196.133z"/>
<path style="fill:#FF6376;" d="M196.443,233.616h-33.091c-4.523,0-8.189-3.666-8.189-8.189c0-4.524,3.667-8.189,8.189-8.189h33.091
	c4.523,0,8.189,3.666,8.189,8.189C204.633,229.951,200.966,233.616,196.443,233.616z"/>
<g>
	<path style="fill:#3F4963;" d="M195.365,196.133c-4.523,0-8.189-3.667-8.189-8.189c0-4.013-3.264-7.277-7.277-7.277
		s-7.277,3.264-7.277,7.277c0,4.523-3.667,8.189-8.189,8.189c-4.523,0-8.189-3.667-8.189-8.189
		c0-13.043,10.611-23.655,23.655-23.655s23.655,10.612,23.655,23.655C203.554,192.466,199.887,196.133,195.365,196.133z"/>
	<circle style="opacity:0.2;fill:#3F4963;enable-background:new    ;" cx="476.962" cy="358.401" r="15.47"/>
	<circle style="opacity:0.2;fill:#3F4963;enable-background:new    ;" cx="425.031" cy="283.834" r="15.47"/>
	<circle style="opacity:0.2;fill:#3F4963;enable-background:new    ;" cx="61.617" cy="271.473" r="15.47"/>
</g>
<g>
</g>
<g>
</g>
<g>
</g>
<g>
</g>
<g>
</g>
<g>
</g>
<g>
</g>
<g>
</g>
<g>
</g>
<g>
</g>
<g>
</g>
<g>
</g>
<g>
</g>
<g>
</g>
<g>
</g>
</svg>
