<?xml version="1.0" encoding="iso-8859-1"?>
<!-- Generator: Adobe Illustrator 19.0.0, SVG Export Plug-In . SVG Version: 6.00 Build 0)  -->
<svg version="1.1" id="Layer_1" xmlns="http://www.w3.org/2000/svg" xmlns:xlink="http://www.w3.org/1999/xlink" x="0px" y="0px"
	 viewBox="0 0 512.001 512.001" style="enable-background:new 0 0 512.001 512.001;" xml:space="preserve">
<path style="fill:#8162D7;" d="M116.285,215.048C267.918,138.194,289.477,44.556,355.473,44.556
	c36.448,0,65.994,29.547,65.994,65.994c0,102.142-17.273,401.45-233.28,401.45c-86.8,0-157.165-70.365-157.165-157.166
	c0-61.13,34.9-114.108,85.861-140.096L116.285,215.048z"/>
<circle style="fill:#3F4963;" cx="134.985" cy="323.56" r="15.597"/>
<path style="fill:#FF9596;" d="M151.667,373.115h-33.37c-4.56,0-8.256-3.697-8.256-8.256c0-4.56,3.697-8.256,8.256-8.256h33.37
	c4.56,0,8.256,3.697,8.256,8.256C159.924,369.419,156.227,373.115,151.667,373.115z"/>
<circle style="fill:#3F4963;" cx="288.42" cy="323.56" r="15.597"/>
<path style="fill:#FF9596;" d="M305.106,373.115h-33.37c-4.561,0-8.256-3.697-8.256-8.256c0-4.56,3.695-8.256,8.256-8.256h33.37
	c4.561,0,8.256,3.697,8.256,8.256C313.362,369.419,309.666,373.115,305.106,373.115z"/>
<g>
	<path style="fill:#3F4963;" d="M196.197,359.847c-13.102,0-23.762-10.658-23.762-23.761c0-4.56,3.697-8.256,8.256-8.256
		s8.256,3.697,8.256,8.256c0,3.996,3.252,7.248,7.249,7.248c3.997,0,7.249-3.251,7.249-7.248c0-4.56,3.697-8.256,8.256-8.256
		c4.56,0,8.256,3.697,8.256,8.256C219.958,349.189,209.299,359.847,196.197,359.847z"/>
	<path style="fill:#3F4963;" d="M227.207,359.847c-13.102,0-23.762-10.658-23.762-23.761c0-4.56,3.697-8.256,8.256-8.256
		c4.56,0,8.256,3.697,8.256,8.256c0,3.996,3.252,7.248,7.249,7.248c3.996,0,7.248-3.251,7.248-7.248c0-4.56,3.697-8.256,8.256-8.256
		c4.56,0,8.256,3.697,8.256,8.256C250.968,349.189,240.308,359.847,227.207,359.847z"/>
</g>
<path style="fill:#65F7C4;" d="M480.959,138.135c-0.585-13.701-4.157-42.52-22.992-61.353
	c-18.834-18.836-47.654-22.409-61.353-22.992c-2.805-0.12-6.93-2.223-9.215-4.322c-10.1-9.272-33.005-27.125-59.644-27.127
	c-26.637,0.001-49.541,17.855-59.642,27.127c-4.369,4.011-4.334,6.922,0,10.899c8.449,7.757,25.854,21.507,46.908,25.802
	c-11.962,17.959-14.562,40.111-15.053,51.61c-0.253,5.926,1.831,7.959,7.708,7.708c11.459-0.49,33.491-3.075,51.413-14.926
	c4.242,21.157,18.066,38.66,25.851,47.138c4.01,4.369,6.922,4.333,10.901,0c7.755-8.449,21.505-25.854,25.799-46.908
	c17.959,11.961,40.11,14.561,51.611,15.053C479.176,146.096,481.21,144.013,480.959,138.135z"/>
<path style="fill:#46C79C;" d="M390.388,77.448c-5.86,0-11.722-2.236-16.193-6.709c-8.944-8.944-8.947-23.446-0.002-32.39
	l31.642-31.641c8.944-8.944,23.445-8.944,32.389,0s8.947,23.446,0.002,32.39L406.584,70.74
	C402.113,75.212,396.251,77.448,390.388,77.448z"/>
<g>
</g>
<g>
</g>
<g>
</g>
<g>
</g>
<g>
</g>
<g>
</g>
<g>
</g>
<g>
</g>
<g>
</g>
<g>
</g>
<g>
</g>
<g>
</g>
<g>
</g>
<g>
</g>
<g>
</g>
</svg>
