<?xml version="1.0" encoding="iso-8859-1"?>
<!-- Generator: Adobe Illustrator 19.0.0, SVG Export Plug-In . SVG Version: 6.00 Build 0)  -->
<svg version="1.1" id="Layer_1" xmlns="http://www.w3.org/2000/svg" xmlns:xlink="http://www.w3.org/1999/xlink" x="0px" y="0px"
	 viewBox="0 0 512.001 512.001" style="enable-background:new 0 0 512.001 512.001;" xml:space="preserve">
<rect x="135.858" y="0" style="fill:#FF6376;" width="233.301" height="511.999"/>
<g>
	<path style="fill:#FF9596;" d="M420.098,204.8c24.477-28.158,24.477-74.239,0-102.401c-19.262-22.156-23.37-55.411-12.315-82.3
		C415.968,0.181,401.191,0,390.64,0h-60.895c-24.481,28.159-24.481,74.243,0,102.399c24.478,28.162,24.478,74.243,0,102.401
		c-24.481,28.159-24.481,74.243,0,102.402c24.478,28.158,24.478,74.241,0,102.401c-24.481,28.158-24.481,74.239,0,102.399h71.919
		c7.065,0,15.347-2.007,9.361-13.212c-14.898-27.883-11.872-65.094,9.074-89.187c24.477-28.159,24.477-74.243,0-102.401
		C395.617,279.041,395.617,232.959,420.098,204.8z"/>
	<path style="fill:#FF9596;" d="M182.259,204.8c24.477-28.158,24.477-74.239,0-102.401c-24.481-28.156-24.481-74.239,0-102.399
		h-75.962C95.557,0,89.42,1.314,83.388,12.192c-15.524,27.987-12.686,65.82,8.517,90.207c24.478,28.162,24.478,74.243,0,102.401
		c-24.48,28.159-24.48,74.243,0,102.402c24.478,28.158,24.478,74.241,0,102.401c-21.216,24.406-24.045,62.273-8.487,90.267
		c6.176,11.111,14.117,12.132,23.822,12.132h75.018c-24.481-28.16-24.481-74.24,0-102.399c24.477-28.159,24.477-74.243,0-102.401
		C157.778,279.041,157.778,232.959,182.259,204.8z"/>
</g>
<g>
	<circle style="fill:#3F4963;" cx="147.579" cy="132.928" r="15.661"/>
	<circle style="fill:#3F4963;" cx="389.327" cy="132.928" r="15.661"/>
</g>
<g>
	<path style="fill:#FF6376;" d="M164.332,187.341h-33.511c-4.599,0-8.325-3.726-8.325-8.325s3.726-8.325,8.325-8.325h33.511
		c4.599,0,8.325,3.726,8.325,8.325C172.657,183.615,168.93,187.341,164.332,187.341z"/>
	<path style="fill:#FF6376;" d="M406.081,187.341H372.57c-4.599,0-8.325-3.726-8.325-8.325s3.726-8.325,8.325-8.325h33.511
		c4.599,0,8.325,3.726,8.325,8.325C414.405,183.615,410.679,187.341,406.081,187.341z"/>
</g>
<g>
	<path style="fill:#3F4963;" d="M248.839,176.518c-15.404,0-27.936-12.531-27.936-27.935c0-4.599,3.726-8.325,8.325-8.325
		c4.599,0,8.325,3.726,8.325,8.325c0,6.223,5.063,11.286,11.287,11.286c6.223,0,11.287-5.063,11.287-11.286
		c0-4.599,3.726-8.325,8.325-8.325s8.325,3.726,8.325,8.325C276.776,163.987,264.243,176.518,248.839,176.518z"/>
	<path style="fill:#3F4963;" d="M288.062,176.518c-15.404,0-27.935-12.531-27.935-27.935c0-4.599,3.726-8.325,8.325-8.325
		s8.325,3.726,8.325,8.325c0,6.223,5.064,11.286,11.286,11.286c6.223,0,11.287-5.063,11.287-11.286c0-4.599,3.726-8.325,8.325-8.325
		s8.325,3.726,8.325,8.325C315.998,163.987,303.466,176.518,288.062,176.518z"/>
</g>
<g>
</g>
<g>
</g>
<g>
</g>
<g>
</g>
<g>
</g>
<g>
</g>
<g>
</g>
<g>
</g>
<g>
</g>
<g>
</g>
<g>
</g>
<g>
</g>
<g>
</g>
<g>
</g>
<g>
</g>
</svg>
