<?xml version="1.0" encoding="iso-8859-1"?>
<!-- Generator: Adobe Illustrator 19.0.0, SVG Export Plug-In . SVG Version: 6.00 Build 0)  -->
<svg version="1.1" id="Layer_1" xmlns="http://www.w3.org/2000/svg" xmlns:xlink="http://www.w3.org/1999/xlink" x="0px" y="0px"
	 viewBox="0 0 512.004 512.004" style="enable-background:new 0 0 512.004 512.004;" xml:space="preserve">
<circle style="fill:#FFD553;" cx="256.002" cy="256.002" r="256.002"/>
<circle style="opacity:0.7;fill:#FFB446;enable-background:new    ;" cx="256.002" cy="256.002" r="199.463"/>
<path style="fill:#FDBA55;" d="M0,256c0,141.385,114.615,256,256,256s256-114.615,256-256H0z"/>
<g>
	<circle style="fill:#CF9945;" cx="108.124" cy="392.54" r="15.055"/>
	<circle style="fill:#CF9945;" cx="248.696" cy="461.629" r="15.055"/>
	<circle style="fill:#CF9945;" cx="448.813" cy="338.672" r="15.055"/>
	<circle style="fill:#CF9945;" cx="378.017" cy="384.003" r="15.055"/>
	<circle style="fill:#CF9945;" cx="223.73" cy="309.881" r="15.055"/>
	<circle style="fill:#CF9945;" cx="185.295" cy="414.113" r="15.055"/>
	<circle style="fill:#CF9945;" cx="342.829" cy="444.223" r="15.055"/>
	<circle style="fill:#CF9945;" cx="278.806" cy="384.003" r="15.055"/>
	<circle style="fill:#CF9945;" cx="154.63" cy="338.672" r="15.055"/>
	<circle style="fill:#CF9945;" cx="347.907" cy="309.881" r="15.055"/>
	<circle style="fill:#CF9945;" cx="61.66" cy="309.881" r="15.055"/>
</g>
<circle style="fill:#3F4963;" cx="178.743" cy="177.756" r="15.707"/>
<path style="fill:#FF6376;" d="M195.541,227.665h-33.606c-4.593,0-8.315-3.722-8.315-8.315c0-4.593,3.722-8.315,8.315-8.315h33.606
	c4.593,0,8.315,3.722,8.315,8.315C203.856,223.943,200.133,227.665,195.541,227.665z"/>
<circle style="fill:#3F4963;" cx="333.262" cy="177.756" r="15.707"/>
<path style="fill:#FF6376;" d="M350.064,227.665h-33.606c-4.593,0-8.315-3.722-8.315-8.315c0-4.593,3.722-8.315,8.315-8.315h33.606
	c4.593,0,8.315,3.722,8.315,8.315C358.379,223.943,354.656,227.665,350.064,227.665z"/>
<g>
	<path style="fill:#3F4963;" d="M240.386,214.304c-13.195,0-23.93-10.735-23.93-23.928c0-4.593,3.722-8.315,8.315-8.315
		c4.593,0,8.315,3.722,8.315,8.315c0,4.025,3.275,7.299,7.3,7.299c4.025,0,7.299-3.274,7.299-7.299c0-4.593,3.722-8.315,8.315-8.315
		s8.315,3.722,8.315,8.315C264.315,203.569,253.58,214.304,240.386,214.304z"/>
	<path style="fill:#3F4963;" d="M271.615,214.304c-13.195,0-23.93-10.735-23.93-23.928c0-4.593,3.722-8.315,8.315-8.315
		s8.315,3.722,8.315,8.315c0,4.025,3.275,7.299,7.3,7.299c4.025,0,7.299-3.274,7.299-7.299c0-4.593,3.722-8.315,8.315-8.315
		s8.315,3.722,8.315,8.315C295.543,203.569,284.809,214.304,271.615,214.304z"/>
</g>
<g>
	<path style="fill:#FBD151;" d="M243.805,154.377c-4.593,0-8.315-3.722-8.315-8.315v-14.412c0-4.593,3.722-8.315,8.315-8.315
		s8.315,3.722,8.315,8.315v14.412C252.12,150.656,248.398,154.377,243.805,154.377z"/>
	<path style="fill:#FBD151;" d="M279.281,130.726c-4.593,0-8.315-3.722-8.315-8.315v-14.412c0-4.593,3.722-8.315,8.315-8.315
		s8.315,3.722,8.315,8.315v14.412C287.596,127.004,283.874,130.726,279.281,130.726z"/>
	<path style="fill:#FBD151;" d="M161.936,147.171c-4.593,0-8.315-3.722-8.315-8.315v-14.412c0-4.593,3.722-8.315,8.315-8.315
		s8.315,3.722,8.315,8.315v14.412C170.251,143.45,166.529,147.171,161.936,147.171z"/>
	<path style="fill:#FBD151;" d="M126.51,181.083c-4.593,0-8.315-3.722-8.315-8.315v-14.412c0-4.593,3.722-8.315,8.315-8.315
		c4.592,0,8.315,3.722,8.315,8.315v14.412C134.825,177.36,131.103,181.083,126.51,181.083z"/>
	<path style="fill:#FBD151;" d="M108.129,226.826c-4.593,0-8.315-3.722-8.315-8.315v-14.412c0-4.593,3.722-8.315,8.315-8.315
		s8.315,3.722,8.315,8.315v14.412C116.444,223.103,112.722,226.826,108.129,226.826z"/>
	<path style="fill:#FBD151;" d="M204.634,123.52c-4.593,0-8.315-3.722-8.315-8.315v-14.412c0-4.593,3.722-8.315,8.315-8.315
		c4.593,0,8.315,3.722,8.315,8.315v14.412C212.949,119.798,209.227,123.52,204.634,123.52z"/>
	<path style="fill:#FBD151;" d="M311.8,123.52c-4.593,0-8.315-3.722-8.315-8.315v-14.412c0-4.593,3.722-8.315,8.315-8.315
		s8.315,3.722,8.315,8.315v14.412C320.115,119.798,316.393,123.52,311.8,123.52z"/>
	<path style="fill:#FBD151;" d="M347.902,147.171c-4.593,0-8.315-3.722-8.315-8.315v-14.412c0-4.593,3.722-8.315,8.315-8.315
		c4.593,0,8.315,3.722,8.315,8.315v14.412C356.217,143.45,352.495,147.171,347.902,147.171z"/>
	<path style="fill:#FBD151;" d="M378.013,186.072c-4.593,0-8.315-3.722-8.315-8.315v-14.412c0-4.593,3.722-8.315,8.315-8.315
		c4.593,0,8.315,3.722,8.315,8.315v14.412C386.328,182.349,382.605,186.072,378.013,186.072z"/>
	<path style="fill:#FBD151;" d="M404.555,226.826c-4.593,0-8.315-3.722-8.315-8.315v-14.412c0-4.593,3.722-8.315,8.315-8.315
		c4.593,0,8.315,3.722,8.315,8.315v14.412C412.87,223.103,409.148,226.826,404.555,226.826z"/>
</g>
<g>
</g>
<g>
</g>
<g>
</g>
<g>
</g>
<g>
</g>
<g>
</g>
<g>
</g>
<g>
</g>
<g>
</g>
<g>
</g>
<g>
</g>
<g>
</g>
<g>
</g>
<g>
</g>
<g>
</g>
</svg>
