<?xml version="1.0" encoding="iso-8859-1"?>
<!-- Generator: Adobe Illustrator 19.0.0, SVG Export Plug-In . SVG Version: 6.00 Build 0)  -->
<svg version="1.1" id="Layer_1" xmlns="http://www.w3.org/2000/svg" xmlns:xlink="http://www.w3.org/1999/xlink" x="0px" y="0px"
	 viewBox="0 0 512 512" style="enable-background:new 0 0 512 512;" xml:space="preserve">
<path style="fill:#C3DDF7;" d="M512,317.985c0-141.385-114.615-256.001-256.001-256.001S0,176.601,0,317.985
	s114.615,131.897,256.001,131.897S512,459.37,512,317.985z"/>
<g>
	<path style="fill:#3F4963;" d="M352.178,314.953H159.822c-12.263,0-22.296,10.033-22.296,22.296v110.797
		c35.428,2.699,75.722,1.837,118.473,1.837c42.752,0,83.046,0.861,118.473-1.837V337.249
		C374.473,324.986,364.44,314.953,352.178,314.953z"/>
	<circle style="fill:#3F4963;" cx="139.18" cy="232.977" r="15.139"/>
	<circle style="fill:#3F4963;" cx="372.826" cy="232.977" r="15.139"/>
</g>
<g>
	<path style="fill:#FF9596;" d="M155.371,285.881h-32.389c-4.617,0-8.361-3.743-8.361-8.361s3.743-8.361,8.361-8.361h32.39
		c4.617,0,8.361,3.743,8.361,8.361C163.732,282.138,159.989,285.881,155.371,285.881z"/>
	<path style="fill:#FF9596;" d="M389.027,285.881h-32.39c-4.619,0-8.361-3.743-8.361-8.361s3.742-8.361,8.361-8.361h32.39
		c4.619,0,8.361,3.743,8.361,8.361S393.644,285.881,389.027,285.881z"/>
</g>
<g>
	<path style="fill:#3F4963;" d="M237.049,275.42c-15.062,0-27.315-12.254-27.315-27.314c0-4.617,3.743-8.361,8.361-8.361
		c4.617,0,8.361,3.743,8.361,8.361c0,5.841,4.752,10.593,10.594,10.593s10.595-4.752,10.595-10.593c0-4.617,3.743-8.361,8.361-8.361
		c4.618,0,8.361,3.743,8.361,8.361C264.365,263.167,252.111,275.42,237.049,275.42z"/>
	<path style="fill:#3F4963;" d="M274.958,275.42c-15.062,0-27.315-12.254-27.315-27.314c0-4.617,3.743-8.361,8.361-8.361
		c4.619,0,8.361,3.743,8.361,8.361c0,5.841,4.752,10.593,10.594,10.593c5.841,0,10.594-4.752,10.594-10.593
		c0-4.617,3.742-8.361,8.361-8.361c4.617,0,8.361,3.743,8.361,8.361C302.274,263.167,290.02,275.42,274.958,275.42z"/>
</g>
<g style="opacity:0.2;">
	<path style="fill:#2F3953;" d="M412.866,196.244c-2.139,0-4.28-0.816-5.913-2.449c-3.265-3.265-3.265-8.559,0-11.823l12.666-12.666
		c3.266-3.265,8.559-3.265,11.824,0s3.265,8.559,0,11.823l-12.666,12.666C417.146,195.428,415.006,196.244,412.866,196.244z"/>
	<path style="fill:#2F3953;" d="M79.457,250.103c-2.139,0-4.28-0.817-5.912-2.449l-12.666-12.666c-3.265-3.265-3.265-8.559,0-11.823
		c3.265-3.265,8.559-3.265,11.823,0l12.666,12.666c3.265,3.265,3.265,8.559,0,11.824C83.736,249.286,81.597,250.103,79.457,250.103z
		"/>
	<path style="fill:#2F3953;" d="M43.888,331.551c-2.139,0-4.28-0.816-5.912-2.449c-3.265-3.265-3.265-8.559,0-11.824l22.903-22.903
		c3.265-3.265,8.559-3.265,11.823,0c3.265,3.265,3.265,8.559,0,11.823l-22.903,22.903C48.167,330.735,46.028,331.551,43.888,331.551
		z"/>
	<path style="fill:#2F3953;" d="M181.867,154.79c-2.139,0-4.28-0.816-5.912-2.449l-22.903-22.903c-3.265-3.265-3.265-8.559,0-11.823
		c3.265-3.265,8.559-3.265,11.823,0l22.903,22.903c3.265,3.265,3.265,8.559,0,11.823C186.145,153.974,184.006,154.79,181.867,154.79
		z"/>
	<path style="fill:#2F3953;" d="M438.987,273.005c-2.139,0-4.28-0.816-5.913-2.449c-3.265-3.265-3.265-8.559,0-11.823l22.903-22.903
		c3.266-3.265,8.559-3.265,11.824,0s3.265,8.559,0,11.824l-22.903,22.903C443.266,272.189,441.126,273.005,438.987,273.005z"/>
	<path style="fill:#2F3953;" d="M473.342,354.454c-2.139,0-4.28-0.817-5.913-2.449l-22.903-22.903
		c-3.265-3.265-3.265-8.559,0-11.824c3.266-3.265,8.559-3.265,11.826,0l22.903,22.903c3.265,3.265,3.265,8.559,0,11.824
		C477.62,353.638,475.48,354.454,473.342,354.454z"/>
	<path style="fill:#2F3953;" d="M331.336,143.339c-2.14,0-4.28-0.816-5.913-2.449c-3.265-3.265-3.265-8.559,0.001-11.824
		l15.947-15.946c3.264-3.265,8.558-3.263,11.823,0.001c3.265,3.265,3.265,8.559-0.001,11.824l-15.947,15.946
		C335.616,142.522,333.475,143.339,331.336,143.339z"/>
	<path style="fill:#2F3953;" d="M314.177,192.62c-2.14,0-4.28-0.816-5.913-2.449l-15.945-15.947
		c-3.265-3.265-3.265-8.559,0.001-11.824c3.265-3.266,8.559-3.264,11.824,0.001l15.945,15.947c3.265,3.265,3.265,8.559-0.001,11.823
		C318.457,191.804,316.317,192.62,314.177,192.62z"/>
	<path style="fill:#2F3953;" d="M201.319,209.395c-2.139,0-4.28-0.816-5.912-2.449c-3.265-3.265-3.265-8.559,0-11.824l22.903-22.903
		c3.265-3.265,8.559-3.265,11.824,0s3.265,8.559,0,11.823l-22.903,22.903C205.598,208.579,203.459,209.395,201.319,209.395z"/>
	<path style="fill:#2F3953;" d="M90.909,402.296c-2.14,0-4.28-0.816-5.912-2.449l-22.903-22.903c-3.265-3.265-3.265-8.559,0-11.823
		c3.265-3.265,8.559-3.265,11.823,0l22.903,22.903c3.265,3.265,3.265,8.559,0,11.823C95.189,401.48,93.048,402.296,90.909,402.296z"
		/>
	<path style="fill:#2F3953;" d="M244.545,131.234c-2.139,0-4.28-0.816-5.912-2.449c-3.265-3.265-3.265-8.559,0-11.823l22.902-22.903
		c3.266-3.265,8.559-3.265,11.824,0c3.265,3.265,3.265,8.559,0,11.823l-22.903,22.903
		C248.825,130.416,246.686,131.234,244.545,131.234z"/>
	<path style="fill:#2F3953;" d="M98,185.353c-2.139,0-4.28-0.816-5.913-2.449c-3.265-3.265-3.264-8.559,0-11.824l17.358-17.357
		c3.265-3.265,8.559-3.265,11.824,0c3.265,3.265,3.264,8.559,0,11.824l-17.358,17.357C102.28,184.536,100.139,185.353,98,185.353z"
		/>
	<path style="fill:#2F3953;" d="M420.315,397.178c-2.139,0-4.28-0.816-5.913-2.449c-3.265-3.265-3.265-8.559,0-11.823l12.666-12.666
		c3.266-3.265,8.559-3.265,11.824,0s3.265,8.559,0,11.823l-12.666,12.666C424.595,396.361,422.454,397.178,420.315,397.178z"/>
</g>
<g>
</g>
<g>
</g>
<g>
</g>
<g>
</g>
<g>
</g>
<g>
</g>
<g>
</g>
<g>
</g>
<g>
</g>
<g>
</g>
<g>
</g>
<g>
</g>
<g>
</g>
<g>
</g>
<g>
</g>
</svg>
