<?xml version="1.0" encoding="iso-8859-1"?>
<!-- Generator: Adobe Illustrator 19.0.0, SVG Export Plug-In . SVG Version: 6.00 Build 0)  -->
<svg version="1.1" id="Layer_1" xmlns="http://www.w3.org/2000/svg" xmlns:xlink="http://www.w3.org/1999/xlink" x="0px" y="0px"
	 viewBox="0 0 511.999 511.999" style="enable-background:new 0 0 511.999 511.999;" xml:space="preserve">
<path style="fill:#FDBA55;" d="M331.093,418.987c-6.267-6.267-16.426-6.265-22.695,0c-5.196,5.197-12.107,8.06-19.456,8.06
	c-6.201,0-12.085-2.045-16.895-5.805v-38.175c0-8.862-7.184-16.048-16.047-16.048c-8.863,0-16.047,7.186-16.047,16.048v18.353
	c-10.785,8.405-26.438,7.661-36.351-2.253c-6.267-6.266-16.428-6.266-22.694,0c-6.267,6.267-6.267,16.429,0,22.695
	c11.62,11.621,26.885,17.431,42.15,17.431c5.686,0,11.372-0.808,16.869-2.421c-0.567,14.677-12.675,26.443-27.487,26.443
	c-8.862,0-16.047,7.185-16.047,16.047c0,8.862,7.185,16.048,16.047,16.048c9.921,0,19.276-2.449,27.515-6.757v7.296
	c0,8.861,7.185,16.047,16.047,16.047c8.863,0,16.047-7.186,16.047-16.047v-39.234c5.418,1.591,11.092,2.426,16.896,2.425
	c15.922,0,30.892-6.201,42.15-17.46C337.361,435.415,337.36,425.255,331.093,418.987z"/>
<path style="fill:#65F7C4;" d="M272.449,110.679c4.385-28.18,23.888-42.68,51.62-42.68c18.778,0,33.999-15.224,33.999-34
	C358.068,15.22,342.845,0,324.069,0c-42.401,0-68.069,39.183-68.069,109.258v9.741h15.753L272.449,110.679z"/>
<path style="fill:#46C79C;" d="M239.551,110.679c-4.385-28.18-23.888-42.68-51.621-42.68c-18.777,0-33.999-15.224-33.999-34
	C153.932,15.22,169.154,0,187.93,0c42.4,0,68.069,39.183,68.069,109.258v9.741h-15.753L239.551,110.679z"/>
<path style="fill:#FF6376;" d="M380.935,234.193c0-69.001-55.937-124.937-124.936-124.937c-69.002,0-124.936,55.936-124.936,124.937
	c0,34.512,13.993,65.754,36.615,88.364c28.491,28.492,72.273,53.359,72.273,70.588h32.096c0-17.228,43.781-42.094,72.273-70.588l0,0
	C366.943,299.948,380.935,268.705,380.935,234.193z"/>
<circle style="fill:#3F4963;" cx="179.461" cy="211.982" r="15.561"/>
<path style="fill:#FF9596;" d="M196.104,261.423h-33.293c-4.549,0-8.237-3.687-8.237-8.237s3.688-8.237,8.237-8.237h33.293
	c4.549,0,8.237,3.687,8.237,8.237C204.341,257.736,200.653,261.423,196.104,261.423z"/>
<circle style="fill:#3F4963;" cx="332.542" cy="211.982" r="15.561"/>
<path style="fill:#FF9596;" d="M349.188,261.423h-33.293c-4.55,0-8.237-3.687-8.237-8.237s3.687-8.237,8.237-8.237h33.293
	c4.55,0,8.237,3.687,8.237,8.237S353.737,261.423,349.188,261.423z"/>
<g>
	<path style="fill:#3F4963;" d="M240.531,248.187c-13.072,0-23.708-10.635-23.708-23.706c0-4.55,3.688-8.237,8.237-8.237
		s8.237,3.687,8.237,8.237c0,3.988,3.245,7.231,7.233,7.231c3.987,0,7.231-3.243,7.231-7.231c0-4.55,3.688-8.237,8.237-8.237
		c4.55,0,8.237,3.687,8.237,8.237C264.237,237.552,253.603,248.187,240.531,248.187z"/>
	<path style="fill:#3F4963;" d="M271.468,248.187c-13.071,0-23.706-10.635-23.706-23.706c0-4.55,3.688-8.237,8.237-8.237
		c4.55,0,8.237,3.687,8.237,8.237c0,3.988,3.243,7.231,7.231,7.231s7.231-3.243,7.231-7.231c0-4.55,3.687-8.237,8.237-8.237
		c4.549,0,8.237,3.687,8.237,8.237C295.173,237.552,284.54,248.187,271.468,248.187z"/>
</g>
<g>
</g>
<g>
</g>
<g>
</g>
<g>
</g>
<g>
</g>
<g>
</g>
<g>
</g>
<g>
</g>
<g>
</g>
<g>
</g>
<g>
</g>
<g>
</g>
<g>
</g>
<g>
</g>
<g>
</g>
</svg>
