<?xml version="1.0" encoding="iso-8859-1"?>
<!-- Generator: Adobe Illustrator 19.0.0, SVG Export Plug-In . SVG Version: 6.00 Build 0)  -->
<svg version="1.1" id="Layer_1" xmlns="http://www.w3.org/2000/svg" xmlns:xlink="http://www.w3.org/1999/xlink" x="0px" y="0px"
	 viewBox="0 0 512.001 512.001" style="enable-background:new 0 0 512.001 512.001;" xml:space="preserve">
<path style="fill:#866539;" d="M100.861,482.537c-30.984,0-56.191-25.208-56.191-56.192v-224.77C17.31,185.053,0,155.271,0,122.221
	c0-51.147,41.611-92.759,92.759-92.759h119.43c15.453,0,30.455,3.819,43.812,10.988c13.356-7.169,28.358-10.988,43.812-10.988
	h119.43c51.147,0,92.759,41.611,92.759,92.759c0,33.049-17.31,62.833-44.67,79.354v224.771c0,30.984-25.208,56.192-56.191,56.192
	H100.861V482.537z"/>
<path style="fill:#FDBA55;" d="M419.241,57.558h-119.43c-16.907,0-32.291,6.495-43.812,17.117
	c-11.522-10.621-26.905-17.117-43.812-17.117H92.759c-35.713,0-64.663,28.95-64.663,64.663c0,28.733,18.746,53.074,44.67,61.497
	v242.628c0,15.453,12.644,28.095,28.095,28.095h310.278c15.452,0,28.095-12.644,28.095-28.095V183.717
	c25.925-8.422,44.67-32.764,44.67-61.497C483.905,86.509,454.954,57.558,419.241,57.558z"/>
<g>
	<circle style="fill:#3F4963;" cx="141.628" cy="140.1" r="14.821"/>
	<circle style="fill:#3F4963;" cx="370.381" cy="140.1" r="14.821"/>
</g>
<g>
	<path style="fill:#FF6376;" d="M157.484,191.903h-31.71c-4.522,0-8.185-3.665-8.185-8.185s3.664-8.185,8.185-8.185h31.71
		c4.522,0,8.185,3.665,8.185,8.185S162.004,191.903,157.484,191.903z"/>
	<path style="fill:#FF6376;" d="M386.235,191.903h-31.71c-4.522,0-8.185-3.665-8.185-8.185s3.664-8.185,8.185-8.185h31.71
		c4.522,0,8.185,3.665,8.185,8.185S390.755,191.903,386.235,191.903z"/>
</g>
<g>
	<path style="fill:#3F4963;" d="M237.446,181.662c-14.746,0-26.742-11.996-26.742-26.741c0-4.52,3.664-8.185,8.185-8.185
		s8.185,3.665,8.185,8.185c0,5.719,4.653,10.37,10.371,10.37c5.719,0,10.372-4.653,10.372-10.37c0-4.52,3.664-8.185,8.185-8.185
		c4.522,0,8.185,3.665,8.185,8.185C264.189,169.666,252.193,181.662,237.446,181.662z"/>
	<path style="fill:#3F4963;" d="M274.561,181.662c-14.746,0-26.742-11.996-26.742-26.741c0-4.52,3.664-8.185,8.185-8.185
		c4.522,0,8.185,3.665,8.185,8.185c0,5.719,4.653,10.37,10.371,10.37c5.719,0,10.371-4.653,10.371-10.37
		c0-4.52,3.664-8.185,8.185-8.185c4.522,0,8.185,3.665,8.185,8.185C301.303,169.666,289.306,181.662,274.561,181.662z"/>
</g>
<g>
	<path style="fill:#FFD553;" d="M161.013,391.582c-6.367,6.366-16.784,6.366-23.151-0.001l-23.151-23.151
		c-6.367-6.367-6.367-16.785,0-23.151l92.532-92.532c6.366-6.366,16.784-6.366,23.151,0.001l23.151,23.151
		c6.367,6.367,6.366,16.785,0,23.151L161.013,391.582z"/>
	<path style="fill:#FFD553;" d="M304.757,391.582c-6.366,6.366-16.784,6.366-23.151-0.001l-23.151-23.151
		c-6.367-6.367-6.366-16.785,0-23.151l92.532-92.532c6.367-6.366,16.784-6.366,23.151,0.001l23.151,23.151
		c6.367,6.367,6.367,16.785,0,23.151L304.757,391.582z"/>
</g>
<g>
</g>
<g>
</g>
<g>
</g>
<g>
</g>
<g>
</g>
<g>
</g>
<g>
</g>
<g>
</g>
<g>
</g>
<g>
</g>
<g>
</g>
<g>
</g>
<g>
</g>
<g>
</g>
<g>
</g>
</svg>
