<?xml version="1.0" encoding="iso-8859-1"?>
<!-- Generator: Adobe Illustrator 19.0.0, SVG Export Plug-In . SVG Version: 6.00 Build 0)  -->
<svg version="1.1" id="Layer_1" xmlns="http://www.w3.org/2000/svg" xmlns:xlink="http://www.w3.org/1999/xlink" x="0px" y="0px"
	 viewBox="0 0 512.001 512.001" style="enable-background:new 0 0 512.001 512.001;" xml:space="preserve">
<path style="fill:#35A57D;" d="M257.118,109.652c-10.804,0-19.563-8.759-19.563-19.563C237.555,40.413,277.97,0,327.644,0
	c10.805,0,19.563,8.759,19.563,19.563s-8.758,19.562-19.563,19.562c-28.102,0-50.963,22.863-50.963,50.964
	C276.682,100.893,267.923,109.652,257.118,109.652z"/>
<g>
	<path style="fill:#46C79C;" d="M151.242,511.669c-61.559,0-114.677-46.181-121.888-108.809L5.78,198.08
		C-1.98,130.678,46.369,69.749,113.77,61.988c67.417-7.749,128.331,40.591,136.09,107.992l23.576,204.779
		c7.76,67.401-40.59,128.33-107.991,136.092C160.673,511.398,155.932,511.669,151.242,511.669z"/>
	<path style="fill:#46C79C;" d="M360.759,511.669c-4.69,0-9.43-0.269-14.202-0.817c-67.401-7.762-115.75-68.691-107.992-136.092
		l23.575-204.779c7.76-67.401,68.694-115.737,136.091-107.992c67.402,7.761,115.75,68.69,107.991,136.092L482.647,402.86
		C475.437,465.487,422.318,511.669,360.759,511.669z"/>
</g>
<path style="fill:#65F7C4;" d="M256.001,55.141c107.315,0,150.309,77.618,142.736,156.45l-18.031,187.684
	c-5.584,58.56-41.949,112.726-124.706,112.726s-119.122-54.166-124.706-112.726l-18.031-187.684
	C105.692,132.76,148.685,55.141,256.001,55.141z"/>
<circle style="fill:#3F4963;" cx="179.354" cy="350.295" r="15.581"/>
<path style="fill:#FF6376;" d="M196.027,399.803h-33.336c-4.555,0-8.248-3.692-8.248-8.248s3.693-8.248,8.248-8.248h33.336
	c4.555,0,8.248,3.692,8.248,8.248C204.275,396.11,200.582,399.803,196.027,399.803z"/>
<circle style="fill:#3F4963;" cx="332.645" cy="350.295" r="15.581"/>
<path style="fill:#FF6376;" d="M349.31,399.803h-33.336c-4.555,0-8.248-3.692-8.248-8.248s3.693-8.248,8.248-8.248h33.336
	c4.555,0,8.248,3.692,8.248,8.248C357.558,396.11,353.865,399.803,349.31,399.803z"/>
<g>
	<path style="fill:#3F4963;" d="M240.512,386.548c-13.089,0-23.739-10.649-23.739-23.736c0-4.556,3.693-8.248,8.248-8.248
		s8.248,3.692,8.248,8.248c0,3.993,3.25,7.241,7.243,7.241c3.992,0,7.241-3.247,7.241-7.241c0-4.556,3.693-8.248,8.248-8.248
		s8.248,3.692,8.248,8.248C264.248,375.901,253.601,386.548,240.512,386.548z"/>
	<path style="fill:#3F4963;" d="M271.489,386.548c-13.088,0-23.736-10.649-23.736-23.736c0-4.556,3.693-8.248,8.248-8.248
		s8.248,3.692,8.248,8.248c0,3.993,3.249,7.241,7.241,7.241c3.992,0,7.241-3.247,7.241-7.241c0-4.556,3.693-8.248,8.248-8.248
		s8.248,3.692,8.248,8.248C295.225,375.901,284.578,386.548,271.489,386.548z"/>
</g>
<g>
</g>
<g>
</g>
<g>
</g>
<g>
</g>
<g>
</g>
<g>
</g>
<g>
</g>
<g>
</g>
<g>
</g>
<g>
</g>
<g>
</g>
<g>
</g>
<g>
</g>
<g>
</g>
<g>
</g>
</svg>
