<?xml version="1.0" encoding="iso-8859-1"?>
<!-- Generator: Adobe Illustrator 19.0.0, SVG Export Plug-In . SVG Version: 6.00 Build 0)  -->
<svg version="1.1" id="Layer_1" xmlns="http://www.w3.org/2000/svg" xmlns:xlink="http://www.w3.org/1999/xlink" x="0px" y="0px"
	 viewBox="0 0 512 512" style="enable-background:new 0 0 512 512;" xml:space="preserve">
<path style="fill:#65F7C4;" d="M426.304,251.666h-58.767l-8.435-74.78c-0.522-4.637-2.436-8.958-5.276-12.557l-14.229,54.182
	c0,0-11.632,75.602-30.353,75.602c-18.72,0-30.958-80.567-30.958-80.567v-59.272h-44.576v59.272c0,0-12.238,80.567-30.958,80.567
	c-18.721,0-30.353-75.602-30.353-75.602l-14.227-54.176c-2.838,3.598-4.751,7.916-5.273,12.55l-8.436,74.78H85.695
	c23.139,15.184,51.637,63.184,48.657,89.687l-16.696,148.033c-1.403,12.436,7.69,22.613,20.207,22.613h236.283
	c12.517,0,21.608-10.177,20.206-22.613l-16.713-148.184C374.779,314.667,403.207,266.823,426.304,251.666z"/>
<path style="fill:#46C79C;" d="M384.465,32.323c-13.303,0-26.12,2.07-38.156,5.897C323.44,14.651,291.433,0,256,0
	s-67.44,14.651-90.309,38.22c-12.036-3.826-24.854-5.897-38.156-5.897c-69.497,0-125.834,56.338-125.834,125.833
	c0,69.496,56.337,125.834,125.834,125.834c35.433,0,67.44-14.651,90.31-38.219c12.035,3.825,24.853,5.897,38.155,5.897
	c13.303,0,26.12-2.071,38.157-5.897c22.868,23.566,54.874,38.219,90.308,38.219c69.497,0,125.834-56.338,125.834-125.834
	C510.298,88.661,453.962,32.323,384.465,32.323z"/>
<circle style="fill:#3F4963;" cx="179.092" cy="373.227" r="15.636"/>
<path style="fill:#FF6376;" d="M195.818,422.906h-33.453c-4.572,0-8.277-3.705-8.277-8.277c0-4.572,3.705-8.277,8.277-8.277h33.453
	c4.572,0,8.277,3.705,8.277,8.277C204.095,419.202,200.39,422.906,195.818,422.906z"/>
<circle style="fill:#3F4963;" cx="332.912" cy="373.227" r="15.636"/>
<path style="fill:#FF6376;" d="M349.641,422.906h-33.453c-4.572,0-8.277-3.705-8.277-8.277c0-4.572,3.705-8.277,8.277-8.277h33.453
	c4.572,0,8.277,3.705,8.277,8.277C357.918,419.202,354.213,422.906,349.641,422.906z"/>
<g>
	<path style="fill:#3F4963;" d="M240.46,409.605c-13.135,0-23.822-10.686-23.822-23.82c0-4.572,3.705-8.277,8.277-8.277
		c4.572,0,8.277,3.705,8.277,8.277c0,4.007,3.26,7.266,7.268,7.266c4.007,0,7.266-3.259,7.266-7.266
		c0-4.572,3.705-8.277,8.277-8.277c4.572,0,8.277,3.705,8.277,8.277C264.28,398.92,253.594,409.605,240.46,409.605z"/>
	<path style="fill:#3F4963;" d="M271.546,409.605c-13.134,0-23.82-10.686-23.82-23.82c0-4.572,3.705-8.277,8.277-8.277
		c4.572,0,8.277,3.705,8.277,8.277c0,4.007,3.259,7.266,7.266,7.266s7.266-3.259,7.266-7.266c0-4.572,3.705-8.277,8.277-8.277
		c4.571,0,8.277,3.705,8.277,8.277C295.367,398.92,284.68,409.605,271.546,409.605z"/>
</g>
<g>
	<circle style="fill:#35A57D;" cx="125.226" cy="141.448" r="15.636"/>
	<circle style="fill:#35A57D;" cx="186.586" cy="76.667" r="15.636"/>
	<circle style="fill:#35A57D;" cx="56.04" cy="123.57" r="15.636"/>
	<circle style="fill:#35A57D;" cx="274.311" cy="44.076" r="15.636"/>
	<circle style="fill:#35A57D;" cx="253.32" cy="123.57" r="15.636"/>
	<circle style="fill:#35A57D;" cx="233.323" cy="194.322" r="15.636"/>
	<circle style="fill:#35A57D;" cx="316.193" cy="157.086" r="15.636"/>
	<circle style="fill:#35A57D;" cx="404.536" cy="241.236" r="15.636"/>
	<circle style="fill:#35A57D;" cx="170.948" cy="212.807" r="15.636"/>
	<circle style="fill:#35A57D;" cx="464.77" cy="152.507" r="15.636"/>
	<circle style="fill:#35A57D;" cx="396.899" cy="141.448" r="15.636"/>
	<circle style="fill:#35A57D;" cx="433.505" cy="194.322" r="15.636"/>
	<circle style="fill:#35A57D;" cx="109.588" cy="231.127" r="15.636"/>
	<circle style="fill:#35A57D;" cx="186.586" cy="147.419" r="15.636"/>
	<circle style="fill:#35A57D;" cx="109.588" cy="82.947" r="15.636"/>
	<circle style="fill:#35A57D;" cx="302.729" cy="92.305" r="15.636"/>
	<circle style="fill:#35A57D;" cx="396.899" cy="76.667" r="15.636"/>
	<circle style="fill:#35A57D;" cx="349.643" cy="111" r="15.636"/>
	<circle style="fill:#35A57D;" cx="439.939" cy="107.932" r="15.636"/>
	<circle style="fill:#35A57D;" cx="355.69" cy="209.96" r="15.636"/>
	<circle style="fill:#35A57D;" cx="63.95" cy="185.239" r="15.636"/>
</g>
<path style="fill:#46C79C;" d="M165.588,480.657c-4.523-0.583-8.676,2.634-9.253,7.17l-3.064,24.172h16.686l2.8-22.091
	C173.333,485.375,170.122,481.232,165.588,480.657z M164.548,334.915c0.951,0,1.919-0.164,2.865-0.514
	c4.289-1.584,6.483-6.342,4.899-10.631l-9.232-25.015c-1.583-4.288-6.34-6.485-10.631-4.899c-4.289,1.584-6.483,6.342-4.899,10.631
	l9.232,25.015C158.016,332.845,161.18,334.915,164.548,334.915z M207.879,458.585c-4.523-0.58-8.677,2.634-9.253,7.17l-5.862,46.244
	h16.686l5.597-44.163C215.624,463.303,212.414,459.16,207.879,458.585z M327.257,458.585c-4.535,0.575-7.745,4.717-7.17,9.253
	L325.685,512h16.688l-5.863-46.244C335.934,461.22,331.797,458,327.257,458.585z M353.551,288.18
	c-3.644-2.761-8.834-2.047-11.597,1.595l-20.252,26.709c-2.761,3.643-2.047,8.834,1.595,11.597c1.495,1.133,3.251,1.681,4.994,1.681
	c2.502,0,4.974-1.129,6.602-3.277l20.252-26.709C357.908,296.134,357.194,290.942,353.551,288.18z M240.104,292.02
	c-4.571,0.07-8.219,3.833-8.149,8.403l0.298,19.346c0.071,4.527,3.761,8.15,8.274,8.15c0.043,0,0.086,0,0.129-0.001
	c4.571-0.071,8.219-3.833,8.149-8.403l-0.298-19.346C248.436,295.598,244.641,291.934,240.104,292.02z M266.303,263.742
	c-4.572,0-8.277,3.705-8.277,8.277v29.601c0,4.572,3.705,8.277,8.277,8.277c4.572,0,8.277-3.705,8.277-8.277v-29.601
	C274.58,267.448,270.874,263.742,266.303,263.742z"/>
<g>
</g>
<g>
</g>
<g>
</g>
<g>
</g>
<g>
</g>
<g>
</g>
<g>
</g>
<g>
</g>
<g>
</g>
<g>
</g>
<g>
</g>
<g>
</g>
<g>
</g>
<g>
</g>
<g>
</g>
</svg>
