<?xml version="1.0" encoding="iso-8859-1"?>
<!-- Generator: Adobe Illustrator 19.0.0, SVG Export Plug-In . SVG Version: 6.00 Build 0)  -->
<svg version="1.1" id="Layer_1" xmlns="http://www.w3.org/2000/svg" xmlns:xlink="http://www.w3.org/1999/xlink" x="0px" y="0px"
	 viewBox="0 0 512 512" style="enable-background:new 0 0 512 512;" xml:space="preserve">
<path style="fill:#65F7C4;" d="M273.989,121.041c4.797-30.818,26.124-46.677,56.453-46.677c20.534,0,37.182-16.648,37.182-37.182
	C367.624,16.647,350.976,0,330.442,0c-46.368,0-74.441,42.851-74.441,119.485v10.653h17.227L273.989,121.041z"/>
<path style="fill:#46C79C;" d="M238.012,121.041c-4.797-30.818-26.124-46.677-56.454-46.677c-20.534,0-37.182-16.648-37.182-37.182
	C144.376,16.647,161.024,0,181.558,0c46.368,0,74.441,42.851,74.441,119.485v10.653h-17.227L238.012,121.041z"/>
<path style="fill:#FFB446;" d="M256.001,119.485c-69.208,0-125.314,56.107-125.314,125.315c0,62.157,47.125,212.791,84.624,250.33
	c10.409,10.422,24.797,16.87,40.691,16.87c15.881,0,30.261-6.438,40.668-16.846h0.001c37.502-37.502,84.644-188.184,84.644-250.354
	C381.315,175.591,325.21,119.485,256.001,119.485z"/>
<circle style="fill:#3F4963;" cx="182.948" cy="226.035" r="14.851"/>
<path style="fill:#FF6376;" d="M198.839,273.568h-31.774c-4.53,0-8.202-3.672-8.202-8.202c0-4.53,3.672-8.202,8.202-8.202h31.774
	c4.53,0,8.202,3.672,8.202,8.202C207.041,269.895,203.369,273.568,198.839,273.568z"/>
<circle style="fill:#3F4963;" cx="329.053" cy="226.035" r="14.851"/>
<path style="fill:#FF6376;" d="M344.942,273.568h-31.774c-4.531,0-8.202-3.672-8.202-8.202c0-4.53,3.671-8.202,8.202-8.202h31.774
	c4.531,0,8.202,3.672,8.202,8.202C353.144,269.895,349.471,273.568,344.942,273.568z"/>
<g>
	<path style="fill:#3F4963;" d="M241.24,260.934c-12.664,0-22.966-10.302-22.966-22.964c0-4.53,3.672-8.202,8.202-8.202
		s8.202,3.672,8.202,8.202c0,3.618,2.943,6.56,6.562,6.56s6.562-2.943,6.562-6.56c0-4.53,3.672-8.202,8.202-8.202
		c4.531,0,8.202,3.672,8.202,8.202C264.206,250.633,253.903,260.934,241.24,260.934z"/>
	<path style="fill:#3F4963;" d="M270.767,260.934c-12.663,0-22.966-10.302-22.966-22.964c0-4.53,3.672-8.202,8.202-8.202
		c4.531,0,8.202,3.672,8.202,8.202c0,3.618,2.943,6.56,6.562,6.56s6.562-2.943,6.562-6.56c0-4.53,3.671-8.202,8.202-8.202
		c4.531,0,8.202,3.672,8.202,8.202C293.733,250.633,283.43,260.934,270.767,260.934z"/>
</g>
<path style="fill:#CF9945;" d="M282.822,147.206h51.779c-8.071-6.508-16.963-12.038-26.499-16.404h-25.278
	c-4.531,0-8.202,3.672-8.202,8.202C274.62,143.533,278.292,147.206,282.822,147.206z M209.826,355.419
	c0-4.53-3.672-8.202-8.202-8.202h-52.439c1.537,5.453,3.145,10.93,4.817,16.404h47.622
	C206.153,363.621,209.826,359.949,209.826,355.419z M199.632,166.227c0-4.53-3.672-8.202-8.202-8.202h-25.832
	c-4.875,5.078-9.326,10.564-13.297,16.404h39.129C195.96,174.429,199.632,170.756,199.632,166.227z M301.145,405.724
	c0,4.53,3.671,8.202,8.202,8.202h31.328c2.077-5.365,4.117-10.842,6.106-16.404h-37.434
	C304.818,397.522,301.145,401.195,301.145,405.724z M238.806,456.577H190.02c2.98,5.901,5.975,11.4,8.961,16.404h39.826
	c4.53,0,8.202-3.672,8.202-8.202C247.008,460.249,243.336,456.577,238.806,456.577z M348.086,314.956
	c0-4.53-3.671-8.202-8.202-8.202h-69.116c-4.531,0-8.202,3.672-8.202,8.202s3.671,8.202,8.202,8.202h69.116
	C344.413,323.158,348.086,319.485,348.086,314.956z"/>
<g>
</g>
<g>
</g>
<g>
</g>
<g>
</g>
<g>
</g>
<g>
</g>
<g>
</g>
<g>
</g>
<g>
</g>
<g>
</g>
<g>
</g>
<g>
</g>
<g>
</g>
<g>
</g>
<g>
</g>
</svg>
