<?xml version="1.0" encoding="iso-8859-1"?>
<!-- Generator: Adobe Illustrator 19.0.0, SVG Export Plug-In . SVG Version: 6.00 Build 0)  -->
<svg version="1.1" id="Layer_1" xmlns="http://www.w3.org/2000/svg" xmlns:xlink="http://www.w3.org/1999/xlink" x="0px" y="0px"
	 viewBox="0 0 512 512" style="enable-background:new 0 0 512 512;" xml:space="preserve">
<g>
	<path style="fill:#FDBA55;" d="M347.472,61.91c-4.467,0-8.086-3.619-8.086-8.086c0-20.762-16.891-37.653-37.652-37.653
		c-20.762,0-37.652,16.891-37.652,37.653c0,4.467-3.619,8.086-8.086,8.086s-8.086-3.619-8.086-8.086
		C247.911,24.145,272.056,0,301.734,0s53.824,24.145,53.824,53.824C355.558,58.29,351.939,61.91,347.472,61.91z"/>
	<path style="fill:#FDBA55;" d="M255.997,61.91c-4.467,0-8.086-3.619-8.086-8.086c0-20.762-16.89-37.653-37.652-37.653
		s-37.653,16.891-37.653,37.653c0,4.467-3.619,8.086-8.086,8.086c-4.467,0-8.086-3.619-8.086-8.086
		C156.434,24.145,180.58,0,210.259,0c29.678,0,53.823,24.145,53.823,53.824C264.082,58.29,260.462,61.91,255.997,61.91z"/>
</g>
<path style="fill:#FFD553;" d="M255.997,497.136c71.312,0,129.119-57.808,129.119-129.12c0-126.315-57.875-314.192-129.119-314.192
	S126.878,241.702,126.878,368.016C126.878,439.328,184.684,497.136,255.997,497.136z"/>
<circle style="fill:#3F4963;" cx="180.87" cy="252.304" r="15.274"/>
<path style="fill:#FF6376;" d="M197.207,300.845h-32.68c-4.467,0-8.086-3.619-8.086-8.086c0-4.467,3.619-8.086,8.086-8.086h32.68
	c4.467,0,8.086,3.619,8.086,8.086C205.292,297.225,201.672,300.845,197.207,300.845z"/>
<circle style="fill:#3F4963;" cx="331.134" cy="252.304" r="15.274"/>
<path style="fill:#FF6376;" d="M347.472,300.845h-32.68c-4.467,0-8.086-3.619-8.086-8.086c0-4.467,3.619-8.086,8.086-8.086h32.68
	c4.465,0,8.086,3.619,8.086,8.086C355.558,297.225,351.939,300.845,347.472,300.845z"/>
<g>
	<path style="fill:#3F4963;" d="M240.816,287.851c-12.831,0-23.272-10.439-23.272-23.269c0-4.466,3.619-8.086,8.086-8.086
		c4.467,0,8.086,3.619,8.086,8.086c0,3.915,3.185,7.098,7.1,7.098c3.915,0,7.098-3.184,7.098-7.098c0-4.466,3.619-8.086,8.086-8.086
		c4.467,0,8.086,3.619,8.086,8.086C264.086,277.412,253.646,287.851,240.816,287.851z"/>
	<path style="fill:#3F4963;" d="M271.184,287.851c-12.83,0-23.269-10.439-23.269-23.269c0-4.466,3.619-8.086,8.086-8.086
		s8.086,3.619,8.086,8.086c0,3.915,3.184,7.098,7.098,7.098s7.098-3.184,7.098-7.098c0-4.466,3.619-8.086,8.086-8.086
		c4.467,0,8.086,3.619,8.086,8.086C294.453,277.412,284.014,287.851,271.184,287.851z"/>
</g>
<g style="opacity:0.2;">
	<path style="fill:#2F3953;" d="M261.178,187.366c-4.467,0-8.086-3.619-8.086-8.086V99.281c0-4.465,3.619-8.086,8.086-8.086
		s8.086,3.62,8.086,8.086v79.999C269.264,183.747,265.645,187.366,261.178,187.366z"/>
	<path style="fill:#2F3953;" d="M291.164,187.366c-4.467,0-8.086-3.619-8.086-8.086v-58.259c0-4.467,3.619-8.086,8.086-8.086
		s8.086,3.619,8.086,8.086v58.259C299.249,183.747,295.63,187.366,291.164,187.366z"/>
	<path style="fill:#2F3953;" d="M315.858,173.23h-68.817c-4.467,0-8.086-3.619-8.086-8.086c0-4.467,3.619-8.086,8.086-8.086h68.817
		c4.466,0,8.086,3.619,8.086,8.086C323.944,169.61,320.325,173.23,315.858,173.23z"/>
	<path style="fill:#2F3953;" d="M305.3,143.244h-58.259c-4.467,0-8.086-3.619-8.086-8.086c0-4.467,3.619-8.086,8.086-8.086H305.3
		c4.467,0,8.086,3.619,8.086,8.086C313.385,139.625,309.766,143.244,305.3,143.244z"/>
</g>
<g style="opacity:0.2;">
	<path style="fill:#2F3953;" d="M240.511,409.791c-4.467,0-8.086-3.619-8.086-8.086v-70.996c0-4.466,3.619-8.086,8.086-8.086
		s8.086,3.619,8.086,8.086v70.996C248.597,406.172,244.977,409.791,240.511,409.791z"/>
	<path style="fill:#2F3953;" d="M210.525,409.791c-4.467,0-8.086-3.619-8.086-8.086v-58.259c0-4.467,3.619-8.086,8.086-8.086
		c4.467,0,8.086,3.619,8.086,8.086v58.259C218.611,406.172,214.992,409.791,210.525,409.791z"/>
	<path style="fill:#2F3953;" d="M254.648,395.655h-68.817c-4.467,0-8.086-3.619-8.086-8.086c0-4.465,3.619-8.086,8.086-8.086h68.817
		c4.467,0,8.086,3.62,8.086,8.086C262.734,392.036,259.113,395.655,254.648,395.655z"/>
	<path style="fill:#2F3953;" d="M254.648,365.67h-58.259c-4.467,0-8.086-3.62-8.086-8.086c0-4.466,3.619-8.086,8.086-8.086h58.259
		c4.466,0,8.086,3.619,8.086,8.086C262.734,362.05,259.113,365.67,254.648,365.67z"/>
</g>
<path style="fill:#46C79C;" d="M209.609,365.372c44.952,44.951,84.042,109.704,56.363,137.383
	c-27.679,27.681-92.435-11.404-137.385-56.361C83.632,401.446,67.18,340.588,61.673,312.018
	c-2.369-12.265,1.195-15.939,13.553-13.563C103.802,303.972,164.659,320.424,209.609,365.372z"/>
<path style="fill:#65F7C4;" d="M302.391,365.372c-44.952,44.951-84.042,109.704-56.363,137.383
	c27.679,27.681,92.435-11.404,137.385-56.361c44.955-44.948,61.408-105.805,66.915-134.375c2.369-12.265-1.195-15.939-13.553-13.563
	C408.198,303.972,347.34,320.424,302.391,365.372z"/>
<path style="fill:#46C79C;" d="M310.318,446.552c-2.069,0-4.139-0.789-5.718-2.367c-3.158-3.159-3.158-8.278,0-11.435l90.863-90.863
	c3.159-3.157,8.278-3.157,11.435,0c3.158,3.159,3.158,8.278,0,11.435l-90.863,90.863
	C314.456,445.762,312.386,446.552,310.318,446.552z"/>
<path style="fill:#35A57D;" d="M201.682,446.552c-2.069,0-4.139-0.789-5.718-2.367L105.1,353.321c-3.158-3.159-3.158-8.278,0-11.435
	c3.159-3.157,8.278-3.157,11.435,0l90.863,90.863c3.158,3.159,3.158,8.278,0,11.435C205.82,445.762,203.751,446.552,201.682,446.552
	z"/>
<g>
</g>
<g>
</g>
<g>
</g>
<g>
</g>
<g>
</g>
<g>
</g>
<g>
</g>
<g>
</g>
<g>
</g>
<g>
</g>
<g>
</g>
<g>
</g>
<g>
</g>
<g>
</g>
<g>
</g>
</svg>
