<?xml version="1.0" encoding="iso-8859-1"?>
<!-- Generator: Adobe Illustrator 19.0.0, SVG Export Plug-In . SVG Version: 6.00 Build 0)  -->
<svg version="1.1" id="Layer_1" xmlns="http://www.w3.org/2000/svg" xmlns:xlink="http://www.w3.org/1999/xlink" x="0px" y="0px"
	 viewBox="0 0 512 512" style="enable-background:new 0 0 512 512;" xml:space="preserve">
<path style="fill:#CF9945;" d="M223.925,385.898v109.509c0,9.126,7.467,16.592,16.592,16.592h30.972
	c9.126,0,16.592-7.467,16.592-16.592V385.898H223.925z"/>
<path style="fill:#89AAED;" d="M122.151,257.266v106.509c0,12.168,9.955,22.123,22.123,22.123h223.451
	c12.168,0,22.123-9.955,22.123-22.123V257.266H122.151z"/>
<path style="fill:#C3DDF7;" d="M389.737,128.632C386.995,57.128,328.174,0,256,0S125.004,57.128,122.263,128.632
	c-0.066,1.731-0.111,132.271-0.111,132.271h267.697C389.848,260.903,389.804,130.365,389.737,128.632z"/>
<g style="opacity:0.3;">
	<path style="fill:#3F4963;" d="M168.991,385.898V198.862c0-15.169,12.297-27.467,27.467-27.467
		c15.17,0,27.467,12.298,27.467,27.467v187.036H168.991z"/>
	<path style="fill:#3F4963;" d="M343.008,385.898V198.862c0-15.169-12.297-27.467-27.467-27.467
		c-15.17,0-27.467,12.298-27.467,27.467v187.036H343.008z"/>
</g>
<circle style="fill:#3F4963;" cx="182.117" cy="92.01" r="15.022"/>
<path style="fill:#FF9596;" d="M198.184,140.081h-32.139c-4.582,0-8.296-3.714-8.296-8.296c0-4.583,3.714-8.296,8.296-8.296h32.139
	c4.582,0,8.296,3.713,8.296,8.296C206.48,136.367,202.765,140.081,198.184,140.081z"/>
<circle style="fill:#3F4963;" cx="329.899" cy="92.01" r="15.022"/>
<path style="fill:#FF9596;" d="M345.962,140.081h-32.139c-4.582,0-8.296-3.714-8.296-8.296c0-4.583,3.714-8.296,8.296-8.296h32.139
	c4.582,0,8.296,3.713,8.296,8.296C354.259,136.367,350.544,140.081,345.962,140.081z"/>
<g>
	<path style="fill:#3F4963;" d="M241.07,127.302c-12.809,0-23.229-10.42-23.229-23.228c0-4.583,3.714-8.296,8.296-8.296
		c4.582,0,8.296,3.713,8.296,8.296c0,3.659,2.977,6.636,6.637,6.636s6.637-2.977,6.637-6.636c0-4.583,3.714-8.296,8.296-8.296
		c4.582,0,8.296,3.713,8.296,8.296C264.299,116.882,253.88,127.302,241.07,127.302z"/>
	<path style="fill:#3F4963;" d="M270.936,127.302c-12.809,0-23.229-10.42-23.229-23.228c0-4.583,3.714-8.296,8.296-8.296
		c4.582,0,8.296,3.713,8.296,8.296c0,3.659,2.977,6.636,6.637,6.636s6.637-2.977,6.637-6.636c0-4.583,3.714-8.296,8.296-8.296
		s8.296,3.713,8.296,8.296C294.166,116.882,283.746,127.302,270.936,127.302z"/>
</g>
<g>
</g>
<g>
</g>
<g>
</g>
<g>
</g>
<g>
</g>
<g>
</g>
<g>
</g>
<g>
</g>
<g>
</g>
<g>
</g>
<g>
</g>
<g>
</g>
<g>
</g>
<g>
</g>
<g>
</g>
</svg>
