<?xml version="1.0" encoding="iso-8859-1"?>
<!-- Generator: Adobe Illustrator 19.0.0, SVG Export Plug-In . SVG Version: 6.00 Build 0)  -->
<svg version="1.1" id="Layer_1" xmlns="http://www.w3.org/2000/svg" xmlns:xlink="http://www.w3.org/1999/xlink" x="0px" y="0px"
	 viewBox="0 0 511.999 511.999" style="enable-background:new 0 0 511.999 511.999;" xml:space="preserve">
<path style="fill:#46C79C;" d="M422.468,200.626c-5.203,0-10.405-1.986-14.377-5.956c-7.939-7.94-7.939-20.811,0-28.749
	l46.694-46.696c10.674-10.674,16.553-24.865,16.553-39.961s-5.879-29.288-16.553-39.963c-7.939-7.94-7.939-20.811,0-28.751
	s20.811-7.94,28.751,0c18.355,18.355,28.464,42.76,28.464,68.715c0,25.957-10.108,50.359-28.463,68.714l-46.694,46.69
	C432.873,198.642,427.67,200.626,422.468,200.626z"/>
<g>
	<path style="fill:#65F7C4;" d="M425.65,114.974c-13.156-13.157-30.391-18.55-38.456-20.463c-3.488-0.828-4.433,0.156-3.613,3.614
		c1.913,8.064,7.305,25.298,20.462,38.455c13.158,13.157,30.392,18.55,38.453,20.462c3.462,0.823,4.443-0.127,3.619-3.613
		C444.199,145.364,438.807,128.13,425.65,114.974z"/>
	<path style="fill:#65F7C4;" d="M487.788,177.113c13.157,13.156,18.55,30.391,20.463,38.455c0.828,3.489-0.156,4.434-3.615,3.613
		c-8.064-1.912-25.298-7.305-38.455-20.461c-13.157-13.158-18.549-30.392-20.462-38.454c-0.823-3.463,0.127-4.443,3.613-3.619
		C457.399,158.565,474.632,163.957,487.788,177.113z"/>
</g>
<path style="fill:#FF6376;" d="M445.912,156.852c-53.65-53.65-140.634-53.65-194.282-0.002
	C148.781,259.699,136.553,376.46,54.65,376.486c-13.988-0.008-27.979,5.325-38.653,15.999c-21.33,21.33-21.328,55.916,0,77.244
	c63.942,63.939,251.396,59.929,429.918-118.593C499.563,297.486,499.563,210.502,445.912,156.852z"/>
<circle style="fill:#3F4963;" cx="255.997" cy="243.154" r="15.594"/>
<path style="fill:#FF9596;" d="M272.68,292.7h-33.364c-4.559,0-8.255-3.696-8.255-8.255c0-4.56,3.696-8.255,8.255-8.255h33.364
	c4.559,0,8.255,3.695,8.255,8.255C280.935,289.004,277.239,292.7,272.68,292.7z"/>
<g>
	<path style="fill:#3F4963;" d="M317.202,279.434c-13.1,0-23.758-10.658-23.758-23.756c0-4.56,3.696-8.255,8.255-8.255
		c4.559,0,8.255,3.695,8.255,8.255c0,3.996,3.252,7.247,7.249,7.247c3.995,0,7.247-3.25,7.247-7.247c0-4.56,3.696-8.255,8.255-8.255
		c4.559,0,8.255,3.695,8.255,8.255C340.959,268.776,330.302,279.434,317.202,279.434z"/>
	<path style="fill:#3F4963;" d="M348.205,279.434c-13.099,0-23.756-10.658-23.756-23.756c0-4.56,3.696-8.255,8.255-8.255
		c4.559,0,8.255,3.695,8.255,8.255c0,3.996,3.251,7.247,7.247,7.247c3.995,0,7.247-3.25,7.247-7.247c0-4.56,3.696-8.255,8.255-8.255
		c4.559,0,8.255,3.695,8.255,8.255C371.961,268.776,361.304,279.434,348.205,279.434z"/>
</g>
<path style="fill:#FF9596;" d="M426.082,292.7h-33.355c-4.559,0-8.255-3.696-8.255-8.255c0-4.56,3.696-8.255,8.255-8.255h33.355
	c4.559,0,8.255,3.695,8.255,8.255C434.337,289.004,430.641,292.7,426.082,292.7z"/>
<path style="fill:#3F4963;" d="M424.995,254.917c-4.559,0-8.255-3.695-8.255-8.255c0-4.045-3.29-7.335-7.335-7.335
	c-4.045,0-7.335,3.29-7.335,7.335c0,4.56-3.696,8.255-8.255,8.255c-4.559,0-8.255-3.695-8.255-8.255
	c0-13.147,10.696-23.844,23.844-23.844s23.844,10.697,23.844,23.844C433.25,251.221,429.554,254.917,424.995,254.917z"/>
<g>
</g>
<g>
</g>
<g>
</g>
<g>
</g>
<g>
</g>
<g>
</g>
<g>
</g>
<g>
</g>
<g>
</g>
<g>
</g>
<g>
</g>
<g>
</g>
<g>
</g>
<g>
</g>
<g>
</g>
</svg>
