<?xml version="1.0" encoding="iso-8859-1"?>
<!-- Generator: Adobe Illustrator 19.0.0, SVG Export Plug-In . SVG Version: 6.00 Build 0)  -->
<svg version="1.1" id="Layer_1" xmlns="http://www.w3.org/2000/svg" xmlns:xlink="http://www.w3.org/1999/xlink" x="0px" y="0px"
	 viewBox="0 0 511.999 511.999" style="enable-background:new 0 0 511.999 511.999;" xml:space="preserve">
<path style="fill:#F0F8C6;" d="M318.343,504.089c-34.289-11.139-90.399-11.139-124.69,0c-34.289,11.143-72.709-7.36-85.376-41.116
	c-12.668-33.756-47.651-77.624-77.74-97.485C0.448,345.625-9.041,304.05,9.451,273.099c18.49-30.948,30.976-85.653,27.745-121.561
	C33.966,115.63,60.553,82.291,96.28,77.452c35.726-4.838,86.277-29.184,112.338-54.099c26.059-24.916,68.702-24.916,94.762,0
	c26.06,24.916,76.614,49.26,112.341,54.099c35.727,4.839,62.315,38.177,59.083,74.087c-3.231,35.907,9.254,90.612,27.744,121.562
	c18.492,30.951,9.002,72.525-21.085,92.389c-30.088,19.861-65.071,63.729-77.741,97.485
	C391.053,496.731,352.632,515.232,318.343,504.089z"/>
<circle style="fill:#FFD553;" cx="256.004" cy="256.005" r="153.39"/>
<g>
	<path style="fill:#3F4963;" d="M240.388,262.448c-13.192,0-23.926-10.731-23.926-23.921c0-4.592,3.722-8.313,8.313-8.313
		s8.313,3.721,8.313,8.313c0,4.022,3.275,7.295,7.3,7.295c4.023,0,7.298-3.273,7.298-7.295c0-4.592,3.722-8.313,8.313-8.313
		c4.592,0,8.313,3.721,8.313,8.313C264.311,251.717,253.58,262.448,240.388,262.448z"/>
	<path style="fill:#3F4963;" d="M271.609,262.448c-13.191,0-23.923-10.731-23.923-23.921c0-4.592,3.722-8.313,8.313-8.313
		c4.592,0,8.313,3.721,8.313,8.313c0,4.022,3.273,7.295,7.298,7.295c4.025,0,7.298-3.273,7.298-7.295
		c0-4.592,3.721-8.313,8.313-8.313c4.591,0,8.313,3.721,8.313,8.313C295.533,251.717,284.801,262.448,271.609,262.448z"/>
</g>
<path style="fill:#FF6376;" d="M350.043,275.807h-33.59c-4.592,0-8.313-3.721-8.313-8.313s3.721-8.313,8.313-8.313h33.59
	c4.591,0,8.313,3.721,8.313,8.313S354.635,275.807,350.043,275.807z"/>
<path style="fill:#3F4963;" d="M348.948,237.758c-4.592,0-8.313-3.721-8.313-8.313c0-4.073-3.313-7.386-7.386-7.386
	c-4.073,0-7.386,3.313-7.386,7.386c0,4.592-3.722,8.313-8.313,8.313c-4.592,0-8.313-3.721-8.313-8.313
	c0-13.24,10.772-24.012,24.012-24.012c13.24,0,24.012,10.772,24.012,24.012C357.261,234.038,353.539,237.758,348.948,237.758z"/>
<path style="fill:#FF6376;" d="M195.544,275.807h-33.59c-4.591,0-8.313-3.721-8.313-8.313s3.722-8.313,8.313-8.313h33.59
	c4.591,0,8.313,3.721,8.313,8.313S200.136,275.807,195.544,275.807z"/>
<g>
	<path style="fill:#3F4963;" d="M194.448,237.758c-4.591,0-8.313-3.721-8.313-8.313c0-4.073-3.313-7.386-7.386-7.386
		c-4.073,0-7.386,3.313-7.386,7.386c0,4.592-3.722,8.313-8.313,8.313c-4.591,0-8.313-3.721-8.313-8.313
		c0-13.24,10.771-24.012,24.012-24.012c13.241,0,24.012,10.772,24.012,24.012C202.761,234.038,199.039,237.758,194.448,237.758z"/>
	<circle style="opacity:0.2;fill:#3F4963;enable-background:new    ;" cx="336.872" cy="447.557" r="14.864"/>
	<circle style="opacity:0.2;fill:#3F4963;enable-background:new    ;" cx="379.667" cy="403.41" r="14.864"/>
	<circle style="opacity:0.2;fill:#3F4963;enable-background:new    ;" cx="409.394" cy="128.54" r="14.864"/>
	<circle style="opacity:0.2;fill:#3F4963;enable-background:new    ;" cx="265.315" cy="447.557" r="14.864"/>
	<circle style="opacity:0.2;fill:#3F4963;enable-background:new    ;" cx="265.315" cy="56.65" r="14.864"/>
	<circle style="opacity:0.2;fill:#3F4963;enable-background:new    ;" cx="61.685" cy="316.024" r="14.864"/>
</g>
<g>
</g>
<g>
</g>
<g>
</g>
<g>
</g>
<g>
</g>
<g>
</g>
<g>
</g>
<g>
</g>
<g>
</g>
<g>
</g>
<g>
</g>
<g>
</g>
<g>
</g>
<g>
</g>
<g>
</g>
</svg>
