<?xml version="1.0" encoding="iso-8859-1"?>
<!-- Generator: Adobe Illustrator 19.0.0, SVG Export Plug-In . SVG Version: 6.00 Build 0)  -->
<svg version="1.1" id="Layer_1" xmlns="http://www.w3.org/2000/svg" xmlns:xlink="http://www.w3.org/1999/xlink" x="0px" y="0px"
	 viewBox="0 0 512 512" style="enable-background:new 0 0 512 512;" xml:space="preserve">
<path style="fill:#89AAED;" d="M328.341,471.735c-22.238,0-40.266-18.027-40.266-40.266v-51.4h-64.15v51.4
	c0,22.239-18.029,40.266-40.266,40.266H328.341z"/>
<g>
	<path style="fill:#B5CCF8;" d="M348.473,512c11.119,0,20.133-9.014,20.133-20.133c0-11.118-9.014-20.132-20.133-20.132H163.526
		c-11.119,0-20.133,9.014-20.133,20.132c0,11.119,9.014,20.133,20.133,20.133H348.473z"/>
	<path style="fill:#B5CCF8;" d="M102.422,20.485C102.422,9.172,111.593,0,122.908,0h266.184c11.315,0,20.486,9.172,20.486,20.485
		v232.664c0,84.683-68.894,153.578-153.577,153.578c-84.684,0-153.578-68.895-153.578-153.578V20.485H102.422z"/>
</g>
<path style="fill:#FFFFFF;" d="M331.801,84.421h-3.44c0-19.076-15.463-34.54-34.539-34.54h-75.64
	c-19.076,0-34.539,15.464-34.539,34.54h-3.447c-23.678,0-42.872,19.194-42.872,42.872s19.195,42.873,42.872,42.873h151.605
	c23.678,0,42.872-19.194,42.872-42.873C374.674,103.615,355.479,84.421,331.801,84.421z"/>
<path style="fill:#FF9596;" d="M374.674,127.293V253.15c0,65.542-53.132,118.674-118.674,118.674S137.325,318.691,137.325,253.15
	V127.293H374.674z"/>
<circle style="fill:#3F4963;" cx="182.283" cy="204.167" r="14.986"/>
<path style="fill:#FF6376;" d="M198.315,252.125h-32.062c-4.571,0-8.277-3.706-8.277-8.277c0-4.571,3.706-8.277,8.277-8.277h32.062
	c4.571,0,8.277,3.706,8.277,8.277C206.592,248.419,202.886,252.125,198.315,252.125z"/>
<circle style="fill:#3F4963;" cx="329.717" cy="204.167" r="14.986"/>
<path style="fill:#FF6376;" d="M345.746,252.125h-32.062c-4.571,0-8.277-3.706-8.277-8.277c0-4.571,3.706-8.277,8.277-8.277h32.062
	c4.571,0,8.277,3.706,8.277,8.277C354.022,248.419,350.317,252.125,345.746,252.125z"/>
<g>
	<path style="fill:#3F4963;" d="M241.102,239.376c-12.779,0-23.174-10.395-23.174-23.173c0-4.571,3.706-8.277,8.277-8.277
		c4.571,0,8.277,3.706,8.277,8.277c0,3.651,2.97,6.62,6.621,6.62c3.652,0,6.621-2.97,6.621-6.62c0-4.571,3.706-8.277,8.277-8.277
		c4.571,0,8.277,3.706,8.277,8.277C264.277,228.98,253.88,239.376,241.102,239.376z"/>
	<path style="fill:#3F4963;" d="M270.898,239.376c-12.779,0-23.174-10.395-23.174-23.173c0-4.571,3.706-8.277,8.277-8.277
		c4.571,0,8.277,3.706,8.277,8.277c0,3.651,2.97,6.62,6.621,6.62s6.621-2.97,6.621-6.62c0-4.571,3.706-8.277,8.277-8.277
		c4.571,0,8.277,3.706,8.277,8.277C294.072,228.98,283.676,239.376,270.898,239.376z"/>
</g>
<circle style="fill:#FF6376;" cx="258.461" cy="54.107" r="30.316"/>
<path style="fill:#725E24;" d="M265.357,55.482c-2.118,0-4.237-0.808-5.852-2.424c-3.232-3.232-3.232-8.473,0-11.704l27.221-27.22
	c3.232-3.232,8.473-3.232,11.704,0c3.232,3.232,3.232,8.473,0,11.705l-27.221,27.22C269.592,54.674,267.474,55.482,265.357,55.482z"
	/>
<g>
</g>
<g>
</g>
<g>
</g>
<g>
</g>
<g>
</g>
<g>
</g>
<g>
</g>
<g>
</g>
<g>
</g>
<g>
</g>
<g>
</g>
<g>
</g>
<g>
</g>
<g>
</g>
<g>
</g>
</svg>
