<?xml version="1.0" encoding="iso-8859-1"?>
<!-- Generator: Adobe Illustrator 19.0.0, SVG Export Plug-In . SVG Version: 6.00 Build 0)  -->
<svg version="1.1" id="Layer_1" xmlns="http://www.w3.org/2000/svg" xmlns:xlink="http://www.w3.org/1999/xlink" x="0px" y="0px"
	 viewBox="0 0 511.995 511.995" style="enable-background:new 0 0 511.995 511.995;" xml:space="preserve">
<path style="fill:#65F7C4;" d="M302.092,35.762c-29.273,29.27-34.821,74.058-35.731,95.349c-0.392,9.209,2.845,12.368,11.98,11.978
	c21.29-0.91,66.078-6.459,95.349-35.731c29.272-29.272,34.822-74.059,35.73-95.348c0.391-9.134-2.769-12.371-11.978-11.978
	C376.15,0.938,331.363,6.491,302.092,35.762z"/>
<circle style="fill:#FFB446;" cx="266.311" cy="314.309" r="197.686"/>
<path style="fill:#FF6376;" d="M398.599,340.512h-32.21c-4.593,0-8.315-3.723-8.315-8.315s3.722-8.315,8.315-8.315h32.21
	c4.593,0,8.315,3.723,8.315,8.315S403.192,340.512,398.599,340.512z"/>
<g>
	<path style="fill:#3F4963;" d="M247.465,330.11c-14.978,0-27.164-12.186-27.164-27.164c0-4.592,3.723-8.315,8.315-8.315
		c4.593,0,8.315,3.723,8.315,8.315c0,5.809,4.726,10.535,10.535,10.535c5.809,0,10.535-4.726,10.535-10.535
		c0-4.592,3.722-8.315,8.315-8.315c4.593,0,8.315,3.723,8.315,8.315C274.629,317.923,262.443,330.11,247.465,330.11z"/>
	<path style="fill:#3F4963;" d="M285.165,330.11c-14.979,0-27.165-12.186-27.165-27.164c0-4.592,3.722-8.315,8.315-8.315
		c4.593,0,8.315,3.723,8.315,8.315c0,5.809,4.727,10.535,10.536,10.535c5.808,0,10.534-4.726,10.534-10.535
		c0-4.592,3.722-8.315,8.315-8.315c4.593,0,8.315,3.723,8.315,8.315C312.328,317.923,300.143,330.11,285.165,330.11z"/>
	<path style="fill:#3F4963;" d="M397.549,304.026c-4.593,0-8.315-3.723-8.315-8.315c0-3.717-3.024-6.74-6.74-6.74
		c-3.717,0-6.74,3.024-6.74,6.74c0,4.592-3.723,8.315-8.315,8.315c-4.593,0-8.315-3.723-8.315-8.315
		c0-12.886,10.483-23.369,23.369-23.369s23.369,10.483,23.369,23.369C405.864,300.303,402.142,304.026,397.549,304.026z"/>
</g>
<path style="fill:#FF6376;" d="M166.24,340.512h-32.21c-4.593,0-8.315-3.723-8.315-8.315s3.722-8.315,8.315-8.315h32.21
	c4.593,0,8.315,3.723,8.315,8.315S170.832,340.512,166.24,340.512z"/>
<path style="fill:#3F4963;" d="M165.19,304.026c-4.593,0-8.315-3.723-8.315-8.315c0-3.717-3.024-6.74-6.74-6.74
	c-3.717,0-6.74,3.024-6.74,6.74c0,4.592-3.722,8.315-8.315,8.315c-4.593,0-8.315-3.723-8.315-8.315
	c0-12.886,10.483-23.369,23.369-23.369s23.369,10.483,23.369,23.369C173.504,300.303,169.782,304.026,165.19,304.026z"/>
<g>
	<circle style="fill:#CF9945;" cx="202.655" cy="178.394" r="15.055"/>
	<circle style="fill:#CF9945;" cx="293.594" cy="163.34" r="15.055"/>
	<circle style="fill:#CF9945;" cx="381.439" cy="202.041" r="15.055"/>
	<circle style="fill:#CF9945;" cx="321.486" cy="216.73" r="15.055"/>
	<circle style="fill:#CF9945;" cx="226.812" cy="237.328" r="15.055"/>
	<circle style="fill:#CF9945;" cx="209.528" cy="370.648" r="15.055"/>
	<circle style="fill:#CF9945;" cx="187.6" cy="433.839" r="15.055"/>
	<circle style="fill:#CF9945;" cx="140.474" cy="214.79" r="15.055"/>
	<circle style="fill:#CF9945;" cx="398.6" cy="392.355" r="15.055"/>
	<circle style="fill:#CF9945;" cx="344.102" cy="443.816" r="15.055"/>
	<circle style="fill:#CF9945;" cx="247.465" cy="463.948" r="15.055"/>
	<circle style="fill:#CF9945;" cx="293.594" cy="399.649" r="15.055"/>
</g>
<path style="fill:#46C79C;" d="M83.761,469.637c29.272,29.273,74.059,34.821,95.349,35.732c9.21,0.392,12.368-2.845,11.978-11.98
	c-0.909-21.29-6.458-66.077-35.731-95.349c-29.272-29.272-74.06-34.822-95.349-35.73c-9.133-0.39-12.371,2.769-11.978,11.978
	C48.937,395.578,54.492,440.367,83.761,469.637z"/>
<g>
</g>
<g>
</g>
<g>
</g>
<g>
</g>
<g>
</g>
<g>
</g>
<g>
</g>
<g>
</g>
<g>
</g>
<g>
</g>
<g>
</g>
<g>
</g>
<g>
</g>
<g>
</g>
<g>
</g>
</svg>
