<?xml version="1.0" encoding="iso-8859-1"?>
<!-- Generator: Adobe Illustrator 19.0.0, SVG Export Plug-In . SVG Version: 6.00 Build 0)  -->
<svg version="1.1" id="Layer_1" xmlns="http://www.w3.org/2000/svg" xmlns:xlink="http://www.w3.org/1999/xlink" x="0px" y="0px"
	 viewBox="0 0 512.001 512.001" style="enable-background:new 0 0 512.001 512.001;" xml:space="preserve">
<path style="fill:#FF6376;" d="M212.757,106.602c0-23.882,19.361-72.779,43.244-72.779c23.884,0,43.244,48.896,43.244,72.779
	s-19.36,43.244-43.244,43.244C232.118,149.846,212.757,130.485,212.757,106.602z"/>
<path style="fill:#C3DDF7;" d="M303.154,187.97c26.547,0,48.068-21.521,48.068-48.068c0-26.548-21.521-48.068-48.068-48.068h-94.308
	c-26.547,0-48.068,21.52-48.068,48.068c0,26.547,21.521,48.068,48.068,48.068H303.154z"/>
<path style="fill:#FFD553;" d="M432.162,183.783c-2.513-8.832-12.083-16.057-21.265-16.057H101.104
	c-9.182,0-18.752,7.226-21.265,16.057L0.613,462.121c-2.514,8.832,2.942,16.057,12.125,16.057h486.527
	c9.182,0,14.638-7.226,12.124-16.057L432.162,183.783z"/>
<path style="fill:#FDBA55;" d="M511.388,462.121l-7.46-26.207H8.073l-7.46,26.207c-2.514,8.832,2.942,16.057,12.125,16.057h486.527
	C508.447,478.178,513.901,470.953,511.388,462.121z"/>
<path style="fill:#866539;" d="M485.914,271.015l-26.998-94.849c-5.884-20.674-26.531-36.263-48.026-36.263H101.104
	c-21.495,0-42.143,15.591-48.026,36.263L26.08,271.015c-4.207,14.78,4.364,30.172,19.144,34.379c2.547,0.725,5.109,1.071,7.632,1.07
	c12.118-0.001,23.266-7.981,26.747-20.214l11.381-39.985l0.01,0.013c2.367-8.183,9.917-14.167,18.864-14.167
	c10.844,0,19.634,8.79,19.634,19.634v26.886c0,15.367,12.458,27.825,27.825,27.825s27.825-12.458,27.825-27.825v-26.886
	c0-11.882,9.633-21.516,21.515-21.516c11.883,0,21.516,9.633,21.516,21.516v26.886c0,15.367,12.458,27.825,27.825,27.825
	s27.825-12.458,27.825-27.825v-26.886c0-11.882,9.633-21.516,21.516-21.516c11.883,0,21.516,9.633,21.516,21.516v26.886
	c0,15.367,12.458,27.825,27.825,27.825s27.825-12.458,27.825-27.825v-26.886c0-10.844,8.79-19.634,19.634-19.634
	c8.947,0,16.496,5.983,18.864,14.167l0.01-0.013l11.381,39.985c3.481,12.233,14.63,20.213,26.747,20.214
	c2.523,0.001,5.085-0.345,7.632-1.07C481.55,301.187,490.121,285.795,485.914,271.015z"/>
<g>
	<circle style="fill:#3F4963;" cx="139.369" cy="354.286" r="15.114"/>
	<circle style="fill:#3F4963;" cx="372.639" cy="354.286" r="15.114"/>
</g>
<g>
	<path style="fill:#FF6376;" d="M155.535,407.113h-32.338c-4.61,0-8.347-3.737-8.347-8.347s3.737-8.347,8.347-8.347h32.338
		c4.61,0,8.347,3.737,8.347,8.347S160.145,407.113,155.535,407.113z"/>
	<path style="fill:#FF6376;" d="M388.813,407.113h-32.338c-4.61,0-8.347-3.737-8.347-8.347s3.737-8.347,8.347-8.347h32.338
		c4.61,0,8.347,3.737,8.347,8.347S393.423,407.113,388.813,407.113z"/>
</g>
<g>
	<path style="fill:#3F4963;" d="M237.08,396.669c-15.038,0-27.271-12.234-27.271-27.271c0-4.61,3.737-8.347,8.347-8.347
		s8.347,3.737,8.347,8.347c0,5.832,4.745,10.577,10.577,10.577c5.832,0,10.578-4.745,10.578-10.577c0-4.61,3.737-8.347,8.347-8.347
		s8.347,3.737,8.347,8.347C264.352,384.436,252.118,396.669,237.08,396.669z"/>
	<path style="fill:#3F4963;" d="M274.929,396.669c-15.038,0-27.271-12.234-27.271-27.271c0-4.61,3.737-8.347,8.347-8.347
		s8.347,3.737,8.347,8.347c0,5.832,4.745,10.577,10.577,10.577c5.832,0,10.577-4.745,10.577-10.577c0-4.61,3.737-8.347,8.347-8.347
		c4.61,0,8.347,3.737,8.347,8.347C302.201,384.436,289.967,396.669,274.929,396.669z"/>
</g>
<g>
</g>
<g>
</g>
<g>
</g>
<g>
</g>
<g>
</g>
<g>
</g>
<g>
</g>
<g>
</g>
<g>
</g>
<g>
</g>
<g>
</g>
<g>
</g>
<g>
</g>
<g>
</g>
<g>
</g>
</svg>
