<?xml version="1.0" encoding="iso-8859-1"?>
<!-- Generator: Adobe Illustrator 19.0.0, SVG Export Plug-In . SVG Version: 6.00 Build 0)  -->
<svg version="1.1" id="Layer_1" xmlns="http://www.w3.org/2000/svg" xmlns:xlink="http://www.w3.org/1999/xlink" x="0px" y="0px"
	 viewBox="0 0 512 512" style="enable-background:new 0 0 512 512;" xml:space="preserve">
<g>
	<path style="fill:#46C79C;" d="M169.989,133.599c24.009,24.01,60.741,28.56,78.201,29.307c7.557,0.322,10.145-2.334,9.827-9.825
		c-0.746-17.462-5.299-54.195-29.307-78.203c-24.006-24.008-60.741-28.56-78.203-29.306c-7.49-0.32-10.145,2.272-9.822,9.824
		C141.428,72.858,145.984,109.591,169.989,133.599z"/>
	<path style="fill:#46C79C;" d="M283.286,73.689c-24.009,24.008-28.56,60.74-29.307,78.201c-0.321,7.554,2.333,10.145,9.825,9.824
		c17.461-0.748,54.196-5.297,78.201-29.305c24.011-24.008,28.563-60.741,29.31-78.204c0.317-7.489-2.273-10.145-9.826-9.824
		C344.027,45.126,307.29,49.682,283.286,73.689z"/>
</g>
<path style="fill:#65F7C4;" d="M214.23,80.179c0,33.953,22.754,63.146,34.574,76.021c5.113,5.568,8.824,5.523,13.893-0.001
	c11.819-12.874,34.575-42.067,34.574-76.02c0.001-33.952-22.753-63.146-34.574-76.021c-5.068-5.523-8.781-5.568-13.893,0.001
	C236.983,17.032,214.23,46.228,214.23,80.179z"/>
<path style="fill:#FF6376;" d="M439.616,295.546c0-101.409-82.208-183.616-183.616-183.616S72.384,194.139,72.384,295.546
	C72.384,396.953,186.156,512,256,512S439.616,396.954,439.616,295.546z"/>
<g>
	<path style="fill:#FBD151;" d="M183.622,419.021c-4.543,0-8.225-3.683-8.225-8.225v-8.813c0-4.542,3.681-8.225,8.225-8.225
		s8.225,3.683,8.225,8.225v8.813C191.846,415.339,188.165,419.021,183.622,419.021z"/>
	<path style="fill:#FBD151;" d="M196.781,234.964c-4.543,0-8.225-3.683-8.225-8.225v-8.813c0-4.542,3.681-8.225,8.225-8.225
		s8.225,3.683,8.225,8.225v8.813C205.006,231.282,201.325,234.964,196.781,234.964z"/>
	<path style="fill:#FBD151;" d="M154.745,200.349c-4.543,0-8.225-3.683-8.225-8.225v-8.813c0-4.542,3.681-8.225,8.225-8.225
		s8.225,3.683,8.225,8.225v8.813C162.969,196.666,159.287,200.349,154.745,200.349z"/>
	<path style="fill:#FBD151;" d="M303.444,219.572c-4.543,0-8.225-3.683-8.225-8.225v-8.813c0-4.542,3.681-8.225,8.225-8.225
		c4.543,0,8.225,3.683,8.225,8.225v8.813C311.669,215.889,307.987,219.572,303.444,219.572z"/>
	<path style="fill:#FBD151;" d="M362.137,211.876c-4.543,0-8.225-3.683-8.225-8.225v-8.813c0-4.542,3.681-8.225,8.225-8.225
		c4.543,0,8.225,3.683,8.225,8.225v8.813C370.362,208.193,366.68,211.876,362.137,211.876z"/>
	<path style="fill:#FBD151;" d="M267.333,164.424c-4.543,0-8.225-3.683-8.225-8.225v-8.813c0-4.542,3.681-8.225,8.225-8.225
		c4.543,0,8.225,3.683,8.225,8.225v8.813C275.558,160.741,271.876,164.424,267.333,164.424z"/>
	<path style="fill:#FBD151;" d="M141.949,384.219c-4.543,0-8.225-3.683-8.225-8.225v-8.813c0-4.542,3.681-8.225,8.225-8.225
		s8.225,3.683,8.225,8.225v8.813C150.174,380.537,146.492,384.219,141.949,384.219z"/>
	<path style="fill:#FBD151;" d="M307.831,369.327c-4.543,0-8.225-3.683-8.225-8.225v-8.813c0-4.542,3.681-8.225,8.225-8.225
		c4.543,0,8.225,3.683,8.225,8.225v8.813C316.056,365.644,312.373,369.327,307.831,369.327z"/>
	<path style="fill:#FBD151;" d="M362.137,403.63c-4.543,0-8.225-3.683-8.225-8.225v-8.813c0-4.542,3.681-8.225,8.225-8.225
		c4.543,0,8.225,3.683,8.225,8.225v8.813C370.362,399.947,366.68,403.63,362.137,403.63z"/>
	<path style="fill:#FBD151;" d="M220.907,472.608c-4.543,0-8.225-3.683-8.225-8.225v-8.813c0-4.542,3.681-8.225,8.225-8.225
		s8.225,3.683,8.225,8.225v8.813C229.132,468.925,225.451,472.608,220.907,472.608z"/>
	<path style="fill:#FBD151;" d="M255.997,419.021c-4.543,0-8.225-3.683-8.225-8.225v-8.813c0-4.542,3.681-8.225,8.225-8.225
		c4.542,0,8.225,3.683,8.225,8.225v8.813C264.222,415.339,260.54,419.021,255.997,419.021z"/>
	<path style="fill:#FBD151;" d="M296.054,457.714c-4.543,0-8.225-3.683-8.225-8.225v-8.813c0-4.542,3.681-8.225,8.225-8.225
		c4.543,0,8.225,3.683,8.225,8.225v8.813C304.279,454.032,300.597,457.714,296.054,457.714z"/>
</g>
<g>
	<circle style="fill:#3F4963;" cx="132.585" cy="265.674" r="15.995"/>
	<circle style="fill:#3F4963;" cx="379.429" cy="265.674" r="15.993"/>
</g>
<g>
	<path style="fill:#FF9596;" d="M149.689,320.963h-34.218c-4.543,0-8.225-3.683-8.225-8.225s3.681-8.225,8.225-8.225h34.218
		c4.543,0,8.225,3.683,8.225,8.225S154.231,320.963,149.689,320.963z"/>
	<path style="fill:#FF9596;" d="M396.538,320.963H362.32c-4.543,0-8.225-3.683-8.225-8.225s3.681-8.225,8.225-8.225h34.218
		c4.543,0,8.225,3.683,8.225,8.225S401.081,320.963,396.538,320.963z"/>
</g>
<g>
	<path style="fill:#3F4963;" d="M235.979,309.911c-15.577,0-28.251-12.673-28.251-28.249c0-4.542,3.681-8.225,8.225-8.225
		s8.225,3.683,8.225,8.225c0,6.506,5.294,11.799,11.801,11.799s11.801-5.294,11.801-11.799c0-4.542,3.681-8.225,8.225-8.225
		c4.543,0,8.225,3.683,8.225,8.225C264.229,297.239,251.555,309.911,235.979,309.911z"/>
	<path style="fill:#3F4963;" d="M276.029,309.911c-15.577,0-28.25-12.673-28.25-28.249c0-4.542,3.681-8.225,8.225-8.225
		c4.543,0,8.225,3.683,8.225,8.225c0,6.506,5.293,11.799,11.8,11.799c6.507,0,11.801-5.294,11.801-11.799
		c0-4.542,3.681-8.225,8.225-8.225c4.543,0,8.225,3.683,8.225,8.225C304.279,297.239,291.606,309.911,276.029,309.911z"/>
</g>
<g>
</g>
<g>
</g>
<g>
</g>
<g>
</g>
<g>
</g>
<g>
</g>
<g>
</g>
<g>
</g>
<g>
</g>
<g>
</g>
<g>
</g>
<g>
</g>
<g>
</g>
<g>
</g>
<g>
</g>
</svg>
