<?xml version="1.0" encoding="iso-8859-1"?>
<!-- Generator: Adobe Illustrator 19.0.0, SVG Export Plug-In . SVG Version: 6.00 Build 0)  -->
<svg version="1.1" id="Layer_1" xmlns="http://www.w3.org/2000/svg" xmlns:xlink="http://www.w3.org/1999/xlink" x="0px" y="0px"
	 viewBox="0 0 511.996 511.996" style="enable-background:new 0 0 511.996 511.996;" xml:space="preserve">
<g>
	<polygon style="fill:#285680;" points="211.86,35.306 300.136,35.306 255.998,97.099 	"/>
	<g>
		<polygon style="fill:#4482C3;" points="300.136,459.03 255.998,511.996 211.86,459.03 220.687,123.582 255.998,97.099 
			291.308,123.582 		"/>
		<polygon style="fill:#4482C3;" points="286.343,54.616 370.761,26.474 326.614,0 273.657,35.302 300.131,35.302 		"/>
		<polygon style="fill:#4482C3;" points="225.653,54.616 141.235,26.474 185.382,0 238.338,35.302 211.864,35.302 		"/>
	</g>
	<g>
		<path style="fill:#C03A2B;" d="M247.17,167.72h-27.648l-0.459,17.611c0.079,0,0.15,0.044,0.23,0.044h27.878
			c4.882,0,8.828-3.955,8.828-8.828C255.998,171.674,252.052,167.72,247.17,167.72"/>
		<path style="fill:#C03A2B;" d="M247.17,229.513h-29.263l-0.468,17.611c0.079,0,0.141,0.044,0.23,0.044h29.502
			c4.882,0,8.828-3.955,8.828-8.828C255.998,233.468,252.052,229.513,247.17,229.513"/>
		<path style="fill:#C03A2B;" d="M293.394,203.03h-28.566c-4.882,0-8.828,3.955-8.828,8.828c0,4.873,3.946,8.828,8.828,8.828h28.796
			c0.088,0,0.159-0.044,0.238-0.044L293.394,203.03z"/>
		<path style="fill:#C03A2B;" d="M295.024,264.823h-30.199c-4.882,0-8.828,3.955-8.828,8.828s3.946,8.828,8.828,8.828h30.429
			c0.088,0,0.15-0.044,0.238-0.044L295.024,264.823z"/>
		<path style="fill:#C03A2B;" d="M296.885,335.444h-32.062c-4.882,0-8.828,3.955-8.828,8.828c0,4.873,3.946,8.828,8.828,8.828
			h32.291c0.079,0,0.15-0.044,0.23-0.044L296.885,335.444z"/>
		<path style="fill:#C03A2B;" d="M247.17,300.134h-31.126l-0.468,17.611c0.088,0,0.141,0.044,0.23,0.044h31.364
			c4.882,0,8.828-3.955,8.828-8.828C255.998,304.088,252.052,300.134,247.17,300.134"/>
		<path style="fill:#C03A2B;" d="M298.739,406.065h-33.916c-4.882,0-8.828,3.955-8.828,8.828c0,4.873,3.946,8.828,8.828,8.828
			h34.145c0.088,0,0.15-0.044,0.238-0.044L298.739,406.065z"/>
		<path style="fill:#C03A2B;" d="M247.17,370.754h-32.98l-0.468,17.611c0.079,0,0.15,0.044,0.23,0.044h33.218
			c4.882,0,8.828-3.955,8.828-8.828S252.052,370.754,247.17,370.754"/>
		<path style="fill:#C03A2B;" d="M247.17,441.375h-34.842l-0.468,17.611c0.088,0,0.159,0.044,0.23,0.044h35.081
			c4.882,0,8.828-3.955,8.828-8.828S252.052,441.375,247.17,441.375"/>
	</g>
</g>
<g>
</g>
<g>
</g>
<g>
</g>
<g>
</g>
<g>
</g>
<g>
</g>
<g>
</g>
<g>
</g>
<g>
</g>
<g>
</g>
<g>
</g>
<g>
</g>
<g>
</g>
<g>
</g>
<g>
</g>
</svg>
