<?xml version="1.0" encoding="iso-8859-1"?>
<!-- Generator: Adobe Illustrator 19.0.0, SVG Export Plug-In . SVG Version: 6.00 Build 0)  -->
<svg version="1.1" id="Layer_1" xmlns="http://www.w3.org/2000/svg" xmlns:xlink="http://www.w3.org/1999/xlink" x="0px" y="0px"
	 viewBox="0 0 511.999 511.999" style="enable-background:new 0 0 511.999 511.999;" xml:space="preserve">
<g>
	<g>
		<path style="fill:#24AE5F;" d="M211.863,267.095v-22.184c0-7.036,1.924-13.577,5.014-19.412
			c-11.82-11.97-50.741-47.113-101.976-48.949c0,0-27.789,30.57-26.589,79.448c-1.201,48.887,26.589,79.448,26.589,79.448
			c51.235-1.827,90.156-36.97,101.976-48.94C213.787,280.672,211.863,274.122,211.863,267.095"/>
		<path style="fill:#24AE5F;" d="M397.105,176.552c-51.244,1.836-90.165,36.97-101.985,48.94c3.098,5.844,5.023,12.385,5.023,19.421
			v22.184c0,7.027-1.924,13.568-5.023,19.412c11.82,11.97,50.741,47.104,101.985,48.94c0,0,27.78-30.561,26.589-79.448
			C424.885,207.113,397.105,176.552,397.105,176.552"/>
	</g>
	<g>
		<path style="fill:#13A085;" d="M88.311,256c-0.318-13.206,1.501-25.017,4.29-35.31H0v70.621h92.601
			C89.812,281.018,87.993,269.207,88.311,256"/>
		<path style="fill:#13A085;" d="M419.398,220.69c2.79,10.293,4.608,22.104,4.29,35.31c0.318,13.206-1.501,25.017-4.29,35.31h92.601
			V220.69H419.398z"/>
	</g>
	<g>
		<path style="fill:#137F6A;" d="M211.863,264.828h-52.966c-4.882,0-8.828-3.955-8.828-8.828c0-4.873,3.946-8.828,8.828-8.828
			h52.966c4.882,0,8.828,3.955,8.828,8.828C220.691,260.873,216.745,264.828,211.863,264.828"/>
		<path style="fill:#137F6A;" d="M353.104,264.828h-52.966c-4.882,0-8.828-3.955-8.828-8.828c0-4.873,3.946-8.828,8.828-8.828
			h52.966c4.882,0,8.828,3.955,8.828,8.828C361.932,260.873,357.986,264.828,353.104,264.828"/>
		<path style="fill:#137F6A;" d="M353.104,264.828c-2.26,0-4.52-0.865-6.241-2.586c-3.452-3.452-3.452-9.031,0-12.482l35.31-35.31
			c3.452-3.452,9.031-3.452,12.482,0c3.452,3.452,3.452,9.031,0,12.482l-35.31,35.31
			C357.624,263.963,355.364,264.828,353.104,264.828"/>
		<path style="fill:#137F6A;" d="M388.415,300.138c-2.26,0-4.52-0.865-6.241-2.586l-35.31-35.31c-3.452-3.452-3.452-9.031,0-12.482
			c3.452-3.452,9.031-3.452,12.482,0l35.31,35.31c3.452,3.452,3.452,9.031,0,12.482
			C392.934,299.273,390.675,300.138,388.415,300.138"/>
		<path style="fill:#137F6A;" d="M158.897,264.828c-2.26,0-4.52-0.865-6.241-2.586l-35.31-35.31c-3.452-3.452-3.452-9.031,0-12.482
			c3.452-3.452,9.031-3.452,12.482,0l35.31,35.31c3.452,3.452,3.452,9.031,0,12.482
			C163.417,263.963,161.157,264.828,158.897,264.828"/>
		<path style="fill:#137F6A;" d="M123.587,300.138c-2.26,0-4.52-0.865-6.241-2.586c-3.452-3.452-3.452-9.031,0-12.482l35.31-35.31
			c3.452-3.452,9.031-3.452,12.482,0c3.452,3.452,3.452,9.031,0,12.482l-35.31,35.31
			C128.107,299.273,125.847,300.138,123.587,300.138"/>
		<path style="fill:#137F6A;" d="M194.208,264.828c-2.26,0-4.52-0.865-6.241-2.586l-17.655-17.655
			c-3.452-3.452-3.452-9.031,0-12.482c3.452-3.452,9.031-3.452,12.482,0l17.655,17.655c3.452,3.452,3.452,9.031,0,12.482
			C198.727,263.963,196.468,264.828,194.208,264.828"/>
		<path style="fill:#137F6A;" d="M176.553,282.483c-2.26,0-4.52-0.865-6.241-2.586c-3.452-3.452-3.452-9.031,0-12.482l17.655-17.655
			c3.452-3.452,9.031-3.452,12.482,0c3.452,3.452,3.452,9.031,0,12.482l-17.655,17.655
			C181.072,281.618,178.812,282.483,176.553,282.483"/>
		<path style="fill:#137F6A;" d="M317.794,264.828c-2.26,0-4.52-0.865-6.241-2.586c-3.452-3.452-3.452-9.031,0-12.482l17.655-17.655
			c3.452-3.452,9.031-3.452,12.482,0c3.452,3.452,3.452,9.031,0,12.482l-17.655,17.655
			C322.314,263.963,320.054,264.828,317.794,264.828"/>
		<path style="fill:#137F6A;" d="M335.449,282.483c-2.26,0-4.52-0.865-6.241-2.586l-17.655-17.655
			c-3.452-3.452-3.452-9.031,0-12.482c3.452-3.452,9.031-3.452,12.482,0l17.655,17.655c3.452,3.452,3.452,9.031,0,12.482
			C339.969,281.618,337.709,282.483,335.449,282.483"/>
	</g>
	<path style="fill:#13A085;" d="M256.001,308.966L256.001,308.966c-24.276,0-44.138-19.862-44.138-44.138v-17.655
		c0-24.276,19.862-44.138,44.138-44.138s44.138,19.862,44.138,44.138v17.655C300.139,289.104,280.277,308.966,256.001,308.966"/>
</g>
<g>
</g>
<g>
</g>
<g>
</g>
<g>
</g>
<g>
</g>
<g>
</g>
<g>
</g>
<g>
</g>
<g>
</g>
<g>
</g>
<g>
</g>
<g>
</g>
<g>
</g>
<g>
</g>
<g>
</g>
</svg>
