<?xml version="1.0" encoding="iso-8859-1"?>
<!-- Generator: Adobe Illustrator 19.0.0, SVG Export Plug-In . SVG Version: 6.00 Build 0)  -->
<svg version="1.1" id="Layer_1" xmlns="http://www.w3.org/2000/svg" xmlns:xlink="http://www.w3.org/1999/xlink" x="0px" y="0px"
	 viewBox="0 0 512 512" style="enable-background:new 0 0 512 512;" xml:space="preserve">
<g>
	<path style="fill:#95A5A5;" d="M308.967,176.552V32.097c0-17.726-7.91-32.097-17.655-32.097h-70.621
		c-9.746,0-17.655,14.371-17.655,32.097v144.455H308.967z"/>
	<g>
		<path style="fill:#7F8C8D;" d="M352.605,194.207h0.503l-11.917-70.621c-3.354-15.104-16.746-25.856-32.221-25.856v56.532
			C326.784,163.549,341.809,177.373,352.605,194.207"/>
		<path style="fill:#7F8C8D;" d="M159.406,194.207h-0.512l11.917-70.621c3.354-15.104,16.746-25.856,32.221-25.856v56.532
			C185.227,163.549,170.202,177.373,159.406,194.207"/>
		<path style="fill:#7F8C8D;" d="M159.398,317.793h-0.503l11.917,70.621c3.354,15.104,16.746,25.856,32.221,25.856v-56.523
			C185.227,348.451,170.194,334.627,159.398,317.793"/>
		<path style="fill:#7F8C8D;" d="M352.605,317.793h0.503l-11.917,70.621c-3.354,15.104-16.746,25.856-32.221,25.856v-56.532
			C326.784,348.451,341.809,334.627,352.605,317.793"/>
	</g>
	<g>
		<path style="fill:#95A5A5;" d="M203.036,344.276v137.225c0,16.843,7.91,30.499,17.655,30.499h70.621
			c9.746,0,17.655-13.656,17.655-30.499V344.276H203.036z"/>
		<path style="fill:#95A5A5;" d="M367.571,229.517c2.013,8.519,3.187,17.355,3.187,26.483c0,9.137-1.174,17.973-3.187,26.483h29.669
			c4.882,0,8.828-3.955,8.828-8.828v-35.31c0-4.873-3.946-8.828-8.828-8.828H367.571z"/>
	</g>
	<path style="fill:#E6E7E8;" d="M370.76,256c0,63.382-51.377,114.759-114.759,114.759S141.243,319.382,141.243,256
		s51.377-114.759,114.759-114.759S370.76,192.618,370.76,256"/>
	<path style="fill:#95A5A5;" d="M141.243,256c0-6.02,0.6-11.882,1.501-17.655H114.76c-4.882,0-8.828,3.955-8.828,8.828v17.655
		c0,4.873,3.946,8.828,8.828,8.828h27.983C141.843,267.891,141.243,262.02,141.243,256"/>
	<g>
		<path style="fill:#536363;" d="M203.036,256c0,4.873-3.946,8.828-8.828,8.828c-4.882,0-8.828-3.955-8.828-8.828
			s3.946-8.828,8.828-8.828C199.09,247.172,203.036,251.127,203.036,256"/>
		<path style="fill:#536363;" d="M264.829,317.793c0,4.873-3.946,8.828-8.828,8.828c-4.882,0-8.828-3.955-8.828-8.828
			c0-4.873,3.946-8.828,8.828-8.828C260.883,308.966,264.829,312.92,264.829,317.793"/>
		<path style="fill:#536363;" d="M326.622,256c0,4.873-3.946,8.828-8.828,8.828s-8.828-3.955-8.828-8.828s3.946-8.828,8.828-8.828
			S326.622,251.127,326.622,256"/>
		<path style="fill:#536363;" d="M291.312,264.828h-35.31c-4.882,0-8.828-3.955-8.828-8.828v-52.966
			c0-4.873,3.946-8.828,8.828-8.828c4.882,0,8.828,3.955,8.828,8.828v44.138h26.483c4.882,0,8.828,3.955,8.828,8.828
			S296.193,264.828,291.312,264.828"/>
		<path style="fill:#536363;" d="M256.001,141.241c-2.984,0-5.906,0.221-8.828,0.45v26.033c0,4.873,3.946,8.828,8.828,8.828
			c4.882,0,8.828-3.955,8.828-8.828v-26.033C261.907,141.462,258.985,141.241,256.001,141.241"/>
		<path style="fill:#536363;" d="M330.605,168.91l-18.423,18.423c-3.452,3.452-3.452,9.039,0,12.482
			c1.721,1.73,3.981,2.586,6.241,2.586c2.26,0,4.52-0.856,6.241-2.586l18.423-18.423C339.247,176.916,335.089,172.75,330.605,168.91
			"/>
		<path style="fill:#536363;" d="M370.311,247.172h-26.033c-4.882,0-8.828,3.955-8.828,8.828s3.946,8.828,8.828,8.828h26.033
			c0.221-2.922,0.45-5.853,0.45-8.828C370.762,253.025,370.532,250.094,370.311,247.172"/>
		<path style="fill:#536363;" d="M343.087,330.608l-18.423-18.423c-3.452-3.452-9.031-3.452-12.482,0
			c-3.452,3.443-3.452,9.031,0,12.482l18.423,18.423C335.089,339.25,339.247,335.084,343.087,330.608"/>
		<path style="fill:#536363;" d="M256.001,335.448c-4.882,0-8.828,3.955-8.828,8.828v26.033c2.922,0.229,5.844,0.45,8.828,0.45
			c2.984,0,5.906-0.221,8.828-0.45v-26.033C264.829,339.403,260.883,335.448,256.001,335.448"/>
		<path style="fill:#536363;" d="M187.338,312.181l-18.423,18.423c3.84,4.476,7.998,8.651,12.482,12.482l18.423-18.423
			c3.452-3.452,3.452-9.031,0-12.482S190.789,308.73,187.338,312.181"/>
		<path style="fill:#536363;" d="M167.725,247.172h-26.033c-0.23,2.922-0.45,5.853-0.45,8.828c0,2.975,0.221,5.906,0.45,8.828
			h26.033c4.882,0,8.828-3.955,8.828-8.828S172.607,247.172,167.725,247.172"/>
		<path style="fill:#536363;" d="M168.915,181.392l18.423,18.423c1.721,1.73,3.981,2.586,6.241,2.586c2.26,0,4.52-0.856,6.241-2.586
			c3.452-3.443,3.452-9.031,0-12.482l-18.423-18.423C176.913,172.75,172.755,176.916,168.915,181.392"/>
	</g>
</g>
<g>
</g>
<g>
</g>
<g>
</g>
<g>
</g>
<g>
</g>
<g>
</g>
<g>
</g>
<g>
</g>
<g>
</g>
<g>
</g>
<g>
</g>
<g>
</g>
<g>
</g>
<g>
</g>
<g>
</g>
</svg>
