<?xml version="1.0" encoding="iso-8859-1"?>
<!-- Generator: Adobe Illustrator 19.0.0, SVG Export Plug-In . SVG Version: 6.00 Build 0)  -->
<svg version="1.1" id="Layer_1" xmlns="http://www.w3.org/2000/svg" xmlns:xlink="http://www.w3.org/1999/xlink" x="0px" y="0px"
	 viewBox="0 0 512 512" style="enable-background:new 0 0 512 512;" xml:space="preserve">
<g>
	<g>
		<path style="fill:#805333;" d="M238.344,370.759c-19.121,0-37.111-4.74-52.966-13.012v136.598c0,9.746,7.91,17.655,17.655,17.655
			h70.621c9.746,0,17.655-7.91,17.655-17.655V357.747C275.455,366.018,257.465,370.759,238.344,370.759"/>
		<path style="fill:#805333;" d="M238.344,141.241c19.121,0,37.111,4.749,52.965,13.021V17.655C291.309,7.91,283.4,0,273.654,0
			h-70.621c-9.746,0-17.655,7.91-17.655,17.655v136.616C201.242,145.991,219.215,141.241,238.344,141.241"/>
	</g>
	<g>
		<path style="fill:#603C24;" d="M247.172,97.103c0,4.873-3.955,8.828-8.828,8.828c-4.873,0-8.828-3.955-8.828-8.828
			s3.955-8.828,8.828-8.828C243.217,88.276,247.172,92.231,247.172,97.103"/>
		<path style="fill:#603C24;" d="M247.172,44.138c0,4.873-3.955,8.828-8.828,8.828c-4.873,0-8.828-3.955-8.828-8.828
			s3.955-8.828,8.828-8.828C243.217,35.31,247.172,39.265,247.172,44.138"/>
	</g>
	<path style="fill:#E6E7E8;" d="M353.103,256c0,63.382-51.377,114.759-114.759,114.759S123.585,319.382,123.585,256
		s51.377-114.759,114.759-114.759S353.103,192.618,353.103,256"/>
	<g>
		<path style="fill:#603C24;" d="M141.745,317.793h-0.503l11.908,53.592c3.354,15.113,16.755,25.856,32.23,25.856v-39.495
			C167.565,348.451,152.541,334.627,141.745,317.793"/>
		<path style="fill:#603C24;" d="M334.943,317.793h0.503l-11.908,53.592c-3.354,15.113-16.755,25.856-32.229,25.856v-39.503
			C309.123,348.451,324.147,334.627,334.943,317.793"/>
		<path style="fill:#603C24;" d="M334.943,194.207h0.503l-11.908-53.592c-3.354-15.113-16.755-25.856-32.229-25.856v39.503
			C309.123,163.549,324.147,177.373,334.943,194.207"/>
		<path style="fill:#603C24;" d="M141.745,194.207h-0.503l11.908-53.592c3.354-15.113,16.755-25.856,32.23-25.856v39.503
			C167.565,163.549,152.541,177.373,141.745,194.207"/>
	</g>
	<path style="fill:#95A5A5;" d="M349.909,229.517c2.013,8.519,3.196,17.355,3.196,26.483c0,9.137-1.183,17.973-3.196,26.483h29.678
		c4.873,0,8.828-3.955,8.828-8.828v-35.31c0-4.873-3.955-8.828-8.828-8.828H349.909z"/>
	<g>
		<path style="fill:#7F8C8D;" d="M185.378,256c0,4.873-3.955,8.828-8.828,8.828c-4.873,0-8.828-3.955-8.828-8.828
			s3.955-8.828,8.828-8.828C181.424,247.172,185.378,251.127,185.378,256"/>
		<path style="fill:#7F8C8D;" d="M308.965,256c0,4.873-3.955,8.828-8.828,8.828s-8.828-3.955-8.828-8.828s3.955-8.828,8.828-8.828
			S308.965,251.127,308.965,256"/>
		<path style="fill:#7F8C8D;" d="M273.654,264.828h-35.31c-4.873,0-8.828-3.955-8.828-8.828v-52.966
			c0-4.873,3.955-8.828,8.828-8.828c4.873,0,8.828,3.955,8.828,8.828v44.138h26.483c4.873,0,8.828,3.955,8.828,8.828
			S278.527,264.828,273.654,264.828"/>
		<path style="fill:#7F8C8D;" d="M312.952,168.91l-18.423,18.423c-3.452,3.452-3.452,9.039,0,12.482
			c1.721,1.73,3.981,2.586,6.241,2.586c2.251,0,4.511-0.856,6.241-2.586l18.423-18.423
			C321.594,176.916,317.428,172.75,312.952,168.91"/>
	</g>
	<path style="fill:#E6E7E8;" d="M238.344,141.241c-2.975,0-5.906,0.221-8.828,0.45v26.033c0,4.873,3.955,8.828,8.828,8.828
		c4.873,0,8.828-3.955,8.828-8.828v-26.033C244.25,141.462,241.319,141.241,238.344,141.241"/>
	<g>
		<path style="fill:#7F8C8D;" d="M352.654,247.172h-26.033c-4.873,0-8.828,3.955-8.828,8.828s3.955,8.828,8.828,8.828h26.033
			c0.221-2.922,0.45-5.853,0.45-8.828C353.104,253.025,352.875,250.094,352.654,247.172"/>
		<path style="fill:#7F8C8D;" d="M325.434,330.608l-18.423-18.423c-3.452-3.452-9.039-3.452-12.482,0
			c-3.452,3.443-3.452,9.031,0,12.482l18.423,18.423C317.428,339.25,321.594,335.084,325.434,330.608"/>
		<path style="fill:#7F8C8D;" d="M238.344,335.448c-4.873,0-8.828,3.955-8.828,8.828v26.033c2.922,0.229,5.853,0.45,8.828,0.45
			c2.975,0,5.906-0.221,8.828-0.45v-26.033C247.172,339.403,243.217,335.448,238.344,335.448"/>
		<path style="fill:#7F8C8D;" d="M151.254,181.392l18.423,18.423c1.73,1.73,3.99,2.586,6.241,2.586c2.26,0,4.52-0.856,6.241-2.586
			c3.452-3.443,3.452-9.031,0-12.482l-18.423-18.423C159.26,172.75,155.094,176.916,151.254,181.392"/>
		<path style="fill:#7F8C8D;" d="M150.068,247.172h-26.033c-0.23,2.922-0.45,5.853-0.45,8.828c0,2.975,0.221,5.906,0.45,8.828
			h26.033c4.873,0,8.828-3.955,8.828-8.828S154.941,247.172,150.068,247.172"/>
		<path style="fill:#7F8C8D;" d="M169.68,312.181l-18.423,18.423c3.831,4.476,8.007,8.651,12.482,12.482l18.423-18.423
			c3.452-3.452,3.452-9.031,0-12.482S173.132,308.73,169.68,312.181"/>
	</g>
</g>
<g>
</g>
<g>
</g>
<g>
</g>
<g>
</g>
<g>
</g>
<g>
</g>
<g>
</g>
<g>
</g>
<g>
</g>
<g>
</g>
<g>
</g>
<g>
</g>
<g>
</g>
<g>
</g>
<g>
</g>
</svg>
