<?xml version="1.0" encoding="iso-8859-1"?>
<!-- Generator: Adobe Illustrator 19.0.0, SVG Export Plug-In . SVG Version: 6.00 Build 0)  -->
<svg version="1.1" id="Layer_1" xmlns="http://www.w3.org/2000/svg" xmlns:xlink="http://www.w3.org/1999/xlink" x="0px" y="0px"
	 viewBox="0 0 512.006 512.006" style="enable-background:new 0 0 512.006 512.006;" xml:space="preserve">
<g transform="translate(-1)">
	<path style="fill:#35495E;" d="M15.103,133.026c16.446-2.692,36.908,4.996,48.225,20.259c3.761,5.067,8.342,9.472,12.932,13.798
		l11.193,9.437L54.606,53.931c-0.936-4.078-1.042-8.404,0.353-12.35c3.196-9.048,11.723-15.06,21.734-15.06
		c12.747,0,18.75,8.289,23.075,25l33.562,101.155l0.079-130.604c0-12.941,11.14-23.278,24.346-21.954
		c11.494,1.148,19.791,11.67,19.791,23.217l-0.079,118.572l34.172-83.562c2.701-9.154,10.514-23.031,23.075-23.031
		c4.555,0,8.792,1.324,12.367,3.593c8.386,5.332,11.679,15.996,9.022,25.556l-30.19,94.746l39.777-53.901
		c9.26-12.8,18.635-17.673,25.759-16.958c15.872,1.58,22.616,18.476,15.978,31.744l-31.868,59.763l-29.617,75.67
		c-16.093,41.154-24.258,84.948-24.258,129.13v21.416H106.927l-0.097-67.831c0-13.506-2.551-26.889-7.521-39.45
		c-6.938-17.532-82.962-124.769-94.173-137.763c-5.438-6.303-5.517-15.563-0.221-21.99C7.502,135.904,11.095,133.679,15.103,133.026
		"/>
	<path style="fill:#2C3E50;" d="M494.482,194.281c-7.124-0.715-16.499,4.158-25.759,16.958l-39.777,53.901l30.19-94.746
		c2.657-9.56-0.636-20.224-9.013-25.556c-3.584-2.269-7.821-3.593-12.376-3.593c-12.562,0-20.365,13.877-23.075,23.031
		L380.5,247.838l0.088-118.572c0-11.546-8.307-22.06-19.8-23.217c-13.206-1.324-24.338,9.013-24.338,21.954l-0.088,130.613
		L302.8,157.452c-1.783-6.894-3.884-12.27-6.594-16.305l-20.648,38.709l-7.459,19.068l27.127,88.735l-11.202-9.437
		c-4.582-4.334-9.172-8.73-12.932-13.798c-4.352-5.862-14.786-15.784-21.08-19.253l-4.061,10.355
		c-5.182,13.241-9.446,26.783-12.977,40.492c8.483,10.487,62.429,91.171,69.367,108.703c4.97,12.562,7.521,25.944,7.521,39.45
		l0.106,67.831h114.759v-21.416c0-44.182,8.157-87.976,24.258-129.13l29.608-75.67l31.876-59.763
		C517.107,212.757,510.354,195.861,494.482,194.281"/>
	<g>
		<path style="fill:#1C2A35;" d="M168.637,211.867c-4.882,0-8.828-3.955-8.828-8.828v-17.655c0-4.873,3.946-8.828,8.828-8.828
			s8.828,3.955,8.828,8.828v17.655C177.464,207.912,173.518,211.867,168.637,211.867 M168.637,264.832
			c-4.882,0-8.828-3.955-8.828-8.828v-8.828c0-4.873,3.946-8.828,8.828-8.828s8.828,3.955,8.828,8.828v8.828
			C177.464,260.878,173.518,264.832,168.637,264.832"/>
		<path style="fill:#1C2A35;" d="M218.939,204.884c-0.715,0-1.43-0.088-2.154-0.265c-4.723-1.183-7.601-5.976-6.418-10.708
			l2.675-10.673c1.174-4.74,5.976-7.601,10.708-6.418c4.723,1.183,7.601,5.976,6.409,10.708l-2.666,10.673
			C226.486,202.209,222.885,204.884,218.939,204.884 M203.958,264.832c-0.715,0-1.43-0.079-2.145-0.265
			c-4.74-1.183-7.618-5.976-6.426-10.708l4.281-17.126c1.192-4.732,6.047-7.601,10.699-6.426c4.732,1.192,7.618,5.985,6.426,10.708
			l-4.29,17.134C211.506,262.158,207.913,264.832,203.958,264.832"/>
		<path style="fill:#1C2A35;" d="M118.335,204.884c-3.946,0-7.548-2.675-8.554-6.682l-2.666-10.673
			c-1.192-4.732,1.686-9.525,6.409-10.708c4.732-1.156,9.525,1.677,10.708,6.418l2.675,10.673c1.183,4.732-1.695,9.525-6.418,10.708
			C119.765,204.796,119.05,204.884,118.335,204.884 M133.316,264.832c-3.955,0-7.548-2.675-8.545-6.682l-4.29-17.134
			c-1.192-4.723,1.695-9.516,6.426-10.708c4.714-1.183,9.516,1.695,10.699,6.426l4.281,17.126c1.192,4.732-1.686,9.525-6.426,10.708
			C134.746,264.753,134.022,264.832,133.316,264.832"/>
		<path style="fill:#1C2A35;" d="M225.094,335.453h-47.545c-9.746,0-17.655,7.91-17.655,17.655c0,9.746,7.91,17.655,17.655,17.655
			h44.456C222.473,358.934,223.47,347.15,225.094,335.453"/>
	</g>
	<g>
		<path style="fill:#475C6B;" d="M371.671,317.798c-4.882,0-8.828-3.955-8.828-8.828v-17.655c0-4.873,3.946-8.828,8.828-8.828
			c4.882,0,8.828,3.955,8.828,8.828v17.655C380.499,313.843,376.553,317.798,371.671,317.798 M371.671,370.763
			c-4.882,0-8.828-3.955-8.828-8.828v-8.828c0-4.873,3.946-8.828,8.828-8.828c4.882,0,8.828,3.955,8.828,8.828v8.828
			C380.499,366.809,376.553,370.763,371.671,370.763"/>
		<path style="fill:#475C6B;" d="M421.973,310.815c-0.715,0-1.43-0.088-2.154-0.265c-4.723-1.183-7.601-5.976-6.418-10.708
			l2.675-10.673c1.183-4.74,5.985-7.583,10.708-6.418c4.723,1.183,7.601,5.976,6.409,10.708l-2.666,10.673
			C429.521,308.141,425.919,310.815,421.973,310.815 M406.993,370.763c-0.715,0-1.43-0.079-2.145-0.265
			c-4.74-1.183-7.618-5.976-6.426-10.708l4.281-17.125c1.183-4.732,6.038-7.583,10.699-6.427c4.732,1.192,7.618,5.985,6.426,10.708
			l-4.29,17.134C414.541,368.089,410.948,370.763,406.993,370.763"/>
		<path style="fill:#475C6B;" d="M321.37,310.815c-3.946,0-7.548-2.675-8.554-6.682l-2.666-10.673
			c-1.192-4.732,1.686-9.525,6.409-10.708c4.74-1.148,9.525,1.686,10.708,6.418l2.675,10.673c1.183,4.732-1.695,9.525-6.418,10.708
			C322.8,310.727,322.085,310.815,321.37,310.815 M336.35,370.763c-3.955,0-7.548-2.675-8.545-6.682l-4.29-17.134
			c-1.192-4.723,1.695-9.516,6.426-10.708c4.723-1.183,9.516,1.695,10.699,6.427l4.281,17.125c1.192,4.732-1.686,9.525-6.426,10.708
			C337.78,370.684,337.056,370.763,336.35,370.763"/>
		<path style="fill:#475C6B;" d="M428.129,441.384h-47.545c-9.746,0-17.655,7.91-17.655,17.655c0,9.746,7.91,17.655,17.655,17.655
			h44.456C425.507,464.865,426.505,453.081,428.129,441.384"/>
	</g>
	<g>
		<path style="fill:#1C2A35;" d="M234.085,291.768c-0.733-0.194-1.448-0.45-2.242-0.45h-36.634c-4.882,0-8.828,3.946-8.828,8.828
			c0,4.873,3.946,8.828,8.828,8.828h34.684C231.154,303.2,232.54,297.471,234.085,291.768"/>
		<path style="fill:#1C2A35;" d="M168.723,353.108c0-4.873-3.946-8.828-8.828-8.828H106.93c-0.035,0-0.062,0.018-0.097,0.018
			l0.026,17.629c0.026,0,0.044,0.009,0.071,0.009h52.966C164.777,361.936,168.723,357.981,168.723,353.108"/>
	</g>
	<g>
		<path style="fill:#475C6B;" d="M437.12,397.699c-0.733-0.194-1.448-0.45-2.242-0.45h-36.634c-4.882,0-8.828,3.946-8.828,8.828
			c0,4.873,3.946,8.828,8.828,8.828h34.684C434.189,409.131,435.575,403.402,437.12,397.699"/>
		<path style="fill:#475C6B;" d="M371.758,459.039c0-4.873-3.946-8.828-8.828-8.828h-52.966c-0.035,0-0.062,0.018-0.097,0.018
			l0.026,17.629c0.027,0,0.044,0.009,0.071,0.009h52.966C367.812,467.867,371.758,463.912,371.758,459.039"/>
	</g>
</g>
<g>
</g>
<g>
</g>
<g>
</g>
<g>
</g>
<g>
</g>
<g>
</g>
<g>
</g>
<g>
</g>
<g>
</g>
<g>
</g>
<g>
</g>
<g>
</g>
<g>
</g>
<g>
</g>
<g>
</g>
</svg>
