<?xml version="1.0" encoding="iso-8859-1"?>
<!-- Generator: Adobe Illustrator 19.0.0, SVG Export Plug-In . SVG Version: 6.00 Build 0)  -->
<svg version="1.1" id="Layer_1" xmlns="http://www.w3.org/2000/svg" xmlns:xlink="http://www.w3.org/1999/xlink" x="0px" y="0px"
	 viewBox="0 0 512 512" style="enable-background:new 0 0 512 512;" xml:space="preserve">
<g transform="translate(-1)">
	<g>
		<path style="fill:#24AE5F;" d="M359.4,358.4c-4.719,0-8.533-3.823-8.533-8.533v-34.133c0-4.71,3.814-8.533,8.533-8.533
			c4.719,0,8.533,3.823,8.533,8.533v34.133C367.933,354.577,364.119,358.4,359.4,358.4"/>
		<path style="fill:#24AE5F;" d="M325.267,358.4c-4.719,0-8.533-3.823-8.533-8.533v-34.133c0-4.71,3.814-8.533,8.533-8.533
			c4.719,0,8.533,3.823,8.533,8.533v34.133C333.8,354.577,329.986,358.4,325.267,358.4"/>
	</g>
	<path style="fill:#E6E7E8;" d="M257,85.333c-4.719,0-8.533-3.823-8.533-8.533v-9.609c-14.711-3.806-25.6-17.186-25.6-33.058
		C222.867,15.309,238.175,0,257,0c18.825,0,34.133,15.309,34.133,34.133c0,4.71-3.814,8.533-8.533,8.533s-8.533-3.823-8.533-8.533
		c0-9.412-7.654-17.067-17.067-17.067c-9.412,0-17.067,7.654-17.067,17.067S247.588,51.2,257,51.2c4.719,0,8.533,3.823,8.533,8.533
		V76.8C265.533,81.51,261.719,85.333,257,85.333"/>
	<path style="fill:#805333;" d="M461.8,187.733h-93.867c-4.719,0-8.533-3.823-8.533-8.533s3.814-8.533,8.533-8.533h57.719L257,86.34
		L88.347,170.667H154.6c4.719,0,8.533,3.823,8.533,8.533s-3.814,8.533-8.533,8.533H52.2c-3.959,0-7.39-2.722-8.311-6.571
		c-0.905-3.857,0.956-7.825,4.497-9.6l204.8-102.4c2.398-1.195,5.231-1.195,7.629,0l204.8,102.4c3.541,1.775,5.402,5.743,4.497,9.6
		C469.19,185.011,465.759,187.733,461.8,187.733"/>
	<path style="fill:#1B7F43;" d="M367.933,324.267h-76.8c-4.719,0-8.533-3.823-8.533-8.533v-153.6c0-4.71,3.814-8.533,8.533-8.533
		h76.8c4.719,0,8.533,3.823,8.533,8.533v153.6C376.467,320.444,372.652,324.267,367.933,324.267"/>
	<polygon style="fill:#C03A2B;" points="291.133,162.133 291.133,315.733 300.273,315.733 367.933,238.327 300.273,162.133 	"/>
	<g>
		<path style="fill:#1B7F43;" d="M154.6,512c-4.719,0-8.533-3.823-8.533-8.533v-34.133c0-4.71,3.814-8.533,8.533-8.533
			s8.533,3.823,8.533,8.533v34.133C163.133,508.177,159.319,512,154.6,512"/>
		<path style="fill:#1B7F43;" d="M188.733,512c-4.719,0-8.533-3.823-8.533-8.533v-34.133c0-4.71,3.814-8.533,8.533-8.533
			c4.719,0,8.533,3.823,8.533,8.533v34.133C197.267,508.177,193.452,512,188.733,512"/>
		<path style="fill:#1B7F43;" d="M222.867,512c-4.719,0-8.533-3.823-8.533-8.533v-34.133c0-4.71,3.814-8.533,8.533-8.533
			c4.719,0,8.533,3.823,8.533,8.533v34.133C231.4,508.177,227.586,512,222.867,512"/>
		<path style="fill:#1B7F43;" d="M257,512c-4.719,0-8.533-3.823-8.533-8.533v-34.133c0-4.71,3.814-8.533,8.533-8.533
			c4.719,0,8.533,3.823,8.533,8.533v34.133C265.533,508.177,261.719,512,257,512"/>
		<path style="fill:#1B7F43;" d="M291.133,512c-4.719,0-8.533-3.823-8.533-8.533v-34.133c0-4.71,3.814-8.533,8.533-8.533
			c4.719,0,8.533,3.823,8.533,8.533v34.133C299.667,508.177,295.852,512,291.133,512"/>
	</g>
	<path style="fill:#24AE5F;" d="M291.133,477.867H154.6c-4.719,0-8.533-3.823-8.533-8.533v-307.2c0-4.71,3.814-8.533,8.533-8.533
		h136.533c4.719,0,8.533,3.823,8.533,8.533v307.2C299.667,474.044,295.852,477.867,291.133,477.867"/>
	<g>
		<polygon style="fill:#C03A2B;" points="291.133,391.925 223.473,469.331 154.6,391.925 223.473,315.731 		"/>
		<polygon style="fill:#C03A2B;" points="291.133,238.325 223.473,315.731 154.6,238.325 223.473,162.131 		"/>
	</g>
</g>
<g>
</g>
<g>
</g>
<g>
</g>
<g>
</g>
<g>
</g>
<g>
</g>
<g>
</g>
<g>
</g>
<g>
</g>
<g>
</g>
<g>
</g>
<g>
</g>
<g>
</g>
<g>
</g>
<g>
</g>
</svg>
