<?xml version="1.0" encoding="iso-8859-1"?>
<!-- Generator: Adobe Illustrator 19.0.0, SVG Export Plug-In . SVG Version: 6.00 Build 0)  -->
<svg version="1.1" id="Layer_1" xmlns="http://www.w3.org/2000/svg" xmlns:xlink="http://www.w3.org/1999/xlink" x="0px" y="0px"
	 viewBox="0 0 512 512" style="enable-background:new 0 0 512 512;" xml:space="preserve">
<g>
	<path style="fill:#4482C3;" d="M0,336.863c0-97.51,79.042-176.552,176.552-176.552s176.552,79.042,176.552,176.552
		C239.042,372.173,116.277,372.173,0,336.863"/>
	<g>
		<path style="fill:#285680;" d="M176.552,160.311c8.236,0,16.269,0.759,24.196,1.854c1.448-3.275,2.286-6.868,2.286-10.681
			c0-14.627-11.855-26.483-26.483-26.483s-26.483,11.855-26.483,26.483c0,3.814,0.839,7.406,2.286,10.681
			C160.282,161.071,168.316,160.311,176.552,160.311"/>
		<path style="fill:#285680;" d="M42.552,222.105c-21.027,24.514-35.31,54.855-40.351,88.276h348.707
			c-5.049-33.421-19.332-63.762-40.36-88.276H42.552z"/>
	</g>
	<g>
		<path style="fill:#F0C419;" d="M88.276,275.07h-35.31c-4.882,0-8.828-3.946-8.828-8.828s3.946-8.828,8.828-8.828h35.31
			c4.882,0,8.828,3.946,8.828,8.828S93.158,275.07,88.276,275.07"/>
		<path style="fill:#F0C419;" d="M158.897,275.07h-35.31c-4.882,0-8.828-3.946-8.828-8.828s3.946-8.828,8.828-8.828h35.31
			c4.882,0,8.828,3.946,8.828,8.828S163.778,275.07,158.897,275.07"/>
		<path style="fill:#F0C419;" d="M229.517,275.07h-35.31c-4.882,0-8.828-3.946-8.828-8.828s3.946-8.828,8.828-8.828h35.31
			c4.882,0,8.828,3.946,8.828,8.828S234.399,275.07,229.517,275.07"/>
		<path style="fill:#F0C419;" d="M300.138,275.07h-35.31c-4.882,0-8.828-3.946-8.828-8.828s3.946-8.828,8.828-8.828h35.31
			c4.882,0,8.828,3.946,8.828,8.828S305.02,275.07,300.138,275.07"/>
	</g>
	<path style="fill:#285680;" d="M353.103,336.863c-28.963,8.969-58.492,15.634-88.338,20.047l60.857,19.359
		c62.367,19.844,130.26,11.917,186.377-21.751L353.103,336.863z"/>
</g>
<g>
</g>
<g>
</g>
<g>
</g>
<g>
</g>
<g>
</g>
<g>
</g>
<g>
</g>
<g>
</g>
<g>
</g>
<g>
</g>
<g>
</g>
<g>
</g>
<g>
</g>
<g>
</g>
<g>
</g>
</svg>
