<?xml version="1.0" encoding="iso-8859-1"?>
<!-- Generator: Adobe Illustrator 19.0.0, SVG Export Plug-In . SVG Version: 6.00 Build 0)  -->
<svg version="1.1" id="Layer_1" xmlns="http://www.w3.org/2000/svg" xmlns:xlink="http://www.w3.org/1999/xlink" x="0px" y="0px"
	 viewBox="0 0 512 512" style="enable-background:new 0 0 512 512;" xml:space="preserve">
<g>
	<g>
		<path style="fill:#35495E;" d="M291.309,17.655C291.309,7.91,283.4,0,273.654,0h-70.621c-9.746,0-17.655,7.91-17.655,17.655
			v88.276h105.931V17.655z"/>
		<path style="fill:#35495E;" d="M185.378,494.345c0,9.746,7.91,17.655,17.655,17.655h70.621c9.746,0,17.655-7.91,17.655-17.655
			v-88.276H185.378V494.345z"/>
	</g>
	<path style="fill:#2C3E50;" d="M247.172,52.966c0,4.873-3.955,8.828-8.828,8.828c-4.873,0-8.828-3.955-8.828-8.828
		s3.955-8.828,8.828-8.828C243.217,44.138,247.172,48.093,247.172,52.966"/>
	<path style="fill:#E6E7E8;" d="M353.103,256c0,63.382-51.377,114.759-114.759,114.759S123.585,319.382,123.585,256
		s51.377-114.759,114.759-114.759S353.103,192.618,353.103,256"/>
	<g>
		<path style="fill:#192835;" d="M238.344,176.552c-4.873,0-8.828-3.955-8.828-8.828v-26.483c0-4.873,3.955-8.828,8.828-8.828
			c4.873,0,8.828,3.955,8.828,8.828v26.483C247.172,172.597,243.217,176.552,238.344,176.552"/>
		<path style="fill:#192835;" d="M238.344,379.586c-4.873,0-8.828-3.955-8.828-8.828v-26.483c0-4.873,3.955-8.828,8.828-8.828
			c4.873,0,8.828,3.955,8.828,8.828v26.483C247.172,375.631,243.217,379.586,238.344,379.586"/>
		<path style="fill:#192835;" d="M353.103,264.828H326.62c-4.873,0-8.828-3.955-8.828-8.828s3.955-8.828,8.828-8.828h26.483
			c4.873,0,8.828,3.955,8.828,8.828S357.975,264.828,353.103,264.828"/>
		<path style="fill:#192835;" d="M273.654,264.828h-35.31c-4.873,0-8.828-3.955-8.828-8.828v-52.966
			c0-4.873,3.955-8.828,8.828-8.828c4.873,0,8.828,3.955,8.828,8.828v44.138h26.483c4.873,0,8.828,3.955,8.828,8.828
			S278.527,264.828,273.654,264.828"/>
		<path style="fill:#192835;" d="M175.921,202.405c-2.26,0-4.52-0.865-6.241-2.586l-18.723-18.723
			c-3.452-3.452-3.452-9.039,0-12.482c3.443-3.452,9.031-3.452,12.482,0l18.723,18.723c3.452,3.452,3.452,9.031,0,12.482
			C180.441,201.54,178.181,202.405,175.921,202.405"/>
		<path style="fill:#192835;" d="M319.491,345.974c-2.26,0-4.52-0.865-6.241-2.587l-18.723-18.723
			c-3.452-3.452-3.452-9.039,0-12.482c3.443-3.452,9.031-3.452,12.482,0l18.723,18.723c3.452,3.452,3.452,9.031,0,12.482
			C324.01,345.109,321.751,345.974,319.491,345.974"/>
		<path style="fill:#192835;" d="M300.766,202.405c-2.26,0-4.52-0.865-6.241-2.586c-3.452-3.452-3.452-9.031,0-12.482l18.723-18.723
			c3.452-3.452,9.039-3.452,12.482,0c3.452,3.443,3.452,9.031,0,12.482l-18.723,18.723
			C305.286,201.54,303.026,202.405,300.766,202.405"/>
		<path style="fill:#192835;" d="M157.197,345.974c-2.26,0-4.52-0.865-6.241-2.587c-3.452-3.452-3.452-9.031,0-12.482l18.723-18.723
			c3.452-3.452,9.039-3.452,12.482,0c3.452,3.443,3.452,9.031,0,12.482l-18.723,18.723
			C161.717,345.109,159.457,345.974,157.197,345.974"/>
	</g>
	<path style="fill:#35495E;" d="M349.909,229.517c2.013,8.519,3.196,17.355,3.196,26.483c0,9.137-1.183,17.973-3.196,26.483h29.678
		c4.873,0,8.828-3.955,8.828-8.828v-35.31c0-4.873-3.955-8.828-8.828-8.828H349.909z"/>
	<g>
		<path style="fill:#2C3E50;" d="M141.745,194.207c5.279-8.236,11.591-15.722,18.75-22.343c0.327-0.309,0.662-0.609,0.998-0.909
			c20.348-18.406,47.245-29.714,76.853-29.714c29.599,0,56.497,11.308,76.853,29.714c0.335,0.3,0.671,0.6,0.998,0.909
			c7.159,6.621,13.471,14.106,18.75,22.343h0.503l-11.908-62.42c-3.363-15.113-16.755-25.856-32.23-25.856H185.379
			c-15.475,0-28.875,10.743-32.23,25.856l-11.908,62.42H141.745z"/>
		<path style="fill:#2C3E50;" d="M334.943,317.793c-5.288,8.245-11.591,15.722-18.75,22.343c-0.327,0.309-0.662,0.609-0.998,0.918
			c-20.356,18.406-47.245,29.705-76.853,29.705c-29.599,0-56.497-11.299-76.853-29.705c-0.335-0.309-0.671-0.609-1.006-0.918
			c-7.15-6.621-13.462-14.098-18.741-22.343h-0.503l11.908,62.429c3.363,15.104,16.755,25.847,32.23,25.847h105.931
			c15.475,0,28.875-10.743,32.229-25.847l11.908-62.429H334.943z"/>
	</g>
	<path style="fill:#192835;" d="M150.068,247.172h-26.033c-0.23,2.922-0.45,5.853-0.45,8.828c0,2.975,0.221,5.906,0.45,8.828h26.033
		c4.873,0,8.828-3.955,8.828-8.828S154.941,247.172,150.068,247.172"/>
</g>
<g>
</g>
<g>
</g>
<g>
</g>
<g>
</g>
<g>
</g>
<g>
</g>
<g>
</g>
<g>
</g>
<g>
</g>
<g>
</g>
<g>
</g>
<g>
</g>
<g>
</g>
<g>
</g>
<g>
</g>
</svg>
