<?xml version="1.0" encoding="iso-8859-1"?>
<!-- Generator: Adobe Illustrator 19.0.0, SVG Export Plug-In . SVG Version: 6.00 Build 0)  -->
<svg version="1.1" id="Layer_1" xmlns="http://www.w3.org/2000/svg" xmlns:xlink="http://www.w3.org/1999/xlink" x="0px" y="0px"
	 viewBox="0 0 512 512" style="enable-background:new 0 0 512 512;" xml:space="preserve">
<g>
	<path style="fill:#BDC3C7;" d="M256,251.586c-4.873,0-8.828-3.946-8.828-8.828v-18.776c-15.21-3.919-26.483-17.77-26.483-34.189
		c0-19.474,15.837-35.31,35.31-35.31s35.31,15.837,35.31,35.31c0,4.882-3.955,8.828-8.828,8.828c-4.873,0-8.828-3.946-8.828-8.828
		c0-9.737-7.918-17.655-17.655-17.655c-9.737,0-17.655,7.918-17.655,17.655s7.918,17.655,17.655,17.655
		c4.873,0,8.828,3.946,8.828,8.828v26.483C264.828,247.64,260.873,251.586,256,251.586"/>
	<path style="fill:#805333;" d="M229.517,269.241c0-14.627,11.855-26.483,26.483-26.483c14.627,0,26.483,11.855,26.483,26.483
		c0,0,48.004,49.099,167.724,52.966c0,0,61.237-2.763,61.793,35.31h-61.793c-119.72-3.858-167.724-52.966-167.724-52.966
		c-17.69-11.185-36.237-11.388-52.966,0c0,0-47.996,49.108-167.724,52.966H0c0.556-38.073,61.793-35.31,61.793-35.31
		C181.522,318.34,229.517,269.241,229.517,269.241"/>
</g>
<g>
</g>
<g>
</g>
<g>
</g>
<g>
</g>
<g>
</g>
<g>
</g>
<g>
</g>
<g>
</g>
<g>
</g>
<g>
</g>
<g>
</g>
<g>
</g>
<g>
</g>
<g>
</g>
<g>
</g>
</svg>
