<?xml version="1.0" encoding="iso-8859-1"?>
<!-- Generator: Adobe Illustrator 19.0.0, SVG Export Plug-In . SVG Version: 6.00 Build 0)  -->
<svg version="1.1" id="Layer_1" xmlns="http://www.w3.org/2000/svg" xmlns:xlink="http://www.w3.org/1999/xlink" x="0px" y="0px"
	 viewBox="0 0 512 512" style="enable-background:new 0 0 512 512;" xml:space="preserve">
<g>
	<path style="fill:#E6E7E8;" d="M256,86.78c-4.79,0-8.678-3.888-8.678-8.678V68.33c-14.952-3.87-26.034-17.477-26.034-33.618
		C221.288,15.568,236.856,0,256,0s34.712,15.568,34.712,34.712c0,4.79-3.888,8.678-8.678,8.678c-4.79,0-8.678-3.888-8.678-8.678
		c0-9.572-7.784-17.356-17.356-17.356s-17.356,7.784-17.356,17.356S246.428,52.068,256,52.068c4.79,0,8.678,3.888,8.678,8.678
		v17.356C264.678,82.892,260.79,86.78,256,86.78"/>
	<path style="fill:#805333;" d="M429.559,190.915h-88.081c-4.79,0-8.678-3.888-8.678-8.678s3.888-8.678,8.678-8.678h56.754
		L256,88.22l-142.232,85.339h56.754c4.79,0,8.678,3.888,8.678,8.678s-3.888,8.678-8.678,8.678H82.441
		c-3.905,0-7.324-2.603-8.366-6.361c-1.033-3.758,0.555-7.749,3.896-9.754L251.531,70.665c2.76-1.657,6.179-1.657,8.938,0
		L434.028,174.8c3.341,2.005,4.929,5.996,3.896,9.754C436.884,188.312,433.464,190.915,429.559,190.915"/>
	<polygon style="fill:#4482C3;" points="316.746,512 195.254,512 169.22,164.881 342.78,164.881 	"/>
	<polygon style="fill:#285680;" points="316.746,512 195.254,512 192.651,477.288 319.349,477.288 	"/>
</g>
<g>
</g>
<g>
</g>
<g>
</g>
<g>
</g>
<g>
</g>
<g>
</g>
<g>
</g>
<g>
</g>
<g>
</g>
<g>
</g>
<g>
</g>
<g>
</g>
<g>
</g>
<g>
</g>
<g>
</g>
</svg>
