<?xml version="1.0" encoding="iso-8859-1"?>
<!-- Generator: Adobe Illustrator 19.0.0, SVG Export Plug-In . SVG Version: 6.00 Build 0)  -->
<svg version="1.1" id="Layer_1" xmlns="http://www.w3.org/2000/svg" xmlns:xlink="http://www.w3.org/1999/xlink" x="0px" y="0px"
	 viewBox="0 0 512 512" style="enable-background:new 0 0 512 512;" xml:space="preserve">
<g>
	<g>
		<path style="fill:#2C2F38;" d="M150.069,211.862H17.655C7.91,211.862,0,219.772,0,229.517v52.966
			c0,9.746,7.91,17.655,17.655,17.655h132.414V211.862z"/>
		<polygon style="fill:#2C2F38;" points="344.276,300.138 388.414,300.138 388.414,211.862 344.276,211.862 		"/>
		<path style="fill:#2C2F38;" d="M441.379,211.862v88.276h52.966c9.746,0,17.655-7.91,17.655-17.655v-52.966
			c0-9.746-7.91-17.655-17.655-17.655H441.379z"/>
	</g>
	<path style="fill:#545A6B;" d="M88.276,256c0,4.873-3.946,8.828-8.828,8.828c-4.882,0-8.828-3.955-8.828-8.828
		s3.946-8.828,8.828-8.828C84.33,247.172,88.276,251.127,88.276,256"/>
	<polygon style="fill:#95A5A5;" points="150.069,317.793 344.276,317.793 344.276,194.207 150.069,194.207 	"/>
	<polygon style="fill:#545A6B;" points="388.414,326.621 441.379,326.621 441.379,185.379 388.414,185.379 	"/>
	<g>
		<path style="fill:#687777;" d="M308.966,238.345H185.379c-4.882,0-8.828-3.955-8.828-8.828s3.946-8.828,8.828-8.828h123.586
			c4.882,0,8.828,3.955,8.828,8.828S313.847,238.345,308.966,238.345"/>
		<path style="fill:#687777;" d="M308.966,291.31H185.379c-4.882,0-8.828-3.955-8.828-8.828s3.946-8.828,8.828-8.828h123.586
			c4.882,0,8.828,3.955,8.828,8.828S313.847,291.31,308.966,291.31"/>
	</g>
</g>
<g>
</g>
<g>
</g>
<g>
</g>
<g>
</g>
<g>
</g>
<g>
</g>
<g>
</g>
<g>
</g>
<g>
</g>
<g>
</g>
<g>
</g>
<g>
</g>
<g>
</g>
<g>
</g>
<g>
</g>
</svg>
