<?xml version="1.0" encoding="iso-8859-1"?>
<!-- Generator: Adobe Illustrator 19.0.0, SVG Export Plug-In . SVG Version: 6.00 Build 0)  -->
<svg version="1.1" id="Layer_1" xmlns="http://www.w3.org/2000/svg" xmlns:xlink="http://www.w3.org/1999/xlink" x="0px" y="0px"
	 viewBox="0 0 512 512" style="enable-background:new 0 0 512 512;" xml:space="preserve">
<g>
	<path style="fill:#E6E7E8;" d="M256,95.458c-4.79,0-8.678-3.888-8.678-8.678V68.33c-14.952-3.87-26.034-17.477-26.034-33.618
		C221.288,15.568,236.856,0,256,0s34.712,15.568,34.712,34.712c0,4.79-3.888,8.678-8.678,8.678c-4.79,0-8.678-3.888-8.678-8.678
		c0-9.572-7.784-17.356-17.356-17.356s-17.356,7.784-17.356,17.356S246.428,52.068,256,52.068c4.79,0,8.678,3.888,8.678,8.678V86.78
		C264.678,91.57,260.79,95.458,256,95.458"/>
	<path style="fill:#BDC3C7;" d="M282.034,112.814c0,14.379-11.655,26.034-26.034,26.034c-14.379,0-26.034-11.655-26.034-26.034
		S241.621,86.78,256,86.78C270.379,86.78,282.034,98.434,282.034,112.814"/>
	<polygon style="fill:#F0C419;" points="256,321.085 308.068,321.085 308.068,286.373 256,286.373 	"/>
	<polygon style="fill:#4482C3;" points="256,321.085 256,286.373 293.871,286.373 290.712,182.237 221.288,182.237 212.61,468.61 
		256,512 299.39,468.61 294.921,321.085 	"/>
	<path style="fill:#805333;" d="M221.288,182.237h69.424l0.529,17.356h216.42c-0.538-37.428-60.746-34.712-60.746-34.712
		c-117.691-3.801-164.881-52.068-164.881-52.068c0,14.379-11.655,26.034-26.034,26.034c-14.379,0-26.034-11.655-26.034-26.034
		c0,0-47.182,48.267-164.881,52.068c0,0-60.199-2.716-60.746,34.712h216.42L221.288,182.237z"/>
</g>
<g>
</g>
<g>
</g>
<g>
</g>
<g>
</g>
<g>
</g>
<g>
</g>
<g>
</g>
<g>
</g>
<g>
</g>
<g>
</g>
<g>
</g>
<g>
</g>
<g>
</g>
<g>
</g>
<g>
</g>
</svg>
