<?xml version="1.0" encoding="iso-8859-1"?>
<!-- Generator: Adobe Illustrator 19.0.0, SVG Export Plug-In . SVG Version: 6.00 Build 0)  -->
<svg version="1.1" id="Layer_1" xmlns="http://www.w3.org/2000/svg" xmlns:xlink="http://www.w3.org/1999/xlink" x="0px" y="0px"
	 viewBox="0 0 512.001 512.001" style="enable-background:new 0 0 512.001 512.001;" xml:space="preserve">
<g>
	<path style="fill:#E6E7E8;" d="M256,278.069c-4.882,0-8.828-3.946-8.828-8.828v-45.259c-15.219-3.919-26.483-17.77-26.483-34.189
		c0-19.474,15.837-35.31,35.31-35.31s35.31,15.837,35.31,35.31c0,4.882-3.946,8.828-8.828,8.828s-8.828-3.946-8.828-8.828
		c0-9.737-7.918-17.655-17.655-17.655c-9.737,0-17.655,7.918-17.655,17.655s7.918,17.655,17.655,17.655
		c4.882,0,8.828,3.946,8.828,8.828v52.965C264.828,274.123,260.882,278.069,256,278.069"/>
	<path style="fill:#805333;" d="M512,357.517l-57.697-19.897c-122.412-42.205-263.274-45.974-396.606,0L0,357.517v-35.31
		l57.697-19.897c133.332-45.974,274.194-42.205,396.606,0L512,322.207V357.517z"/>
	<path style="fill:#CB8252;" d="M57.698,337.621L0.001,357.518h512l-57.697-19.897C331.892,295.416,191.03,291.647,57.698,337.621"
		/>
</g>
<g>
</g>
<g>
</g>
<g>
</g>
<g>
</g>
<g>
</g>
<g>
</g>
<g>
</g>
<g>
</g>
<g>
</g>
<g>
</g>
<g>
</g>
<g>
</g>
<g>
</g>
<g>
</g>
<g>
</g>
</svg>
