<?xml version="1.0" encoding="iso-8859-1"?>
<!-- Generator: Adobe Illustrator 19.0.0, SVG Export Plug-In . SVG Version: 6.00 Build 0)  -->
<svg version="1.1" id="Layer_1" xmlns="http://www.w3.org/2000/svg" xmlns:xlink="http://www.w3.org/1999/xlink" x="0px" y="0px"
	 viewBox="0 0 512 512" style="enable-background:new 0 0 512 512;" xml:space="preserve">
<g>
	<g>
		<path style="fill:#BDC3C7;" d="M353.103,191.519H158.897c-4.882,0-8.828-3.955-8.828-8.828s3.946-8.828,8.828-8.828h194.207
			c4.882,0,8.828,3.955,8.828,8.828S357.985,191.519,353.103,191.519"/>
		<path style="fill:#BDC3C7;" d="M286.595,233.787c-1.289,0-2.587-0.282-3.822-0.874c-16.755-8.068-36.776-8.068-53.53-0.009
			c-4.396,2.101-9.666,0.265-11.785-4.122c-2.11-4.396-0.265-9.675,4.131-11.785c21.557-10.364,47.281-10.364,68.846,0.009
			c4.396,2.11,6.241,7.389,4.123,11.785C293.03,231.951,289.879,233.787,286.595,233.787"/>
		<path style="fill:#BDC3C7;" d="M26.483,279.795H8.828c-4.882,0-8.828-3.955-8.828-8.828s3.946-8.828,8.828-8.828h8.828v-17.655
			H8.828c-4.882,0-8.828-3.955-8.828-8.828s3.946-8.828,8.828-8.828h17.655c4.882,0,8.828,3.955,8.828,8.828v35.31
			C35.31,275.84,31.364,279.795,26.483,279.795"/>
		<path style="fill:#BDC3C7;" d="M503.172,279.795h-17.655c-4.882,0-8.828-3.955-8.828-8.828v-35.31
			c0-4.873,3.946-8.828,8.828-8.828h17.655c4.882,0,8.828,3.955,8.828,8.828s-3.946,8.828-8.828,8.828h-8.828v17.655h8.828
			c4.882,0,8.828,3.955,8.828,8.828S508.054,279.795,503.172,279.795"/>
	</g>
	<path style="fill:#577087;" d="M283.646,226.83c-0.733,3.919-1.165,7.954-1.165,12.085v21.08c0,6.885,1.139,13.533,3.143,19.8
		h207.934c0.468-3.204,0.786-6.453,0.786-9.807v-27.992c0-5.226-0.644-10.284-1.748-15.166H283.646z"/>
	<path style="fill:#35495E;" d="M283.646,226.83h208.949c-6.903-30.323-33.977-52.966-66.383-52.966h-78.68
		C315.743,173.864,289.322,196.683,283.646,226.83"/>
	<path style="fill:#577087;" d="M19.405,226.83c-1.112,4.882-1.748,9.94-1.748,15.166v27.992c0,3.354,0.318,6.603,0.777,9.807
		h207.934c2.013-6.268,3.151-12.915,3.151-19.8v-21.08c0-4.131-0.433-8.166-1.165-12.085H19.405z"/>
	<g>
		<path style="fill:#35495E;" d="M19.405,226.83h208.949c-5.676-30.146-32.097-52.966-63.885-52.966h-78.68
			C53.382,173.864,26.308,196.507,19.405,226.83"/>
		<path style="fill:#35495E;" d="M285.621,279.795c7.274,22.669,26.668,40.271,51.226,44.367l78.159,13.03
			c38.232,6.374,73.225-20.286,78.557-57.397H285.621z"/>
		<path style="fill:#35495E;" d="M226.371,279.795H18.428c5.341,37.111,40.333,63.771,78.557,57.397l78.168-13.03
			C199.774,320.067,219.15,302.553,226.371,279.795"/>
	</g>
</g>
<g>
</g>
<g>
</g>
<g>
</g>
<g>
</g>
<g>
</g>
<g>
</g>
<g>
</g>
<g>
</g>
<g>
</g>
<g>
</g>
<g>
</g>
<g>
</g>
<g>
</g>
<g>
</g>
<g>
</g>
</svg>
