<?xml version="1.0" encoding="iso-8859-1"?>
<!-- Generator: Adobe Illustrator 19.0.0, SVG Export Plug-In . SVG Version: 6.00 Build 0)  -->
<svg version="1.1" id="Layer_1" xmlns="http://www.w3.org/2000/svg" xmlns:xlink="http://www.w3.org/1999/xlink" x="0px" y="0px"
	 viewBox="0 0 512.002 512.002" style="enable-background:new 0 0 512.002 512.002;" xml:space="preserve">
<g>
	<path style="fill:#E6E7E8;" d="M255.998,247.467c-4.71,0-8.533-3.814-8.533-8.533v-18.15c-14.703-3.789-25.6-17.178-25.6-33.05
		c0-18.825,15.309-34.133,34.133-34.133c18.825,0,34.133,15.309,34.133,34.133c0,4.719-3.823,8.533-8.533,8.533
		s-8.533-3.814-8.533-8.533c0-9.412-7.654-17.067-17.067-17.067c-9.412,0-17.067,7.654-17.067,17.067
		c0,9.412,7.654,17.067,17.067,17.067c4.71,0,8.533,3.814,8.533,8.533v25.6C264.531,243.653,260.708,247.467,255.998,247.467"/>
	<path style="fill:#805333;" d="M19.047,341.334h473.899c-0.973-1.946-2.304-3.703-4.011-5.308
		c-11.358-10.743-36.267-12.143-44.826-11.767c-0.205,0.009-0.418,0.017-0.657,0c-87.501-2.816-136.576-29.986-156.851-44.612
		c-5.589,11.264-17.212,19.021-30.601,19.021c-13.397,0-25.02-7.757-30.601-19.021c-20.284,14.626-69.359,41.796-156.86,44.612
		c-9.225-0.299-34.116,1.024-45.483,11.767C21.351,337.631,20.02,339.388,19.047,341.334 M503.468,358.401H8.534
		c-2.287,0-4.48-0.913-6.084-2.543c-1.604-1.621-2.483-3.831-2.449-6.118c0.145-10.385,3.977-19.191,11.375-26.155
		c18.978-17.886,55.731-16.427,57.267-16.375c110.37-3.584,155.213-48.188,155.648-48.64c2.432-2.483,6.118-3.251,9.327-1.937
		c3.209,1.314,5.316,4.437,5.316,7.902c0,9.412,7.654,17.067,17.067,17.067c9.412,0,17.067-7.654,17.067-17.067
		c0-3.465,2.099-6.588,5.308-7.902c3.2-1.314,6.895-0.546,9.327,1.937c0.418,0.427,45.926,44.996,156.006,48.623
		c4.173-0.128,38.716-0.768,56.917,16.393c7.398,6.963,11.221,15.77,11.375,26.155c0.026,2.287-0.853,4.497-2.466,6.118
		C507.939,357.488,505.746,358.401,503.468,358.401"/>
	<path style="fill:#BDC3C7;" d="M255.998,298.667c-18.825,0-34.133-15.309-34.133-34.133c0-18.825,15.309-34.133,34.133-34.133
		c18.825,0,34.133,15.309,34.133,34.133C290.131,283.359,274.822,298.667,255.998,298.667"/>
</g>
<g>
</g>
<g>
</g>
<g>
</g>
<g>
</g>
<g>
</g>
<g>
</g>
<g>
</g>
<g>
</g>
<g>
</g>
<g>
</g>
<g>
</g>
<g>
</g>
<g>
</g>
<g>
</g>
<g>
</g>
</svg>
