<?xml version="1.0" encoding="iso-8859-1"?>
<!-- Generator: Adobe Illustrator 19.0.0, SVG Export Plug-In . SVG Version: 6.00 Build 0)  -->
<svg version="1.1" id="Layer_1" xmlns="http://www.w3.org/2000/svg" xmlns:xlink="http://www.w3.org/1999/xlink" x="0px" y="0px"
	 viewBox="0 0 511.999 511.999" style="enable-background:new 0 0 511.999 511.999;" xml:space="preserve">
<g>
	<path style="fill:#8697CB;" d="M211.859,267.094V244.91c0-7.036,1.924-13.577,5.023-19.412
		c-11.829-11.97-50.741-47.113-101.994-48.949c0,0-27.78,30.57-26.58,79.448c-1.201,48.887,26.58,79.448,26.58,79.448
		c51.253-1.827,90.165-36.97,101.994-48.94C213.783,280.67,211.859,274.12,211.859,267.094"/>
	<g>
		<path style="fill:#556080;" d="M88.311,255.999c-0.327-13.206,1.492-25.017,4.281-35.31H0v70.621h92.593
			C89.803,281.017,87.985,269.205,88.311,255.999"/>
		<path style="fill:#556080;" d="M419.398,220.689c2.79,10.293,4.608,22.104,4.281,35.31c0.327,13.206-1.492,25.017-4.281,35.31
			h92.601v-70.621H419.398z"/>
	</g>
	<path style="fill:#8697CB;" d="M300.134,267.089v-22.184c0-7.036-1.924-13.577-5.023-19.412
		c11.829-11.97,50.741-47.113,101.994-48.94c0,0,27.78,30.561,26.58,79.448c1.201,48.878-26.58,79.448-26.58,79.448
		c-51.253-1.836-90.165-36.979-101.994-48.949C298.21,280.666,300.134,274.125,300.134,267.089"/>
	<g>
		<path style="fill:#556080;" d="M300.143,255.999c-3.24,0-6.356-1.783-7.91-4.882c-2.18-4.361-0.406-9.657,3.955-11.847
			l35.31-17.655c4.37-2.189,9.666-0.406,11.847,3.955c2.18,4.361,0.406,9.657-3.955,11.847l-35.31,17.655
			C302.818,255.699,301.467,255.999,300.143,255.999"/>
		<path style="fill:#556080;" d="M211.85,255.999c-1.324,0-2.675-0.3-3.937-0.927l-35.31-17.655
			c-4.361-2.189-6.135-7.486-3.955-11.847c2.18-4.361,7.468-6.144,11.847-3.955l35.31,17.655c4.361,2.189,6.135,7.486,3.955,11.847
			C218.206,254.216,215.089,255.999,211.85,255.999"/>
		<path style="fill:#556080;" d="M335.436,291.309c-1.324,0-2.675-0.3-3.937-0.927l-35.31-17.655
			c-4.361-2.189-6.135-7.486-3.955-11.847c2.18-4.361,7.477-6.144,11.847-3.955l35.31,17.655c4.361,2.189,6.135,7.486,3.955,11.847
			C341.792,289.526,338.676,291.309,335.436,291.309"/>
		<path style="fill:#556080;" d="M176.557,291.309c-3.24,0-6.356-1.783-7.91-4.882c-2.18-4.361-0.406-9.657,3.955-11.847
			l35.31-17.655c4.37-2.189,9.657-0.406,11.847,3.955c2.18,4.361,0.406,9.657-3.955,11.847l-35.31,17.655
			C179.232,291.009,177.881,291.309,176.557,291.309"/>
		<path style="fill:#556080;" d="M258.259,308.965h-4.529c-23.031,0-41.869-18.847-41.869-41.878v-22.175
			c0-23.031,18.838-41.878,41.869-41.878h4.529c23.031,0,41.878,18.847,41.878,41.878v22.175
			C300.137,290.118,281.29,308.965,258.259,308.965"/>
	</g>
</g>
<g>
</g>
<g>
</g>
<g>
</g>
<g>
</g>
<g>
</g>
<g>
</g>
<g>
</g>
<g>
</g>
<g>
</g>
<g>
</g>
<g>
</g>
<g>
</g>
<g>
</g>
<g>
</g>
<g>
</g>
</svg>
