<?xml version="1.0" encoding="iso-8859-1"?>
<!-- Generator: Adobe Illustrator 19.0.0, SVG Export Plug-In . SVG Version: 6.00 Build 0)  -->
<svg version="1.1" id="Layer_1" xmlns="http://www.w3.org/2000/svg" xmlns:xlink="http://www.w3.org/1999/xlink" x="0px" y="0px"
	 viewBox="0 0 512 512" style="enable-background:new 0 0 512 512;" xml:space="preserve">
<g>
	<g>
		<path style="fill:#BDC3C7;" d="M256,230.4c-4.719,0-8.533-3.814-8.533-8.533v-18.15c-14.711-3.789-25.6-17.178-25.6-33.05
			c0-18.825,15.309-34.133,34.133-34.133c18.825,0,34.133,15.309,34.133,34.133c0,4.719-3.814,8.533-8.533,8.533
			c-4.719,0-8.533-3.814-8.533-8.533c0-9.412-7.654-17.067-17.067-17.067c-9.412,0-17.067,7.654-17.067,17.067
			c0,9.412,7.654,17.067,17.067,17.067c4.719,0,8.533,3.814,8.533,8.533v25.6C264.533,226.586,260.719,230.4,256,230.4"/>
		<path style="fill:#BDC3C7;" d="M128,341.333h-17.067c-4.719,0-8.533-3.814-8.533-8.533s3.814-8.533,8.533-8.533H128
			c4.71,0,8.533-3.823,8.533-8.533v-27.29c0-4.719,3.814-8.533,8.533-8.533c4.719,0,8.533,3.814,8.533,8.533v27.29
			C153.6,329.847,142.114,341.333,128,341.333"/>
		<path style="fill:#BDC3C7;" d="M401.067,341.333H384c-14.114,0-25.6-11.486-25.6-25.6v-27.29c0-4.719,3.814-8.533,8.533-8.533
			c4.719,0,8.533,3.814,8.533,8.533v27.29c0,4.71,3.823,8.533,8.533,8.533h17.067c4.719,0,8.533,3.814,8.533,8.533
			S405.786,341.333,401.067,341.333"/>
	</g>
	<path style="fill:#7F8C8D;" d="M256,230.4c-9.412,0-17.067,7.654-17.067,17.067c0,2.236-0.879,4.369-2.432,5.965
		c-1.997,2.039-50.15,49.963-167.962,53.76L42.667,307.2c-14.114,0-25.6,11.486-25.6,25.6s11.486,25.6,25.6,25.6h426.667
		c14.114,0,25.6-11.486,25.6-25.6s-11.486-25.6-25.6-25.6h-25.6c-118.084-3.806-166.238-51.729-168.235-53.769
		c-1.553-1.596-2.432-3.729-2.432-5.965C273.067,238.054,265.412,230.4,256,230.4 M469.333,375.467H42.667
		C19.14,375.467,0,356.326,0,332.8s19.14-42.667,42.667-42.667h25.6c97.178-3.14,143.607-37.862,153.822-46.635
		c1.98-16.956,16.427-30.165,33.911-30.165c17.468,0,31.915,13.193,33.903,30.131c10.283,8.73,57.242,43.554,154.103,46.677
		l25.327-0.009c23.526,0,42.667,19.14,42.667,42.667S492.86,375.467,469.333,375.467"/>
</g>
<g>
</g>
<g>
</g>
<g>
</g>
<g>
</g>
<g>
</g>
<g>
</g>
<g>
</g>
<g>
</g>
<g>
</g>
<g>
</g>
<g>
</g>
<g>
</g>
<g>
</g>
<g>
</g>
<g>
</g>
</svg>
