<?xml version="1.0" encoding="iso-8859-1"?>
<!-- Generator: Adobe Illustrator 19.0.0, SVG Export Plug-In . SVG Version: 6.00 Build 0)  -->
<svg version="1.1" id="Layer_1" xmlns="http://www.w3.org/2000/svg" xmlns:xlink="http://www.w3.org/1999/xlink" x="0px" y="0px"
	 viewBox="0 0 512 512" style="enable-background:new 0 0 512 512;" xml:space="preserve">
<g>
	<path style="fill:#684127;" d="M489.348,347.806l-100.202,13.815c-88.346,12.182-177.946,12.182-266.302,0L22.652,347.806
		C9.666,346.014,0,334.917,0,321.817c0-15.916,14.054-28.169,29.82-25.997l93.025,12.835c88.355,12.182,177.955,12.182,266.302,0
		l93.034-12.835c15.766-2.172,29.82,10.081,29.82,25.997C512,334.917,502.334,346.014,489.348,347.806"/>
	<path style="fill:#805333;" d="M370.43,310.909l-11.644-107.661c-3.222-35.39-31.938-62.005-67.478-62.005
		c-5.667,0-11.794,3.072-14.115,8.254c-4.82,10.77-12.509,18.229-21.195,18.229c-8.678,0-16.366-7.459-21.195-18.229
		c-2.322-5.182-8.439-8.254-14.115-8.254c-35.531,0-64.256,26.615-67.469,62.005l-11.652,107.661
		C217.607,319.913,294.398,319.913,370.43,310.909"/>
	<g>
		<path style="fill:#684127;" d="M185.378,247.176c-4.873,0-8.828-3.946-8.828-8.828c0-4.882,3.955-8.828,8.828-8.828
			c19.474,0,35.31-15.837,35.31-35.31c0-4.882,3.955-8.828,8.828-8.828s8.828,3.946,8.828,8.828
			C238.344,223.421,214.589,247.176,185.378,247.176"/>
		<path style="fill:#684127;" d="M326.62,247.176c-29.21,0-52.966-23.755-52.966-52.966c0-4.882,3.955-8.828,8.828-8.828
			c4.873,0,8.828,3.946,8.828,8.828c0,19.474,15.837,35.31,35.31,35.31c4.873,0,8.828,3.946,8.828,8.828
			C335.447,243.23,331.493,247.176,326.62,247.176"/>
	</g>
</g>
<g>
</g>
<g>
</g>
<g>
</g>
<g>
</g>
<g>
</g>
<g>
</g>
<g>
</g>
<g>
</g>
<g>
</g>
<g>
</g>
<g>
</g>
<g>
</g>
<g>
</g>
<g>
</g>
<g>
</g>
</svg>
