<?xml version="1.0" encoding="iso-8859-1"?>
<!-- Generator: Adobe Illustrator 19.0.0, SVG Export Plug-In . SVG Version: 6.00 Build 0)  -->
<svg version="1.1" id="Layer_1" xmlns="http://www.w3.org/2000/svg" xmlns:xlink="http://www.w3.org/1999/xlink" x="0px" y="0px"
	 viewBox="0 0 512 512" style="enable-background:new 0 0 512 512;" xml:space="preserve">
<g>
	<path style="fill:#F6EFCA;" d="M353.103,256c0,63.382-51.377,114.759-114.759,114.759S123.585,319.382,123.585,256
		s51.377-114.759,114.759-114.759S353.103,192.618,353.103,256"/>
	<polygon style="fill:#95A5A5;" points="172.783,441.379 303.449,441.379 305.224,406.069 171.018,406.069 	"/>
	<polygon style="fill:#7F8C8D;" points="174.555,476.69 301.681,476.69 303.455,441.379 172.781,441.379 	"/>
	<g>
		<path style="fill:#95A5A5;" d="M174.555,476.69l1.351,26.924c0.238,4.696,4.114,8.386,8.819,8.386H291.52
			c4.696,0,8.58-3.69,8.81-8.386l1.351-26.924H174.555z"/>
		<polygon style="fill:#95A5A5;" points="303.905,70.621 173.239,70.621 171.464,105.931 305.67,105.931 		"/>
	</g>
	<polygon style="fill:#7F8C8D;" points="302.133,35.31 175.007,35.31 173.233,70.621 303.907,70.621 	"/>
	<path style="fill:#95A5A5;" d="M302.133,35.31l-1.351-26.924C300.544,3.69,296.669,0,291.964,0H185.167
		c-4.696,0-8.58,3.69-8.81,8.386l-1.351,26.924H302.133z"/>
	<g>
		<path style="fill:#7F8C8D;" d="M238.344,370.759h-0.115h-0.106c-1.951,0-3.84-0.185-5.756-0.3
			c-24.196-1.253-46.38-9.931-64.335-23.896l2.984,59.507h134.206l2.966-59.154C288.829,361.807,264.659,370.759,238.344,370.759"/>
		<path style="fill:#7F8C8D;" d="M238.344,141.241c0.035,0,0.079,0.009,0.115,0.009c0.035,0,0.071-0.009,0.106-0.009
			c1.951,0,3.84,0.185,5.756,0.3c24.196,1.254,46.38,9.94,64.335,23.896l-2.984-59.507H171.466l-2.966,59.162
			C187.859,150.193,212.029,141.241,238.344,141.241"/>
	</g>
	<g>
		<path style="fill:#805333;" d="M353.103,264.828H326.62c-4.873,0-8.828-3.955-8.828-8.828s3.955-8.828,8.828-8.828h26.483
			c4.873,0,8.828,3.955,8.828,8.828S357.975,264.828,353.103,264.828"/>
		<path style="fill:#805333;" d="M273.654,264.828h-35.31c-4.873,0-8.828-3.955-8.828-8.828v-52.966
			c0-4.873,3.955-8.828,8.828-8.828c4.873,0,8.828,3.955,8.828,8.828v44.138h26.483c4.873,0,8.828,3.955,8.828,8.828
			S278.527,264.828,273.654,264.828"/>
	</g>
	<path style="fill:#95A5A5;" d="M349.909,229.517c2.013,8.519,3.196,17.355,3.196,26.483c0,9.137-1.183,17.973-3.196,26.483h29.678
		c4.873,0,8.828-3.955,8.828-8.828v-35.31c0-4.873-3.955-8.828-8.828-8.828H349.909z"/>
	<g>
		<path style="fill:#805333;" d="M238.344,335.448c-4.873,0-8.828,3.955-8.828,8.828v26.033c2.922,0.229,5.853,0.45,8.828,0.45
			c2.975,0,5.906-0.221,8.828-0.45v-26.033C247.172,339.403,243.217,335.448,238.344,335.448"/>
		<path style="fill:#805333;" d="M150.068,247.172h-26.033c-0.23,2.922-0.45,5.853-0.45,8.828c0,2.975,0.221,5.906,0.45,8.828
			h26.033c4.873,0,8.828-3.955,8.828-8.828S154.941,247.172,150.068,247.172"/>
		<path style="fill:#805333;" d="M238.344,141.241c-2.975,0-5.906,0.221-8.828,0.45v26.033c0,4.873,3.955,8.828,8.828,8.828
			c4.873,0,8.828-3.955,8.828-8.828v-26.033C244.25,141.462,241.319,141.241,238.344,141.241"/>
	</g>
</g>
<g>
</g>
<g>
</g>
<g>
</g>
<g>
</g>
<g>
</g>
<g>
</g>
<g>
</g>
<g>
</g>
<g>
</g>
<g>
</g>
<g>
</g>
<g>
</g>
<g>
</g>
<g>
</g>
<g>
</g>
</svg>
