<?xml version="1.0" encoding="iso-8859-1"?>
<!-- Generator: Adobe Illustrator 19.0.0, SVG Export Plug-In . SVG Version: 6.00 Build 0)  -->
<svg version="1.1" id="Layer_1" xmlns="http://www.w3.org/2000/svg" xmlns:xlink="http://www.w3.org/1999/xlink" x="0px" y="0px"
	 viewBox="0 0 512 512" style="enable-background:new 0 0 512 512;" xml:space="preserve">
<g>
	<path style="fill:#556080;" d="M476.69,467.862H35.31c-19.5,0-35.31-15.81-35.31-35.31V79.448c0-19.5,15.81-35.31,35.31-35.31
		H476.69c19.5,0,35.31,15.81,35.31,35.31v353.103C512,452.052,496.19,467.862,476.69,467.862"/>
	<polygon style="fill:#8697CB;" points="0,423.724 512,423.724 512,88.276 0,88.276 	"/>
	<path style="fill:#F0C419;" d="M258.263,308.966h-4.529c-23.031,0-41.869-18.847-41.869-41.878v-22.175
		c0-23.031,18.838-41.878,41.869-41.878h4.529c23.031,0,41.878,18.847,41.878,41.878v22.175
		C300.141,290.119,281.294,308.966,258.263,308.966"/>
	<g>
		<path style="fill:#F29C1F;" d="M211.862,267.095v-22.184c0-7.036,1.924-13.577,5.023-19.412
			c-11.829-11.97-50.741-47.113-101.994-48.949c0,0-27.78,30.57-26.58,79.448c-1.201,48.887,26.58,79.448,26.58,79.448
			c51.253-1.827,90.165-36.97,101.994-48.94C213.786,280.671,211.862,274.121,211.862,267.095"/>
		<path style="fill:#F29C1F;" d="M397.108,176.552c-51.253,1.836-90.165,36.97-101.994,48.94c3.098,5.844,5.023,12.385,5.023,19.421
			v22.184c0,7.027-1.924,13.568-5.023,19.412c11.829,11.97,50.741,47.104,101.994,48.94c0,0,27.78-30.561,26.58-79.448
			C424.888,207.113,397.108,176.552,397.108,176.552"/>
	</g>
	<g>
		<path style="fill:#F0C419;" d="M88.315,256c-0.327-13.206,1.501-25.017,4.281-35.31H44.141v70.621h48.455
			C89.815,281.017,87.988,269.206,88.315,256"/>
		<path style="fill:#F0C419;" d="M419.397,220.69c2.79,10.293,4.608,22.104,4.29,35.31c0.318,13.206-1.501,25.017-4.29,35.31h48.463
			V220.69H419.397z"/>
	</g>
	<g>
		<path style="fill:#556080;" d="M308.957,185.379c-1.324,0-2.675-0.3-3.937-0.927c-4.361-2.189-6.135-7.486-3.955-11.847
			l26.483-52.966c2.189-4.361,7.477-6.144,11.847-3.955c4.361,2.189,6.135,7.486,3.955,11.847l-26.483,52.966
			C315.313,183.596,312.196,185.379,308.957,185.379"/>
		<path style="fill:#556080;" d="M203.043,185.379c-3.24,0-6.356-1.783-7.91-4.882l-26.483-52.966
			c-2.18-4.361-0.406-9.657,3.955-11.847c4.37-2.189,9.657-0.406,11.847,3.955l26.483,52.966c2.18,4.361,0.406,9.657-3.955,11.847
			C205.718,185.079,204.367,185.379,203.043,185.379"/>
		<path style="fill:#556080;" d="M335.457,397.241c-3.24,0-6.356-1.783-7.91-4.882l-26.483-52.966
			c-2.18-4.361-0.406-9.657,3.955-11.847c4.37-2.189,9.657-0.397,11.847,3.955l26.483,52.966c2.18,4.361,0.406,9.657-3.955,11.847
			C338.132,396.941,336.781,397.241,335.457,397.241"/>
		<path style="fill:#556080;" d="M176.543,397.241c-1.324,0-2.675-0.3-3.937-0.927c-4.361-2.189-6.135-7.486-3.955-11.847
			l26.483-52.966c2.189-4.352,7.477-6.144,11.847-3.955c4.361,2.189,6.135,7.486,3.955,11.847l-26.483,52.966
			C182.899,395.458,179.783,397.241,176.543,397.241"/>
	</g>
</g>
<g>
</g>
<g>
</g>
<g>
</g>
<g>
</g>
<g>
</g>
<g>
</g>
<g>
</g>
<g>
</g>
<g>
</g>
<g>
</g>
<g>
</g>
<g>
</g>
<g>
</g>
<g>
</g>
<g>
</g>
</svg>
