<?xml version="1.0" encoding="iso-8859-1"?>
<!-- Generator: Adobe Illustrator 19.0.0, SVG Export Plug-In . SVG Version: 6.00 Build 0)  -->
<svg version="1.1" id="Layer_1" xmlns="http://www.w3.org/2000/svg" xmlns:xlink="http://www.w3.org/1999/xlink" x="0px" y="0px"
	 viewBox="0 0 512 512" style="enable-background:new 0 0 512 512;" xml:space="preserve">
<g>
	<path style="fill:#5B3922;" d="M406.069,300.138c-19.5,0-35.31-15.81-35.31-35.31v-17.655c0-19.5,15.81-35.31,35.31-35.31h52.966
		h17.655V88.276c0-19.5-15.81-35.31-35.31-35.31H35.31C15.81,52.966,0,68.776,0,88.276v335.448c0,19.5,15.81,35.31,35.31,35.31
		h406.069c19.5,0,35.31-15.81,35.31-35.31V300.138h-17.655H406.069z"/>
	<path style="fill:#805333;" d="M476.69,300.138h-70.621c-19.5,0-35.31-15.81-35.31-35.31v-17.655c0-19.5,15.81-35.31,35.31-35.31
		h70.621c19.5,0,35.31,15.81,35.31,35.31v17.655C512,284.328,496.19,300.138,476.69,300.138"/>
	<path style="fill:#E6E7E8;" d="M432.552,256c0,4.873-3.955,8.828-8.828,8.828c-4.873,0-8.828-3.955-8.828-8.828
		s3.955-8.828,8.828-8.828C428.597,247.172,432.552,251.127,432.552,256"/>
	<g>
		<polygon style="fill:#805333;" points="105.931,141.241 52.966,185.379 0,141.241 52.966,97.103 		"/>
		<polygon style="fill:#805333;" points="211.862,141.241 158.897,185.379 105.931,141.241 158.897,97.103 		"/>
		<polygon style="fill:#805333;" points="317.793,141.241 264.828,185.379 211.862,141.241 264.828,97.103 		"/>
		<polygon style="fill:#805333;" points="423.724,141.241 370.759,185.379 317.793,141.241 370.759,97.103 		"/>
		<polygon style="fill:#805333;" points="423.724,141.241 476.69,185.379 476.69,97.103 		"/>
		<polygon style="fill:#805333;" points="105.931,370.759 52.966,414.897 0,370.759 52.966,326.621 		"/>
		<polygon style="fill:#805333;" points="211.862,370.759 158.897,414.897 105.931,370.759 158.897,326.621 		"/>
		<polygon style="fill:#805333;" points="317.793,370.759 264.828,414.897 211.862,370.759 264.828,326.621 		"/>
		<polygon style="fill:#805333;" points="423.724,370.759 370.759,414.897 317.793,370.759 370.759,326.621 		"/>
		<polygon style="fill:#805333;" points="423.724,370.759 476.69,414.897 476.69,326.621 		"/>
	</g>
</g>
<g>
</g>
<g>
</g>
<g>
</g>
<g>
</g>
<g>
</g>
<g>
</g>
<g>
</g>
<g>
</g>
<g>
</g>
<g>
</g>
<g>
</g>
<g>
</g>
<g>
</g>
<g>
</g>
<g>
</g>
</svg>
