<?xml version="1.0" encoding="iso-8859-1"?>
<!-- Generator: Adobe Illustrator 19.0.0, SVG Export Plug-In . SVG Version: 6.00 Build 0)  -->
<svg version="1.1" id="Layer_1" xmlns="http://www.w3.org/2000/svg" xmlns:xlink="http://www.w3.org/1999/xlink" x="0px" y="0px"
	 viewBox="0 0 512 512" style="enable-background:new 0 0 512 512;" xml:space="preserve">
<g>
	<g>
		<path style="fill:#805333;" d="M132.414,203.034H17.655C7.91,203.034,0,210.944,0,220.69v70.621
			c0,9.746,7.91,17.655,17.655,17.655h114.759V203.034z"/>
		<path style="fill:#805333;" d="M459.034,203.034h-97.103H185.379v105.931h176.552h97.103C488.28,308.966,512,285.255,512,256
			C512,226.754,488.28,203.034,459.034,203.034"/>
	</g>
	<path style="fill:#56351E;" d="M52.966,256c0,4.873,3.946,8.828,8.828,8.828s8.828-3.955,8.828-8.828s-3.946-8.828-8.828-8.828
		S52.966,251.127,52.966,256"/>
	<path style="fill:#E6E7E8;" d="M361.931,203.034L361.931,203.034c0-19.5-15.81-35.31-35.31-35.31H185.379h-52.966v35.31v105.931
		v35.31h52.966h141.241c19.5,0,35.31-15.81,35.31-35.31H185.379V203.034H361.931z"/>
	<path style="fill:#7F8C8D;" d="M282.483,264.828H167.724c-4.882,0-8.828-3.955-8.828-8.828s3.946-8.828,8.828-8.828h114.759
		c4.882,0,8.828,3.955,8.828,8.828S287.364,264.828,282.483,264.828"/>
</g>
<g>
</g>
<g>
</g>
<g>
</g>
<g>
</g>
<g>
</g>
<g>
</g>
<g>
</g>
<g>
</g>
<g>
</g>
<g>
</g>
<g>
</g>
<g>
</g>
<g>
</g>
<g>
</g>
<g>
</g>
</svg>
