<?xml version="1.0" encoding="iso-8859-1"?>
<!-- Generator: Adobe Illustrator 19.0.0, SVG Export Plug-In . SVG Version: 6.00 Build 0)  -->
<svg version="1.1" id="Layer_1" xmlns="http://www.w3.org/2000/svg" xmlns:xlink="http://www.w3.org/1999/xlink" x="0px" y="0px"
	 viewBox="0 0 512 512" style="enable-background:new 0 0 512 512;" xml:space="preserve">
<g>
	<path style="fill:#E6E7E8;" d="M256,95.458c-4.79,0-8.678-3.888-8.678-8.678V68.33c-14.952-3.87-26.034-17.477-26.034-33.618
		C221.288,15.568,236.856,0,256,0s34.712,15.568,34.712,34.712c0,4.79-3.888,8.678-8.678,8.678c-4.79,0-8.678-3.888-8.678-8.678
		c0-9.572-7.784-17.356-17.356-17.356s-17.356,7.784-17.356,17.356S246.428,52.068,256,52.068c4.79,0,8.678,3.888,8.678,8.678V86.78
		C264.678,91.57,260.79,95.458,256,95.458"/>
	<path style="fill:#BDC3C7;" d="M282.034,112.814c0,14.379-11.655,26.034-26.034,26.034c-14.379,0-26.034-11.655-26.034-26.034
		S241.621,86.78,256,86.78C270.379,86.78,282.034,98.434,282.034,112.814"/>
	<polygon style="fill:#F0C419;" points="169.22,321.085 221.288,321.085 221.288,286.373 169.22,286.373 	"/>
	<polygon style="fill:#71C285;" points="169.22,321.085 169.22,286.373 207.091,286.373 203.932,182.237 134.508,182.237 
		125.831,468.61 169.22,512 212.61,468.61 208.141,321.085 	"/>
	<path style="fill:#2C3E50;" d="M334.102,321.085v-17.356c0-9.58,7.775-17.356,17.356-17.356h17.356
		c9.58,0,17.356,7.775,17.356,17.356v17.356c0,9.58-7.775,17.356-17.356,17.356h-17.356
		C341.877,338.441,334.102,330.665,334.102,321.085"/>
	<g>
		<path style="fill:#49637A;" d="M394.39,370.276c-0.547-15.343-7.949-28.021-14.206-36.17c-3.055,2.664-6.994,4.339-11.368,4.339
			H351.46c-4.504,0-8.565-1.762-11.655-4.573c-6.292,8.14-13.824,20.914-14.379,36.404c0,0,13.269,12.062,34.478,11.542
			C381.13,382.338,394.39,370.276,394.39,370.276"/>
		<path style="fill:#49637A;" d="M351.458,286.373h17.356c4.374,0,8.313,1.666,11.368,4.339
			c6.266-8.149,13.659-20.827,14.206-36.178c0,0-13.269-12.062-34.478-11.533c-21.218-0.521-34.486,11.542-34.486,11.542
			c0.555,15.481,8.088,28.264,14.388,36.395C342.892,288.134,346.954,286.373,351.458,286.373"/>
	</g>
	<g>
		<path style="fill:#2C3E50;" d="M377.492,379.22c-4.972,1.597-10.821,2.76-17.582,2.595c-6.561,0.156-12.253-0.937-17.13-2.447
			v63.21h34.712V379.22z"/>
		<path style="fill:#2C3E50;" d="M359.906,243c6.76-0.165,12.609,0.998,17.582,2.595v-63.358h-34.712v63.21
			C347.662,243.938,353.346,242.836,359.906,243"/>
	</g>
	<path style="fill:#805333;" d="M342.78,182.237h34.712v17.356h130.169c-0.547-37.428-60.746-34.712-60.746-34.712
		c-117.691-3.801-164.881-52.068-164.881-52.068c0,14.379-11.655,26.034-26.034,26.034c-14.379,0-26.034-11.655-26.034-26.034
		c0,0-47.182,48.267-164.881,52.068c0,0-60.208-2.716-60.746,34.712h129.64l0.529-17.356h69.424l0.529,17.356H342.78V182.237z"/>
</g>
<g>
</g>
<g>
</g>
<g>
</g>
<g>
</g>
<g>
</g>
<g>
</g>
<g>
</g>
<g>
</g>
<g>
</g>
<g>
</g>
<g>
</g>
<g>
</g>
<g>
</g>
<g>
</g>
<g>
</g>
</svg>
