<?xml version="1.0" encoding="iso-8859-1"?>
<!-- Generator: Adobe Illustrator 19.0.0, SVG Export Plug-In . SVG Version: 6.00 Build 0)  -->
<svg version="1.1" id="Layer_1" xmlns="http://www.w3.org/2000/svg" xmlns:xlink="http://www.w3.org/1999/xlink" x="0px" y="0px"
	 viewBox="0 0 511.824 511.824" style="enable-background:new 0 0 511.824 511.824;" xml:space="preserve">
<g>
	<path style="fill:#805333;" d="M247.389,211.832l8.536,20.109l16.852,38.524c5.862,1.174,13.78,2.622,22.404,3.814
		c18.679,2.578,36.979,7.521,54.281,15.016c12.385,5.367,23.649,13.021,33.201,22.581l47.969,47.96l81.143-81.143l-15.139-15.148
		c-31.241-31.241-56.364-68.052-74.072-108.535l-32.583-74.452L365.9,23.813c-4.687-14.071-21.407-21.248-33.748-11.149
		c-5.535,4.537-8.73,14.61-6.223,30.208l14.354,58.2l-45.647-88.276c-4.891-8.642-14.751-13.85-24.452-11.705
		c-4.14,0.927-8.068,2.993-11.282,6.215c-8.881,8.881-4.599,24.223-0.035,32.6l34.922,83.182l-81.999-81.999
		c-8.166-8.166-21.478-9.728-30.411-2.419c-10.284,8.404-10.84,23.587-1.695,32.742L270.2,161.92l-95.267-47.801
		c-14.874-8.757-24.982-10.372-33.995-1.359c-7.08,7.08-8.863,17.364-4.714,26.015c1.801,3.778,4.935,6.762,8.474,8.986
		l47.263,27.286c1.174-5.058,3.354-8.722,6.126-10.999c12.341-10.099,29.06-2.922,33.748,11.149l12.853,30.287L247.389,211.832z"/>
	<path style="fill:#CB8252;" d="M38.682,383.004c9.728-13.533,29.625-22.563,48.419-19.774c6.241,0.927,12.597,0.794,18.909,0.618
		l14.583-1.253L10.681,299.142c-3.54-2.225-6.674-5.208-8.483-8.987c-4.14-8.651-2.357-18.935,4.723-26.015
		c9.013-9.013,19.121-7.398,33.995,1.359l95.258,47.801l-90.509-90.509c-9.145-9.154-8.589-24.338,1.686-32.742
		c8.942-7.309,22.254-5.738,30.42,2.428l81.999,81.991l-34.931-83.182c-4.555-8.377-8.845-23.72,0.035-32.6
		c3.222-3.222,7.15-5.288,11.29-6.206c9.693-2.154,19.562,3.046,24.452,11.697l45.647,88.276l-14.362-58.191
		c-2.498-15.598,0.697-25.679,6.223-30.208c12.35-10.108,29.06-2.931,33.757,11.14l24.082,56.753l32.574,74.443
		c17.717,40.483,42.831,77.294,74.081,108.544l15.139,15.139l-81.143,81.143l-47.969-47.96
		c-9.551-9.551-20.815-17.214-33.218-22.581c-17.302-7.495-35.584-12.438-54.263-15.016c-17.62-2.428-32.406-5.95-32.406-5.95
		c-24.814-7.089-60.213-8.598-77.33-9.86c-8.298-0.609-14.901-7.106-15.704-15.395C35.337,390.41,36.308,386.305,38.682,383.004"/>
	<g>
		<path style="fill:#805333;" d="M319.864,363.133l-87.066,87.066c5.667,3.831,10.99,8.192,15.854,13.056l47.96,47.96l81.152-81.143
			l-15.139-15.139C346.717,399.026,332.425,381.671,319.864,363.133"/>
		<path style="fill:#805333;" d="M234.208,370.224c-2.26,0-4.52-0.865-6.241-2.587L178.029,317.7c-3.452-3.452-3.452-9.039,0-12.482
			c3.443-3.452,9.031-3.452,12.482,0l49.938,49.938c3.452,3.452,3.452,9.031,0,12.482
			C238.728,369.359,236.468,370.224,234.208,370.224"/>
		<path style="fill:#805333;" d="M259.183,345.254c-3.001,0-5.923-1.527-7.574-4.281l-37.455-62.42
			c-2.507-4.184-1.148-9.604,3.028-12.111c4.184-2.516,9.604-1.148,12.111,3.028l37.447,62.411
			c2.516,4.184,1.156,9.604-3.019,12.111C262.299,344.847,260.728,345.254,259.183,345.254"/>
		<path style="fill:#805333;" d="M209.234,395.189c-1.545,0-3.116-0.406-4.537-1.262l-62.42-37.447
			c-4.184-2.507-5.535-7.936-3.028-12.111c2.498-4.175,7.936-5.544,12.111-3.028l62.429,37.455
			c4.175,2.507,5.535,7.927,3.019,12.111C215.157,393.662,212.235,395.189,209.234,395.189"/>
	</g>
	<g>
		<path style="fill:#603B22;" d="M453.924,211.75l-87.066,87.066c5.667,3.831,10.99,8.192,15.854,13.056l47.96,47.96l81.152-81.143
			l-15.139-15.139C480.777,247.643,466.486,230.287,453.924,211.75"/>
		<path style="fill:#603B22;" d="M368.269,218.84c-2.26,0-4.52-0.865-6.241-2.586l-49.929-49.938c-3.452-3.443-3.452-9.031,0-12.482
			c3.443-3.443,9.031-3.443,12.482,0l49.929,49.938c3.452,3.452,3.452,9.031,0,12.482
			C372.789,217.975,370.529,218.84,368.269,218.84"/>
		<path style="fill:#603B22;" d="M393.252,193.87c-3.001,0-5.923-1.527-7.574-4.281l-37.464-62.42
			c-2.507-4.184-1.148-9.604,3.028-12.111c4.184-2.516,9.604-1.156,12.111,3.028l37.455,62.411
			c2.516,4.184,1.156,9.604-3.019,12.111C396.368,193.464,394.797,193.87,393.252,193.87"/>
		<path style="fill:#603B22;" d="M343.295,243.806c-1.545,0-3.116-0.406-4.537-1.262l-62.42-37.447
			c-4.184-2.507-5.535-7.927-3.028-12.111c2.498-4.175,7.936-5.535,12.111-3.028l62.429,37.455
			c4.175,2.507,5.535,7.927,3.019,12.111C349.218,242.279,346.296,243.806,343.295,243.806"/>
	</g>
	<g>
		<path style="fill:#CB8252;" d="M334.062,423.831c-3.452-3.452-9.031-3.452-12.482,0c-3.452,3.452-3.452,9.039,0,12.482
			l24.973,24.964l12.482-12.482L334.062,423.831z"/>
		<path style="fill:#CB8252;" d="M327.82,480.008l-24.964-24.973c-3.452-3.443-9.039-3.443-12.482,0
			c-3.452,3.452-3.452,9.039,0,12.482l24.964,24.973L327.82,480.008z"/>
	</g>
	<g>
		<path style="fill:#805333;" d="M493.096,297.413l-24.964-24.964c-3.452-3.452-9.039-3.452-12.482,0
			c-3.452,3.443-3.452,9.031,0,12.482l24.964,24.964L493.096,297.413z"/>
		<path style="fill:#805333;" d="M461.889,328.625l-24.973-24.964c-3.452-3.452-9.039-3.452-12.482,0
			c-3.452,3.443-3.452,9.039,0,12.482l24.973,24.964L461.889,328.625z"/>
	</g>
</g>
<g>
</g>
<g>
</g>
<g>
</g>
<g>
</g>
<g>
</g>
<g>
</g>
<g>
</g>
<g>
</g>
<g>
</g>
<g>
</g>
<g>
</g>
<g>
</g>
<g>
</g>
<g>
</g>
<g>
</g>
</svg>
