<?xml version="1.0" encoding="iso-8859-1"?>
<!-- Generator: Adobe Illustrator 19.0.0, SVG Export Plug-In . SVG Version: 6.00 Build 0)  -->
<svg version="1.1" id="Layer_1" xmlns="http://www.w3.org/2000/svg" xmlns:xlink="http://www.w3.org/1999/xlink" x="0px" y="0px"
	 viewBox="0 0 512 512" style="enable-background:new 0 0 512 512;" xml:space="preserve">
<g>
	<path style="fill:#F0C419;" d="M308.966,344.276H203.034c-19.5,0-35.31-15.81-35.31-35.31V203.034c0-19.5,15.81-35.31,35.31-35.31
		h105.931c19.5,0,35.31,15.81,35.31,35.31v105.931C344.276,328.466,328.466,344.276,308.966,344.276"/>
	<g>
		<path style="fill:#E57E25;" d="M256,203.034c-4.873,0-8.828-3.955-8.828-8.828v-26.483c0-4.873,3.955-8.828,8.828-8.828
			s8.828,3.955,8.828,8.828v26.483C264.828,199.08,260.873,203.034,256,203.034"/>
		<path style="fill:#E57E25;" d="M256,353.103c-4.873,0-8.828-3.955-8.828-8.828v-26.483c0-4.873,3.955-8.828,8.828-8.828
			s8.828,3.955,8.828,8.828v26.483C264.828,349.149,260.873,353.103,256,353.103"/>
		<path style="fill:#E57E25;" d="M282.483,264.828H256c-4.873,0-8.828-3.955-8.828-8.828v-35.31c0-4.873,3.955-8.828,8.828-8.828
			s8.828,3.955,8.828,8.828v26.483h17.655c4.873,0,8.828,3.955,8.828,8.828S287.356,264.828,282.483,264.828"/>
		<path style="fill:#E57E25;" d="M317.793,247.172c-4.873,0-8.828,3.955-8.828,8.828s3.955,8.828,8.828,8.828h26.483v-17.655
			H317.793z"/>
		<path style="fill:#E57E25;" d="M194.207,264.828c4.873,0,8.828-3.955,8.828-8.828s-3.955-8.828-8.828-8.828h-26.483v17.655
			H194.207z"/>
		<path style="fill:#E57E25;" d="M308.966,17.655C308.966,7.91,301.056,0,291.31,0H220.69c-9.746,0-17.655,7.91-17.655,17.655
			v150.069h105.931V17.655z"/>
		<path style="fill:#E57E25;" d="M203.034,494.345c0,9.746,7.91,17.655,17.655,17.655h70.621c9.746,0,17.655-7.91,17.655-17.655
			V344.276H203.034V494.345z"/>
	</g>
	<g>
		<path style="fill:#F0C419;" d="M264.828,97.103c0,4.873-3.955,8.828-8.828,8.828s-8.828-3.955-8.828-8.828
			s3.955-8.828,8.828-8.828S264.828,92.231,264.828,97.103"/>
		<path style="fill:#F0C419;" d="M264.828,44.138c0,4.873-3.955,8.828-8.828,8.828s-8.828-3.955-8.828-8.828
			s3.955-8.828,8.828-8.828S264.828,39.265,264.828,44.138"/>
	</g>
</g>
<g>
</g>
<g>
</g>
<g>
</g>
<g>
</g>
<g>
</g>
<g>
</g>
<g>
</g>
<g>
</g>
<g>
</g>
<g>
</g>
<g>
</g>
<g>
</g>
<g>
</g>
<g>
</g>
<g>
</g>
</svg>
