<?xml version="1.0" encoding="iso-8859-1"?>
<!-- Generator: Adobe Illustrator 19.0.0, SVG Export Plug-In . SVG Version: 6.00 Build 0)  -->
<svg version="1.1" id="Layer_1" xmlns="http://www.w3.org/2000/svg" xmlns:xlink="http://www.w3.org/1999/xlink" x="0px" y="0px"
	 viewBox="0 0 512 512" style="enable-background:new 0 0 512 512;" xml:space="preserve">
<g>
	<g>
		<path style="fill:#F0C419;" d="M474.087,282.583c-2.185,0-4.369-0.836-6.033-2.5l-36.207-36.207
			c-3.337-3.337-3.337-8.738,0-12.066c3.328-3.337,8.73-3.337,12.066,0l36.207,36.207c3.337,3.337,3.337,8.73,0,12.066
			C478.456,281.747,476.271,282.583,474.087,282.583"/>
		<path style="fill:#F0C419;" d="M449.953,306.717c-2.185,0-4.369-0.836-6.033-2.5l-36.207-36.198
			c-3.337-3.337-3.337-8.738,0-12.066c3.328-3.337,8.73-3.337,12.066,0l36.207,36.198c3.337,3.337,3.337,8.73,0,12.066
			C454.322,305.881,452.137,306.717,449.953,306.717"/>
		<path style="fill:#F0C419;" d="M425.811,330.859c-2.185,0-4.369-0.836-6.033-2.5l-36.198-36.207
			c-3.337-3.337-3.337-8.738,0-12.066c3.328-3.337,8.73-3.337,12.066,0l36.198,36.207c3.337,3.337,3.337,8.73,0,12.066
			C430.18,330.022,427.996,330.859,425.811,330.859"/>
		<path style="fill:#F0C419;" d="M401.678,354.992c-2.185,0-4.369-0.836-6.033-2.5l-36.207-36.207
			c-3.328-3.337-3.328-8.738,0-12.066c3.337-3.337,8.738-3.337,12.066,0l36.207,36.207c3.337,3.337,3.337,8.73,0,12.066
			C406.047,354.156,403.862,354.992,401.678,354.992"/>
		<path style="fill:#F0C419;" d="M377.54,379.125c-2.185,0-4.369-0.836-6.033-2.5l-36.207-36.198c-3.328-3.337-3.328-8.738,0-12.066
			c3.337-3.337,8.738-3.337,12.066,0l36.207,36.198c3.337,3.337,3.337,8.73,0,12.066C381.91,378.289,379.725,379.125,377.54,379.125
			"/>
		<path style="fill:#F0C419;" d="M353.407,403.258c-2.185,0-4.369-0.836-6.033-2.5l-36.207-36.198
			c-3.328-3.337-3.328-8.738,0-12.066c3.337-3.337,8.738-3.337,12.066,0l36.207,36.198c3.337,3.337,3.337,8.73,0,12.066
			C357.776,402.422,355.592,403.258,353.407,403.258"/>
	</g>
	<path style="fill:#B7921A;" d="M317.203,367.058c-2.185,0-4.369-0.836-6.033-2.5L202.541,255.937
		c-1.596-1.604-2.492-3.772-2.492-6.033V8.564c0-1.852,0.597-3.644,1.707-5.111c1.485-1.988,3.755-3.226,6.221-3.405
		c2.458-0.196,4.898,0.717,6.647,2.466l229.291,229.299c3.328,3.337,3.328,8.738,0,12.066L323.236,364.558
		C321.572,366.222,319.388,367.058,317.203,367.058"/>
	<polygon style="fill:#F29C1F;" points="208.578,164.2 360.053,315.675 396.252,279.477 208.578,91.803 	"/>
	<path style="fill:#E57E25;" d="M215.04,170.667h53.274v53.265l13.329,13.338c2.202-1.545,3.738-3.968,3.738-6.869v-61.798
		L270.379,153.6H208.58v10.598L215.04,170.667z"/>
	<g>
		<path style="fill:#B7921A;" d="M208.578,512c-4.71,0-8.533-3.814-8.533-8.533v-51.2c0-4.719,3.823-8.533,8.533-8.533
			c4.71,0,8.533,3.814,8.533,8.533v51.2C217.111,508.186,213.288,512,208.578,512"/>
		<path style="fill:#B7921A;" d="M174.445,512c-4.71,0-8.533-3.814-8.533-8.533v-51.2c0-4.719,3.823-8.533,8.533-8.533
			s8.533,3.814,8.533,8.533v51.2C182.978,508.186,179.155,512,174.445,512"/>
		<path style="fill:#B7921A;" d="M140.311,512c-4.71,0-8.533-3.814-8.533-8.533v-51.2c0-4.719,3.823-8.533,8.533-8.533
			s8.533,3.814,8.533,8.533v51.2C148.845,508.186,145.022,512,140.311,512"/>
		<path style="fill:#B7921A;" d="M106.178,512c-4.71,0-8.533-3.814-8.533-8.533v-51.2c0-4.719,3.823-8.533,8.533-8.533
			c4.71,0,8.533,3.814,8.533,8.533v51.2C114.711,508.186,110.888,512,106.178,512"/>
		<path style="fill:#B7921A;" d="M72.045,512c-4.71,0-8.533-3.814-8.533-8.533v-51.2c0-4.719,3.823-8.533,8.533-8.533
			c4.71,0,8.533,3.814,8.533,8.533v51.2C80.578,508.186,76.755,512,72.045,512"/>
		<path style="fill:#B7921A;" d="M37.911,512c-4.71,0-8.533-3.814-8.533-8.533v-51.2c0-4.719,3.823-8.533,8.533-8.533
			s8.533,3.814,8.533,8.533v51.2C46.445,508.186,42.622,512,37.911,512"/>
	</g>
	<path style="fill:#F0C419;" d="M208.578,460.8H37.911c-4.71,0-8.533-3.814-8.533-8.533V8.533C29.378,3.814,33.201,0,37.911,0
		h170.667c4.71,0,8.533,3.814,8.533,8.533v443.733C217.111,456.986,213.288,460.8,208.578,460.8"/>
	<polygon style="fill:#F29C1F;" points="97.645,460.8 148.845,460.8 148.845,0 97.645,0 	"/>
	<g>
		<path style="fill:#E57E25;" d="M136.778,76.8l-39.134,39.134v20.599c2.185,0,4.369-0.836,6.033-2.5l45.167-45.167V64.734
			l-45.167-45.167c-1.664-1.664-3.849-2.5-6.033-2.5v20.599L136.778,76.8z"/>
		<path style="fill:#E57E25;" d="M136.778,179.2l-39.134,39.134v20.599c2.185,0,4.369-0.836,6.033-2.5l45.167-45.167v-24.132
			l-45.167-45.167c-1.664-1.664-3.849-2.5-6.033-2.5v20.599L136.778,179.2z"/>
		<path style="fill:#E57E25;" d="M136.778,281.6l-39.134,39.134v20.599c2.185,0,4.369-0.836,6.033-2.5l45.167-45.167v-24.132
			l-45.167-45.167c-1.664-1.664-3.849-2.5-6.033-2.5v20.599L136.778,281.6z"/>
		<path style="fill:#E57E25;" d="M136.778,384l-39.134,39.134v20.599c2.185,0,4.369-0.836,6.033-2.5l45.167-45.167v-24.132
			l-45.167-45.167c-1.664-1.664-3.849-2.5-6.033-2.5v20.599L136.778,384z"/>
		<path style="fill:#E57E25;" d="M338.649,221.867h-61.807c-2.893,0-5.325,1.536-6.861,3.729l13.329,13.338h53.265v53.265
			l14.575,14.575c1.545-1.536,2.492-3.669,2.492-6.033v-63.872L338.649,221.867z"/>
	</g>
</g>
<g>
</g>
<g>
</g>
<g>
</g>
<g>
</g>
<g>
</g>
<g>
</g>
<g>
</g>
<g>
</g>
<g>
</g>
<g>
</g>
<g>
</g>
<g>
</g>
<g>
</g>
<g>
</g>
<g>
</g>
</svg>
