<?xml version="1.0" encoding="iso-8859-1"?>
<!-- Generator: Adobe Illustrator 19.0.0, SVG Export Plug-In . SVG Version: 6.00 Build 0)  -->
<svg version="1.1" id="Layer_1" xmlns="http://www.w3.org/2000/svg" xmlns:xlink="http://www.w3.org/1999/xlink" x="0px" y="0px"
	 viewBox="0 0 512 512" style="enable-background:new 0 0 512 512;" xml:space="preserve">
<g>
	<path style="fill:#C03A2B;" d="M0,336.863c0-97.51,79.042-176.552,176.552-176.552s176.552,79.042,176.552,176.552
		C239.042,372.173,116.277,372.173,0,336.863"/>
	<g>
		<path style="fill:#93271F;" d="M88.276,345.691c0,3.743,0.168,7.397,0.265,11.087c58.633,8.686,117.919,8.73,176.022,0.15
			c0.097-3.725,0.265-7.442,0.265-11.238c0-102.382-39.53-185.379-88.276-185.379S88.276,243.308,88.276,345.691"/>
		<path style="fill:#93271F;" d="M176.552,160.311c8.236,0,16.269,0.759,24.196,1.854c1.448-3.275,2.286-6.868,2.286-10.681
			c0-14.627-11.855-26.483-26.483-26.483s-26.483,11.855-26.483,26.483c0,3.814,0.839,7.406,2.286,10.681
			C160.282,161.071,168.316,160.311,176.552,160.311"/>
		<path style="fill:#93271F;" d="M353.103,336.863c-28.963,8.969-58.492,15.634-88.338,20.047l60.857,19.359
			c62.367,19.844,130.26,11.917,186.377-21.751L353.103,336.863z"/>
	</g>
</g>
<g>
</g>
<g>
</g>
<g>
</g>
<g>
</g>
<g>
</g>
<g>
</g>
<g>
</g>
<g>
</g>
<g>
</g>
<g>
</g>
<g>
</g>
<g>
</g>
<g>
</g>
<g>
</g>
<g>
</g>
</svg>
