<?xml version="1.0" encoding="iso-8859-1"?>
<!-- Generator: Adobe Illustrator 19.0.0, SVG Export Plug-In . SVG Version: 6.00 Build 0)  -->
<svg version="1.1" id="Layer_1" xmlns="http://www.w3.org/2000/svg" xmlns:xlink="http://www.w3.org/1999/xlink" x="0px" y="0px"
	 viewBox="0 0 512.005 512.005" style="enable-background:new 0 0 512.005 512.005;" xml:space="preserve">
<g transform="translate(0 -1)">
	<g>
		<path style="fill:#285680;" d="M208.58,513.005c-4.719,0-8.533-3.814-8.533-8.533v-51.2c0-4.719,3.814-8.533,8.533-8.533
			s8.533,3.814,8.533,8.533v51.2C217.114,509.19,213.299,513.005,208.58,513.005"/>
		<path style="fill:#285680;" d="M174.447,513.005c-4.719,0-8.533-3.814-8.533-8.533v-51.2c0-4.719,3.814-8.533,8.533-8.533
			s8.533,3.814,8.533,8.533v51.2C182.98,509.19,179.166,513.005,174.447,513.005"/>
		<path style="fill:#285680;" d="M140.314,513.005c-4.719,0-8.533-3.814-8.533-8.533v-51.2c0-4.719,3.814-8.533,8.533-8.533
			c4.719,0,8.533,3.814,8.533,8.533v51.2C148.847,509.19,145.033,513.005,140.314,513.005"/>
		<path style="fill:#285680;" d="M106.18,513.005c-4.719,0-8.533-3.814-8.533-8.533v-51.2c0-4.719,3.814-8.533,8.533-8.533
			c4.719,0,8.533,3.814,8.533,8.533v51.2C114.714,509.19,110.899,513.005,106.18,513.005"/>
		<path style="fill:#285680;" d="M72.047,513.005c-4.719,0-8.533-3.814-8.533-8.533v-51.2c0-4.719,3.814-8.533,8.533-8.533
			s8.533,3.814,8.533,8.533v51.2C80.58,509.19,76.766,513.005,72.047,513.005"/>
		<path style="fill:#285680;" d="M37.914,513.005c-4.719,0-8.533-3.814-8.533-8.533v-51.2c0-4.719,3.814-8.533,8.533-8.533
			s8.533,3.814,8.533,8.533v51.2C46.447,509.19,42.633,513.005,37.914,513.005"/>
	</g>
	<g>
		<path style="fill:#4482C3;" d="M474.089,283.588c-2.185,0-4.369-0.836-6.033-2.5l-36.207-36.207
			c-3.337-3.337-3.337-8.738,0-12.066c3.328-3.337,8.73-3.337,12.066,0l36.207,36.207c3.337,3.337,3.337,8.73,0,12.066
			C478.458,282.751,476.273,283.588,474.089,283.588"/>
		<path style="fill:#4482C3;" d="M449.955,307.722c-2.185,0-4.369-0.836-6.033-2.5l-36.207-36.198
			c-3.337-3.337-3.337-8.738,0-12.066c3.328-3.337,8.73-3.337,12.066,0l36.207,36.198c3.337,3.337,3.337,8.73,0,12.066
			C454.324,306.885,452.14,307.722,449.955,307.722"/>
		<path style="fill:#4482C3;" d="M425.813,331.863c-2.185,0-4.369-0.836-6.033-2.5l-36.198-36.207
			c-3.337-3.337-3.337-8.738,0-12.066c3.328-3.337,8.73-3.337,12.066,0l36.198,36.207c3.337,3.337,3.337,8.73,0,12.066
			C430.182,331.027,427.998,331.863,425.813,331.863"/>
		<path style="fill:#4482C3;" d="M401.68,355.996c-2.185,0-4.369-0.836-6.033-2.5l-36.198-36.207c-3.337-3.337-3.337-8.738,0-12.066
			c3.328-3.337,8.73-3.337,12.066,0l36.198,36.207c3.337,3.337,3.337,8.73,0,12.066C406.049,355.16,403.865,355.996,401.68,355.996"
			/>
		<path style="fill:#4482C3;" d="M377.547,380.13c-2.185,0-4.369-0.836-6.033-2.5l-36.207-36.198c-3.337-3.337-3.337-8.738,0-12.066
			c3.328-3.337,8.73-3.337,12.066,0l36.207,36.198c3.337,3.337,3.337,8.73,0,12.066C381.916,379.293,379.732,380.13,377.547,380.13"
			/>
		<path style="fill:#4482C3;" d="M353.405,404.263c-2.185,0-4.369-0.836-6.033-2.5l-36.198-36.198
			c-3.337-3.337-3.337-8.738,0-12.066c3.328-3.337,8.73-3.337,12.066,0l36.198,36.198c3.337,3.337,3.337,8.73,0,12.066
			C357.775,403.426,355.59,404.263,353.405,404.263"/>
	</g>
	<path style="fill:#285680;" d="M317.205,368.063c-2.185,0-4.369-0.836-6.033-2.5L202.543,256.942
		c-1.596-1.604-2.492-3.772-2.492-6.033V9.569c0-2.261,0.896-4.429,2.492-6.033c1.604-1.596,3.78-2.509,6.042-2.509
		c2.27,0,4.446,0.896,6.042,2.492l229.291,229.299c3.328,3.337,3.328,8.738,0,12.066L323.238,365.562
		C321.574,367.226,319.39,368.063,317.205,368.063"/>
	<g>
		<path style="fill:#F0C419;" d="M396.314,291.138c-4.719,0-8.533-3.814-8.533-8.533v-17.067h-17.067
			c-4.719,0-8.533-3.814-8.533-8.533v-17.067h-17.067c-4.719,0-8.533-3.814-8.533-8.533v-17.067h-17.067
			c-4.719,0-8.533-3.814-8.533-8.533v-17.067h-17.067c-4.719,0-8.533-3.814-8.533-8.533v-17.067h-17.067
			c-4.719,0-8.533-3.814-8.533-8.533v-17.067h-17.058c-4.719,0-8.533-3.814-8.533-8.533v-17.067H208.58
			c-4.719,0-8.533-3.814-8.533-8.533c0-4.719,3.814-8.533,8.533-8.533h34.142c4.719,0,8.533,3.814,8.533,8.533v17.067h17.058
			c4.719,0,8.533,3.814,8.533,8.533v17.067h17.067c4.719,0,8.533,3.814,8.533,8.533v17.067h17.067c4.719,0,8.533,3.814,8.533,8.533
			v17.067h17.067c4.719,0,8.533,3.814,8.533,8.533v17.067h17.067c4.719,0,8.533,3.814,8.533,8.533v17.067h17.067
			c4.719,0,8.533,3.814,8.533,8.533v25.6C404.847,287.324,401.033,291.138,396.314,291.138"/>
		<path style="fill:#F0C419;" d="M345.114,342.338c-4.719,0-8.533-3.814-8.533-8.533v-25.6h-17.067
			c-4.719,0-8.533-3.814-8.533-8.533v-17.067h-17.067c-4.719,0-8.533-3.814-8.533-8.533v-17.067h-17.067
			c-4.719,0-8.533-3.814-8.533-8.533v-17.067h-17.067c-4.719,0-8.533-3.814-8.533-8.533v-17.067h-25.6
			c-4.719,0-8.533-3.814-8.533-8.533c0-4.719,3.814-8.533,8.533-8.533h34.133c4.719,0,8.533,3.814,8.533,8.533v17.067h17.067
			c4.719,0,8.533,3.814,8.533,8.533v17.067h17.067c4.719,0,8.533,3.814,8.533,8.533v17.067h17.067c4.719,0,8.533,3.814,8.533,8.533
			v17.067h17.067c4.719,0,8.533,3.814,8.533,8.533v34.133C353.647,338.524,349.833,342.338,345.114,342.338"/>
	</g>
	<path style="fill:#4482C3;" d="M208.58,461.805H37.914c-4.719,0-8.533-3.814-8.533-8.533V9.538c0-4.719,3.814-8.533,8.533-8.533
		H208.58c4.719,0,8.533,3.814,8.533,8.533v443.733C217.114,457.99,213.299,461.805,208.58,461.805"/>
	<g>
		<path style="fill:#F0C419;" d="M157.38,461.805c-3.575,0-6.903-2.261-8.09-5.837l-8.533-25.6c-1.024-3.063-0.23-6.443,2.057-8.73
			l11.034-11.034l-11.034-11.034c-3.337-3.337-3.337-8.73,0-12.066l11.034-11.034l-11.034-11.034c-3.337-3.337-3.337-8.73,0-12.066
			l11.034-11.034l-11.034-11.034c-3.337-3.337-3.337-8.73,0-12.066l11.034-11.034l-11.034-11.034c-3.337-3.337-3.337-8.73,0-12.066
			l11.034-11.034l-11.034-11.034c-3.337-3.337-3.337-8.73,0-12.066l11.034-11.034l-11.034-11.034c-3.337-3.337-3.337-8.73,0-12.066
			l11.034-11.034l-11.034-11.034c-3.337-3.337-3.337-8.73,0-12.066l11.034-11.034l-11.034-11.034c-3.337-3.337-3.337-8.73,0-12.066
			l11.034-11.034l-11.034-11.034c-3.337-3.337-3.337-8.73,0-12.066l11.034-11.034l-11.034-11.034c-3.337-3.337-3.337-8.73,0-12.066
			l11.034-11.034l-11.034-11.034c-3.337-3.337-3.337-8.73,0-12.066l13.329-13.346l-6.852-20.591
			c-1.493-4.471,0.922-9.301,5.393-10.786c4.514-1.51,9.293,0.922,10.786,5.393l8.533,25.6c1.024,3.063,0.23,6.443-2.057,8.73
			l-11.034,11.034l11.034,11.034c3.337,3.337,3.337,8.73,0,12.066l-11.034,11.034l11.034,11.034c3.337,3.337,3.337,8.73,0,12.066
			l-11.034,11.034l11.034,11.034c3.337,3.337,3.337,8.73,0,12.066l-11.034,11.034l11.034,11.034c3.337,3.337,3.337,8.73,0,12.066
			l-11.034,11.034l11.034,11.034c3.337,3.337,3.337,8.73,0,12.066l-11.034,11.034l11.034,11.034c3.337,3.337,3.337,8.73,0,12.066
			l-11.034,11.034l11.034,11.034c3.337,3.337,3.337,8.73,0,12.066l-11.034,11.034l11.034,11.034c3.337,3.337,3.337,8.73,0,12.066
			l-11.034,11.034l11.034,11.034c3.337,3.337,3.337,8.73,0,12.066l-11.034,11.034l11.034,11.034c3.337,3.337,3.337,8.73,0,12.066
			l-11.034,11.034l11.034,11.034c3.337,3.337,3.337,8.73,0,12.066l-13.329,13.346l6.852,20.591
			c1.493,4.471-0.922,9.301-5.393,10.786C159.181,461.66,158.268,461.805,157.38,461.805"/>
		<path style="fill:#F0C419;" d="M89.114,461.805c-3.575,0-6.903-2.261-8.09-5.837l-8.533-25.6c-1.024-3.063-0.23-6.443,2.057-8.73
			l11.034-11.034l-11.034-11.034c-3.337-3.337-3.337-8.73,0-12.066l11.034-11.034l-11.034-11.034c-3.337-3.337-3.337-8.73,0-12.066
			l11.034-11.034l-11.034-11.034c-3.337-3.337-3.337-8.73,0-12.066l11.034-11.034l-11.034-11.034c-3.337-3.337-3.337-8.73,0-12.066
			l11.034-11.034l-11.034-11.034c-3.337-3.337-3.337-8.73,0-12.066l11.034-11.034l-11.034-11.034c-3.337-3.337-3.337-8.73,0-12.066
			l11.034-11.034l-11.034-11.034c-3.337-3.337-3.337-8.73,0-12.066l11.034-11.034l-11.034-11.034c-3.337-3.337-3.337-8.73,0-12.066
			l11.034-11.034l-11.034-11.034c-3.337-3.337-3.337-8.73,0-12.066l11.034-11.034L74.547,92.371c-3.337-3.337-3.337-8.73,0-12.066
			l11.034-11.034L74.547,58.238c-3.337-3.337-3.337-8.73,0-12.066l13.329-13.346l-6.852-20.591
			c-1.493-4.471,0.922-9.301,5.393-10.786c4.506-1.51,9.293,0.922,10.786,5.393l8.533,25.6c1.024,3.063,0.23,6.443-2.057,8.73
			L92.646,52.205l11.034,11.034c3.337,3.337,3.337,8.73,0,12.066L92.646,86.338l11.034,11.034c3.337,3.337,3.337,8.73,0,12.066
			l-11.034,11.034l11.034,11.034c3.337,3.337,3.337,8.73,0,12.066l-11.034,11.034l11.034,11.034c3.337,3.337,3.337,8.73,0,12.066
			l-11.034,11.034l11.034,11.034c3.337,3.337,3.337,8.73,0,12.066l-11.034,11.034l11.034,11.034c3.337,3.337,3.337,8.73,0,12.066
			l-11.034,11.034l11.034,11.034c3.337,3.337,3.337,8.73,0,12.066l-11.034,11.034l11.034,11.034c3.337,3.337,3.337,8.73,0,12.066
			l-11.034,11.034l11.034,11.034c3.337,3.337,3.337,8.73,0,12.066l-11.034,11.034l11.034,11.034c3.337,3.337,3.337,8.73,0,12.066
			l-11.034,11.034l11.034,11.034c3.337,3.337,3.337,8.73,0,12.066l-13.329,13.346l6.852,20.591
			c1.493,4.471-0.922,9.301-5.393,10.786C90.914,461.66,90.001,461.805,89.114,461.805"/>
	</g>
</g>
<g>
</g>
<g>
</g>
<g>
</g>
<g>
</g>
<g>
</g>
<g>
</g>
<g>
</g>
<g>
</g>
<g>
</g>
<g>
</g>
<g>
</g>
<g>
</g>
<g>
</g>
<g>
</g>
<g>
</g>
</svg>
