<?xml version="1.0" encoding="iso-8859-1"?>
<!-- Generator: Adobe Illustrator 19.0.0, SVG Export Plug-In . SVG Version: 6.00 Build 0)  -->
<svg version="1.1" id="Layer_1" xmlns="http://www.w3.org/2000/svg" xmlns:xlink="http://www.w3.org/1999/xlink" x="0px" y="0px"
	 viewBox="0 0 512 512" style="enable-background:new 0 0 512 512;" xml:space="preserve">
<g>
	<path style="fill:#285680;" d="M467.862,512H44.138c-19.5,0-35.31-15.81-35.31-35.31v-35.31c0-19.5,15.81-35.31,35.31-35.31
		h423.724c19.5,0,35.31,15.81,35.31,35.31v35.31C503.172,496.19,487.362,512,467.862,512"/>
	<g>
		<path style="fill:#4482C3;" d="M467.862,406.069V211.862C467.862,94.852,373.01,0,256,0S44.138,94.852,44.138,211.862v194.207
			H467.862z"/>
		<path style="fill:#4482C3;" d="M44.931,194.207h422.135c-1.518-18.423-5.376-36.184-11.308-52.966H56.239
			C50.307,158.023,46.449,175.784,44.931,194.207"/>
	</g>
	<path style="fill:#285680;" d="M44.138,211.862v35.31h423.724v-35.31c0-5.95-0.309-11.829-0.794-17.655H44.932
		C44.447,200.033,44.138,205.912,44.138,211.862"/>
	<polygon style="fill:#4482C3;" points="44.138,300.138 467.862,300.138 467.862,247.172 44.138,247.172 	"/>
	<polygon style="fill:#285680;" points="44.138,353.103 467.862,353.103 467.862,300.138 44.138,300.138 	"/>
	<g>
		<path style="fill:#F0C419;" d="M203.034,476.69c-2.26,0-4.52-0.865-6.241-2.586c-3.452-3.452-3.452-9.031,0-12.482l26.483-26.483
			c3.452-3.452,9.031-3.452,12.482,0c3.452,3.452,3.452,9.031,0,12.482l-26.483,26.483
			C207.554,475.825,205.294,476.69,203.034,476.69"/>
		<path style="fill:#F0C419;" d="M247.172,476.69c-2.26,0-4.52-0.865-6.241-2.586c-3.452-3.452-3.452-9.031,0-12.482l26.483-26.483
			c3.452-3.452,9.031-3.452,12.482,0c3.452,3.452,3.452,9.031,0,12.482l-26.483,26.483
			C251.692,475.825,249.432,476.69,247.172,476.69"/>
		<path style="fill:#F0C419;" d="M291.31,476.69c-2.26,0-4.52-0.865-6.241-2.586c-3.452-3.452-3.452-9.031,0-12.482l26.483-26.483
			c3.452-3.452,9.031-3.452,12.482,0c3.452,3.452,3.452,9.031,0,12.482l-26.483,26.483C295.83,475.825,293.57,476.69,291.31,476.69"
			/>
	</g>
	<path style="fill:#285680;" d="M83.965,88.276c-11.591,16.11-20.983,33.907-27.727,52.966h399.519
		c-6.735-19.059-16.128-36.855-27.719-52.966H83.965z"/>
</g>
<g>
</g>
<g>
</g>
<g>
</g>
<g>
</g>
<g>
</g>
<g>
</g>
<g>
</g>
<g>
</g>
<g>
</g>
<g>
</g>
<g>
</g>
<g>
</g>
<g>
</g>
<g>
</g>
<g>
</g>
</svg>
