<?xml version="1.0" encoding="iso-8859-1"?>
<!-- Generator: Adobe Illustrator 19.0.0, SVG Export Plug-In . SVG Version: 6.00 Build 0)  -->
<svg version="1.1" id="Layer_1" xmlns="http://www.w3.org/2000/svg" xmlns:xlink="http://www.w3.org/1999/xlink" x="0px" y="0px"
	 viewBox="0 0 512 512" style="enable-background:new 0 0 512 512;" xml:space="preserve">
<g>
	<g>
		<path style="fill:#BDC3C7;" d="M256,264.828c-4.882,0-8.828-3.946-8.828-8.828v-45.259c-15.219-3.919-26.483-17.77-26.483-34.189
			c0-19.474,15.837-35.31,35.31-35.31s35.31,15.837,35.31,35.31c0,4.882-3.946,8.828-8.828,8.828s-8.828-3.946-8.828-8.828
			c0-9.737-7.918-17.655-17.655-17.655c-9.737,0-17.655,7.918-17.655,17.655s7.918,17.655,17.655,17.655
			c4.882,0,8.828,3.946,8.828,8.828V256C264.828,260.882,260.882,264.828,256,264.828"/>
		<path style="fill:#BDC3C7;" d="M459.034,370.759h-17.655c-9.737,0-17.655-7.918-17.655-17.655v-35.761
			c0-4.882,3.946-8.828,8.828-8.828c4.882,0,8.828,3.946,8.828,8.828v35.761h17.655c4.882,0,8.828,3.946,8.828,8.828
			S463.916,370.759,459.034,370.759"/>
		<path style="fill:#BDC3C7;" d="M70.621,370.759H52.966c-4.882,0-8.828-3.946-8.828-8.828s3.946-8.828,8.828-8.828h17.655v-35.761
			c0-4.882,3.946-8.828,8.828-8.828c4.882,0,8.828,3.946,8.828,8.828v35.761C88.276,362.84,80.358,370.759,70.621,370.759"/>
	</g>
	<path style="fill:#805333;" d="M512,344.276l-57.697-19.897c-122.412-42.205-263.274-45.974-396.606,0L0,344.276v-35.31
		l57.697-19.897c133.332-45.974,274.194-42.205,396.606,0L512,308.966V344.276z"/>
</g>
<g>
</g>
<g>
</g>
<g>
</g>
<g>
</g>
<g>
</g>
<g>
</g>
<g>
</g>
<g>
</g>
<g>
</g>
<g>
</g>
<g>
</g>
<g>
</g>
<g>
</g>
<g>
</g>
<g>
</g>
</svg>
