<?xml version="1.0" encoding="iso-8859-1"?>
<!-- Generator: Adobe Illustrator 19.0.0, SVG Export Plug-In . SVG Version: 6.00 Build 0)  -->
<svg version="1.1" id="Layer_1" xmlns="http://www.w3.org/2000/svg" xmlns:xlink="http://www.w3.org/1999/xlink" x="0px" y="0px"
	 viewBox="0 0 512 512" style="enable-background:new 0 0 512 512;" xml:space="preserve">
<g transform="translate(0 -1)">
	<path style="fill:#93271F;" d="M476.69,495.438H35.31c-19.5,0-35.31-15.81-35.31-35.31v-35.31c0-19.5,15.81-35.31,35.31-35.31
		H476.69c19.5,0,35.31,15.81,35.31,35.31v35.31C512,479.627,496.19,495.438,476.69,495.438"/>
	<path style="fill:#C03A2B;" d="M467.862,301.05C467.862,169.413,373.01,62.89,256,62.89S44.138,169.413,44.138,301.05v88.461
		h423.724V301.05z"/>
	<g>
		<path style="fill:#93271F;" d="M256,62.886c15.078,0,29.775,1.624,43.961,4.988c0.115-2.092,0.177-3.752,0.177-4.988
			c0-24.373-19.765-44.323-44.138-44.323s-44.138,19.95-44.138,44.323c0,0.998,0.044,2.71,0.132,4.996
			C226.198,64.51,240.905,62.886,256,62.886"/>
		<path style="fill:#93271F;" d="M353.103,230.61c-4.873,0-8.828-3.955-8.828-8.828c0-77.78-39.601-141.056-88.276-141.056
			s-88.276,63.276-88.276,141.056c0,4.873-3.955,8.828-8.828,8.828c-4.873,0-8.828-3.955-8.828-8.828
			c0-87.517,47.519-158.711,105.931-158.711s105.931,71.194,105.931,158.711C361.931,226.655,357.976,230.61,353.103,230.61"/>
	</g>
	<g>
		<path style="fill:#C03A2B;" d="M282.483,451.3h-44.138c-14.601,0-26.483-11.882-26.483-26.483c0-4.873,3.955-8.828,8.828-8.828
			c4.873,0,8.828,3.955,8.828,8.828c0,4.864,3.964,8.828,8.828,8.828h44.138c4.873,0,8.828,3.955,8.828,8.828
			C291.31,447.345,287.356,451.3,282.483,451.3"/>
		<path style="fill:#C03A2B;" d="M238.345,459.946c-4.873,0-8.828-3.955-8.828-8.828v-8.642c0-4.882,3.955-8.828,8.828-8.828
			c4.873,0,8.828,3.946,8.828,8.828v8.642C247.172,455.991,243.218,459.946,238.345,459.946"/>
		<path style="fill:#C03A2B;" d="M264.828,459.946c-4.873,0-8.828-3.955-8.828-8.828v-8.642c0-4.882,3.955-8.828,8.828-8.828
			s8.828,3.946,8.828,8.828v8.642C273.655,455.991,269.7,459.946,264.828,459.946"/>
	</g>
</g>
<g>
</g>
<g>
</g>
<g>
</g>
<g>
</g>
<g>
</g>
<g>
</g>
<g>
</g>
<g>
</g>
<g>
</g>
<g>
</g>
<g>
</g>
<g>
</g>
<g>
</g>
<g>
</g>
<g>
</g>
</svg>
