<?xml version="1.0" encoding="iso-8859-1"?>
<!-- Generator: Adobe Illustrator 19.0.0, SVG Export Plug-In . SVG Version: 6.00 Build 0)  -->
<svg version="1.1" id="Layer_1" xmlns="http://www.w3.org/2000/svg" xmlns:xlink="http://www.w3.org/1999/xlink" x="0px" y="0px"
	 viewBox="0 0 512 512" style="enable-background:new 0 0 512 512;" xml:space="preserve">
<g>
	<path style="fill:#35495E;" d="M358.788,194.022c-3.222-35.39-31.938-61.608-67.478-61.608c-5.667,0-11.785,2.675-14.106,7.857
		c-4.829,10.77-12.518,18.626-21.204,18.626c-8.678,0-16.375-7.857-21.195-18.626c-2.322-5.182-8.439-7.857-14.115-7.857
		c-35.531,0-64.247,26.218-67.469,61.608l-11.979,110.707c75.52,17.426,154.006,17.426,229.517,0L358.788,194.022z"/>
	<path style="fill:#F0C419;" d="M146.517,256.004l-5.27,48.728c18.882,4.352,37.941,7.618,57.097,9.799
		c38.312,4.352,77.003,4.352,115.324,0c19.147-2.18,38.215-5.447,57.097-9.799l-5.27-48.728H146.517z"/>
	<path style="fill:#2C3E50;" d="M367.978,278.987l2.781,25.741c-75.511,17.426-153.997,17.426-229.517,0l2.79-25.741
		C58.765,287.585,0,305.673,0,326.621c0,29.255,114.617,52.966,256,52.966c141.391,0,256-23.711,256-52.966
		C512,305.673,453.244,287.585,367.978,278.987"/>
	<path style="fill:#FFFFFF;" d="M256.004,300.134c-4.873,0-8.828-3.946-8.828-8.828v-8.819c0-4.882,3.955-8.828,8.828-8.828
		s8.828,3.946,8.828,8.828v8.819C264.831,296.188,260.876,300.134,256.004,300.134"/>
</g>
<g>
</g>
<g>
</g>
<g>
</g>
<g>
</g>
<g>
</g>
<g>
</g>
<g>
</g>
<g>
</g>
<g>
</g>
<g>
</g>
<g>
</g>
<g>
</g>
<g>
</g>
<g>
</g>
<g>
</g>
</svg>
