<?xml version="1.0" encoding="iso-8859-1"?>
<!-- Generator: Adobe Illustrator 19.0.0, SVG Export Plug-In . SVG Version: 6.00 Build 0)  -->
<svg version="1.1" id="Layer_1" xmlns="http://www.w3.org/2000/svg" xmlns:xlink="http://www.w3.org/1999/xlink" x="0px" y="0px"
	 viewBox="0 0 512 512" style="enable-background:new 0 0 512 512;" xml:space="preserve">
<g>
	<g>
		<path style="fill:#805333;" d="M256,194.207c9.49,0,18.45,2.207,26.483,6.029V17.655C282.483,7.91,274.573,0,264.828,0h-17.655
			c-9.746,0-17.655,7.91-17.655,17.655v182.581C237.55,196.414,246.51,194.207,256,194.207"/>
		<path style="fill:#805333;" d="M256,317.793c-9.49,0-18.45-2.207-26.483-6.029v182.581c0,9.746,7.91,17.655,17.655,17.655h17.655
			c9.746,0,17.655-7.91,17.655-17.655V311.764C274.45,315.586,265.49,317.793,256,317.793"/>
	</g>
	<g>
		<path style="fill:#56351E;" d="M264.828,141.241c0,4.873-3.946,8.828-8.828,8.828s-8.828-3.955-8.828-8.828
			s3.946-8.828,8.828-8.828S264.828,136.369,264.828,141.241"/>
		<path style="fill:#56351E;" d="M264.828,88.276c0,4.873-3.946,8.828-8.828,8.828s-8.828-3.955-8.828-8.828
			c0-4.873,3.946-8.828,8.828-8.828S264.828,83.403,264.828,88.276"/>
		<path style="fill:#56351E;" d="M264.828,35.31c0,4.873-3.946,8.828-8.828,8.828s-8.828-3.955-8.828-8.828s3.946-8.828,8.828-8.828
			S264.828,30.438,264.828,35.31"/>
	</g>
	<path style="fill:#F9EBB0;" d="M317.793,256c0,34.127-27.666,61.793-61.793,61.793S194.207,290.127,194.207,256
		s27.666-61.793,61.793-61.793S317.793,221.873,317.793,256"/>
	<g>
		<path style="fill:#56351E;" d="M264.828,264.828H256c-4.882,0-8.828-3.955-8.828-8.828v-17.382c0-4.873,3.946-8.828,8.828-8.828
			s8.828,3.955,8.828,8.828v8.554c4.882,0,8.828,3.955,8.828,8.828S269.709,264.828,264.828,264.828"/>
		<path style="fill:#56351E;" d="M317.095,247.172h-16.958c-4.882,0-8.828,3.955-8.828,8.828s3.946,8.828,8.828,8.828h16.958
			c0.415-2.895,0.697-5.826,0.697-8.828C317.792,252.999,317.51,250.068,317.095,247.172"/>
		<path style="fill:#56351E;" d="M256,194.207c-3.01,0-5.941,0.291-8.828,0.706v16.949c0,4.873,3.946,8.828,8.828,8.828
			s8.828-3.955,8.828-8.828v-16.949C261.941,194.498,259.01,194.207,256,194.207"/>
		<path style="fill:#56351E;" d="M211.862,247.172h-16.958c-0.415,2.895-0.697,5.826-0.697,8.828c0,3.001,0.282,5.932,0.697,8.828
			h16.958c4.882,0,8.828-3.955,8.828-8.828S216.744,247.172,211.862,247.172"/>
		<path style="fill:#56351E;" d="M256,291.31c-4.882,0-8.828,3.955-8.828,8.828v16.949c2.887,0.415,5.817,0.706,8.828,0.706
			c3.01,0,5.941-0.291,8.828-0.706v-16.949C264.828,295.265,260.882,291.31,256,291.31"/>
	</g>
</g>
<g>
</g>
<g>
</g>
<g>
</g>
<g>
</g>
<g>
</g>
<g>
</g>
<g>
</g>
<g>
</g>
<g>
</g>
<g>
</g>
<g>
</g>
<g>
</g>
<g>
</g>
<g>
</g>
<g>
</g>
</svg>
