<?xml version="1.0" encoding="iso-8859-1"?>
<!-- Generator: Adobe Illustrator 19.0.0, SVG Export Plug-In . SVG Version: 6.00 Build 0)  -->
<svg version="1.1" id="Layer_1" xmlns="http://www.w3.org/2000/svg" xmlns:xlink="http://www.w3.org/1999/xlink" x="0px" y="0px"
	 viewBox="0 0 512 512" style="enable-background:new 0 0 512 512;" xml:space="preserve">
<g>
	<g>
		<path style="fill:#BDC3C7;" d="M375.467,179.05H136.533c-4.719,0-8.533-3.823-8.533-8.533s3.814-8.533,8.533-8.533h238.933
			c4.719,0,8.533,3.823,8.533,8.533S380.186,179.05,375.467,179.05"/>
		<path style="fill:#BDC3C7;" d="M288.817,223.292c-1.63,0-3.294-0.469-4.753-1.451c-17.058-11.46-39.168-11.614-56.38-0.401
			c-3.959,2.569-9.242,1.468-11.81-2.492c-2.577-3.951-1.459-9.233,2.492-11.81c22.955-14.942,52.489-14.746,75.221,0.538
			c3.917,2.628,4.949,7.927,2.321,11.844C294.261,221.97,291.564,223.292,288.817,223.292"/>
		<path style="fill:#BDC3C7;" d="M25.6,255.85H8.533c-4.719,0-8.533-3.823-8.533-8.533s3.814-8.533,8.533-8.533H25.6
			c4.719,0,8.533,3.823,8.533,8.533S30.319,255.85,25.6,255.85"/>
		<path style="fill:#BDC3C7;" d="M503.467,255.85H486.4c-4.719,0-8.533-3.823-8.533-8.533s3.814-8.533,8.533-8.533h17.067
			c4.719,0,8.533,3.823,8.533,8.533S508.186,255.85,503.467,255.85"/>
	</g>
	<path style="fill:#35495E;" d="M486.4,268.659v-28.271c0-43.298-35.106-78.404-78.404-78.404h-49.963
		c-72.499,0-104.038,91.682-46.891,136.286l44.092,34.406C408.55,374.293,486.4,336.294,486.4,268.659"/>
	<path style="fill:#1F3344;" d="M452.267,248.926c-4.719,0-8.533-3.823-8.533-8.533c0-19.712-16.034-35.738-35.738-35.738
		c-4.719,0-8.533-3.823-8.533-8.533c0-4.719,3.814-8.533,8.533-8.533c29.116,0,52.804,23.689,52.804,52.804
		C460.8,245.103,456.986,248.926,452.267,248.926"/>
	<path style="fill:#35495E;" d="M25.675,268.659v-28.271c0-43.298,35.106-78.404,78.404-78.404h49.963
		c72.499,0,104.038,91.682,46.891,136.286l-44.083,34.406C103.525,374.293,25.675,336.294,25.675,268.659"/>
	<path style="fill:#1F3344;" d="M85.333,213.184H68.267c-4.719,0-8.533-3.823-8.533-8.533s3.814-8.533,8.533-8.533h17.067
		c4.719,0,8.533,3.823,8.533,8.533S90.052,213.184,85.333,213.184"/>
</g>
<g>
</g>
<g>
</g>
<g>
</g>
<g>
</g>
<g>
</g>
<g>
</g>
<g>
</g>
<g>
</g>
<g>
</g>
<g>
</g>
<g>
</g>
<g>
</g>
<g>
</g>
<g>
</g>
<g>
</g>
</svg>
