<?xml version="1.0" encoding="iso-8859-1"?>
<!-- Generator: Adobe Illustrator 19.0.0, SVG Export Plug-In . SVG Version: 6.00 Build 0)  -->
<svg version="1.1" id="Layer_1" xmlns="http://www.w3.org/2000/svg" xmlns:xlink="http://www.w3.org/1999/xlink" x="0px" y="0px"
	 viewBox="0 0 511.999 511.999" style="enable-background:new 0 0 511.999 511.999;" xml:space="preserve">
<g>
	<g>
		<path style="fill:#E64C3C;" d="M88.311,256c-0.327-13.206,1.492-25.017,4.281-35.31H0v70.621h92.593
			C89.803,281.017,87.985,269.206,88.311,256"/>
		<path style="fill:#E64C3C;" d="M419.398,220.689c2.79,10.293,4.608,22.104,4.281,35.31c0.327,13.206-1.492,25.017-4.281,35.31
			h92.601v-70.621H419.398z"/>
		<path style="fill:#E64C3C;" d="M255.996,308.965L255.996,308.965c-24.276,0-44.138-19.862-44.138-44.138v-17.655
			c0-24.276,19.862-44.138,44.138-44.138s44.138,19.862,44.138,44.138v17.655C300.134,289.103,280.272,308.965,255.996,308.965"/>
	</g>
	<g>
		<path style="fill:#C03A2B;" d="M397.105,176.551c-51.253,1.836-90.165,36.97-101.994,48.94v1.721
			c3.107,6.02,5.023,12.747,5.023,19.959v17.655c0,7.212-1.916,13.939-5.023,19.959v1.721c11.829,11.97,50.741,47.104,101.994,48.94
			c0,0,27.78-30.561,26.58-79.448C424.885,207.112,397.105,176.551,397.105,176.551"/>
		<path style="fill:#C03A2B;" d="M211.859,264.827v-17.655c0-7.212,1.916-13.939,5.023-19.959v-1.721
			c-11.829-11.97-50.741-47.104-101.994-48.94c0,0-27.78,30.561-26.58,79.448c-1.201,48.887,26.58,79.448,26.58,79.448
			c51.253-1.836,90.165-36.97,101.994-48.94v-1.721C213.774,278.766,211.859,272.039,211.859,264.827"/>
	</g>
</g>
<g>
</g>
<g>
</g>
<g>
</g>
<g>
</g>
<g>
</g>
<g>
</g>
<g>
</g>
<g>
</g>
<g>
</g>
<g>
</g>
<g>
</g>
<g>
</g>
<g>
</g>
<g>
</g>
<g>
</g>
</svg>
