<?xml version="1.0" encoding="iso-8859-1"?>
<!-- Generator: Adobe Illustrator 19.0.0, SVG Export Plug-In . SVG Version: 6.00 Build 0)  -->
<svg version="1.1" id="Layer_1" xmlns="http://www.w3.org/2000/svg" xmlns:xlink="http://www.w3.org/1999/xlink" x="0px" y="0px"
	 viewBox="0 0 512.004 512.004" style="enable-background:new 0 0 512.004 512.004;" xml:space="preserve">
<g>
	<path style="fill:#556080;" d="M247.176,432.553H17.659c-9.746,0-17.655-7.91-17.655-17.655V97.105
		c0-9.746,7.91-17.655,17.655-17.655h229.517V432.553z"/>
	<path style="fill:#45506D;" d="M494.348,432.553H247.176V79.45h247.172c9.746,0,17.655,7.91,17.655,17.655v317.793
		C512.004,424.644,504.094,432.553,494.348,432.553"/>
	<g>
		<polygon style="fill:#2D384F;" points="247.176,185.381 512.004,185.381 512.004,150.071 247.176,150.071 		"/>
		<polygon style="fill:#2D384F;" points="247.176,361.933 512.004,361.933 512.004,326.622 247.176,326.622 		"/>
		<path style="fill:#2D384F;" d="M21.551,79.45h-3.893c-2.251,0-4.378,0.459-6.365,1.227l-6.788,4.749
			c-2.772,3.116-4.502,7.177-4.502,11.679v13.135l225.624,322.313h21.548v-30.782L21.551,79.45z"/>
		<polygon style="fill:#2D384F;" points="225.624,79.45 123.586,225.22 145.134,256.002 247.172,110.232 247.172,79.45 		"/>
		<path style="fill:#2D384F;" d="M102.038,256.002L0,401.763v13.135c0,4.502,1.739,8.563,4.511,11.679l6.788,4.749
			c1.977,0.768,4.114,1.227,6.356,1.227h3.893l102.038-145.77L102.038,256.002z"/>
	</g>
</g>
<g>
</g>
<g>
</g>
<g>
</g>
<g>
</g>
<g>
</g>
<g>
</g>
<g>
</g>
<g>
</g>
<g>
</g>
<g>
</g>
<g>
</g>
<g>
</g>
<g>
</g>
<g>
</g>
<g>
</g>
</svg>
