<?xml version="1.0" encoding="iso-8859-1"?>
<!-- Generator: Adobe Illustrator 19.0.0, SVG Export Plug-In . SVG Version: 6.00 Build 0)  -->
<svg version="1.1" id="Layer_1" xmlns="http://www.w3.org/2000/svg" xmlns:xlink="http://www.w3.org/1999/xlink" x="0px" y="0px"
	 viewBox="0 0 512 512" style="enable-background:new 0 0 512 512;" xml:space="preserve">
<g>
	<path style="fill:#F29C1F;" d="M467.862,406.069V211.862C467.862,94.852,373.01,0,256,0S44.138,94.852,44.138,211.862v194.207
		H467.862z"/>
	<path style="fill:#D25627;" d="M467.862,512h-88.276V406.069h88.276c19.5,0,35.31,15.81,35.31,35.31v35.31
		C503.172,496.19,487.362,512,467.862,512"/>
	<polygon style="fill:#EB7B59;" points="256,512 379.586,512 379.586,406.069 256,406.069 	"/>
	<polygon style="fill:#D25627;" points="132.414,512 256,512 256,406.069 132.414,406.069 	"/>
	<path style="fill:#EB7B59;" d="M132.414,512H44.138c-19.5,0-35.31-15.81-35.31-35.31v-35.31c0-19.5,15.81-35.31,35.31-35.31h88.276
		V512z"/>
	<polygon style="fill:#D25627;" points="256,79.052 297.834,162.72 388.414,176.155 323.69,242.283 344.276,335.449 256,291.311 
		167.724,335.052 188.31,242.283 123.586,176.155 214.166,162.72 	"/>
	<polygon style="fill:#EB7B59;" points="256.069,251.87 218.19,270.638 226.92,231.258 197.242,200.926 237.522,194.95 
		255.998,157.998 274.474,194.95 314.755,200.926 285.085,231.24 293.816,270.744 	"/>
</g>
<g>
</g>
<g>
</g>
<g>
</g>
<g>
</g>
<g>
</g>
<g>
</g>
<g>
</g>
<g>
</g>
<g>
</g>
<g>
</g>
<g>
</g>
<g>
</g>
<g>
</g>
<g>
</g>
<g>
</g>
</svg>
