<?xml version="1.0" encoding="iso-8859-1"?>
<!-- Generator: Adobe Illustrator 19.0.0, SVG Export Plug-In . SVG Version: 6.00 Build 0)  -->
<svg version="1.1" id="Layer_1" xmlns="http://www.w3.org/2000/svg" xmlns:xlink="http://www.w3.org/1999/xlink" x="0px" y="0px"
	 viewBox="0 0 503.499 503.499" style="enable-background:new 0 0 503.499 503.499;" xml:space="preserve">
<g>
	<path style="fill:#13A085;" d="M407.095,373.153c0.321-5.736,0.581-11.498,0.581-17.356c0-103.276-48.05-224.976-113.612-251.765
		c-10.969,10.787-25.991,17.46-42.591,17.46c-16.592,0-31.622-6.673-42.583-17.46C143.328,130.82,95.269,252.52,95.269,355.797
		c0,5.858,0.269,11.62,0.59,17.356H407.095z"/>
	<path style="fill:#E64C3C;" d="M109.892,251.661c-6.231,22.632-10.631,46.167-12.869,69.424h308.91
		c-2.248-23.257-6.639-46.792-12.869-69.424H109.892z"/>
	<path style="fill:#C03A2B;" d="M109.892,251.661h283.171c-6.812-24.767-15.811-48.423-26.589-69.424H136.472
		C125.703,203.238,116.704,226.894,109.892,251.661"/>
	<path style="fill:#147764;" d="M416.357,373.153c12.297,39.511,12.297,83.421,0,121.492c-109.507,11.802-219.778,11.811-329.763,0
		c-11.524-38.791-11.611-82.701,0-121.492H416.357z"/>
	<g>
		<path style="fill:#F0C419;" d="M156.018,286.373c0,4.79-3.888,8.678-8.678,8.678s-8.678-3.888-8.678-8.678
			s3.888-8.678,8.678-8.678S156.018,281.583,156.018,286.373"/>
		<path style="fill:#F0C419;" d="M208.086,286.373c0,4.79-3.888,8.678-8.678,8.678s-8.678-3.888-8.678-8.678
			s3.888-8.678,8.678-8.678S208.086,281.583,208.086,286.373"/>
		<path style="fill:#F0C419;" d="M260.154,286.373c0,4.79-3.888,8.678-8.678,8.678s-8.678-3.888-8.678-8.678
			s3.888-8.678,8.678-8.678S260.154,281.583,260.154,286.373"/>
		<path style="fill:#F0C419;" d="M312.222,286.373c0,4.79-3.888,8.678-8.678,8.678c-4.79,0-8.678-3.888-8.678-8.678
			s3.888-8.678,8.678-8.678C308.334,277.695,312.222,281.583,312.222,286.373"/>
		<path style="fill:#F0C419;" d="M364.29,286.373c0,4.79-3.888,8.678-8.678,8.678s-8.678-3.888-8.678-8.678s3.888-8.678,8.678-8.678
			S364.29,281.583,364.29,286.373"/>
	</g>
	<path style="fill:#147764;" d="M312.222,60.746c0,33.549-27.197,60.746-60.746,60.746S190.73,94.295,190.73,60.746
		S217.927,0,251.476,0S312.222,27.197,312.222,60.746"/>
	<g>
		<path style="fill:#F0C419;" d="M182.052,216.949c0,4.79-3.888,8.678-8.678,8.678s-8.678-3.888-8.678-8.678
			s3.888-8.678,8.678-8.678S182.052,212.159,182.052,216.949"/>
		<path style="fill:#F0C419;" d="M234.12,216.949c0,4.79-3.888,8.678-8.678,8.678s-8.678-3.888-8.678-8.678s3.888-8.678,8.678-8.678
			S234.12,212.159,234.12,216.949"/>
		<path style="fill:#F0C419;" d="M286.188,216.949c0,4.79-3.888,8.678-8.678,8.678c-4.79,0-8.678-3.888-8.678-8.678
			s3.888-8.678,8.678-8.678C282.3,208.271,286.188,212.159,286.188,216.949"/>
		<path style="fill:#F0C419;" d="M338.256,216.949c0,4.79-3.888,8.678-8.678,8.678c-4.79,0-8.678-3.888-8.678-8.678
			s3.888-8.678,8.678-8.678C334.368,208.271,338.256,212.159,338.256,216.949"/>
	</g>
</g>
<g>
</g>
<g>
</g>
<g>
</g>
<g>
</g>
<g>
</g>
<g>
</g>
<g>
</g>
<g>
</g>
<g>
</g>
<g>
</g>
<g>
</g>
<g>
</g>
<g>
</g>
<g>
</g>
<g>
</g>
</svg>
