<?xml version="1.0" encoding="iso-8859-1"?>
<!-- Generator: Adobe Illustrator 19.0.0, SVG Export Plug-In . SVG Version: 6.00 Build 0)  -->
<svg version="1.1" id="Layer_1" xmlns="http://www.w3.org/2000/svg" xmlns:xlink="http://www.w3.org/1999/xlink" x="0px" y="0px"
	 viewBox="0 0 503.499 503.499" style="enable-background:new 0 0 503.499 503.499;" xml:space="preserve">
<g>
	<g>
		<path style="fill:#556080;" d="M416.632,373.153c11.568,38.617,11.568,82.519,0,121.492c-109.507,11.802-219.778,11.811-329.763,0
			c-11.533-38.791-11.611-82.701,0-121.492H416.632z"/>
		<path style="fill:#556080;" d="M312.497,60.746c0,33.549-27.197,60.746-60.746,60.746s-60.746-27.197-60.746-60.746
			S218.202,0,251.751,0S312.497,27.197,312.497,60.746"/>
	</g>
	<g>
		<path style="fill:#8697CB;" d="M260.429,26.034c0,4.79-3.888,8.678-8.678,8.678c-4.79,0-8.678-3.888-8.678-8.678
			s3.888-8.678,8.678-8.678C256.541,17.356,260.429,21.244,260.429,26.034"/>
		<path style="fill:#8697CB;" d="M234.395,43.39c0,4.79-3.888,8.678-8.678,8.678s-8.678-3.888-8.678-8.678s3.888-8.678,8.678-8.678
			S234.395,38.6,234.395,43.39"/>
		<path style="fill:#8697CB;" d="M286.463,43.39c0,4.79-3.888,8.678-8.678,8.678c-4.79,0-8.678-3.888-8.678-8.678
			s3.888-8.678,8.678-8.678C282.575,34.712,286.463,38.6,286.463,43.39"/>
		<path style="fill:#8697CB;" d="M260.429,60.746c0,4.79-3.888,8.678-8.678,8.678c-4.79,0-8.678-3.888-8.678-8.678
			s3.888-8.678,8.678-8.678C256.541,52.068,260.429,55.956,260.429,60.746"/>
		<path style="fill:#8697CB;" d="M286.463,78.102c0,4.79-3.888,8.678-8.678,8.678c-4.79,0-8.678-3.888-8.678-8.678
			s3.888-8.678,8.678-8.678C282.575,69.424,286.463,73.311,286.463,78.102"/>
		<path style="fill:#8697CB;" d="M234.395,78.102c0,4.79-3.888,8.678-8.678,8.678s-8.678-3.888-8.678-8.678s3.888-8.678,8.678-8.678
			S234.395,73.311,234.395,78.102"/>
		<path style="fill:#8697CB;" d="M260.429,95.458c0,4.79-3.888,8.678-8.678,8.678c-4.79,0-8.678-3.888-8.678-8.678
			s3.888-8.678,8.678-8.678C256.541,86.78,260.429,90.667,260.429,95.458"/>
	</g>
	<path style="fill:#556080;" d="M121.433,216.949h260.634c-7.116-18.84-15.534-36.456-25.019-52.068H146.443
		C136.967,180.493,128.549,198.109,121.433,216.949"/>
	<path style="fill:#8697CB;" d="M105.781,269.017h291.944c-4.113-17.92-9.381-35.458-15.664-52.068H121.436
		C115.162,233.559,109.894,251.097,105.781,269.017"/>
	<path style="fill:#556080;" d="M97.294,321.085h308.918c-1.684-17.365-4.547-34.885-8.487-52.068H105.781
		C101.832,286.199,98.969,303.72,97.294,321.085"/>
	<g>
		<path style="fill:#8697CB;" d="M231.128,117.818c-7.376-2.673-14.067-6.717-19.803-11.845c-0.174-0.165-0.356-0.312-0.529-0.477
			c-0.538-0.495-1.111-0.946-1.631-1.467c-21.721,8.878-41.489,28.203-58.264,53.786c-1.501,2.326-2.994,4.66-4.443,7.055
			l-0.009,0.009h210.606l-0.009-0.009c-1.449-2.395-2.942-4.721-4.443-7.046c-16.766-25.583-36.543-44.917-58.264-53.795
			c-0.521,0.521-1.093,0.972-1.64,1.467c-0.174,0.165-0.347,0.312-0.521,0.477c-5.736,5.129-12.427,9.173-19.803,11.845
			c-0.139,0.043-0.278,0.095-0.408,0.148c-6.335,2.239-13.121,3.523-20.22,3.523c-7.099,0-13.876-1.284-20.211-3.523
			C231.397,117.914,231.267,117.862,231.128,117.818"/>
		<path style="fill:#8697CB;" d="M97.294,321.085c-1.128,11.689-1.744,23.318-1.744,34.712c0,5.858,0.269,11.611,0.581,17.356
			h311.235c0.321-5.745,0.59-11.498,0.59-17.356c0-11.394-0.616-23.023-1.744-34.712H97.294z"/>
	</g>
</g>
<g>
</g>
<g>
</g>
<g>
</g>
<g>
</g>
<g>
</g>
<g>
</g>
<g>
</g>
<g>
</g>
<g>
</g>
<g>
</g>
<g>
</g>
<g>
</g>
<g>
</g>
<g>
</g>
<g>
</g>
</svg>
