<?xml version="1.0" encoding="iso-8859-1"?>
<!-- Generator: Adobe Illustrator 19.0.0, SVG Export Plug-In . SVG Version: 6.00 Build 0)  -->
<svg version="1.1" id="Layer_1" xmlns="http://www.w3.org/2000/svg" xmlns:xlink="http://www.w3.org/1999/xlink" x="0px" y="0px"
	 viewBox="0 0 511.999 511.999" style="enable-background:new 0 0 511.999 511.999;" xml:space="preserve">
<g>
	<g>
		<path style="fill:#24AE5F;" d="M88.311,256c-0.327-13.206,1.492-25.017,4.281-35.31H0v70.621h92.593
			C89.803,281.017,87.985,269.206,88.311,256"/>
		<path style="fill:#24AE5F;" d="M419.398,220.689c2.79,10.293,4.608,22.104,4.281,35.31c0.327,13.206-1.492,25.017-4.281,35.31
			h92.601v-70.621H419.398z"/>
	</g>
	<path style="fill:#1A8947;" d="M300.134,264.827v-17.655c0-7.565-2.11-14.601-5.5-20.842v-0.433
		c11.82-11.97,51.218-47.51,102.471-49.346c0,0,27.78,30.561,26.58,79.448c1.201,48.887-26.58,79.448-26.58,79.448
		c-51.253-1.836-90.545-37.57-102.365-49.54v-0.424C298.069,279.287,300.134,272.322,300.134,264.827"/>
	<path style="fill:#24AE5F;" d="M255.996,308.965L255.996,308.965c-24.276,0-44.138-19.862-44.138-44.138v-17.655
		c0-24.276,19.862-44.138,44.138-44.138s44.138,19.862,44.138,44.138v17.655C300.134,289.103,280.272,308.965,255.996,308.965"/>
	<g>
		<path style="fill:#C03A2B;" d="M423.255,243.051l-60.266-60.266c-6.038,1.969-11.811,4.264-17.24,6.815
			c0.433,0.971,0.997,1.907,1.792,2.692l69.473,69.491c1.598,1.827,3.955,2.975,6.568,3.001c0.132-2.851,0.177-5.782,0.097-8.783
			C423.794,251.508,423.591,247.227,423.255,243.051"/>
		<path style="fill:#C03A2B;" d="M327.139,199.9c-5.341,3.39-10.205,6.824-14.477,10.134c0.265,0.344,0.397,0.75,0.706,1.068
			l96.591,96.591c0.865,0.874,1.871,1.518,2.94,1.951c2.313-5.191,4.493-11.114,6.312-17.664L327.139,199.9z"/>
		<path style="fill:#C03A2B;" d="M402.549,328.275l-97.457-97.439c-2.507-2.507-6.135-3.134-9.26-1.995
			c2.639,5.606,4.299,11.75,4.299,18.326v3.681l83.227,83.2c4.484,0.697,9.048,1.227,13.745,1.395
			C397.102,335.443,399.371,332.91,402.549,328.275"/>
	</g>
	<path style="fill:#1A8947;" d="M211.859,264.827v-17.655c0-7.565,2.11-14.601,5.5-20.842v-0.433
		c-11.82-11.97-51.218-47.51-102.471-49.346c0,0-27.78,30.561-26.58,79.448c-1.201,48.887,26.58,79.448,26.58,79.448
		c51.253-1.836,90.545-37.57,102.365-49.54v-0.424C213.924,279.287,211.859,272.322,211.859,264.827"/>
	<g>
		<path style="fill:#C03A2B;" d="M88.738,243.051l60.266-60.266c6.038,1.969,11.811,4.264,17.24,6.815
			c-0.433,0.971-0.998,1.907-1.792,2.692l-69.473,69.491c-1.598,1.827-3.955,2.975-6.568,3.001c-0.132-2.86-0.177-5.782-0.097-8.783
			C88.199,251.508,88.402,247.227,88.738,243.051"/>
		<path style="fill:#C03A2B;" d="M184.854,199.9c5.341,3.39,10.205,6.824,14.477,10.134c-0.265,0.344-0.397,0.75-0.706,1.068
			l-96.591,96.591c-0.865,0.874-1.871,1.518-2.94,1.951c-2.313-5.191-4.493-11.114-6.312-17.664L184.854,199.9z"/>
		<path style="fill:#C03A2B;" d="M109.444,328.271l97.457-97.43c2.507-2.507,6.135-3.143,9.26-1.995
			c-2.639,5.606-4.299,11.741-4.299,18.326v3.672l-83.226,83.209c-4.484,0.689-9.048,1.227-13.745,1.395
			C114.891,335.448,112.622,332.905,109.444,328.271"/>
	</g>
</g>
<g>
</g>
<g>
</g>
<g>
</g>
<g>
</g>
<g>
</g>
<g>
</g>
<g>
</g>
<g>
</g>
<g>
</g>
<g>
</g>
<g>
</g>
<g>
</g>
<g>
</g>
<g>
</g>
<g>
</g>
</svg>
