<?xml version="1.0" encoding="iso-8859-1"?>
<!-- Generator: Adobe Illustrator 19.0.0, SVG Export Plug-In . SVG Version: 6.00 Build 0)  -->
<svg version="1.1" id="Layer_1" xmlns="http://www.w3.org/2000/svg" xmlns:xlink="http://www.w3.org/1999/xlink" x="0px" y="0px"
	 viewBox="0 0 512.002 512.002" style="enable-background:new 0 0 512.002 512.002;" xml:space="preserve">
<g>
	<path style="fill:#BDC3C7;" d="M201.619,241.956c-2.185,0-4.369-0.836-6.033-2.5c-3.337-3.328-3.337-8.73-0.009-12.066l6.793-6.793
		c-3.072-5.197-4.71-11.153-4.71-17.348c0-9.114,3.55-17.681,9.993-24.132c12.894-12.902,35.379-12.902,48.273,0
		c6.451,6.451,10.001,15.019,10.001,24.132c0,9.122-3.55,17.69-10.001,24.132c-3.337,3.337-8.738,3.337-12.075,0
		c-3.328-3.337-3.328-8.738,0.009-12.066c3.226-3.226,5.001-7.509,5.001-12.066c0-4.557-1.775-8.841-5.001-12.066
		c-6.451-6.451-17.69-6.451-24.141,0c-3.217,3.226-4.992,7.509-4.992,12.066c0,4.557,1.775,8.841,4.992,12.066
		c3.337,3.337,3.337,8.73,0.009,12.066l-12.066,12.075C205.988,241.12,203.804,241.956,201.619,241.956"/>
	<path style="fill:#805333;" d="M36.353,200.898l197.786,197.794l-39.561-158.234L36.353,200.898z M249.891,435.036
		c-2.21,0-4.395-0.853-6.033-2.492L2.501,191.179c-2.714-2.705-3.285-6.895-1.391-10.24c1.886-3.328,5.743-5.018,9.489-4.062
		l193.092,48.273c3.055,0.759,5.444,3.149,6.204,6.204l48.273,193.084c0.93,3.721-0.734,7.603-4.07,9.498
		C252.776,434.678,251.333,435.036,249.891,435.036L249.891,435.036z"/>
	<path style="fill:#BDC3C7;" d="M447.695,149.474c-2.185,0-4.369-0.836-6.033-2.5c-3.337-3.337-3.337-8.73,0-12.066l6.793-6.793
		c-3.081-5.188-4.719-11.145-4.719-17.34c0-9.122,3.55-17.69,10.001-24.132c12.885-12.902,35.371-12.902,48.265,0
		c6.451,6.443,10.001,15.01,10.001,24.132c0,9.114-3.55,17.69-10.001,24.132c-3.337,3.337-8.738,3.337-12.075,0
		c-3.328-3.337-3.328-8.738,0.009-12.066c3.226-3.226,5.001-7.509,5.001-12.066c0-4.557-1.775-8.841-5.001-12.066
		c-6.451-6.451-17.69-6.451-24.132,0c-3.226,3.226-5.001,7.509-5.001,12.066c0,4.557,1.775,8.841,5.001,12.066
		c1.596,1.596,2.5,3.763,2.5,6.033c0,2.27-0.905,4.429-2.5,6.033l-12.075,12.066C452.064,148.638,449.879,149.474,447.695,149.474"
		/>
	<path style="fill:#CB8252;" d="M282.424,108.423l197.794,197.794l-39.561-158.242L282.424,108.423z M495.97,342.561
		c-2.21,0-4.395-0.853-6.042-2.492L248.572,98.704c-2.714-2.705-3.285-6.895-1.391-10.24c1.886-3.337,5.751-5.026,9.498-4.062
		l193.084,48.265c3.055,0.759,5.444,3.149,6.212,6.204l48.273,193.092c0.93,3.721-0.742,7.603-4.079,9.498
		C498.855,342.203,497.404,342.561,495.97,342.561L495.97,342.561z"/>
</g>
<g>
</g>
<g>
</g>
<g>
</g>
<g>
</g>
<g>
</g>
<g>
</g>
<g>
</g>
<g>
</g>
<g>
</g>
<g>
</g>
<g>
</g>
<g>
</g>
<g>
</g>
<g>
</g>
<g>
</g>
</svg>
