<?xml version="1.0" encoding="iso-8859-1"?>
<!-- Generator: Adobe Illustrator 19.0.0, SVG Export Plug-In . SVG Version: 6.00 Build 0)  -->
<svg version="1.1" id="Layer_1" xmlns="http://www.w3.org/2000/svg" xmlns:xlink="http://www.w3.org/1999/xlink" x="0px" y="0px"
	 viewBox="0 0 512.003 512.003" style="enable-background:new 0 0 512.003 512.003;" xml:space="preserve">
<g>
	<g>
		<path style="fill:#24AE5F;" d="M474.088,282.586c-2.185,0-4.369-0.836-6.033-2.5l-36.207-36.207
			c-3.328-3.337-3.328-8.738,0-12.066c3.337-3.337,8.738-3.337,12.066,0l36.207,36.207c3.337,3.337,3.337,8.73,0,12.066
			C478.457,281.75,476.273,282.586,474.088,282.586"/>
		<path style="fill:#24AE5F;" d="M449.95,306.72c-2.185,0-4.369-0.836-6.033-2.5l-36.207-36.198c-3.328-3.337-3.328-8.738,0-12.066
			c3.337-3.337,8.738-3.337,12.066,0l36.207,36.198c3.337,3.337,3.337,8.73,0,12.066C454.319,305.884,452.135,306.72,449.95,306.72"
			/>
		<path style="fill:#24AE5F;" d="M425.817,330.862c-2.185,0-4.369-0.836-6.033-2.5l-36.207-36.207
			c-3.328-3.337-3.328-8.738,0-12.066c3.337-3.337,8.738-3.337,12.066,0l36.207,36.207c3.337,3.337,3.337,8.73,0,12.066
			C430.186,330.026,428.002,330.862,425.817,330.862"/>
		<path style="fill:#24AE5F;" d="M401.68,354.995c-2.185,0-4.369-0.836-6.033-2.5l-36.207-36.207c-3.328-3.337-3.328-8.738,0-12.066
			c3.337-3.337,8.738-3.337,12.066,0l36.207,36.207c3.337,3.337,3.337,8.73,0,12.066
			C406.049,354.159,403.864,354.995,401.68,354.995"/>
		<path style="fill:#24AE5F;" d="M377.542,379.128c-2.185,0-4.369-0.836-6.033-2.5l-36.207-36.198
			c-3.328-3.337-3.328-8.738,0-12.066c3.337-3.337,8.738-3.337,12.066,0l36.207,36.198c3.337,3.337,3.337,8.73,0,12.066
			C381.911,378.292,379.727,379.128,377.542,379.128"/>
		<path style="fill:#24AE5F;" d="M353.409,403.261c-2.185,0-4.369-0.836-6.033-2.5l-36.207-36.198
			c-3.328-3.337-3.328-8.738,0-12.066c3.337-3.337,8.738-3.337,12.066,0l36.207,36.198c3.337,3.337,3.337,8.73,0,12.066
			C357.778,402.425,355.594,403.261,353.409,403.261"/>
	</g>
	<g>
		<path style="fill:#1B7F43;" d="M208.58,512.003c-4.71,0-8.533-3.814-8.533-8.533v-51.2c0-4.719,3.823-8.533,8.533-8.533
			s8.533,3.814,8.533,8.533v51.2C217.113,508.189,213.29,512.003,208.58,512.003"/>
		<path style="fill:#1B7F43;" d="M174.446,512.003c-4.71,0-8.533-3.814-8.533-8.533v-51.2c0-4.719,3.823-8.533,8.533-8.533
			s8.533,3.814,8.533,8.533v51.2C182.98,508.189,179.157,512.003,174.446,512.003"/>
		<path style="fill:#1B7F43;" d="M140.313,512.003c-4.71,0-8.533-3.814-8.533-8.533v-51.2c0-4.719,3.823-8.533,8.533-8.533
			s8.533,3.814,8.533,8.533v51.2C148.846,508.189,145.023,512.003,140.313,512.003"/>
		<path style="fill:#1B7F43;" d="M106.18,512.003c-4.71,0-8.533-3.814-8.533-8.533v-51.2c0-4.719,3.823-8.533,8.533-8.533
			s8.533,3.814,8.533,8.533v51.2C114.713,508.189,110.89,512.003,106.18,512.003"/>
		<path style="fill:#1B7F43;" d="M72.046,512.003c-4.71,0-8.533-3.814-8.533-8.533v-51.2c0-4.719,3.823-8.533,8.533-8.533
			c4.71,0,8.533,3.814,8.533,8.533v51.2C80.58,508.189,76.757,512.003,72.046,512.003"/>
		<path style="fill:#1B7F43;" d="M37.913,512.003c-4.71,0-8.533-3.814-8.533-8.533v-51.2c0-4.719,3.823-8.533,8.533-8.533
			s8.533,3.814,8.533,8.533v51.2C46.446,508.189,42.623,512.003,37.913,512.003"/>
		<path style="fill:#1B7F43;" d="M317.205,367.061c-2.185,0-4.369-0.836-6.033-2.5L202.542,255.94
			c-1.596-1.604-2.492-3.772-2.492-6.033V8.567c0-1.852,0.597-3.644,1.707-5.111c1.485-1.988,3.755-3.226,6.221-3.405
			c2.441-0.196,4.898,0.717,6.647,2.466l229.291,229.299c3.337,3.337,3.337,8.738,0,12.066L323.238,364.561
			C321.574,366.225,319.389,367.061,317.205,367.061"/>
	</g>
	<path style="fill:#C03A2B;" d="M378.284,237.387c-12.015-12.015-29.372-15.223-44.39-9.916c5.308-15.019,2.099-32.375-9.916-44.39
		c-9.916-9.907-23.484-13.781-36.369-11.904c1.886-12.885-1.988-26.445-11.904-36.369c-16.657-16.666-43.674-16.666-60.339,0
		c-2.782,2.79-4.932,5.939-6.784,9.207v41.933c1.852,3.268,4.002,6.417,6.784,9.207c9.916,9.916,23.484,13.781,36.369,11.895
		c-1.886,12.885,1.988,26.453,11.904,36.369c12.015,12.015,29.372,15.223,44.39,9.916c-5.308,15.019-2.099,32.375,9.916,44.39
		c16.188,16.196,42.069,16.512,58.82,1.246l2.765-2.765C394.796,279.465,394.471,253.575,378.284,237.387"/>
	<path style="fill:#24AE5F;" d="M208.58,460.803H37.913c-4.71,0-8.533-3.814-8.533-8.533V8.537c0-4.719,3.823-8.533,8.533-8.533
		H208.58c4.71,0,8.533,3.814,8.533,8.533V452.27C217.113,456.989,213.29,460.803,208.58,460.803"/>
	<path style="fill:#C03A2B;" d="M165.913,416.495c0-17.638-10.001-32.751-24.371-39.876c14.37-7.134,24.371-22.229,24.371-39.876
		c0-17.647-10.001-32.751-24.371-39.885c14.37-7.117,24.371-22.229,24.371-39.868c0-17.647-10.001-32.751-24.371-39.876
		c14.37-7.134,24.371-22.238,24.371-39.876s-10.001-32.751-24.371-39.885c14.37-7.125,24.371-22.229,24.371-39.876
		c0-17.638-10.001-32.751-24.371-39.876c14.37-7.125,24.371-22.229,24.371-39.868c0-6.323-1.314-12.297-3.601-17.732H84.181
		c-2.287,5.436-3.601,11.409-3.601,17.732c0,17.638,10.001,32.742,24.371,39.868C90.581,64.725,80.58,79.838,80.58,97.476
		c0,17.647,10.001,32.751,24.371,39.876c-14.37,7.134-24.371,22.246-24.371,39.885s10.001,32.742,24.371,39.876
		c-14.37,7.125-24.371,22.229-24.371,39.876c0,17.638,10.001,32.751,24.371,39.868c-14.37,7.134-24.371,22.238-24.371,39.885
		c0,17.647,10.001,32.742,24.371,39.876c-14.37,7.125-24.371,22.238-24.371,39.876c0,24.474,19.098,44.305,42.667,44.305
		S165.913,440.969,165.913,416.495"/>
</g>
<g>
</g>
<g>
</g>
<g>
</g>
<g>
</g>
<g>
</g>
<g>
</g>
<g>
</g>
<g>
</g>
<g>
</g>
<g>
</g>
<g>
</g>
<g>
</g>
<g>
</g>
<g>
</g>
<g>
</g>
</svg>
