<?xml version="1.0" encoding="iso-8859-1"?>
<!-- Generator: Adobe Illustrator 19.0.0, SVG Export Plug-In . SVG Version: 6.00 Build 0)  -->
<svg version="1.1" id="Layer_1" xmlns="http://www.w3.org/2000/svg" xmlns:xlink="http://www.w3.org/1999/xlink" x="0px" y="0px"
	 viewBox="0 0 512.001 512.001" style="enable-background:new 0 0 512.001 512.001;" xml:space="preserve">
<g>
	<g>
		<path style="fill:#F29C1F;" d="M474.089,282.584c-2.185,0-4.369-0.836-6.033-2.5l-36.207-36.207
			c-3.337-3.337-3.337-8.738,0-12.066c3.328-3.337,8.73-3.337,12.066,0l36.207,36.207c3.337,3.337,3.337,8.73,0,12.066
			C478.458,281.748,476.273,282.584,474.089,282.584z"/>
		<path style="fill:#F29C1F;" d="M449.955,306.718c-2.184,0-4.369-0.836-6.033-2.5l-36.207-36.198
			c-3.337-3.337-3.337-8.738,0-12.066c3.328-3.337,8.73-3.337,12.066,0l36.207,36.198c3.337,3.337,3.337,8.73,0,12.066
			C454.324,305.882,452.139,306.718,449.955,306.718"/>
		<path style="fill:#F29C1F;" d="M425.813,330.86c-2.185,0-4.369-0.836-6.033-2.5l-36.198-36.207c-3.337-3.337-3.337-8.738,0-12.066
			c3.328-3.337,8.73-3.337,12.066,0l36.198,36.207c3.337,3.337,3.337,8.73,0,12.066C430.182,330.023,427.998,330.86,425.813,330.86"
			/>
		<path style="fill:#F29C1F;" d="M401.68,354.993c-2.185,0-4.369-0.836-6.033-2.5l-36.198-36.207c-3.337-3.337-3.337-8.738,0-12.066
			c3.328-3.337,8.73-3.337,12.066,0l36.198,36.207c3.337,3.337,3.337,8.73,0,12.066C406.049,354.156,403.865,354.993,401.68,354.993
			"/>
		<path style="fill:#F29C1F;" d="M377.547,379.126c-2.185,0-4.369-0.836-6.033-2.5l-36.207-36.198
			c-3.337-3.337-3.337-8.738,0-12.066c3.328-3.337,8.73-3.337,12.066,0l36.207,36.198c3.337,3.337,3.337,8.73,0,12.066
			C381.916,378.29,379.731,379.126,377.547,379.126"/>
		<path style="fill:#F29C1F;" d="M353.405,403.259c-2.185,0-4.369-0.836-6.033-2.5l-36.198-36.198
			c-3.337-3.337-3.337-8.738,0-12.066c3.328-3.337,8.73-3.337,12.066,0l36.198,36.198c3.337,3.337,3.337,8.73,0,12.066
			C357.774,402.423,355.59,403.259,353.405,403.259"/>
	</g>
	<g>
		<path style="fill:#B25B1B;" d="M208.58,512.001c-4.719,0-8.533-3.814-8.533-8.533v-51.2c0-4.719,3.814-8.533,8.533-8.533
			s8.533,3.814,8.533,8.533v51.2C217.113,508.186,213.299,512.001,208.58,512.001"/>
		<path style="fill:#B25B1B;" d="M174.447,512.001c-4.719,0-8.533-3.814-8.533-8.533v-51.2c0-4.719,3.814-8.533,8.533-8.533
			s8.533,3.814,8.533,8.533v51.2C182.98,508.186,179.166,512.001,174.447,512.001"/>
		<path style="fill:#B25B1B;" d="M140.313,512.001c-4.719,0-8.533-3.814-8.533-8.533v-51.2c0-4.719,3.814-8.533,8.533-8.533
			c4.719,0,8.533,3.814,8.533,8.533v51.2C148.847,508.186,145.032,512.001,140.313,512.001"/>
		<path style="fill:#B25B1B;" d="M106.18,512.001c-4.719,0-8.533-3.814-8.533-8.533v-51.2c0-4.719,3.814-8.533,8.533-8.533
			c4.719,0,8.533,3.814,8.533,8.533v51.2C114.713,508.186,110.899,512.001,106.18,512.001"/>
		<path style="fill:#B25B1B;" d="M72.047,512.001c-4.719,0-8.533-3.814-8.533-8.533v-51.2c0-4.719,3.814-8.533,8.533-8.533
			s8.533,3.814,8.533,8.533v51.2C80.58,508.186,76.766,512.001,72.047,512.001"/>
		<path style="fill:#B25B1B;" d="M37.913,512.001c-4.719,0-8.533-3.814-8.533-8.533v-51.2c0-4.719,3.814-8.533,8.533-8.533
			s8.533,3.814,8.533,8.533v51.2C46.447,508.186,42.632,512.001,37.913,512.001"/>
		<polygon style="fill:#B25B1B;" points="214.63,2.517 208.58,0 200.047,5.035 200.047,253.431 317.209,370.594 449.945,237.85 		
			"/>
	</g>
	<g>
		<path style="fill:#F29C1F;" d="M263.713,51.201c-7.782,9.873-12.467,22.306-12.467,35.857c0,32.043,25.967,58.01,58.01,58.01
			c13.551,0,25.984-4.685,35.857-12.467L263.713,51.201z"/>
		<path style="fill:#F29C1F;" d="M264.047,204.801c-30.635,0-55.467,24.832-55.467,55.467c0,0.939,0.094,1.852,0.145,2.773
			l52.548,52.548c0.922,0.051,1.835,0.145,2.773,0.145c30.635,0,55.467-24.832,55.467-55.467
			C319.513,229.633,294.681,204.801,264.047,204.801"/>
		<path style="fill:#F29C1F;" d="M29.38,0.001v460.8h187.733V7.297c0-4.028-3.268-7.296-7.296-7.296H29.38z"/>
	</g>
	<g>
		<path style="fill:#E57E25;" d="M174.447,213.334c0,28.271-22.929,51.2-51.2,51.2s-51.2-22.929-51.2-51.2s22.929-51.2,51.2-51.2
			S174.447,185.063,174.447,213.334"/>
		<path style="fill:#E57E25;" d="M29.38,99.151c6.016,2.065,12.459,3.251,19.2,3.251c31.812,0,57.6-25.011,57.6-55.859
			c0-19.43-10.249-36.54-25.779-46.541H29.38V99.151z"/>
		<path style="fill:#E57E25;" d="M217.113,43.434c-3.174-0.469-6.426-0.768-9.754-0.768c-32.316,0-58.513,22.929-58.513,51.2
			c0,28.279,26.197,51.2,58.513,51.2c3.328,0,6.579-0.299,9.754-0.768V43.434z"/>
		<path style="fill:#E57E25;" d="M39.13,298.668c-3.328,0-6.579,0.299-9.754,0.768V400.3c3.174,0.469,6.426,0.768,9.754,0.768
			c32.316,0,58.513-22.929,58.513-51.2C97.643,321.597,71.446,298.668,39.13,298.668"/>
		<path style="fill:#E57E25;" d="M217.113,267.509c-24.841,7.031-42.667,25.941-42.667,48.222c0,22.289,17.826,41.199,42.667,48.23
			V267.509z"/>
		<path style="fill:#E57E25;" d="M217.113,400.426c-8.371-4.992-18.065-7.893-28.442-7.893c-31.428,0-56.892,26.206-56.892,58.522
			c0,3.319,0.333,6.571,0.853,9.745h84.48V400.426z"/>
	</g>
</g>
<g>
</g>
<g>
</g>
<g>
</g>
<g>
</g>
<g>
</g>
<g>
</g>
<g>
</g>
<g>
</g>
<g>
</g>
<g>
</g>
<g>
</g>
<g>
</g>
<g>
</g>
<g>
</g>
<g>
</g>
</svg>
