<?xml version="1.0" encoding="iso-8859-1"?>
<!-- Generator: Adobe Illustrator 19.0.0, SVG Export Plug-In . SVG Version: 6.00 Build 0)  -->
<svg version="1.1" id="Layer_1" xmlns="http://www.w3.org/2000/svg" xmlns:xlink="http://www.w3.org/1999/xlink" x="0px" y="0px"
	 viewBox="0 0 512 512" style="enable-background:new 0 0 512 512;" xml:space="preserve">
<g>
	<path style="fill:#E6E7E8;" d="M255.998,85.333c-4.71,0-8.533-3.823-8.533-8.533v-9.609c-14.703-3.806-25.6-17.186-25.6-33.058
		C221.864,15.309,237.173,0,255.998,0s34.133,15.309,34.133,34.133c0,4.71-3.823,8.533-8.533,8.533c-4.71,0-8.533-3.823-8.533-8.533
		c0-9.412-7.654-17.067-17.067-17.067s-17.067,7.654-17.067,17.067S246.585,51.2,255.998,51.2c4.71,0,8.533,3.823,8.533,8.533V76.8
		C264.531,81.51,260.708,85.333,255.998,85.333"/>
	<path style="fill:#805333;" d="M460.798,187.733h-93.867c-4.71,0-8.533-3.823-8.533-8.533s3.823-8.533,8.533-8.533h57.719
		L255.998,86.34L87.345,170.667h66.253c4.71,0,8.533,3.823,8.533,8.533s-3.823,8.533-8.533,8.533h-102.4
		c-3.959,0-7.398-2.722-8.303-6.571c-0.913-3.857,0.947-7.825,4.489-9.6l204.8-102.4c2.398-1.195,5.231-1.195,7.629,0l204.8,102.4
		c3.541,1.775,5.402,5.743,4.497,9.6C468.187,185.011,464.757,187.733,460.798,187.733"/>
	<g>
		<path style="fill:#C03A2B;" d="M358.398,392.533c-4.71,0-8.533-3.823-8.533-8.533v-34.133c0-4.71,3.823-8.533,8.533-8.533
			s8.533,3.823,8.533,8.533V384C366.931,388.71,363.108,392.533,358.398,392.533"/>
		<path style="fill:#C03A2B;" d="M324.264,392.533c-4.71,0-8.533-3.823-8.533-8.533v-34.133c0-4.71,3.823-8.533,8.533-8.533
			s8.533,3.823,8.533,8.533V384C332.798,388.71,328.975,392.533,324.264,392.533"/>
	</g>
	<path style="fill:#9E2C23;" d="M366.931,358.4h-76.8c-4.71,0-8.533-3.823-8.533-8.533V162.133c0-4.71,3.823-8.533,8.533-8.533h76.8
		c4.71,0,8.533,3.823,8.533,8.533v187.733C375.464,354.577,371.641,358.4,366.931,358.4"/>
	<g>
		<path style="fill:#F0C419;" d="M324.264,312.45c0-40.602-14.327-73.515-32-73.515c-3.746,0-7.322,1.553-10.667,4.267v115.2h35.627
			C321.619,345.807,324.264,329.849,324.264,312.45"/>
		<path style="fill:#F0C419;" d="M324.264,163.083c0-3.217-0.111-6.374-0.273-9.481h-42.394v80.922
			c3.345,2.807,6.921,4.412,10.667,4.412C309.937,238.936,324.264,204.973,324.264,163.083"/>
	</g>
	<g>
		<path style="fill:#9E2C23;" d="M153.598,512c-4.71,0-8.533-3.823-8.533-8.533v-34.133c0-4.71,3.823-8.533,8.533-8.533
			s8.533,3.823,8.533,8.533v34.133C162.131,508.177,158.308,512,153.598,512"/>
		<path style="fill:#9E2C23;" d="M187.731,512c-4.71,0-8.533-3.823-8.533-8.533v-34.133c0-4.71,3.823-8.533,8.533-8.533
			c4.71,0,8.533,3.823,8.533,8.533v34.133C196.264,508.177,192.441,512,187.731,512"/>
		<path style="fill:#9E2C23;" d="M221.864,512c-4.71,0-8.533-3.823-8.533-8.533v-34.133c0-4.71,3.823-8.533,8.533-8.533
			c4.71,0,8.533,3.823,8.533,8.533v34.133C230.398,508.177,226.575,512,221.864,512"/>
		<path style="fill:#9E2C23;" d="M255.998,512c-4.71,0-8.533-3.823-8.533-8.533v-34.133c0-4.71,3.823-8.533,8.533-8.533
			s8.533,3.823,8.533,8.533v34.133C264.531,508.177,260.708,512,255.998,512"/>
		<path style="fill:#9E2C23;" d="M290.131,512c-4.71,0-8.533-3.823-8.533-8.533v-34.133c0-4.71,3.823-8.533,8.533-8.533
			c4.71,0,8.533,3.823,8.533,8.533v34.133C298.664,508.177,294.841,512,290.131,512"/>
	</g>
	<polygon style="fill:#C03A2B;" points="145.064,477.867 298.664,477.867 298.664,153.6 145.064,153.6 	"/>
	<g>
		<path style="fill:#F0C419;" d="M247.464,315.733c0,37.7-11.46,68.267-25.6,68.267c-14.14,0-25.6-30.566-25.6-68.267
			s11.46-68.267,25.6-68.267C236.004,247.467,247.464,278.033,247.464,315.733"/>
		<path style="fill:#F0C419;" d="M221.864,384c-14.14,0-25.6,33.621-25.6,75.093c0,6.494,0.316,12.757,0.836,18.773h49.527
			c0.521-6.016,0.836-12.279,0.836-18.773C247.464,417.621,236.004,384,221.864,384"/>
		<path style="fill:#F0C419;" d="M196.264,172.375c0,41.472,11.46,75.093,25.6,75.093c14.14,0,25.6-33.621,25.6-75.093
			c0-6.494-0.316-12.766-0.836-18.773H197.1C196.58,159.609,196.264,165.881,196.264,172.375"/>
	</g>
</g>
<g>
</g>
<g>
</g>
<g>
</g>
<g>
</g>
<g>
</g>
<g>
</g>
<g>
</g>
<g>
</g>
<g>
</g>
<g>
</g>
<g>
</g>
<g>
</g>
<g>
</g>
<g>
</g>
<g>
</g>
</svg>
