<?xml version="1.0" encoding="iso-8859-1"?>
<!-- Generator: Adobe Illustrator 19.0.0, SVG Export Plug-In . SVG Version: 6.00 Build 0)  -->
<svg version="1.1" id="Layer_1" xmlns="http://www.w3.org/2000/svg" xmlns:xlink="http://www.w3.org/1999/xlink" x="0px" y="0px"
	 viewBox="0 0 512 512" style="enable-background:new 0 0 512 512;" xml:space="preserve">
<g>
	<path style="fill:#8697CB;" d="M0,336.863c0-97.51,79.042-176.552,176.552-176.552s176.552,79.042,176.552,176.552
		C239.042,372.173,116.277,372.173,0,336.863"/>
	<g>
		<path style="fill:#556080;" d="M353.103,336.863c-28.963,8.969-58.492,15.634-88.329,20.047l60.849,19.359
			c62.367,19.844,130.26,11.917,186.377-21.751L353.103,336.863z"/>
		<path style="fill:#556080;" d="M162.685,161.009c4.573-0.415,9.181-0.697,13.868-0.697c4.687,0,9.295,0.282,13.868,0.697
			c3.478,0.274,6.912,0.68,10.328,1.156c1.448-3.275,2.286-6.868,2.286-10.681c0-14.627-11.855-26.483-26.483-26.483
			c-14.627,0-26.483,11.855-26.483,26.483c0,3.814,0.839,7.406,2.278,10.681C155.773,161.689,159.198,161.283,162.685,161.009"/>
		<path style="fill:#556080;" d="M0,336.863c89.406,27.154,182.625,33.333,272.799,18.732
			c-5.906-88.488-46.362-162.498-96.247-195.081C89.379,160.514,0,229.555,0,336.863"/>
	</g>
	<path style="fill:#39425B;" d="M176.552,222.104c17.02,0,36.431-0.45,52.992-5.341c-15.192-24.064-33.333-43.405-52.992-56.249
		l-0.327-0.185c-5.87,0.009-11.661,0.335-17.382,0.9c-0.644,0.062-1.28,0.168-1.924,0.238
		c-28.796,3.187-55.508,13.286-78.424,28.619c-0.821,0.565-1.624,1.148-2.436,1.713c-1.801,1.254-3.496,2.622-5.252,3.937
		C94.897,211.087,132.652,222.104,176.552,222.104"/>
	<path style="fill:#556080;" d="M344.995,283.897h-36.034c-4.873,0-8.828,3.946-8.828,8.828s3.955,8.828,8.828,8.828h38.577
		c0.689,0,1.306-0.238,1.951-0.397C348.279,295.294,346.77,289.538,344.995,283.897"/>
</g>
<g>
</g>
<g>
</g>
<g>
</g>
<g>
</g>
<g>
</g>
<g>
</g>
<g>
</g>
<g>
</g>
<g>
</g>
<g>
</g>
<g>
</g>
<g>
</g>
<g>
</g>
<g>
</g>
<g>
</g>
</svg>
