<?xml version="1.0" encoding="iso-8859-1"?>
<!-- Generator: Adobe Illustrator 19.0.0, SVG Export Plug-In . SVG Version: 6.00 Build 0)  -->
<svg version="1.1" id="Layer_1" xmlns="http://www.w3.org/2000/svg" xmlns:xlink="http://www.w3.org/1999/xlink" x="0px" y="0px"
	 viewBox="0 0 512 512" style="enable-background:new 0 0 512 512;" xml:space="preserve">
<g>
	<path style="fill:#24AE5F;" d="M0,336.863c0-97.51,79.042-176.552,176.552-176.552s176.552,79.042,176.552,176.552
		C239.042,372.173,116.277,372.173,0,336.863"/>
	<g>
		<path style="fill:#1B7F43;" d="M353.103,336.863c-28.963,8.969-58.492,15.634-88.329,20.047l60.849,19.359
			c62.367,19.844,130.26,11.917,186.377-21.751L353.103,336.863z"/>
		<path style="fill:#1B7F43;" d="M162.685,161.009c4.573-0.415,9.181-0.697,13.868-0.697c4.687,0,9.295,0.282,13.868,0.697
			c3.478,0.274,6.912,0.68,10.328,1.156c1.448-3.275,2.286-6.868,2.286-10.681c0-14.627-11.855-26.483-26.483-26.483
			c-14.627,0-26.483,11.855-26.483,26.483c0,3.814,0.839,7.406,2.278,10.681C155.773,161.689,159.198,161.283,162.685,161.009"/>
	</g>
	<g>
		<path style="fill:#C03A2B;" d="M132.414,195.621c0,4.882-3.955,8.828-8.828,8.828s-8.828-3.946-8.828-8.828
			c0-4.882,3.955-8.828,8.828-8.828S132.414,190.74,132.414,195.621"/>
		<path style="fill:#C03A2B;" d="M185.379,195.621c0,4.882-3.955,8.828-8.828,8.828c-4.873,0-8.828-3.946-8.828-8.828
			c0-4.882,3.955-8.828,8.828-8.828C181.425,186.794,185.379,190.74,185.379,195.621"/>
		<path style="fill:#C03A2B;" d="M238.345,195.621c0,4.882-3.955,8.828-8.828,8.828s-8.828-3.946-8.828-8.828
			c0-4.882,3.955-8.828,8.828-8.828S238.345,190.74,238.345,195.621"/>
		<path style="fill:#C03A2B;" d="M105.931,230.932c0,4.882-3.955,8.828-8.828,8.828s-8.828-3.946-8.828-8.828
			c0-4.882,3.955-8.828,8.828-8.828S105.931,226.05,105.931,230.932"/>
		<path style="fill:#C03A2B;" d="M158.897,230.932c0,4.882-3.955,8.828-8.828,8.828c-4.873,0-8.828-3.946-8.828-8.828
			c0-4.882,3.955-8.828,8.828-8.828C154.942,222.104,158.897,226.05,158.897,230.932"/>
		<path style="fill:#C03A2B;" d="M211.862,230.932c0,4.882-3.955,8.828-8.828,8.828c-4.873,0-8.828-3.946-8.828-8.828
			c0-4.882,3.955-8.828,8.828-8.828C207.907,222.104,211.862,226.05,211.862,230.932"/>
		<path style="fill:#C03A2B;" d="M264.828,230.932c0,4.882-3.955,8.828-8.828,8.828s-8.828-3.946-8.828-8.828
			c0-4.882,3.955-8.828,8.828-8.828S264.828,226.05,264.828,230.932"/>
		<path style="fill:#C03A2B;" d="M132.414,266.242c0,4.882-3.955,8.828-8.828,8.828s-8.828-3.946-8.828-8.828
			s3.955-8.828,8.828-8.828S132.414,261.36,132.414,266.242"/>
		<path style="fill:#C03A2B;" d="M185.379,266.242c0,4.882-3.955,8.828-8.828,8.828c-4.873,0-8.828-3.946-8.828-8.828
			s3.955-8.828,8.828-8.828C181.425,257.414,185.379,261.36,185.379,266.242"/>
		<path style="fill:#C03A2B;" d="M238.345,266.242c0,4.882-3.955,8.828-8.828,8.828s-8.828-3.946-8.828-8.828
			s3.955-8.828,8.828-8.828S238.345,261.36,238.345,266.242"/>
		<path style="fill:#C03A2B;" d="M291.31,266.242c0,4.882-3.955,8.828-8.828,8.828c-4.873,0-8.828-3.946-8.828-8.828
			s3.955-8.828,8.828-8.828C287.356,257.414,291.31,261.36,291.31,266.242"/>
		<path style="fill:#C03A2B;" d="M79.448,266.242c0,4.882-3.955,8.828-8.828,8.828s-8.828-3.946-8.828-8.828
			s3.955-8.828,8.828-8.828S79.448,261.36,79.448,266.242"/>
		<path style="fill:#C03A2B;" d="M132.414,336.863c0,4.882-3.955,8.828-8.828,8.828s-8.828-3.946-8.828-8.828
			s3.955-8.828,8.828-8.828S132.414,331.981,132.414,336.863"/>
		<path style="fill:#C03A2B;" d="M185.379,336.863c0,4.882-3.955,8.828-8.828,8.828c-4.873,0-8.828-3.946-8.828-8.828
			s3.955-8.828,8.828-8.828C181.425,328.035,185.379,331.981,185.379,336.863"/>
		<path style="fill:#C03A2B;" d="M238.345,336.863c0,4.882-3.955,8.828-8.828,8.828s-8.828-3.946-8.828-8.828
			s3.955-8.828,8.828-8.828S238.345,331.981,238.345,336.863"/>
		<path style="fill:#C03A2B;" d="M291.31,336.863c0,4.882-3.955,8.828-8.828,8.828c-4.873,0-8.828-3.946-8.828-8.828
			s3.955-8.828,8.828-8.828C287.356,328.035,291.31,331.981,291.31,336.863"/>
		<path style="fill:#C03A2B;" d="M79.448,336.863c0,4.882-3.955,8.828-8.828,8.828s-8.828-3.946-8.828-8.828
			s3.955-8.828,8.828-8.828S79.448,331.981,79.448,336.863"/>
		<path style="fill:#C03A2B;" d="M105.931,301.552c0,4.882-3.955,8.828-8.828,8.828s-8.828-3.946-8.828-8.828
			s3.955-8.828,8.828-8.828S105.931,296.671,105.931,301.552"/>
		<path style="fill:#C03A2B;" d="M158.897,301.552c0,4.882-3.955,8.828-8.828,8.828c-4.873,0-8.828-3.946-8.828-8.828
			s3.955-8.828,8.828-8.828C154.942,292.725,158.897,296.671,158.897,301.552"/>
		<path style="fill:#C03A2B;" d="M211.862,301.552c0,4.882-3.955,8.828-8.828,8.828c-4.873,0-8.828-3.946-8.828-8.828
			s3.955-8.828,8.828-8.828C207.907,292.725,211.862,296.671,211.862,301.552"/>
		<path style="fill:#C03A2B;" d="M264.828,301.552c0,4.882-3.955,8.828-8.828,8.828s-8.828-3.946-8.828-8.828
			s3.955-8.828,8.828-8.828S264.828,296.671,264.828,301.552"/>
		<path style="fill:#C03A2B;" d="M317.793,301.552c0,4.882-3.955,8.828-8.828,8.828s-8.828-3.946-8.828-8.828
			s3.955-8.828,8.828-8.828S317.793,296.671,317.793,301.552"/>
		<path style="fill:#C03A2B;" d="M52.966,301.552c0,4.882-3.955,8.828-8.828,8.828s-8.828-3.946-8.828-8.828
			s3.955-8.828,8.828-8.828S52.966,296.671,52.966,301.552"/>
	</g>
</g>
<g>
</g>
<g>
</g>
<g>
</g>
<g>
</g>
<g>
</g>
<g>
</g>
<g>
</g>
<g>
</g>
<g>
</g>
<g>
</g>
<g>
</g>
<g>
</g>
<g>
</g>
<g>
</g>
<g>
</g>
</svg>
