<?xml version="1.0" encoding="iso-8859-1"?>
<!-- Generator: Adobe Illustrator 19.0.0, SVG Export Plug-In . SVG Version: 6.00 Build 0)  -->
<svg version="1.1" id="Layer_1" xmlns="http://www.w3.org/2000/svg" xmlns:xlink="http://www.w3.org/1999/xlink" x="0px" y="0px"
	 viewBox="0 0 512 512" style="enable-background:new 0 0 512 512;" xml:space="preserve">
<g>
	<g>
		<path style="fill:#F0C419;" d="M285.575,234.525c-1.246,0-2.5-0.273-3.695-0.845c-16.196-7.799-35.55-7.799-51.746-0.009
			c-4.25,2.031-9.344,0.256-11.392-3.985c-2.039-4.25-0.256-9.353,3.994-11.392c20.847-10.018,45.713-10.018,66.551,0.009
			c4.25,2.039,6.033,7.142,3.985,11.392C291.796,232.751,288.749,234.525,285.575,234.525"/>
		<path style="fill:#F0C419;" d="M25.6,253.4H8.533C3.814,253.4,0,249.577,0,244.867c0-4.71,3.814-8.533,8.533-8.533H25.6
			c4.719,0,8.533,3.823,8.533,8.533C34.133,249.577,30.319,253.4,25.6,253.4"/>
		<path style="fill:#F0C419;" d="M503.467,253.4H486.4c-4.719,0-8.533-3.823-8.533-8.533c0-4.71,3.814-8.533,8.533-8.533h17.067
			c4.719,0,8.533,3.823,8.533,8.533C512,249.577,508.186,253.4,503.467,253.4"/>
		<path style="fill:#F0C419;" d="M349.867,193.667H162.133c-4.719,0-8.533-3.823-8.533-8.533c0-4.71,3.814-8.533,8.533-8.533
			h187.733c4.719,0,8.533,3.823,8.533,8.533C358.4,189.844,354.586,193.667,349.867,193.667"/>
	</g>
	<path style="fill:#E6E7E8;" d="M177.85,321.892l-75.554,12.595c-40.158,6.69-76.698-24.269-76.698-64.964v-27.059
		c0-36.378,29.483-65.86,65.86-65.86h76.058c34.722,0,62.882,28.151,62.882,62.882v20.378
		C230.398,290.601,208.178,316.841,177.85,321.892"/>
	<path style="fill:#BDC3C7;" d="M59.733,250.992c-4.719,0-8.533-3.823-8.533-8.533c0-22.204,18.057-40.26,40.26-40.26
		c4.719,0,8.533,3.823,8.533,8.533s-3.814,8.533-8.533,8.533c-12.791,0-23.194,10.402-23.194,23.194
		C68.267,247.169,64.452,250.992,59.733,250.992"/>
	<path style="fill:#E6E7E8;" d="M334.15,321.892l75.554,12.595c40.158,6.69,76.698-24.269,76.698-64.964v-27.059
		c0-36.378-29.483-65.86-65.86-65.86h-76.058c-34.722,0-62.882,28.151-62.882,62.882v20.378
		C281.602,290.601,303.823,316.841,334.15,321.892"/>
</g>
<g>
</g>
<g>
</g>
<g>
</g>
<g>
</g>
<g>
</g>
<g>
</g>
<g>
</g>
<g>
</g>
<g>
</g>
<g>
</g>
<g>
</g>
<g>
</g>
<g>
</g>
<g>
</g>
<g>
</g>
</svg>
