<?xml version="1.0" encoding="iso-8859-1"?>
<!-- Generator: Adobe Illustrator 19.0.0, SVG Export Plug-In . SVG Version: 6.00 Build 0)  -->
<svg version="1.1" id="Layer_1" xmlns="http://www.w3.org/2000/svg" xmlns:xlink="http://www.w3.org/1999/xlink" x="0px" y="0px"
	 viewBox="0 0 512 512" style="enable-background:new 0 0 512 512;" xml:space="preserve">
<g>
	<path style="fill:#35495E;" d="M397.241,361.931L397.241,361.931c-94.914,11.767-189.784,11.767-282.483,0V95.134
		c88.911-44.456,193.571-44.456,282.483,0V361.931z"/>
	<g>
		<path style="fill:#192630;" d="M397.241,308.965c-93.475-11.723-190.482-11.811-282.483,0v-79.448
			c92.001-11.811,189.016-11.723,282.483,0V308.965z"/>
		<path style="fill:#192630;" d="M397.241,336.879v25.053c-94.914,11.767-189.784,11.767-282.483,0v-25.053
			C45.612,347.94,0,366.884,0,388.414c0,34.127,114.609,61.793,256,61.793s256-27.666,256-61.793
			C512,366.884,466.379,347.94,397.241,336.879"/>
	</g>
</g>
<g>
</g>
<g>
</g>
<g>
</g>
<g>
</g>
<g>
</g>
<g>
</g>
<g>
</g>
<g>
</g>
<g>
</g>
<g>
</g>
<g>
</g>
<g>
</g>
<g>
</g>
<g>
</g>
<g>
</g>
</svg>
