<?xml version="1.0" encoding="iso-8859-1"?>
<!-- Generator: Adobe Illustrator 19.0.0, SVG Export Plug-In . SVG Version: 6.00 Build 0)  -->
<svg version="1.1" id="Layer_1" xmlns="http://www.w3.org/2000/svg" xmlns:xlink="http://www.w3.org/1999/xlink" x="0px" y="0px"
	 viewBox="0 0 503.499 503.499" style="enable-background:new 0 0 503.499 503.499;" xml:space="preserve">
<g>
	<path style="fill:#285680;" d="M312.495,60.746c0,33.549-27.197,60.746-60.746,60.746s-60.746-27.197-60.746-60.746
		S218.2,0,251.749,0S312.495,27.197,312.495,60.746"/>
	<path style="fill:#4482C3;" d="M407.368,373.153c0.321-5.736,0.581-11.498,0.581-17.356c0-103.276-48.05-224.976-113.612-251.765
		c-10.969,10.787-25.991,17.46-42.591,17.46c-16.592,0-31.623-6.673-42.583-17.46C143.601,130.82,95.543,252.52,95.543,355.797
		c0,5.858,0.269,11.62,0.59,17.356H407.368z"/>
	<g>
		<path style="fill:#285680;" d="M251.749,381.831c-4.79,0-8.678-3.888-8.678-8.678v-52.068c0-4.79,3.888-8.678,8.678-8.678
			s8.678,3.888,8.678,8.678v52.068C260.427,377.943,256.54,381.831,251.749,381.831"/>
		<path style="fill:#285680;" d="M286.461,381.831c-4.79,0-8.678-3.888-8.678-8.678v-34.712c0-4.79,3.888-8.678,8.678-8.678
			c4.79,0,8.678,3.888,8.678,8.678v34.712C295.139,377.943,291.252,381.831,286.461,381.831"/>
		<path style="fill:#285680;" d="M217.038,381.831c-4.79,0-8.678-3.888-8.678-8.678v-34.712c0-4.79,3.888-8.678,8.678-8.678
			s8.678,3.888,8.678,8.678v34.712C225.716,377.943,221.828,381.831,217.038,381.831"/>
		<path style="fill:#285680;" d="M416.631,373.153c11.568,38.617,11.568,82.519,0,121.492c-109.507,11.802-219.778,11.811-329.763,0
			c-11.524-38.791-11.611-82.701,0-121.492H416.631z"/>
	</g>
</g>
<g>
</g>
<g>
</g>
<g>
</g>
<g>
</g>
<g>
</g>
<g>
</g>
<g>
</g>
<g>
</g>
<g>
</g>
<g>
</g>
<g>
</g>
<g>
</g>
<g>
</g>
<g>
</g>
<g>
</g>
</svg>
