<?xml version="1.0" encoding="iso-8859-1"?>
<!-- Generator: Adobe Illustrator 19.0.0, SVG Export Plug-In . SVG Version: 6.00 Build 0)  -->
<svg version="1.1" id="Layer_1" xmlns="http://www.w3.org/2000/svg" xmlns:xlink="http://www.w3.org/1999/xlink" x="0px" y="0px"
	 viewBox="0 0 512 512" style="enable-background:new 0 0 512 512;" xml:space="preserve">
<g>
	<path style="fill:#936852;" d="M406.069,300.138c-19.5,0-35.31-15.81-35.31-35.31v-17.655c0-19.5,15.81-35.31,35.31-35.31h52.966
		h17.655V88.276c0-19.5-15.81-35.31-35.31-35.31H35.31C15.81,52.966,0,68.776,0,88.276v335.448c0,19.5,15.81,35.31,35.31,35.31
		h406.069c19.5,0,35.31-15.81,35.31-35.31V300.138h-17.655H406.069z"/>
	<g>
		<path style="fill:#CE9A80;" d="M476.69,300.138h-70.621c-19.5,0-35.31-15.81-35.31-35.31v-17.655c0-19.5,15.81-35.31,35.31-35.31
			h70.621c19.5,0,35.31,15.81,35.31,35.31v17.655C512,284.328,496.19,300.138,476.69,300.138"/>
		<path style="fill:#CE9A80;" d="M61.504,114.759H46.453c-4.873,0-8.828-3.955-8.828-8.828c0-4.873,3.955-8.828,8.828-8.828h15.051
			c4.873,0,8.828,3.955,8.828,8.828C70.332,110.804,66.377,114.759,61.504,114.759 M114.179,114.759H99.128
			c-4.873,0-8.828-3.955-8.828-8.828c0-4.873,3.955-8.828,8.828-8.828h15.051c4.882,0,8.828,3.955,8.828,8.828
			C123.006,110.804,119.06,114.759,114.179,114.759"/>
		<path style="fill:#CE9A80;" d="M166.858,114.759h-15.051c-4.873,0-8.828-3.955-8.828-8.828c0-4.873,3.955-8.828,8.828-8.828
			h15.051c4.873,0,8.828,3.955,8.828,8.828C175.686,110.804,171.731,114.759,166.858,114.759 M219.532,114.759h-15.051
			c-4.873,0-8.828-3.955-8.828-8.828c0-4.873,3.955-8.828,8.828-8.828h15.051c4.882,0,8.828,3.955,8.828,8.828
			C228.36,110.804,224.414,114.759,219.532,114.759 M272.207,114.759h-15.051c-4.873,0-8.828-3.955-8.828-8.828
			c0-4.873,3.955-8.828,8.828-8.828h15.051c4.873,0,8.828,3.955,8.828,8.828C281.034,110.804,277.079,114.759,272.207,114.759
			 M324.881,114.759h-15.042c-4.873,0-8.828-3.955-8.828-8.828c0-4.873,3.955-8.828,8.828-8.828h15.042
			c4.882,0,8.828,3.955,8.828,8.828C333.708,110.804,329.762,114.759,324.881,114.759 M377.564,114.759h-15.051
			c-4.882,0-8.828-3.955-8.828-8.828c0-4.873,3.946-8.828,8.828-8.828h15.051c4.873,0,8.828,3.955,8.828,8.828
			C386.391,110.804,382.437,114.759,377.564,114.759 M430.229,114.759h-15.042c-4.873,0-8.828-3.955-8.828-8.828
			c0-4.873,3.955-8.828,8.828-8.828h15.042c4.882,0,8.828,3.955,8.828,8.828C439.057,110.804,435.111,114.759,430.229,114.759"/>
		<path style="fill:#CE9A80;" d="M70.621,264.828H52.966c-4.873,0-8.828-3.955-8.828-8.828s3.955-8.828,8.828-8.828h17.655
			c4.873,0,8.828,3.955,8.828,8.828S75.494,264.828,70.621,264.828 M132.414,264.828h-17.655c-4.873,0-8.828-3.955-8.828-8.828
			s3.955-8.828,8.828-8.828h17.655c4.873,0,8.828,3.955,8.828,8.828S137.287,264.828,132.414,264.828"/>
		<path style="fill:#CE9A80;" d="M194.207,264.828h-17.655c-4.873,0-8.828-3.955-8.828-8.828s3.955-8.828,8.828-8.828h17.655
			c4.873,0,8.828,3.955,8.828,8.828S199.08,264.828,194.207,264.828 M256,264.828h-17.655c-4.873,0-8.828-3.955-8.828-8.828
			s3.955-8.828,8.828-8.828H256c4.873,0,8.828,3.955,8.828,8.828S260.873,264.828,256,264.828 M317.793,264.828h-17.655
			c-4.873,0-8.828-3.955-8.828-8.828s3.955-8.828,8.828-8.828h17.655c4.873,0,8.828,3.955,8.828,8.828
			S322.666,264.828,317.793,264.828"/>
		<path style="fill:#CE9A80;" d="M61.504,414.897H46.453c-4.873,0-8.828-3.955-8.828-8.828s3.955-8.828,8.828-8.828h15.051
			c4.873,0,8.828,3.955,8.828,8.828S66.377,414.897,61.504,414.897 M114.179,414.897H99.128c-4.873,0-8.828-3.955-8.828-8.828
			s3.955-8.828,8.828-8.828h15.051c4.882,0,8.828,3.955,8.828,8.828S119.06,414.897,114.179,414.897"/>
		<path style="fill:#CE9A80;" d="M166.858,414.897h-15.051c-4.873,0-8.828-3.955-8.828-8.828s3.955-8.828,8.828-8.828h15.051
			c4.873,0,8.828,3.955,8.828,8.828S171.731,414.897,166.858,414.897 M219.532,414.897h-15.051c-4.873,0-8.828-3.955-8.828-8.828
			s3.955-8.828,8.828-8.828h15.051c4.882,0,8.828,3.955,8.828,8.828S224.414,414.897,219.532,414.897 M272.207,414.897h-15.051
			c-4.873,0-8.828-3.955-8.828-8.828s3.955-8.828,8.828-8.828h15.051c4.873,0,8.828,3.955,8.828,8.828
			S277.079,414.897,272.207,414.897 M324.881,414.897h-15.042c-4.873,0-8.828-3.955-8.828-8.828s3.955-8.828,8.828-8.828h15.042
			c4.882,0,8.828,3.955,8.828,8.828S329.762,414.897,324.881,414.897 M377.564,414.897h-15.051c-4.882,0-8.828-3.955-8.828-8.828
			s3.946-8.828,8.828-8.828h15.051c4.873,0,8.828,3.955,8.828,8.828S382.437,414.897,377.564,414.897 M430.229,414.897h-15.042
			c-4.873,0-8.828-3.955-8.828-8.828s3.955-8.828,8.828-8.828h15.042c4.882,0,8.828,3.955,8.828,8.828
			S435.111,414.897,430.229,414.897"/>
	</g>
	<path style="fill:#E6E7E8;" d="M432.552,256c0,4.873-3.946,8.828-8.828,8.828c-4.882,0-8.828-3.955-8.828-8.828
		s3.946-8.828,8.828-8.828C428.606,247.172,432.552,251.127,432.552,256"/>
</g>
<g>
</g>
<g>
</g>
<g>
</g>
<g>
</g>
<g>
</g>
<g>
</g>
<g>
</g>
<g>
</g>
<g>
</g>
<g>
</g>
<g>
</g>
<g>
</g>
<g>
</g>
<g>
</g>
<g>
</g>
</svg>
