<?xml version="1.0" encoding="iso-8859-1"?>
<!-- Generator: Adobe Illustrator 19.0.0, SVG Export Plug-In . SVG Version: 6.00 Build 0)  -->
<svg version="1.1" id="Layer_1" xmlns="http://www.w3.org/2000/svg" xmlns:xlink="http://www.w3.org/1999/xlink" x="0px" y="0px"
	 viewBox="0 0 512 512" style="enable-background:new 0 0 512 512;" xml:space="preserve">
<g>
	<path style="fill:#366A99;" d="M503.172,291.31h-44.138c-19.5,0-35.31-15.81-35.31-35.31s15.81-35.31,35.31-35.31h44.138
		c4.882,0,8.828,3.955,8.828,8.828v52.966C512,287.356,508.054,291.31,503.172,291.31"/>
	<g>
		<path style="fill:#4482C3;" d="M459.034,291.31c-20.648,0-37.155-17.717-35.143-38.78c1.748-18.361,18.22-31.841,36.661-31.841
			h33.792V70.621c0-9.746-7.91-17.655-17.655-17.655H35.31C15.81,52.966,0,68.776,0,88.276v335.448c0,19.5,15.81,35.31,35.31,35.31
			H476.69c9.746,0,17.655-7.91,17.655-17.655V291.31H459.034z"/>
		<path style="fill:#4482C3;" d="M467.862,256c0,4.873-3.946,8.828-8.828,8.828c-4.882,0-8.828-3.955-8.828-8.828
			s3.946-8.828,8.828-8.828C463.916,247.172,467.862,251.127,467.862,256"/>
	</g>
	<g>
		<path style="fill:#366A99;" d="M459.034,432.552H70.621c-24.338,0-44.138-19.8-44.138-44.138V123.586
			c0-24.338,19.8-44.138,44.138-44.138h388.414c4.882,0,8.828,3.955,8.828,8.828c0,4.873-3.946,8.828-8.828,8.828H70.621
			c-14.601,0-26.483,11.882-26.483,26.483v264.828c0,14.601,11.882,26.483,26.483,26.483h388.414c4.882,0,8.828,3.955,8.828,8.828
			C467.862,428.597,463.916,432.552,459.034,432.552"/>
		<path style="fill:#366A99;" d="M397.241,397.241h-35.31c-4.882,0-8.828-3.955-8.828-8.828s3.946-8.828,8.828-8.828h35.31
			c4.882,0,8.828,3.955,8.828,8.828S402.123,397.241,397.241,397.241"/>
	</g>
	<polygon style="fill:#F0C419;" points="247.172,194.207 265.878,239.078 308.966,245.151 277.442,274.662 284.584,317.793 
		247.172,291.31 209.761,317.793 216.903,274.662 185.379,245.151 228.467,239.078 	"/>
</g>
<g>
</g>
<g>
</g>
<g>
</g>
<g>
</g>
<g>
</g>
<g>
</g>
<g>
</g>
<g>
</g>
<g>
</g>
<g>
</g>
<g>
</g>
<g>
</g>
<g>
</g>
<g>
</g>
<g>
</g>
</svg>
