<?xml version="1.0" encoding="iso-8859-1"?>
<!-- Generator: Adobe Illustrator 19.0.0, SVG Export Plug-In . SVG Version: 6.00 Build 0)  -->
<svg version="1.1" id="Layer_1" xmlns="http://www.w3.org/2000/svg" xmlns:xlink="http://www.w3.org/1999/xlink" x="0px" y="0px"
	 viewBox="0 0 512 512" style="enable-background:new 0 0 512 512;" xml:space="preserve">
<g>
	<path style="fill:#E57E25;" d="M476.69,494.345H35.31c-19.5,0-35.31-15.81-35.31-35.31v-35.31c0-19.5,15.81-35.31,35.31-35.31
		H476.69c19.5,0,35.31,15.81,35.31,35.31v35.31C512,478.535,496.19,494.345,476.69,494.345"/>
	<path style="fill:#F29C1F;" d="M467.862,300.138c0-131.637-94.852-238.345-211.862-238.345S44.138,168.501,44.138,300.138v88.276
		h423.724V300.138z"/>
	<g>
		<path style="fill:#E57E25;" d="M256,61.793c15.078,0,29.775,1.801,43.961,5.173c0.115-2.092,0.177-3.937,0.177-5.173
			c0-24.373-19.765-44.138-44.138-44.138s-44.138,19.765-44.138,44.138c0,0.998,0.044,2.895,0.132,5.182
			C226.198,63.603,240.905,61.793,256,61.793"/>
		<path style="fill:#E57E25;" d="M335.448,207.448c0-49.929-5.332-96.168-14.38-134.153C300.562,65.854,278.705,61.793,256,61.793
			s-44.562,4.061-65.068,11.502c-9.048,37.985-14.38,84.224-14.38,134.153c0,72.934,11.343,138.063,29.105,180.966h100.687
			C324.105,345.512,335.448,280.382,335.448,207.448"/>
	</g>
	<path style="fill:#F29C1F;" d="M256,459.034c-4.873,0-8.828-3.955-8.828-8.828c0-3.602-6.877-8.828-17.655-8.828
		c-4.873,0-8.828-3.955-8.828-8.828s3.955-8.828,8.828-8.828c10.655,0,20.056,3.363,26.483,8.792
		c6.426-5.429,15.828-8.792,26.483-8.792c4.873,0,8.828,3.955,8.828,8.828s-3.955,8.828-8.828,8.828
		c-10.779,0-17.655,5.226-17.655,8.828C264.828,455.08,260.873,459.034,256,459.034"/>
</g>
<g>
</g>
<g>
</g>
<g>
</g>
<g>
</g>
<g>
</g>
<g>
</g>
<g>
</g>
<g>
</g>
<g>
</g>
<g>
</g>
<g>
</g>
<g>
</g>
<g>
</g>
<g>
</g>
<g>
</g>
</svg>
