<?xml version="1.0" encoding="iso-8859-1"?>
<!-- Generator: Adobe Illustrator 19.0.0, SVG Export Plug-In . SVG Version: 6.00 Build 0)  -->
<svg version="1.1" id="Layer_1" xmlns="http://www.w3.org/2000/svg" xmlns:xlink="http://www.w3.org/1999/xlink" x="0px" y="0px"
	 viewBox="0 0 511.999 511.999" style="enable-background:new 0 0 511.999 511.999;" xml:space="preserve">
<path style="fill:#FFD553;" d="M501.221,182.663c-5.905-19.689-18.087-20.712-25.724-17.215l-188.611,78.125
	c-8.264,3.422-14.185,3.021-17.574-0.365c-3.386-3.389-3.786-9.309-0.364-17.575l78.127-188.611
	c3.493-7.639,2.472-19.819-17.216-25.725C242.668-14.82,144.294,6.549,75.424,75.419c-99.874,99.874-99.874,261.8,0,361.675
	c99.874,99.873,261.8,99.874,361.676,0C505.971,368.223,527.338,269.85,501.221,182.663z"/>
<g>
	<circle style="fill:#3F4963;" cx="135.409" cy="268.262" r="15.625"/>
	<circle style="fill:#3F4963;" cx="376.596" cy="268.262" r="15.625"/>
</g>
<g>
	<path style="fill:#FF6376;" d="M152.123,322.549H118.69c-4.588,0-8.305-3.717-8.305-8.305s3.717-8.305,8.305-8.305h33.433
		c4.588,0,8.305,3.717,8.305,8.305S156.71,322.549,152.123,322.549z"/>
	<path style="fill:#FF6376;" d="M393.31,322.549h-33.433c-4.588,0-8.305-3.717-8.305-8.305s3.717-8.305,8.305-8.305h33.433
		c4.588,0,8.305,3.717,8.305,8.305S397.897,322.549,393.31,322.549z"/>
</g>
<g>
	<path style="fill:#3F4963;" d="M236.433,311.752c-15.368,0-27.872-12.502-27.872-27.87c0-4.588,3.717-8.305,8.305-8.305
		c4.588,0,8.305,3.717,8.305,8.305c0,6.209,5.051,11.26,11.261,11.26c6.209,0,11.261-5.051,11.261-11.26
		c0-4.588,3.717-8.305,8.305-8.305c4.588,0,8.305,3.717,8.305,8.305C264.305,299.249,251.801,311.752,236.433,311.752z"/>
	<path style="fill:#3F4963;" d="M275.564,311.752c-15.368,0-27.87-12.502-27.87-27.87c0-4.588,3.717-8.305,8.305-8.305
		c4.588,0,8.305,3.717,8.305,8.305c0,6.209,5.051,11.26,11.26,11.26s11.261-5.051,11.261-11.26c0-4.588,3.717-8.305,8.305-8.305
		c4.588,0,8.305,3.717,8.305,8.305C303.436,299.249,290.933,311.752,275.564,311.752z"/>
	<path style="opacity:0.2;fill:#3F4963;enable-background:new    ;" d="M11.59,179.47c-11.879,38.144-14.625,78.513-8.229,117.686
		c15.997,0.738,32.239-5.002,44.456-17.216c23.043-23.044,23.043-60.406,0.002-83.446C37.697,186.373,24.811,180.701,11.59,179.47z
		 M109.937,74.03c-6.299-6.299-14.254-9.927-22.462-10.899c-4.29,3.754-8.487,7.671-12.576,11.76
		c-10.897,10.895-20.603,22.533-29.122,34.745c1.554,6.73,4.946,13.121,10.188,18.365c14.904,14.904,39.068,14.904,53.97,0
		C124.841,113.099,124.841,88.933,109.937,74.03z M178.817,362.362c-41.944,0-75.947,34.003-75.947,75.945
		c0,9.112,1.609,17.848,4.55,25.944c31.101,22.31,66.073,36.801,102.21,43.469c26.584-11.82,45.132-38.441,45.132-69.413
		C254.762,396.365,220.759,362.362,178.817,362.362z M246.959,68.505c18.539-18.536,22.15-46.337,10.862-68.497
		c-38.147-0.311-76.346,7.86-111.535,24.513c-0.602,15.847,5.133,31.889,17.231,43.985
		C186.557,91.549,223.919,91.549,246.959,68.505z M430.058,299.926c-23.042,23.04-23.042,60.402,0.002,83.444
		c10.217,10.216,23.247,15.893,36.599,17.048c22.048-32.064,35.965-68.035,41.738-105.03
		C485.234,277.01,451.469,278.513,430.058,299.926z M446.905,176.547l-85.066,35.235c2.245,5.803,5.697,11.245,10.379,15.93
		c17.982,17.98,47.139,17.98,65.124,0C451.174,213.876,454.356,193.432,446.905,176.547z M231.957,112.605
		c-23.041,23.043-23.041,60.404,0.002,83.445c11.424,11.425,26.37,17.178,41.341,17.274l41.827-100.981
		C292.063,89.573,254.912,89.654,231.957,112.605z M336.975,456.897c-11.822,11.822-14.256,29.471-7.32,43.703
		c24.139-7.267,47.41-18.178,68.961-32.726c-1.835-3.974-4.391-7.7-7.666-10.976C376.044,441.994,351.88,441.994,336.975,456.897z"
		/>
</g>
<g>
</g>
<g>
</g>
<g>
</g>
<g>
</g>
<g>
</g>
<g>
</g>
<g>
</g>
<g>
</g>
<g>
</g>
<g>
</g>
<g>
</g>
<g>
</g>
<g>
</g>
<g>
</g>
<g>
</g>
</svg>
