<?xml version="1.0" encoding="iso-8859-1"?>
<!-- Generator: Adobe Illustrator 19.0.0, SVG Export Plug-In . SVG Version: 6.00 Build 0)  -->
<svg version="1.1" id="Layer_1" xmlns="http://www.w3.org/2000/svg" xmlns:xlink="http://www.w3.org/1999/xlink" x="0px" y="0px"
	 viewBox="0 0 512 512" style="enable-background:new 0 0 512 512;" xml:space="preserve">
<path style="fill:#9090B5;" d="M394.656,500.52c0,6.315-5.166,11.48-11.48,11.48h-254.35c-6.313,0-11.48-5.165-11.48-11.48v-43.562
	c0-6.313,5.167-11.48,11.48-11.48h254.35c6.314,0,11.48,5.167,11.48,11.48V500.52z"/>
<g style="opacity:0.2;">
	<rect x="247.703" y="473.034" style="fill:#2F3953;" width="16.604" height="38.965"/>
	<rect x="195.267" y="473.034" style="fill:#2F3953;" width="16.604" height="38.965"/>
	<rect x="142.842" y="473.034" style="fill:#2F3953;" width="16.604" height="38.965"/>
	<rect x="300.129" y="473.034" style="fill:#2F3953;" width="16.604" height="38.965"/>
	<rect x="352.554" y="473.034" style="fill:#2F3953;" width="16.604" height="38.965"/>
</g>
<path style="fill:#866539;" d="M407.822,175.445V13.166C407.822,5.924,401.897,0,394.656,0h-277.31
	c-7.241,0-13.166,5.924-13.166,13.166v293.205L407.822,175.445z"/>
<path style="fill:#FF6376;" d="M104.179,306.371v153.492c0,7.241,5.926,13.167,13.166,13.167h277.312
	c7.242,0,13.165-5.927,13.165-13.167V175.445L104.179,306.371z"/>
<circle style="fill:#3F4963;" cx="178.851" cy="369.268" r="15.683"/>
<path style="fill:#FF9596;" d="M195.632,419.099h-33.555c-4.585,0-8.302-3.716-8.302-8.302c0-4.586,3.717-8.302,8.302-8.302h33.555
	c4.586,0,8.302,3.716,8.302,8.302C203.934,415.383,200.218,419.099,195.632,419.099z"/>
<circle style="fill:#3F4963;" cx="333.149" cy="369.268" r="15.683"/>
<path style="fill:#FF9596;" d="M349.923,419.099h-33.555c-4.586,0-8.302-3.716-8.302-8.302c0-4.586,3.716-8.302,8.302-8.302h33.555
	c4.585,0,8.302,3.716,8.302,8.302C358.225,415.383,354.509,419.099,349.923,419.099z"/>
<g>
	<path style="fill:#3F4963;" d="M240.411,405.758c-13.175,0-23.895-10.719-23.895-23.892c0-4.586,3.716-8.302,8.302-8.302
		c4.586,0,8.302,3.716,8.302,8.302c0,4.019,3.27,7.288,7.29,7.288c4.019,0,7.288-3.269,7.288-7.288c0-4.586,3.716-8.302,8.302-8.302
		s8.302,3.716,8.302,8.302C264.303,395.039,253.585,405.758,240.411,405.758z"/>
	<path style="fill:#3F4963;" d="M271.591,405.758c-13.174,0-23.892-10.719-23.892-23.892c0-4.586,3.716-8.302,8.302-8.302
		s8.302,3.716,8.302,8.302c0,4.019,3.269,7.288,7.288,7.288c4.019,0,7.288-3.269,7.288-7.288c0-4.586,3.716-8.302,8.302-8.302
		c4.586,0,8.302,3.716,8.302,8.302C295.484,395.039,284.765,405.758,271.591,405.758z"/>
</g>
<path style="fill:#FFD553;" d="M184.479,271.746v21.722c0,9.05,7.407,16.455,16.458,16.455h110.132
	c9.05,0,16.457-7.404,16.457-16.455v-83.401L184.479,271.746z"/>
<path style="fill:#65F7C4;" d="M360.439,301.77c-4.586,0-8.302-3.717-8.302-8.302v-83.401c0-4.586,3.716-8.302,8.302-8.302
	c4.585,0,8.302,3.716,8.302,8.302v83.402C368.741,298.054,365.025,301.77,360.439,301.77z"/>
<g style="opacity:0.3;">
	<path style="fill:#3F4963;" d="M371.896,46.957c0-7.243-5.926-13.166-13.167-13.166h-68.997c-7.239,0-13.166,5.923-13.166,13.166
		v57.001c0,7.238,5.927,13.165,13.166,13.165h68.997c7.242,0,13.167-5.927,13.167-13.165V46.957z"/>
	<path style="fill:#3F4963;" d="M140.105,46.957c0-7.243,5.926-13.166,13.167-13.166h68.997c7.239,0,13.166,5.923,13.166,13.166
		v57.001c0,7.238-5.927,13.165-13.166,13.165h-68.997c-7.242,0-13.167-5.927-13.167-13.165
		C140.105,103.958,140.105,46.957,140.105,46.957z"/>
	<path style="fill:#3F4963;" d="M358.729,149.688h-68.997c-7.239,0-13.166,5.927-13.166,13.167v57.001
		c0,4.058,1.865,7.703,4.778,10.123l90.552-39.043v-28.08C371.896,155.613,365.97,149.688,358.729,149.688z"/>
	<path style="fill:#3F4963;" d="M140.105,162.854c0-7.241,5.926-13.167,13.167-13.167h68.997c7.239,0,13.166,5.927,13.166,13.167
		v57.001c0,7.241-5.927,13.167-13.166,13.167h-68.997c-7.242,0-13.167-5.927-13.167-13.167
		C140.105,219.855,140.105,162.854,140.105,162.854z"/>
</g>
<path style="fill:#C3DDF7;" d="M89.606,329.887c-7.501,0-14.627-4.423-17.711-11.775c-4.105-9.779,0.494-21.032,10.271-25.136
	l332.804-139.694c9.783-4.108,21.031,0.495,25.134,10.271c4.105,9.777-0.494,21.03-10.271,25.133L97.029,328.384
	C94.602,329.403,92.084,329.887,89.606,329.887z"/>
<g>
</g>
<g>
</g>
<g>
</g>
<g>
</g>
<g>
</g>
<g>
</g>
<g>
</g>
<g>
</g>
<g>
</g>
<g>
</g>
<g>
</g>
<g>
</g>
<g>
</g>
<g>
</g>
<g>
</g>
</svg>
