<?xml version="1.0" encoding="iso-8859-1"?>
<!-- Generator: Adobe Illustrator 19.0.0, SVG Export Plug-In . SVG Version: 6.00 Build 0)  -->
<svg version="1.1" id="Layer_1" xmlns="http://www.w3.org/2000/svg" xmlns:xlink="http://www.w3.org/1999/xlink" x="0px" y="0px"
	 viewBox="0 0 511.999 511.999" style="enable-background:new 0 0 511.999 511.999;" xml:space="preserve">
<path style="fill:#FDBA55;" d="M501.748,211.063c-3.988,0.555-8.057,0.854-12.197,0.854c-49.044,0-88.801-39.758-88.801-88.8
	c0-4.465,0.332-8.853,0.97-13.141c1.201-8.088,1.729-8.369-4.992-13.757c-20.225-16.214-33.359-40.906-33.992-68.694
	c-0.063-2.705,0.398-3.82-2.471-5.119C328.462,8.023,293.17,0,255.997,0C116.109,0,2.709,113.403,2.709,253.291
	s113.4,253.29,253.288,253.29c139.892,0,253.292-113.402,253.292-253.29c0-13.557-1.079-26.862-3.132-39.841
	C505.778,211.046,504.204,210.721,501.748,211.063z"/>
<circle style="fill:#3F4963;" cx="182.757" cy="223.137" r="14.962"/>
<path style="fill:#FF6376;" d="M198.768,271.02h-32.011c-4.565,0-8.263-3.7-8.263-8.263c0-4.563,3.699-8.263,8.263-8.263h32.011
	c4.565,0,8.263,3.7,8.263,8.263C207.031,267.32,203.332,271.02,198.768,271.02z"/>
<circle style="fill:#3F4963;" cx="329.95" cy="223.137" r="14.962"/>
<path style="fill:#FF6376;" d="M345.959,271.02h-32.011c-4.565,0-8.263-3.7-8.263-8.263c0-4.563,3.699-8.263,8.263-8.263h32.011
	c4.565,0,8.263,3.7,8.263,8.263C354.222,267.32,350.522,271.02,345.959,271.02z"/>
<g>
	<path style="fill:#3F4963;" d="M241.485,258.292c-12.757,0-23.137-10.378-23.137-23.136c0-4.563,3.699-8.263,8.263-8.263
		c4.565,0,8.263,3.7,8.263,8.263c0,3.645,2.965,6.609,6.61,6.609c3.646,0,6.61-2.965,6.61-6.609c0-4.563,3.699-8.263,8.263-8.263
		c4.565,0,8.263,3.7,8.263,8.263C264.621,247.914,254.242,258.292,241.485,258.292z"/>
	<path style="fill:#3F4963;" d="M271.232,258.292c-12.757,0-23.137-10.378-23.137-23.136c0-4.563,3.699-8.263,8.263-8.263
		c4.565,0,8.263,3.7,8.263,8.263c0,3.645,2.965,6.609,6.61,6.609c3.646,0,6.611-2.965,6.611-6.609c0-4.563,3.699-8.263,8.263-8.263
		s8.263,3.7,8.263,8.263C294.368,247.914,283.989,258.292,271.232,258.292z"/>
</g>
<g>
	<path style="fill:#866539;" d="M161.279,150.722c24.738-24.734,24.738-64.84,0-89.574c-24.735-24.736-60.455-19.46-85.189,5.276
		c-24.739,24.735-29.12,59.564-4.385,84.299C96.439,175.459,136.544,175.459,161.279,150.722z"/>
	<path style="fill:#866539;" d="M127.67,394.023c24.737-24.738,24.737-64.841,0-89.576c-24.734-24.738-64.839-24.736-89.575,0
		c-24.734,24.735-21.541,61.645,3.195,86.382C66.025,415.562,102.936,418.757,127.67,394.023z"/>
	<circle style="fill:#866539;" cx="366.451" cy="335.096" r="25.705"/>
	<circle style="fill:#866539;" cx="241.48" cy="126.745" r="25.706"/>
	<circle style="fill:#866539;" cx="296.325" cy="27.31" r="25.706"/>
	<circle style="fill:#866539;" cx="403.789" cy="430.177" r="25.704"/>
	<circle style="fill:#866539;" cx="198.931" cy="364.402" r="25.704"/>
	<circle style="fill:#866539;" cx="146.223" cy="455.88" r="25.706"/>
	<path style="fill:#866539;" d="M106.964,223.484c0-14.196-11.508-25.704-25.703-25.704c-14.2,0-25.708,11.507-25.708,25.704
		s11.508,25.706,25.708,25.706C95.456,249.19,106.964,237.681,106.964,223.484z"/>
	<path style="fill:#866539;" d="M353.544,442.546c-6.075-34.449-38.925-57.452-73.378-51.378
		c-34.45,6.074-57.452,38.926-51.377,73.375c6.073,34.452,38.027,52.36,72.478,46.287
		C335.718,504.756,359.619,476.996,353.544,442.546z"/>
	<path style="fill:#866539;" d="M506.158,213.45c-0.38-2.404-1.954-2.729-4.41-2.387c-3.988,0.555-8.057,0.854-12.197,0.854
		c-22.338,0-42.732-8.266-58.339-21.883c-19.833,10.699-33.316,31.659-33.316,55.775c0,34.982,28.357,63.339,63.339,63.339
		c23.26,0,38.951-12.546,46.861-31.231c0.781-8.104,1.194-16.317,1.194-24.626C509.29,239.734,508.211,226.43,506.158,213.45z"/>
	<path style="fill:#866539;" d="M400.75,123.117c0-4.465,0.332-8.853,0.97-13.141c1.201-8.088,1.729-8.369-4.992-13.757
		c-15.701-12.587-27.124-30.286-31.746-50.573c-8.765,2.846-17.107,7.847-24.394,15.134c-24.735,24.736-24.735,64.84,0,89.576
		c18.921,18.921,46.824,23.344,69.974,13.319C404.304,151.513,400.75,137.735,400.75,123.117z"/>
</g>
<g>
</g>
<g>
</g>
<g>
</g>
<g>
</g>
<g>
</g>
<g>
</g>
<g>
</g>
<g>
</g>
<g>
</g>
<g>
</g>
<g>
</g>
<g>
</g>
<g>
</g>
<g>
</g>
<g>
</g>
</svg>
