<?xml version="1.0" encoding="iso-8859-1"?>
<!-- Generator: Adobe Illustrator 19.0.0, SVG Export Plug-In . SVG Version: 6.00 Build 0)  -->
<svg version="1.1" id="Layer_1" xmlns="http://www.w3.org/2000/svg" xmlns:xlink="http://www.w3.org/1999/xlink" x="0px" y="0px"
	 viewBox="0 0 512 512" style="enable-background:new 0 0 512 512;" xml:space="preserve">
<path style="fill:#866539;" d="M456.271,299.515c0-110.606-89.665-140.959-200.272-140.959S55.727,188.909,55.727,299.515
	c0,110.607,89.664,200.271,200.271,200.271S456.271,410.122,456.271,299.515z"/>
<path style="fill:#FDBA55;" d="M466.384,310.413c1.158-5.993-2.889-10.898-8.995-10.898H54.609c-6.105,0-10.153,4.905-8.995,10.898
	L82.45,501.102C83.609,507.095,89.549,512,95.655,512h320.69c6.105,0,12.047-4.905,13.204-10.898L466.384,310.413z"/>
<circle style="fill:#3F4963;" cx="141.169" cy="374.388" r="14.88"/>
<g>
	<path style="fill:#FF6376;" d="M157.089,426.389h-31.834c-4.538,0-8.218-3.679-8.218-8.218c0-4.538,3.679-8.218,8.218-8.218h31.834
		c4.538,0,8.218,3.679,8.218,8.218C165.307,422.71,161.628,426.389,157.089,426.389z"/>
	<path style="fill:#FF6376;" d="M386.744,426.389h-31.834c-4.538,0-8.218-3.679-8.218-8.218c0-4.538,3.679-8.218,8.218-8.218h31.834
		c4.538,0,8.218,3.679,8.218,8.218C394.961,422.71,391.282,426.389,386.744,426.389z"/>
</g>
<g>
	<path style="fill:#3F4963;" d="M237.37,416.108c-14.804,0-26.848-12.044-26.848-26.848c0-4.538,3.679-8.218,8.218-8.218
		s8.218,3.679,8.218,8.218c0,5.741,4.671,10.412,10.412,10.412c5.741,0,10.412-4.671,10.412-10.412c0-4.538,3.679-8.218,8.218-8.218
		c4.538,0,8.218,3.679,8.218,8.218C264.218,404.063,252.173,416.108,237.37,416.108z"/>
	<path style="fill:#3F4963;" d="M274.63,416.108c-14.804,0-26.848-12.044-26.848-26.848c0-4.538,3.679-8.218,8.218-8.218
		s8.218,3.679,8.218,8.218c0,5.741,4.671,10.412,10.412,10.412s10.412-4.671,10.412-10.412c0-4.538,3.679-8.218,8.218-8.218
		c4.538,0,8.218,3.679,8.218,8.218C301.478,404.063,289.434,416.108,274.63,416.108z"/>
	<path style="fill:#3F4963;" d="M385.707,390.327c-4.538,0-8.218-3.679-8.218-8.218c0-3.674-2.989-6.662-6.662-6.662
		c-3.674,0-6.663,2.989-6.663,6.662c0,4.538-3.679,8.218-8.218,8.218c-4.538,0-8.218-3.679-8.218-8.218
		c0-12.736,10.361-23.097,23.098-23.097c12.736,0,23.097,10.362,23.097,23.097C393.925,386.648,390.246,390.327,385.707,390.327z"/>
</g>
<g>
	<path style="fill:#FFD553;" d="M73.436,438.748c-1.014,0-2.013,0.057-3.004,0.139l12.019,62.215
		c0.637,3.294,2.721,6.252,5.48,8.254c13.112-5.625,22.299-18.644,22.299-33.815C110.228,455.22,93.755,438.748,73.436,438.748z"/>
	<path style="fill:#FFD553;" d="M85.377,354.201c0-20.32-16.473-36.791-36.792-36.791c-0.54,0-1.077,0.019-1.612,0.041
		l13.806,71.466C75.104,383.883,85.377,370.246,85.377,354.201z"/>
	<path style="fill:#FFD553;" d="M409.112,456.812c-20.32,0-36.792,16.472-36.792,36.791c0,6.703,1.801,12.984,4.934,18.397h39.09
		c6.105,0,12.047-4.905,13.204-10.898l6.323-32.734C429.164,461.257,419.661,456.812,409.112,456.812z"/>
	<path style="fill:#FFD553;" d="M456.271,329.171c-20.32,0-36.792,16.472-36.792,36.791c0,17.724,12.533,32.517,29.219,36.008
		l13.954-72.236C460.578,329.371,458.449,329.171,456.271,329.171z"/>
	<path style="fill:#FFD553;" d="M219.207,299.515c0,20.321,16.473,36.791,36.792,36.791s36.792-16.47,36.792-36.791H219.207z"/>
	<path style="fill:#FFD553;" d="M292.791,512c0-20.321-16.473-36.792-36.792-36.792S219.206,491.679,219.206,512H292.791z"/>
</g>
<path style="fill:#FF9596;" d="M426.153,148.243h-1.608c1.343-4.713,2.079-9.682,2.079-14.825c0-24.155-15.863-44.599-37.738-51.498
	c0.466-29.497-22.895-67.173-31.514-75.793c-8.169-8.171-21.418-8.171-29.588,0c-4.086,4.086-6.128,9.439-6.128,14.794
	c0,8.144-15.151,58.505-78.973,58.505H139.37c-29.818,0-53.992,24.173-53.992,53.992c0,5.143,0.734,10.113,2.077,14.825h-1.609
	c-29.818,0-53.992,24.172-53.992,53.992c0,29.818,24.173,53.99,53.992,53.99h340.306c29.818,0,53.992-24.173,53.992-53.99
	C480.144,172.415,455.971,148.243,426.153,148.243z"/>
<g>
	<path style="fill:#FFFFFF;" d="M92.244,230.739c-2.103,0-4.205-0.802-5.81-2.406c-3.209-3.209-3.209-8.413,0-11.622l22.803-22.805
		c3.21-3.209,8.412-3.209,11.622-0.001c3.209,3.209,3.209,8.413,0,11.622l-22.803,22.805
		C96.45,229.937,94.346,230.739,92.244,230.739z"/>
	<path style="fill:#FFFFFF;" d="M316.108,99.046c-2.103,0-4.206-0.802-5.81-2.407c-3.209-3.209-3.209-8.412,0-11.621L333.1,62.216
		c3.209-3.209,8.413-3.209,11.621,0c3.209,3.209,3.209,8.412,0,11.621L321.918,96.64C320.313,98.243,318.21,99.046,316.108,99.046z"
		/>
</g>
<g>
	<path style="fill:#FF6376;" d="M410.197,230.738c-2.103,0-4.206-0.802-5.81-2.407l-22.804-22.804
		c-3.209-3.209-3.209-8.413,0-11.621c3.209-3.209,8.413-3.209,11.622,0l22.804,22.804c3.209,3.209,3.209,8.413,0,11.621
		C414.403,229.936,412.301,230.738,410.197,230.738z"/>
	<path style="fill:#FF6376;" d="M154.752,167.862c-2.103,0-4.206-0.802-5.81-2.407l-22.803-22.804
		c-3.209-3.209-3.209-8.413,0-11.621c3.209-3.209,8.413-3.209,11.621,0l22.803,22.804c3.209,3.209,3.209,8.413,0,11.622
		C158.958,167.06,156.855,167.862,154.752,167.862z"/>
</g>
<path style="fill:#866539;" d="M197.451,214.708c-2.103,0-4.206-0.803-5.81-2.407c-3.209-3.209-3.209-8.412,0-11.621l22.803-22.804
	c3.209-3.209,8.413-3.209,11.622,0c3.209,3.209,3.209,8.412,0,11.622l-22.803,22.803
	C201.658,213.906,199.555,214.708,197.451,214.708z"/>
<path style="fill:#FFD553;" d="M199.798,141.637c-2.103,0-4.205-0.802-5.81-2.406c-3.209-3.209-3.209-8.413-0.001-11.622
	l22.803-22.805c3.21-3.209,8.412-3.209,11.622,0c3.209,3.209,3.209,8.413,0.001,11.622l-22.803,22.805
	C204.005,140.834,201.902,141.637,199.798,141.637z"/>
<path style="fill:#FF6376;" d="M292.791,164.438c-2.103,0-4.206-0.802-5.81-2.407l-22.803-22.803c-3.209-3.209-3.209-8.413,0-11.621
	c3.209-3.209,8.413-3.209,11.621,0l22.802,22.803c3.209,3.209,3.209,8.413,0,11.622
	C296.997,163.636,294.895,164.438,292.791,164.438z"/>
<path style="fill:#FFFFFF;" d="M383.722,153.038c-2.103,0-4.206-0.802-5.81-2.407l-22.803-22.804c-3.209-3.209-3.209-8.413,0-11.622
	c3.209-3.209,8.413-3.21,11.621,0l22.803,22.804c3.209,3.209,3.209,8.413,0,11.621C387.928,152.236,385.824,153.038,383.722,153.038
	z"/>
<path style="fill:#FFD553;" d="M285.308,230.738c-2.103,0-4.206-0.802-5.81-2.407c-3.209-3.209-3.209-8.413,0-11.621l22.804-22.804
	c3.209-3.209,8.413-3.209,11.622,0c3.209,3.209,3.209,8.413,0,11.621l-22.804,22.804
	C289.514,229.936,287.41,230.738,285.308,230.738z"/>
<g>
</g>
<g>
</g>
<g>
</g>
<g>
</g>
<g>
</g>
<g>
</g>
<g>
</g>
<g>
</g>
<g>
</g>
<g>
</g>
<g>
</g>
<g>
</g>
<g>
</g>
<g>
</g>
<g>
</g>
</svg>
