<?xml version="1.0" encoding="iso-8859-1"?>
<!-- Generator: Adobe Illustrator 19.0.0, SVG Export Plug-In . SVG Version: 6.00 Build 0)  -->
<svg version="1.1" id="Layer_1" xmlns="http://www.w3.org/2000/svg" xmlns:xlink="http://www.w3.org/1999/xlink" x="0px" y="0px"
	 viewBox="0 0 512.001 512.001" style="enable-background:new 0 0 512.001 512.001;" xml:space="preserve">
<path style="fill:#C3DDF7;" d="M393.398,79.334V12.27c0-6.748-5.521-12.27-12.27-12.27H130.873c-6.748,0-12.27,5.521-12.27,12.27
	v67.064H393.398z"/>
<g style="opacity:0.2;">
	<rect x="247.74" style="fill:#2F3953;" width="16.518" height="79.332"/>
	<rect x="198.747" style="fill:#2F3953;" width="16.518" height="79.332"/>
	<rect x="149.754" style="fill:#2F3953;" width="16.518" height="79.332"/>
	<rect x="296.733" style="fill:#2F3953;" width="16.518" height="79.332"/>
	<rect x="345.726" style="fill:#2F3953;" width="16.518" height="79.332"/>
</g>
<path style="fill:#C3DDF7;" d="M71.833,195.43v304.298c0,6.752,5.521,12.273,12.27,12.273h343.795
	c6.748,0,12.269-5.522,12.269-12.273V195.43H71.833z"/>
<polygon style="fill:#89AAED;" points="393.398,79.334 118.603,79.334 71.833,195.43 440.167,195.43 "/>
<path style="fill:#FFFFFF;" d="M356.636,432.773c0-6.19-5.064-11.256-11.254-11.256H166.618c-6.19,0-11.254,5.066-11.254,11.256
	v33.953c0,6.19,5.064,11.256,11.254,11.256h178.765c6.19,0,11.254-5.066,11.254-11.256v-33.953H356.636z"/>
<path style="fill:#FDBA55;" d="M324.241,401.609H187.759c-4.561,0-8.259-3.697-8.259-8.259s3.698-8.259,8.259-8.259h136.481
	c4.561,0,8.259,3.697,8.259,8.259C332.5,397.912,328.802,401.609,324.241,401.609z"/>
<g>
	<path style="fill:#3F4963;" d="M313.872,458.009H198.128c-4.561,0-8.259-3.697-8.259-8.259c0-4.562,3.698-8.259,8.259-8.259
		h115.743c4.561,0,8.259,3.697,8.259,8.259C322.131,454.312,318.433,458.009,313.872,458.009z"/>
	<path style="fill:#3F4963;" d="M405.271,108.808c-11.695,7.123-17.625,18.896-43.181,18.896c-33.765,0-39.767,42.202,4.5,42.202
		c22.934,0,41.86-7.521,59.881-8.471L405.271,108.808z"/>
	<path style="fill:#3F4963;" d="M170.468,116.05c-9.913-16.286-29.16-26.507-54.893-29.2l-24.47,60.742
		c12.598-5.057,26.154-7.726,36.598-0.594C150.773,162.755,186.224,141.936,170.468,116.05z"/>
	<path style="fill:#3F4963;" d="M214.832,120.696c-17.394,5.591-25.509,19.508-22.508,29.26c3.001,9.753,5.251,25.133,31.886,24.384
		c26.636-0.75,33.312-21.026,31.512-29.778C253.1,131.808,235.841,113.944,214.832,120.696z"/>
	<path style="fill:#3F4963;" d="M297.902,97.987c-20.509,5.464-25.831,25.771-11.787,34.769s31.098-11.066,41.132-15.079
		C337.279,113.664,332.262,88.831,297.902,97.987z"/>
	<path style="fill:#3F4963;" d="M90.708,350.404c-6.789-1.565-13.143-1.785-18.875-0.975v55.541
		c16.379,0.959,35.568-4.561,46.353-3.408C135.844,403.45,147.652,363.523,90.708,350.404z"/>
	<path style="fill:#3F4963;" d="M414.426,390.939c-24.439,7.855-35.842,27.409-31.626,41.112
		c4.217,13.704,7.378,35.313,44.802,34.26c4.604-0.129,8.78-0.677,12.566-1.557v-73.822
		C432.419,388.391,423.681,387.964,414.426,390.939z"/>
	<circle style="fill:#3F4963;" cx="136.088" cy="272.308" r="15.538"/>
	<circle style="fill:#3F4963;" cx="375.922" cy="272.308" r="15.538"/>
</g>
<g>
	<path style="fill:#FF9596;" d="M152.705,326.297h-33.247c-4.561,0-8.259-3.697-8.259-8.259s3.698-8.259,8.259-8.259h33.247
		c4.561,0,8.259,3.697,8.259,8.259C160.965,322.599,157.268,326.297,152.705,326.297z"/>
	<path style="fill:#FF9596;" d="M392.55,326.297h-33.247c-4.561,0-8.259-3.697-8.259-8.259s3.698-8.259,8.259-8.259h33.247
		c4.561,0,8.259,3.697,8.259,8.259C400.809,322.599,397.111,326.297,392.55,326.297z"/>
</g>
<g>
	<path style="fill:#3F4963;" d="M236.548,315.559c-15.283,0-27.716-12.433-27.716-27.715c0-4.562,3.698-8.259,8.259-8.259
		s8.259,3.697,8.259,8.259c0,6.174,5.024,11.197,11.198,11.197s11.198-5.023,11.198-11.197c0-4.562,3.698-8.259,8.259-8.259
		c4.561,0,8.259,3.697,8.259,8.259C264.264,303.126,251.83,315.559,236.548,315.559z"/>
	<path style="fill:#3F4963;" d="M275.461,315.559c-15.282,0-27.715-12.433-27.715-27.715c0-4.562,3.698-8.259,8.259-8.259
		c4.561,0,8.259,3.697,8.259,8.259c0,6.174,5.024,11.197,11.197,11.197c6.175,0,11.198-5.023,11.198-11.197
		c0-4.562,3.698-8.259,8.259-8.259c4.561,0,8.259,3.697,8.259,8.259C303.177,303.126,290.744,315.559,275.461,315.559z"/>
</g>
<g>
</g>
<g>
</g>
<g>
</g>
<g>
</g>
<g>
</g>
<g>
</g>
<g>
</g>
<g>
</g>
<g>
</g>
<g>
</g>
<g>
</g>
<g>
</g>
<g>
</g>
<g>
</g>
<g>
</g>
</svg>
