<?xml version="1.0" encoding="iso-8859-1"?>
<!-- Generator: Adobe Illustrator 19.0.0, SVG Export Plug-In . SVG Version: 6.00 Build 0)  -->
<svg version="1.1" id="Layer_1" xmlns="http://www.w3.org/2000/svg" xmlns:xlink="http://www.w3.org/1999/xlink" x="0px" y="0px"
	 viewBox="0 0 512 512" style="enable-background:new 0 0 512 512;" xml:space="preserve">
<path style="fill:#FFD553;" d="M69.986,457.08l-19.904-77.099L235.128,16.744C240.871,5.585,248.441,0.003,256.011,0
	c7.57,0.003,15.14,5.585,20.882,16.744l185.045,363.239l-19.902,77.099H69.986V457.08z"/>
<path style="fill:#FF6376;" d="M188.074,262.47c34.162,0,61.855-27.694,61.855-61.855s-27.694-61.855-61.855-61.855
	c-5.609,0-11.038,0.76-16.205,2.16l-41.612,81.684C139.125,245.905,161.659,262.47,188.074,262.47z M294.808,54.38
	c0-0.872-0.03-1.736-0.066-2.6l-17.849-35.037C271.151,5.585,263.581,0.003,256.011,0c-7.57,0.003-15.14,5.585-20.883,16.744
	l-42.885,84.184c10.88,9.523,25.116,15.308,40.711,15.308C267.115,116.234,294.808,88.541,294.808,54.38z M275.402,176.783
	c0,34.162,27.694,61.855,61.855,61.855c16.984,0,32.364-6.849,43.542-17.931l-53.478-104.975
	C297.885,120.487,275.402,146.006,275.402,176.783z M236.592,384.136c-34.162,0-61.854,27.694-61.854,61.855
	c0,3.788,0.359,7.489,1.011,11.089h121.688c0.652-3.6,1.01-7.301,1.01-11.089C298.446,411.83,270.752,384.136,236.592,384.136z
	 M130.023,273.296c-10.627,0-20.626,2.682-29.362,7.404l-31.93,62.677c4.025,30.27,29.923,53.629,61.293,53.629
	c34.163,0,61.855-27.694,61.855-61.855S164.185,273.296,130.023,273.296z M411.371,280.719c-8.745-4.733-18.757-7.422-29.399-7.422
	c-34.162,0-61.854,27.694-61.854,61.854c0,34.162,27.694,61.855,61.854,61.855c31.384,0,57.291-23.38,61.299-53.669L411.371,280.719
	z"/>
<path style="fill:#FDBA55;" d="M256.004,512c-0.004,0,0.002,0-0.003,0c-82.879,0-164.986-20.22-237.908-58.525
	c-4.64-2.437-4.622-6.238-3.468-8.257l35.438-65.236c62.779,34.103,133.992,52.129,205.942,52.129h-0.007
	c71.95,0,143.163-18.026,205.942-52.129l35.438,65.236c1.153,2.019,1.172,5.82-3.468,8.257C420.987,491.781,338.88,512,256,512
	c-0.006,0,0.001,0-0.003,0H256.004z"/>
<g>
	<circle style="fill:#3F4963;" cx="143.784" cy="313.277" r="14.541"/>
	<circle style="fill:#3F4963;" cx="368.208" cy="313.277" r="14.541"/>
</g>
<g>
	<path style="fill:#FF9596;" d="M159.343,364.356h-31.11c-4.578,0-8.289-3.711-8.289-8.289c0-4.578,3.711-8.29,8.289-8.29h31.109
		c4.578,0,8.289,3.711,8.289,8.29C167.632,360.645,163.921,364.356,159.343,364.356z"/>
	<path style="fill:#FF9596;" d="M383.762,364.356h-31.11c-4.578,0-8.289-3.711-8.289-8.289c0-4.578,3.711-8.29,8.289-8.29h31.11
		c4.578,0,8.289,3.711,8.289,8.29C392.052,360.645,388.34,364.356,383.762,364.356z"/>
</g>
<g>
	<path style="fill:#3F4963;" d="M237.791,354.31c-14.609,0-26.494-11.885-26.494-26.494c0-4.578,3.711-8.289,8.289-8.289
		c4.578,0,8.289,3.711,8.289,8.289c0,5.468,4.448,9.915,9.915,9.915c5.469,0,9.918-4.448,9.918-9.915
		c0-4.578,3.711-8.289,8.289-8.289s8.289,3.711,8.289,8.289C264.288,342.423,252.402,354.31,237.791,354.31z"/>
	<path style="fill:#3F4963;" d="M274.203,354.31c-14.609,0-26.494-11.885-26.494-26.494c0-4.578,3.711-8.289,8.289-8.289
		s8.289,3.711,8.289,8.289c0,5.468,4.448,9.915,9.915,9.915s9.916-4.448,9.916-9.915c0-4.578,3.711-8.289,8.289-8.289
		s8.289,3.711,8.289,8.289C300.698,342.423,288.812,354.31,274.203,354.31z"/>
</g>
<g>
</g>
<g>
</g>
<g>
</g>
<g>
</g>
<g>
</g>
<g>
</g>
<g>
</g>
<g>
</g>
<g>
</g>
<g>
</g>
<g>
</g>
<g>
</g>
<g>
</g>
<g>
</g>
<g>
</g>
</svg>
