<?xml version="1.0" encoding="iso-8859-1"?>
<!-- Generator: Adobe Illustrator 19.0.0, SVG Export Plug-In . SVG Version: 6.00 Build 0)  -->
<svg version="1.1" id="Layer_1" xmlns="http://www.w3.org/2000/svg" xmlns:xlink="http://www.w3.org/1999/xlink" x="0px" y="0px"
	 viewBox="0 0 512 512" style="enable-background:new 0 0 512 512;" xml:space="preserve">
<g>
	<path style="fill:#FDBA55;" d="M256.001,512c-4.467,0-8.086-3.62-8.086-8.086v-64.69c0-4.466,3.619-8.086,8.086-8.086
		s8.086,3.62,8.086,8.086v64.69C264.087,508.38,260.468,512,256.001,512z"/>
	<path style="fill:#FDBA55;" d="M210.258,493.052c-2.07,0-4.139-0.789-5.719-2.369c-3.158-3.158-3.158-8.278,0-11.435l45.743-45.742
		c3.159-3.159,8.278-3.158,11.436,0c3.158,3.158,3.158,8.278,0,11.436l-45.743,45.742
		C214.397,492.262,212.327,493.052,210.258,493.052z"/>
	<path style="fill:#FDBA55;" d="M230.843,506.911c-1.049,0-2.114-0.205-3.141-0.638c-4.114-1.736-6.042-6.48-4.306-10.594
		l25.154-59.599c1.737-4.114,6.48-6.041,10.594-4.305s6.042,6.48,4.306,10.594l-25.154,59.599
		C236.993,505.054,233.997,506.911,230.843,506.911z"/>
	<path style="fill:#FDBA55;" d="M301.744,493.052c-2.069,0-4.139-0.789-5.719-2.369l-45.743-45.742
		c-3.158-3.158-3.158-8.278,0-11.436c3.159-3.158,8.278-3.158,11.436,0l45.743,45.742c3.158,3.158,3.158,8.278,0,11.435
		C305.884,492.262,303.813,493.052,301.744,493.052z"/>
	<path style="fill:#FDBA55;" d="M281.159,506.911c-3.154,0-6.15-1.857-7.453-4.943l-25.154-59.599
		c-1.736-4.114,0.192-8.858,4.306-10.594c4.111-1.736,8.857,0.191,10.594,4.305l25.154,59.599c1.736,4.114-0.192,8.858-4.306,10.594
		C283.273,506.706,282.207,506.911,281.159,506.911z"/>
</g>
<path style="fill:#C3DDF7;" d="M347.85,231.824c-10.294-10.293-18.72-19.96-25.251-30.799H189.402
	c-6.53,10.84-14.957,20.506-25.251,30.799c-23.547,23.522-38.113,56.031-38.113,91.944c0,71.776,58.187,129.961,129.962,129.961
	s129.962-58.186,129.962-129.961C385.963,287.855,371.397,255.347,347.85,231.824z"/>
<path style="fill:#46C79C;" d="M305.957,127.313V22.349c0-5.273-4.315-9.588-9.589-9.588h-80.733c-5.274,0-9.588,4.315-9.588,9.588
	v104.964c0,33.732-5.611,55.398-16.645,73.712h133.198C311.568,182.712,305.957,161.045,305.957,127.313z"/>
<path style="fill:#65F7C4;" d="M278.392,201.025V9.589c0-5.274-4.315-9.589-9.589-9.589h-25.605c-5.274,0-9.589,4.315-9.589,9.589
	v191.436H278.392z"/>
<circle style="fill:#3F4963;" cx="182.88" cy="314.954" r="15.275"/>
<path style="fill:#FF9596;" d="M199.215,363.492h-32.682c-4.467,0-8.086-3.62-8.086-8.086c0-4.466,3.619-8.086,8.086-8.086h32.682
	c4.467,0,8.086,3.62,8.086,8.086C207.301,359.872,203.681,363.492,199.215,363.492z"/>
<circle style="fill:#3F4963;" cx="333.155" cy="314.954" r="15.275"/>
<path style="fill:#FF9596;" d="M349.493,363.492h-32.682c-4.467,0-8.086-3.62-8.086-8.086c0-4.466,3.619-8.086,8.086-8.086h32.682
	c4.466,0,8.086,3.62,8.086,8.086C357.579,359.872,353.959,363.492,349.493,363.492z"/>
<g>
	<path style="fill:#3F4963;" d="M242.828,350.497c-12.832,0-23.272-10.439-23.272-23.27c0-4.466,3.619-8.086,8.086-8.086
		c4.466,0,8.086,3.62,8.086,8.086c0,3.914,3.185,7.098,7.1,7.098c3.915,0,7.099-3.184,7.099-7.098c0-4.466,3.619-8.086,8.086-8.086
		c4.467,0,8.086,3.62,8.086,8.086C266.099,340.058,255.66,350.497,242.828,350.497z"/>
	<path style="fill:#3F4963;" d="M273.199,350.497c-12.832,0-23.272-10.439-23.272-23.27c0-4.466,3.619-8.086,8.086-8.086
		c4.467,0,8.086,3.62,8.086,8.086c0,3.914,3.185,7.098,7.1,7.098s7.099-3.184,7.099-7.098c0-4.466,3.619-8.086,8.086-8.086
		s8.086,3.62,8.086,8.086C296.47,340.058,286.03,350.497,273.199,350.497z"/>
</g>
<g>
</g>
<g>
</g>
<g>
</g>
<g>
</g>
<g>
</g>
<g>
</g>
<g>
</g>
<g>
</g>
<g>
</g>
<g>
</g>
<g>
</g>
<g>
</g>
<g>
</g>
<g>
</g>
<g>
</g>
</svg>
